#N canvas 336 215 457 728 10;
#X obj 60 48 cnv 15 86 41 empty 56-cfgbackgd-r empty 20 12 0 14 #fcfcfc
#202020 0;
#X floatatom 124 69 3 1 127 0 - - -, f 3;
#X dropdown 81 69 4 0 0 0 - - -, f 4;
#X symbolatom 81 51 7 0 0 0 - - -, f 7;
#N canvas 712 119 450 648 init_buttoncfg 0;
#X obj 68 43 \$1;
#X obj 119 322 tools/receiver;
#X floatatom 119 345 5 0 0 0 - - -, f 5;
#X floatatom 33 82 5 0 0 0 - - -, f 5;
#X msg 116 132 \$1 vol;
#X msg 119 299 \$1-track\$2-s;
#X obj 119 368 s;
#X msg 100 154 \$1 pan;
#X msg 85 176 \$1 bars;
#X msg 69 199 \$1 output;
#X msg 132 113 \$1 name;
#X obj 68 448 s;
#X obj 68 248 t a a a a;
#X msg 85 394 symbol \$1-track\$2-r;
#X msg 68 418 bang;
#X obj 68 17 inlet;
#X obj 68 91 t f f f f f b f;
#X obj 399 141 s initbang-buttoncfg-r;
#X msg 399 110 receive \$1-initbang-buttoncfg-r;
#X msg 145 274 symbol \$1-\$2cfg-r;
#X text 79 230 initiate values:;
#X obj 68 67 t f f;
#X msg 309 222 \$1 vol;
#X obj 295 414 s;
#X msg 293 244 \$1 pan;
#X msg 278 266 \$1 bars;
#X msg 262 289 \$1 output;
#X msg 325 203 \$1 name;
#X obj 261 338 t a a a a;
#X text 272 320 rename elements:;
#X obj 261 91 t f f f f f f f f;
#X msg 345 128 \$1 play;
#X msg 335 163 \$1 stop;
#X msg 321 364 symbol \$2cfg-r;
#X msg 295 389 send \$1-\$2cfg-s \, receive \$1-\$2cfg-r;
#X connect 0 0 3 0;
#X connect 0 0 21 0;
#X connect 1 0 2 0;
#X connect 2 0 6 0;
#X connect 4 0 12 0;
#X connect 5 0 1 0;
#X connect 7 0 12 0;
#X connect 8 0 12 0;
#X connect 9 0 12 0;
#X connect 10 0 12 0;
#X connect 12 0 14 0;
#X connect 12 1 13 0;
#X connect 12 2 5 0;
#X connect 12 3 19 0;
#X connect 13 0 11 1;
#X connect 14 0 11 0;
#X connect 15 0 0 0;
#X connect 16 0 9 0;
#X connect 16 1 8 0;
#X connect 16 2 7 0;
#X connect 16 3 4 0;
#X connect 16 4 10 0;
#X connect 18 0 17 0;
#X connect 19 0 6 1;
#X connect 21 0 16 0;
#X connect 21 1 30 0;
#X connect 22 0 28 0;
#X connect 24 0 28 0;
#X connect 25 0 28 0;
#X connect 26 0 28 0;
#X connect 27 0 28 0;
#X connect 28 2 34 0;
#X connect 28 3 33 0;
#X connect 30 0 26 0;
#X connect 30 1 25 0;
#X connect 30 2 24 0;
#X connect 30 3 22 0;
#X connect 30 4 27 0;
#X connect 30 5 32 0;
#X connect 30 6 31 0;
#X connect 30 7 18 0;
#X connect 31 0 28 0;
#X connect 32 0 28 0;
#X connect 33 0 23 1;
#X connect 34 0 23 0;
#X restore 531 26 pd init_buttoncfg;
#X obj 208 70 \$1;
#X obj 203 13 bng 15 250 50 0 empty initbang-buttoncfg-r initbang-buttoncfg
17 7 0 10 #fcfcfc #000000 #000000;
#X obj 204 36 t b b;
#X obj 139 11 loadbang;
#X floatatom 484 42 5 0 0 0 - - -, f 5;
#X msg 391 445 \$1 vol;
#X obj 391 472 t a b a;
#X obj 468 308 t a b a;
#X msg 468 281 \$1 pan;
#X obj 300 270 s;
#X obj 334 199 tools/receiver;
#X obj 315 148 t a b a;
#X msg 315 121 \$1 name;
#X obj 147 597 s;
#X obj 201 525 tools/receiver;
#X obj 162 475 t a b a;
#X msg 162 448 \$1 bars;
#X obj 254 453 s;
#X obj 285 392 tools/receiver;
#X msg 238 294 \$1 output;
#X obj 621 301 s initbang-buttoncfg-r;
#X obj 238 321 t b b a b a;
#X text 531 5 obsolete:;
#X msg 621 270 label \$1-initbang-buttoncfg \, receive \$1-initbang-buttoncfg-r
;
#X obj 128 52 bng 15 250 50 0 empty empty C 4 6 0 10 #fcfcfc #000000
#fc0000;
#X obj 528 166 s;
#X msg 389 509 send \$1-\$2cfg-s \, receive \$1-\$2cfg-r;
#X obj 389 534 s \$0-volcfg-r;
#X msg 471 354 send \$1-\$2cfg-s \, receive \$1-\$2cfg-r;
#X obj 471 379 s \$0-pancfg-r;
#X msg 354 174 \$1-\$2cfg-r;
#X msg 301 367 \$1-\$2cfg-r;
#X msg 315 245 symbol \$1-\$2cfg-s;
#X msg 162 572 symbol \$1-\$2cfg-s;
#X msg 201 501 \$1-\$2cfg-r;
#X msg 269 428 symbol \$1-\$2cfg-s;
#X obj 162 95 t f f f f f f f f, f 90;
#X msg 699 133 receive \$1-cfgbackgd-r;
#X obj 699 158 s \$0-cfgbackgd-r;
#X msg 544 137 symbol \$1-clear;
#X msg 238 365 set 0;
#X floatatom 63 52 2 0 0 0 - - -, f 2;
#X floatatom 63 69 2 0 0 0 - - -, f 2;
#X obj 32 118 cnv 15 64 44 empty empty empty 20 12 0 14 #a0a0a0 #202020
0;
#X dropdown 56 142 1 0 0 0 - - -, f 1;
#X symbolatom 56 122 6 0 0 0 - - -, f 6;
#X floatatom 75 142 3 1 127 0 - - -, f 3;
#X obj 56 142 cnv 15 16 16 empty empty empty 20 12 0 14 #000000 #404040
0;
#X obj 57 143 cnv 14 14 14 empty empty ≣ 1 3 1 14 #e8e8e8 #404040
0;
#X obj 73 142 cnv 1 1 16 empty empty empty 20 12 0 14 #989898 #404040
0;
#X msg 285 343 names 1 2 3 4 5 6 7 8;
#X obj 94 141 cnv 2 2 20 empty empty empty 20 12 0 14 #989898 #404040
0;
#X obj 36 142 hsl 11 16 0 127 0 0 \$0-pancfg-s \$0-pancfg-r P 5 7 0
10 #fcfcfc #000000 #000000 0 1;
#X obj 36 122 vsl 16 11 0 127 0 0 \$0-volcfg-s \$0-volcfg-r V 4 5 0
10 #fcfcfc #000000 #000000 0 1;
#X connect 1 0 18 0;
#X connect 2 0 22 0;
#X connect 3 0 14 0;
#X connect 5 0 9 0;
#X connect 5 0 41 0;
#X connect 6 0 7 0;
#X connect 7 0 5 0;
#X connect 10 0 11 0;
#X connect 11 2 31 0;
#X connect 12 2 33 0;
#X connect 13 0 12 0;
#X connect 15 0 50 0;
#X connect 15 0 3 0;
#X connect 16 0 37 0;
#X connect 16 2 35 0;
#X connect 17 0 16 0;
#X connect 19 0 1 0;
#X connect 19 0 51 0;
#X connect 20 0 38 0;
#X connect 20 2 39 0;
#X connect 21 0 20 0;
#X connect 23 0 2 0;
#X connect 23 0 49 0;
#X connect 24 0 26 0;
#X connect 26 0 45 0;
#X connect 26 2 40 0;
#X connect 26 3 55 0;
#X connect 26 4 36 0;
#X connect 28 0 25 0;
#X connect 29 0 30 0;
#X connect 31 0 32 0;
#X connect 33 0 34 0;
#X connect 35 0 15 0;
#X connect 36 0 23 0;
#X connect 37 0 14 1;
#X connect 38 0 18 1;
#X connect 39 0 19 0;
#X connect 40 0 22 1;
#X connect 41 0 21 0;
#X connect 41 1 24 0;
#X connect 41 2 17 0;
#X connect 41 3 10 0;
#X connect 41 4 13 0;
#X connect 41 5 44 0;
#X connect 41 6 28 0;
#X connect 41 7 42 0;
#X connect 42 0 43 0;
#X connect 44 0 30 1;
#X connect 45 0 2 0;
#X connect 45 0 49 0;
#X connect 49 0 22 0;
#X connect 50 0 14 0;
#X connect 51 0 18 0;
#X connect 55 0 2 0;
#X connect 55 0 49 0;
#X coords 0 -1 1 1 64 44 2 32 118;
