#N canvas 438 238 814 614 10;
#X obj 73 63 cnv 15 20 22 empty \$0-UIbackgd-r empty 20 12 0 14 -233017
-66577 0;
#X obj 73 44 cnv 15 86 18 empty \$0-UIbackgd-r empty 20 12 0 14 -233017
-66577 0;
#X obj 76 65 bng 16 250 50 0 \$0-stopUI-s \$0-stopUI-r S 4 6 0 10 -262144
-1 -1;
#X obj 76 47 tgl 16 0 \$0-recUI-s \$0-recUI-r R 4 6 0 10 -262144 -258049
-176129 0 1;
#X obj 94 47 cnv 10 44 15 empty \$0-nameUI-r symbol 1 6 0 10 -233017
-66577 0;
#X floatatom 168 48 3 0 0 0 - - -, f 3;
#X obj 248 55 bng 15 250 50 0 empty buttonguibang-r buttonguibang 17
7 0 10 -262144 -1 -1;
#X obj 248 79 \$1;
#X obj 281 238 s buttonguibang-r;
#X msg 281 213 receive \$1-buttonguibang-r;
#X obj 249 32 s buttonguibang-r;
#X obj 250 3 bng 15 250 50 0 empty empty empty 17 7 0 10 -262144 -1
-1;
#N canvas 731 372 450 373 gradarray-init 0;
#X msg 289 28 32;
#X obj 289 55 array size gradarray;
#X obj 205 125 int;
#X floatatom 205 144 5 0 0 0 - - -, f 5;
#X obj 222 57 pack f f;
#X obj 204 95 expr $f2 / $f1;
#X msg 219 3 4;
#X obj 167 4 inlet;
#X text 27 4 number of bars to show;
#X msg 348 119 \; \$2 const \$1;
#X obj 287 6 t f b f f;
#X obj 208 170 pack f f;
#X msg 205 195 \; grad\$2 xticks 0 \$1 1;
#X msg 433 47 \; grad\$0 rename grad\$1;
#X msg 348 90 -1 grad\$1;
#X obj 296 -16 inlet;
#X connect 0 0 4 1;
#X connect 2 0 3 0;
#X connect 3 0 11 0;
#X connect 4 0 5 0;
#X connect 5 0 2 0;
#X connect 6 0 4 0;
#X connect 7 0 4 0;
#X connect 10 0 11 1;
#X connect 10 1 0 0;
#X connect 10 2 14 0;
#X connect 10 3 13 0;
#X connect 11 0 12 0;
#X connect 14 0 9 0;
#X connect 15 0 10 0;
#X restore 114 264 pd gradarray-init;
#X obj 114 239 tools/receiver;
#X msg 129 217 \$1-trackbars-s;
#X obj 69 139 t f f f f, f 71;
#X msg 84 293 \$1-trackname-s;
#X obj 69 318 tools/receiver;
#X obj 69 170 t b f f b f f;
#X msg 69 347 label \$1;
#X msg 528 289 send \$1-stopUI-s \, receive \$1-stopUI-r;
#X msg 545 244 send \$1-recUI-s \, receive \$1-recUI-r;
#X msg 559 195 send \$1-playUI-s \, receive \$1-playUI-r;
#X obj 485 172 t b f f f f f;
#X obj 69 372 s tracknameUI-r;
#X obj 304 166 t f f;
#X msg 329 191 label \$1-buttonguibang;
#X obj 559 218 s \$0-playUI-r;
#X obj 545 267 s \$0-recUI-r;
#X obj 528 312 s \$0-stopUI-r;
#X obj 512 368 s \$0-nameUI-r;
#X msg 513 342 receive \$1-nameUI-r;
#X obj 93 84 cnv 1 66 1 empty \$0-UIbackgd-r empty 20 12 0 14 -233017
-66577 0;
#X obj 158 62 cnv 1 1 22 empty \$0-UIbackgd-r empty 20 12 0 14 -233017
-66577 0;
#X msg 210 395 receive \$1-UIbackgd-r;
#X obj 210 420 s \$0-UIbackgd-r;
#X connect 6 0 7 0;
#X connect 7 0 5 0;
#X connect 7 0 15 0;
#X connect 9 0 8 0;
#X connect 11 0 10 0;
#X connect 13 0 12 0;
#X connect 14 0 13 0;
#X connect 15 1 34 0;
#X connect 15 2 25 0;
#X connect 15 3 23 0;
#X connect 16 0 17 0;
#X connect 17 0 19 0;
#X connect 18 0 17 0;
#X connect 18 1 16 0;
#X connect 18 3 13 0;
#X connect 18 4 14 0;
#X connect 18 5 12 1;
#X connect 19 0 24 0;
#X connect 20 0 29 0;
#X connect 21 0 28 0;
#X connect 22 0 27 0;
#X connect 23 2 31 0;
#X connect 23 3 20 0;
#X connect 23 4 21 0;
#X connect 25 0 9 0;
#X connect 25 1 26 0;
#X connect 26 0 8 0;
#X connect 31 0 30 0;
#X connect 34 0 35 0;
#X coords 0 -1 1 1 86 41 2 73 44;
