#N canvas 313 24 737 559 10;
#X obj 60 48 cnv 15 86 41 empty 56-cfgbackgd-r empty 20 12 0 14 -262144
-33289 0;
#X floatatom 124 69 3 1 127 0 - - -, f 3;
#X dropdown 81 69 4 0 0 0 - - -, f 4;
#X obj 63 51 moonlib/mknob 16 64 0 127 0 0 \$0-volcfg-s \$0-volcfg-r
empty 5 7 0 11 -199729 -1 -253822 3472 0;
#X obj 63 69 moonlib/mknob 16 64 0 127 0 1 \$0-pancfg-s \$0-pancfg-r
P 5 7 0 11 -170602 -1 -249661 3423 0;
#X symbolatom 81 51 7 0 0 0 - - -, f 7;
#N canvas 712 119 450 648 init_buttoncfg 0;
#X obj 68 43 \$1;
#X obj 119 322 tools/receiver;
#X floatatom 119 345 5 0 0 0 - - -, f 5;
#X floatatom 33 82 5 0 0 0 - - -, f 5;
#X msg 116 132 \$1 vol;
#X msg 119 299 \$1-track\$2-s;
#X obj 119 368 s;
#X msg 100 154 \$1 pan;
#X msg 85 176 \$1 bars;
#X msg 69 199 \$1 output;
#X msg 132 113 \$1 name;
#X obj 68 448 s;
#X obj 68 248 t a a a a;
#X msg 85 394 symbol \$1-track\$2-r;
#X msg 68 418 bang;
#X obj 68 17 inlet;
#X obj 68 91 t f f f f f b f;
#X obj 399 141 s initbang-buttoncfg-r;
#X msg 399 110 receive \$1-initbang-buttoncfg-r;
#X msg 145 274 symbol \$1-\$2cfg-r;
#X text 79 230 initiate values:;
#X obj 68 67 t f f;
#X msg 309 222 \$1 vol;
#X obj 295 414 s;
#X msg 293 244 \$1 pan;
#X msg 278 266 \$1 bars;
#X msg 262 289 \$1 output;
#X msg 325 203 \$1 name;
#X obj 261 338 t a a a a;
#X text 272 320 rename elements:;
#X obj 261 91 t f f f f f f f f;
#X msg 345 128 \$1 play;
#X msg 335 163 \$1 stop;
#X msg 321 364 symbol \$2cfg-r;
#X msg 295 389 send \$1-\$2cfg-s \, receive \$1-\$2cfg-r;
#X connect 0 0 3 0;
#X connect 0 0 21 0;
#X connect 1 0 2 0;
#X connect 2 0 6 0;
#X connect 4 0 12 0;
#X connect 5 0 1 0;
#X connect 7 0 12 0;
#X connect 8 0 12 0;
#X connect 9 0 12 0;
#X connect 10 0 12 0;
#X connect 12 0 14 0;
#X connect 12 1 13 0;
#X connect 12 2 5 0;
#X connect 12 3 19 0;
#X connect 13 0 11 1;
#X connect 14 0 11 0;
#X connect 15 0 0 0;
#X connect 16 0 9 0;
#X connect 16 1 8 0;
#X connect 16 2 7 0;
#X connect 16 3 4 0;
#X connect 16 4 10 0;
#X connect 18 0 17 0;
#X connect 19 0 6 1;
#X connect 21 0 16 0;
#X connect 21 1 30 0;
#X connect 22 0 28 0;
#X connect 24 0 28 0;
#X connect 25 0 28 0;
#X connect 26 0 28 0;
#X connect 27 0 28 0;
#X connect 28 2 34 0;
#X connect 28 3 33 0;
#X connect 30 0 26 0;
#X connect 30 1 25 0;
#X connect 30 2 24 0;
#X connect 30 3 22 0;
#X connect 30 4 27 0;
#X connect 30 5 32 0;
#X connect 30 6 31 0;
#X connect 30 7 18 0;
#X connect 31 0 28 0;
#X connect 32 0 28 0;
#X connect 33 0 23 1;
#X connect 34 0 23 0;
#X restore 531 26 pd init_buttoncfg;
#X floatatom 45 108 5 0 0 0 - - -, f 5;
#X floatatom 44 137 5 0 0 0 - - -, f 5;
#X obj 208 70 \$1;
#X obj 203 13 bng 15 250 50 0 empty initbang-buttoncfg-r initbang-buttoncfg
17 7 0 10 -262144 -1 -1;
#X obj 204 36 t b b;
#X obj 139 11 loadbang;
#X floatatom 484 42 5 0 0 0 - - -, f 5;
#X msg 391 445 \$1 vol;
#X obj 391 472 t a b a;
#X obj 468 308 t a b a;
#X msg 468 281 \$1 pan;
#X obj 300 270 s;
#X obj 334 199 tools/receiver;
#X obj 315 148 t a b a;
#X msg 315 121 \$1 name;
#X obj 147 597 s;
#X obj 201 525 tools/receiver;
#X obj 162 475 t a b a;
#X msg 162 448 \$1 bars;
#X obj 254 483 s;
#X obj 285 392 tools/receiver;
#X msg 238 294 \$1 output;
#X obj 621 301 s initbang-buttoncfg-r;
#X msg 285 343 names 1_2 3_4 5_6 7_8 9_10 11_12;
#X obj 238 321 t b b a b a;
#X text 531 5 obsolete:;
#X msg 621 270 label \$1-initbang-buttoncfg \, receive \$1-initbang-buttoncfg-r
;
#X obj 128 52 bng 15 250 50 0 empty empty C 4 6 0 10 -262144 -1 -258049
;
#X obj 528 166 s;
#X msg 389 509 send \$1-\$2cfg-s \, receive \$1-\$2cfg-r;
#X obj 389 534 s \$0-volcfg-r;
#X msg 471 354 send \$1-\$2cfg-s \, receive \$1-\$2cfg-r;
#X obj 471 379 s \$0-pancfg-r;
#X msg 354 174 \$1-\$2cfg-r;
#X msg 301 367 \$1-\$2cfg-r;
#X msg 315 245 symbol \$1-\$2cfg-s;
#X msg 162 572 symbol \$1-\$2cfg-s;
#X msg 201 501 \$1-\$2cfg-r;
#X msg 269 458 symbol \$1-\$2cfg-s;
#X obj 162 95 t f f f f f f f f, f 90;
#X msg 699 133 receive \$1-cfgbackgd-r;
#X obj 699 158 s \$0-cfgbackgd-r;
#X msg 544 137 symbol \$1-clear;
#X msg 238 365 set 0;
#X connect 1 0 22 0;
#X connect 2 0 26 0;
#X connect 3 0 7 0;
#X connect 4 0 8 0;
#X connect 5 0 18 0;
#X connect 9 0 13 0;
#X connect 9 0 46 0;
#X connect 10 0 11 0;
#X connect 11 0 9 0;
#X connect 14 0 15 0;
#X connect 15 2 36 0;
#X connect 16 2 38 0;
#X connect 17 0 16 0;
#X connect 19 0 5 0;
#X connect 20 0 42 0;
#X connect 20 2 40 0;
#X connect 21 0 20 0;
#X connect 23 0 1 0;
#X connect 24 0 43 0;
#X connect 24 2 44 0;
#X connect 25 0 24 0;
#X connect 27 0 2 0;
#X connect 28 0 31 0;
#X connect 30 0 2 0;
#X connect 31 0 50 0;
#X connect 31 2 45 0;
#X connect 31 3 30 0;
#X connect 31 4 41 0;
#X connect 33 0 29 0;
#X connect 34 0 35 0;
#X connect 36 0 37 0;
#X connect 38 0 39 0;
#X connect 40 0 19 0;
#X connect 41 0 27 0;
#X connect 42 0 18 1;
#X connect 43 0 22 1;
#X connect 44 0 23 0;
#X connect 45 0 26 1;
#X connect 46 0 25 0;
#X connect 46 1 28 0;
#X connect 46 2 21 0;
#X connect 46 3 14 0;
#X connect 46 4 17 0;
#X connect 46 5 49 0;
#X connect 46 6 33 0;
#X connect 46 7 47 0;
#X connect 47 0 48 0;
#X connect 49 0 35 1;
#X connect 50 0 2 0;
#X coords 0 -1 1 1 86 41 2 60 48;
