#N canvas 51 24 812 718 10;
#X obj 529 258 cnv 15 105 55 empty button_color-\$0 empty 0 0 0 10
-191407 -33289 0;
#X obj 268 -303 cnv 15 163 151 empty empty empty 20 12 0 14 -233017
-66577 0;
#X floatatom 293 -221 4 0 0 0 Num - -, f 4;
#X floatatom 708 264 4 1 127 0 - #0-barrec-r #0-barrec-s, f 4;
#X floatatom 85 52 5 0 0 0 - - -, f 5;
#X text 87 153 0 off \; 1 for play \; 2 for play queue \; 3 for
rec \; 4 for rec queue \; 5 for stop \; 6 for stop queue;
#X floatatom 297 11 5 0 0 0 - - -, f 5;
#N canvas 720 31 591 719 rec_sample_queue 0;
#X obj 73 51 inlet;
#X text 109 52 beat number;
#X obj 224 49 inlet;
#X text 266 51 rec toggle;
#X obj 356 46 inlet;
#X text 397 45 duration;
#X obj 59 554 outlet;
#X text 101 555 status number;
#X obj 261 554 outlet;
#X text 308 556 start;
#X obj 384 552 outlet;
#X text 432 552 stop;
#X obj 128 222 spigot;
#X obj 128 153 select 0;
#X obj 128 178 bng 15 250 50 0 empty empty empty 17 7 0 10 -262144
-1 -1;
#X obj 195 413 bng 15 250 50 0 empty empty empty 17 7 0 10 -262144
-1 -1;
#X obj 264 149 == 0;
#X obj 319 243 spigot;
#X obj 128 198 t b b;
#X obj 296 409 bng 15 250 50 0 empty empty empty 17 7 0 10 -262144
-1 -1;
#X floatatom 118 316 5 0 0 0 - - -, f 5;
#X obj 144 286 + 1;
#X obj 118 286 f 1;
#X obj 118 366 <;
#X obj 117 390 select 0;
#X obj 118 342 t f f;
#X obj 272 435 f 0;
#X obj 161 343 - 0.5;
#X obj 277 356 change;
#X obj 128 244 t b b b 3;
#X floatatom 235 315 5 0 0 0 - - -, f 5;
#X floatatom 380 405 5 0 0 0 - - -, f 5;
#X obj 230 349 bng 15 250 50 0 empty empty empty 17 7 0 10 -262144
-1 -1;
#X obj 111 245 bng 15 250 50 0 empty empty empty 17 7 0 10 -262144
-1 -1;
#X msg 79 250 0;
#X obj 197 156 t f f;
#X obj 214 189 select 1;
#X obj 289 189 select 1;
#X obj 290 169 t f f;
#X obj 196 278 bng 15 250 50 0 empty empty empty 17 7 0 10 -262144
-1 -1;
#X obj 199 218 bng 15 250 50 0 empty empty empty 17 7 0 10 -262144
-1 -1;
#X obj 266 244 bng 15 250 50 0 empty empty empty 17 7 0 10 -262144
-1 -1;
#X obj 325 299 bng 15 250 50 0 empty empty empty 17 7 0 10 -262144
-1 -1;
#X msg 297 298 \$1;
#X msg 282 243 \$1;
#X msg 215 245 4;
#X msg 211 278 \$1;
#X obj 280 379 select 3 4 5 6;
#X obj 225 397 t b b;
#X obj 289 213 t 1 6;
#X text 326 208 stop queue is not used when recording, f 19;
#X obj 215 217 t b b;
#X obj 318 268 t b b 5;
#X obj 193 556 outlet;
#X text 194 576 rec queue;
#X obj 193 525 bng 15 250 50 0 empty empty empty 17 7 0 10 -262144
-1 -1;
#X connect 0 0 13 0;
#X connect 2 0 35 0;
#X connect 2 0 16 0;
#X connect 4 0 27 0;
#X connect 12 0 29 0;
#X connect 12 0 33 0;
#X connect 13 0 14 0;
#X connect 14 0 18 0;
#X connect 15 0 8 0;
#X connect 16 0 38 0;
#X connect 17 0 52 0;
#X connect 18 0 12 0;
#X connect 18 1 17 0;
#X connect 19 0 26 0;
#X connect 19 0 10 0;
#X connect 20 0 25 0;
#X connect 21 0 22 1;
#X connect 22 0 21 0;
#X connect 22 0 20 0;
#X connect 23 0 24 0;
#X connect 24 0 52 0;
#X connect 25 0 23 0;
#X connect 27 0 23 1;
#X connect 28 0 47 0;
#X connect 29 2 22 0;
#X connect 29 3 46 0;
#X connect 29 3 39 0;
#X connect 30 0 32 0;
#X connect 30 0 28 0;
#X connect 30 0 6 0;
#X connect 34 0 22 1;
#X connect 35 0 12 1;
#X connect 35 1 36 0;
#X connect 36 0 40 0;
#X connect 36 0 51 0;
#X connect 38 0 37 0;
#X connect 38 1 17 1;
#X connect 43 0 30 0;
#X connect 44 0 30 0;
#X connect 45 0 30 0;
#X connect 46 0 30 0;
#X connect 47 0 48 0;
#X connect 47 1 55 0;
#X connect 47 2 19 0;
#X connect 47 4 31 0;
#X connect 48 0 15 0;
#X connect 48 1 34 0;
#X connect 49 0 17 1;
#X connect 49 1 44 0;
#X connect 49 1 41 0;
#X connect 51 0 45 0;
#X connect 52 2 43 0;
#X connect 52 2 42 0;
#X connect 55 0 53 0;
#X restore 48 -39 pd rec_sample_queue;
#X msg 141 44 start;
#X msg 252 54 stop;
#X obj 111 3 t b b;
#X floatatom 392 -32 5 0 0 0 status - -, f 5;
#X obj 26 -140 r beat_num;
#X obj 297 -18 r tempo_ms;
#X obj 381 -142 r beat_num;
#N canvas 110 36 865 711 rec_samples 0;
#X obj 245 29 inlet;
#X obj 96 29 inlet;
#X text 137 31 start;
#X obj 177 28 inlet;
#X text 207 30 stop;
#X obj 224 517 outlet;
#X obj 190 89 bng 15 250 50 0 empty empty empty 17 7 0 10 -262144 -1
-1;
#X obj 231 401 * 127;
#X obj 231 426 /;
#X text 271 517 % of number of samples elapsed out of 127;
#X text 29 371 update progress bar as per metro;
#X msg 165 313 0;
#X msg 143 188 stop;
#X text 287 31 array to write;
#X obj 420 33 inlet;
#X text 459 32 duration;
#X obj 530 33 inlet;
#X text 571 34 tempo_ms;
#X obj 449 200 array size \$1;
#X obj 455 161 f \$1;
#X obj 678 203 print resizing array;
#N canvas 673 359 579 372 expected_samples 0;
#X obj 239 228 outlet;
#X text 287 228 duration in samples of the expected recording;
#X obj 316 94 samplerate~;
#X obj 263 125 * 4;
#X obj 265 156 *;
#X obj 263 181 / 1000;
#X text 315 186 expected duration in s;
#X obj 262 205 *;
#X floatatom 220 208 6 0 0 0 - - -, f 6;
#X floatatom 457 187 6 0 0 0 - - -, f 6;
#X obj 315 73 bng 15 250 50 0 empty empty empty 17 7 0 10 -262144 -1
-1;
#X floatatom 198 149 5 0 0 0 - - -, f 5;
#X floatatom 198 173 5 0 0 0 - - -, f 5;
#X text 323 25 tempo in ms as inlet;
#X obj 244 26 inlet;
#X obj 137 25 inlet;
#X text 173 25 duration;
#X text 290 123 hardcoded number of beats per bar!;
#X obj 478 23 inlet;
#X text 516 27 beats per bar;
#X obj 450 213 outlet;
#X text 492 209 duration in s;
#X obj 316 50 r \$0-loadnum;
#X connect 2 0 7 1;
#X connect 3 0 4 0;
#X connect 3 0 11 0;
#X connect 4 0 5 0;
#X connect 4 0 12 0;
#X connect 5 0 7 0;
#X connect 5 0 9 0;
#X connect 7 0 8 0;
#X connect 8 0 0 0;
#X connect 9 0 20 0;
#X connect 10 0 2 0;
#X connect 14 0 4 1;
#X connect 15 0 3 0;
#X connect 18 0 3 1;
#X connect 22 0 10 0;
#X restore 479 108 pd expected_samples;
#X text 596 92 beats per bar;
#X obj 689 459 tabwrite~;
#X obj 350 64 t s s s;
#X obj 102 60 t b b b;
#X msg 204 136 start;
#X msg 402 136 set \$1;
#X obj 270 321 + 1;
#X obj 226 321 f 1;
#X obj 228 347 * 0.1;
#X floatatom 228 372 5 0 0 0 - - -, f 5;
#X text 267 372 seconds elapsed;
#X obj 235 245 bng 15 250 50 0 empty empty empty 17 7 0 10 -262144
-1 -1;
#X floatatom 371 377 5 0 0 0 - - -, f 5;
#X floatatom 302 420 5 0 0 0 - - -, f 5;
#X floatatom 535 68 5 0 0 0 - - -, f 5;
#X floatatom 451 77 5 0 0 0 - - -, f 5;
#X obj 665 34 inlet~;
#X obj 738 32 inlet~;
#X obj 224 290 metro 100;
#X obj 307 321 / 1000;
#X msg 296 257 100;
#X text 522 366 adjust graduations sur array;
#X obj 476 132 t f f;
#X obj 522 234 /;
#X obj 420 56 t f f;
#X floatatom 596 265 5 0 0 0 - - -, f 5;
#X obj 431 382 print arrpack;
#X msg 341 169 0;
#X text 322 255 <-- define slider update freq, f 13;
#X msg 520 332 \; \$2 xticks 0 \$1 1;
#X msg 575 199 96000;
#X obj 485 291 pack f s;
#X obj 485 264 change;
#X msg 583 230 symbol voice0;
#X obj 277 129 r \$0-loadnum;
#X obj 277 154 bng 15 250 50 0 empty empty empty 17 7 0 10 -262144
-1 -1;
#X obj 293 239 bng 15 250 50 0 empty empty empty 17 7 0 10 -262144
-1 -1;
#X obj 293 214 r \$0-loadnum;
#X obj 11 28 inlet;
#X text 46 28 rec queue bang, f 5;
#X obj 22 84 bng 15 250 50 0 empty empty empty 17 7 0 10 -262144 -1
-1;
#X obj 27 167 \$1;
#X obj 27 192 s \$1-recstart;
#X connect 0 0 24 0;
#X connect 1 0 25 0;
#X connect 3 0 12 0;
#X connect 7 0 8 0;
#X connect 7 0 35 0;
#X connect 8 0 5 0;
#X connect 11 0 5 0;
#X connect 11 0 29 0;
#X connect 11 0 31 0;
#X connect 12 0 11 0;
#X connect 12 0 23 0;
#X connect 12 0 40 0;
#X connect 14 0 46 0;
#X connect 16 0 36 0;
#X connect 18 0 23 0;
#X connect 19 0 18 0;
#X connect 19 0 20 0;
#X connect 21 0 44 0;
#X connect 21 1 34 0;
#X connect 24 0 53 1;
#X connect 24 1 27 0;
#X connect 24 2 18 1;
#X connect 25 0 6 0;
#X connect 25 1 63 0;
#X connect 25 2 26 0;
#X connect 26 0 23 0;
#X connect 26 0 33 0;
#X connect 27 0 23 0;
#X connect 28 0 29 1;
#X connect 29 0 28 0;
#X connect 29 0 30 0;
#X connect 30 0 31 0;
#X connect 31 0 7 0;
#X connect 33 0 40 0;
#X connect 34 0 8 1;
#X connect 36 0 21 1;
#X connect 37 0 21 0;
#X connect 38 0 23 0;
#X connect 39 0 23 0;
#X connect 40 0 29 0;
#X connect 41 0 30 1;
#X connect 42 0 40 1;
#X connect 42 0 41 0;
#X connect 44 0 45 0;
#X connect 44 1 19 1;
#X connect 45 0 47 0;
#X connect 45 0 54 0;
#X connect 46 0 45 1;
#X connect 46 1 37 0;
#X connect 49 0 54 0;
#X connect 52 0 54 0;
#X connect 53 0 48 0;
#X connect 53 0 51 0;
#X connect 54 0 53 0;
#X connect 55 0 53 1;
#X connect 56 0 57 0;
#X connect 57 0 49 0;
#X connect 58 0 42 0;
#X connect 59 0 58 0;
#X connect 60 0 62 0;
#X connect 62 0 19 0;
#X connect 63 0 64 0;
#X restore 244 84 pd rec_samples;
#X msg 174 -264 2;
#X obj 161 -18 t 1 0 b;
#X obj 85 76 change;
#X obj 392 -8 change;
#X text 75 -261 default duration;
#X text 362 -271 button number \; first arg;
#X obj 333 -245 \$1;
#N canvas 1 202 863 743 init_button_num 1;
#X text 174 6 button number \; first arg of button.pd, f 24;
#X obj 127 8 inlet;
#X obj 362 567 outlet;
#X text 406 566 array name;
#X obj 89 567 outlet;
#X text 131 567 button name;
#X obj 85 23 bng 15 250 50 0 empty empty empty 17 7 0 10 -262144 -1
-1;
#X floatatom 167 53 5 0 0 0 - - -, f 5;
#X text -123 508 send to button_color-\$1;
#X obj -46 488 s;
#X msg -27 402 symbol button_color-\$1;
#X floatatom 41 316 5 0 0 0 - - -, f 5;
#X text 76 288 number;
#X msg -16 381 receive button_color-\$1;
#X floatatom 2 357 5 0 0 0 - - -, f 5;
#X obj -83 356 t f b f f f;
#X msg 15 287 1;
#X obj 196 489 s;
#X text 185 509 send to slider;
#X text 394 512 send to array;
#X msg 232 380 receive slider_voice\$1;
#X msg 224 404 symbol slider_voice\$1;
#X obj -104 488 print b;
#X obj 136 489 print s;
#X floatatom 240 351 5 0 0 0 - - -, f 5;
#X obj 155 350 t f b f f f;
#X floatatom 178 316 5 0 0 0 - - -, f 5;
#X msg 152 287 1;
#X obj 402 491 print a;
#X obj 460 454 pack s s;
#X msg 460 479 \; \$2 rename \$1;
#X obj 431 348 t f b f f;
#X floatatom 509 350 5 0 0 0 - - -, f 5;
#X msg 509 399 symbol voice\$1;
#X floatatom 431 316 5 0 0 0 - - -, f 5;
#X msg 482 374 symbol voice\$1;
#X msg 62 546 symbol button_color-\$1;
#X floatatom 150 126 5 0 0 0 - - -, f 5;
#X obj -64 126 print;
#X text -79 72 initbaang renamed;
#X obj 364 244 s;
#X msg 389 196 receive midibutton-\$1;
#X msg 379 218 symbol midibutton-\$1;
#X obj 328 170 t f b f f;
#X obj 147 248 t f f f f;
#X floatatom 393 170 5 0 0 0 - - -, f 5;
#X msg -38 424 label;
#X msg -48 447 label_pos 0 0;
#X msg 213 427 label;
#X msg 336 543 symbol voice\$1;
#X msg -22 99 receive \$1-button-initbang-r;
#X obj -24 122 s button-initbang-r;
#X msg 528 98 names 1_2 3_4 5_6 7_8 9_10 11_12;
#X msg 543 119 set 1_2;
#X obj 594 568 outlet;
#X obj 130 31 t b b f;
#X msg 239 79 \$0;
#X obj 487 63 s loopstatus-r;
#X obj 110 73 t f f \$0 f f;
#X msg 511 44 receive \$1-loopstatus-r;
#X msg 487 25 send \$1-loopstatus-s;
#X msg 231 103 receive \$1-trackname-r;
#X obj 230 129 s \$0-trackname-r;
#X connect 1 0 6 0;
#X connect 1 0 55 0;
#X connect 7 0 58 0;
#X connect 10 0 9 1;
#X connect 10 0 22 0;
#X connect 11 0 15 0;
#X connect 13 0 9 0;
#X connect 13 0 22 0;
#X connect 14 0 10 0;
#X connect 14 0 36 0;
#X connect 15 0 14 0;
#X connect 15 1 47 0;
#X connect 15 2 46 0;
#X connect 15 3 10 0;
#X connect 15 4 13 0;
#X connect 16 0 11 0;
#X connect 20 0 17 0;
#X connect 21 0 17 1;
#X connect 24 0 21 0;
#X connect 25 0 24 0;
#X connect 25 2 48 0;
#X connect 25 3 21 0;
#X connect 25 4 20 0;
#X connect 26 0 25 0;
#X connect 27 0 26 0;
#X connect 29 0 30 0;
#X connect 29 0 28 0;
#X connect 31 0 32 0;
#X connect 31 2 49 0;
#X connect 31 3 35 0;
#X connect 32 0 33 0;
#X connect 33 0 29 1;
#X connect 34 0 31 0;
#X connect 35 0 29 0;
#X connect 36 0 4 0;
#X connect 37 0 44 0;
#X connect 41 0 40 0;
#X connect 42 0 40 1;
#X connect 43 0 45 0;
#X connect 43 2 42 0;
#X connect 43 3 41 0;
#X connect 44 0 11 0;
#X connect 44 1 26 0;
#X connect 44 2 34 0;
#X connect 44 3 43 0;
#X connect 45 0 42 0;
#X connect 46 0 9 0;
#X connect 46 0 22 0;
#X connect 47 0 9 0;
#X connect 47 0 22 0;
#X connect 48 0 17 0;
#X connect 49 0 2 0;
#X connect 50 0 38 0;
#X connect 50 0 51 0;
#X connect 52 0 54 0;
#X connect 53 0 54 0;
#X connect 55 0 53 0;
#X connect 55 1 52 0;
#X connect 55 2 7 0;
#X connect 56 0 61 0;
#X connect 58 0 50 0;
#X connect 58 1 44 0;
#X connect 58 2 37 0;
#X connect 58 3 61 0;
#X connect 58 4 60 0;
#X connect 58 4 59 0;
#X connect 59 0 57 0;
#X connect 60 0 57 0;
#X connect 61 0 62 0;
#X restore 282 -178 pd init_button_num;
#X msg 292 -269 0;
#X msg 293 -293 1;
#X obj 110 -87 t f b b;
#N canvas 819 192 450 401 button_change_color 0;
#X obj 119 43 inlet;
#X text 161 43 status number;
#X obj 118 69 change;
#X floatatom 316 154 5 0 0 0 - - -, f 5;
#X text 423 188 0 off \; 1 for play \; 2 for play queue \; 3 for
rec \; 4 for rec queue \; 5 for stop \; 6 for stop queue;
#X obj 179 199 print Rec;
#X obj 204 225 print Rec Queue;
#X obj 233 252 print Stop;
#X obj 256 277 print Stop Queue;
#X obj 164 178 print Play Queue;
#X obj 140 156 print Play;
#X msg 211 156 color 16 12;
#X msg 313 253 color 14 12;
#X msg 244 199 color 13 0;
#X obj 123 129 select 0 1 2 3 4 5 6;
#X obj 114 340 s;
#X msg 53 311 color 0 12;
#X obj 303 68 inlet;
#X text 346 70 button name;
#X msg 15 132 stop;
#X obj 54 149 bng 15 250 50 0 empty empty empty 17 7 0 10 -262144 -1
-1;
#N canvas 192 248 450 323 blink 0;
#X obj 115 93 f 1;
#X obj 146 93 + 1;
#X obj 115 118 mod 2;
#X obj 115 185 select 0 1;
#X floatatom 116 147 5 0 0 0 - - -, f 5;
#X obj 113 17 inlet;
#X obj 114 64 metro 250;
#X obj 173 27 bng 15 250 50 0 empty empty empty 17 7 0 10 -262144 -1
-1;
#X msg 209 26 stop;
#X obj 110 225 outlet;
#X obj 170 225 outlet;
#X connect 0 0 1 0;
#X connect 0 0 2 0;
#X connect 1 0 0 1;
#X connect 2 0 4 0;
#X connect 3 0 9 0;
#X connect 3 1 10 0;
#X connect 4 0 3 0;
#X connect 5 0 6 0;
#X connect 6 0 0 0;
#X connect 7 0 6 0;
#X connect 8 0 6 0;
#X restore 98 177 pd blink;
#N canvas 192 248 450 323 blink 0;
#X obj 115 93 f 1;
#X obj 146 93 + 1;
#X obj 115 118 mod 2;
#X obj 115 185 select 0 1;
#X floatatom 116 147 5 0 0 0 - - -, f 5;
#X obj 113 17 inlet;
#X obj 114 64 metro 250;
#X obj 173 27 bng 15 250 50 0 empty empty empty 17 7 0 10 -262144 -1
-1;
#X msg 209 26 stop;
#X obj 110 225 outlet;
#X obj 170 225 outlet;
#X connect 0 0 1 0;
#X connect 0 0 2 0;
#X connect 1 0 0 1;
#X connect 2 0 4 0;
#X connect 3 0 9 0;
#X connect 3 1 10 0;
#X connect 4 0 3 0;
#X connect 5 0 6 0;
#X connect 6 0 0 0;
#X connect 7 0 6 0;
#X connect 8 0 6 0;
#X restore 124 226 pd blink;
#N canvas 192 248 450 323 blink 0;
#X obj 115 93 f 1;
#X obj 146 93 + 1;
#X obj 115 118 mod 2;
#X obj 115 185 select 0 1;
#X floatatom 116 147 5 0 0 0 - - -, f 5;
#X obj 113 17 inlet;
#X obj 114 64 metro 250;
#X obj 173 27 bng 15 250 50 0 empty empty empty 17 7 0 10 -262144 -1
-1;
#X msg 209 26 stop;
#X obj 110 225 outlet;
#X obj 170 225 outlet;
#X connect 0 0 1 0;
#X connect 0 0 2 0;
#X connect 1 0 0 1;
#X connect 2 0 4 0;
#X connect 3 0 9 0;
#X connect 3 1 10 0;
#X connect 4 0 3 0;
#X connect 5 0 6 0;
#X connect 6 0 0 0;
#X connect 7 0 6 0;
#X connect 8 0 6 0;
#X restore 189 278 pd blink;
#X obj 116 96 t f b;
#X connect 0 0 2 0;
#X connect 2 0 24 0;
#X connect 11 0 15 0;
#X connect 12 0 15 0;
#X connect 13 0 15 0;
#X connect 14 0 16 0;
#X connect 14 1 10 0;
#X connect 14 1 11 0;
#X connect 14 2 9 0;
#X connect 14 2 21 0;
#X connect 14 3 5 0;
#X connect 14 3 13 0;
#X connect 14 4 6 0;
#X connect 14 4 22 0;
#X connect 14 5 7 0;
#X connect 14 5 12 0;
#X connect 14 6 8 0;
#X connect 14 6 23 0;
#X connect 14 7 3 0;
#X connect 16 0 15 0;
#X connect 17 0 15 1;
#X connect 19 0 21 0;
#X connect 19 0 22 0;
#X connect 19 0 23 0;
#X connect 20 0 21 0;
#X connect 21 0 16 0;
#X connect 21 1 11 0;
#X connect 22 0 16 0;
#X connect 22 1 13 0;
#X connect 23 0 16 0;
#X connect 23 1 12 0;
#X connect 24 0 14 0;
#X connect 24 1 19 0;
#X restore 85 132 pd button_change_color;
#X obj 296 -94 t 0 0 b b;
#X text 360 -97 stop all;
#X obj 351 -293 bng 15 250 50 0 button-initbang-s button-initbang-r
button-initbang 17 7 0 10 -262144 -1 -1;
#X obj 114 338 bng 15 250 50 0 empty midibutton-\$0 midi\ receiver
15 5 0 10 -262144 -1 -1;
#X obj 452 -142 r \$0-play-s;
#X obj 163 4 s \$0-play-r;
#X obj 110 -139 r \$0-rec-s;
#X obj 185 28 s \$0-rec-r;
#X obj 296 -139 r \$0-stop-s;
#X obj 209 248 s \$0-stop-r;
#X obj 210 185 r \$0-clear-s;
#X obj 207 275 s \$0-clear-r;
#X floatatom 452 -117 5 0 0 0 - - -, f 5;
#X floatatom 110 -114 5 0 0 0 - - -, f 5;
#X obj 296 -114 bng 15 250 50 0 empty empty empty 17 7 0 10 -262144
-1 -1;
#X obj 210 210 bng 15 250 50 0 empty empty empty 17 7 0 10 -262144
-1 -1;
#X obj 183 -139 r \$0-barrec-s;
#X obj 173 -241 s \$0-barrec-r;
#X obj 71 -61 s \$0-barrec-r;
#X floatatom 183 -114 5 0 0 0 - - -, f 5;
#X obj 183 -87 t f f;
#X obj 279 -65 s \$0-play-r;
#X obj 301 -41 s \$0-rec-r;
#X obj 209 -296 loadbang;
#X text 388 -205 CLICK HERE before saving;
#X msg 296 234 0;
#X obj 6 -256 s beat_num;
#X msg 6 -284 0;
#X obj 5 -206 s tempo_ms;
#X msg 5 -231 500;
#X obj 335 239 \$1;
#X msg 335 270 symbol \$1-initbang;
#X obj 296 210 t b b b;
#X obj 315 297 s;
#X msg 363 -202 /\$0;
#X obj 331 51 adc~;
#X obj 550 -145 t s s s s s s;
#X dropdown 737 263 3 0 0 0 - #0-dd-r #0-dd-s, f 3;
#X obj 640 -144 s \$0-dd-r;
#N canvas 242 271 543 472 midictrl 0;
#X obj 37 32 bng 15 250 50 0 empty empty midi\ receiver 17 7 0 10 -262144
-1 -1;
#X floatatom 60 227 7 0 0 0 - - -, f 7;
#X obj 143 29 inlet;
#X text 181 29 voice number;
#X obj 60 251 > 100;
#X msg 60 334 1;
#X obj 59 312 t b b, f 9;
#X msg 110 334 0;
#X obj 148 313 t b b, f 9;
#X msg 149 335 0;
#X msg 199 335 1;
#X obj 37 11 inlet;
#X obj 60 202 array size \$1;
#X text 104 412 play;
#X text 204 413 rec;
#X obj 160 415 outlet;
#X obj 61 412 outlet;
#X obj 39 57 t b b b b;
#X obj 436 7 r \$0-loadnum;
#X obj 435 35 t 0 0;
#X obj 413 4 bng 15 250 50 0 empty empty empty 17 7 0 10 -262144 -1
-1;
#X text 310 33 status number;
#X obj 278 32 inlet;
#X obj 176 134 select 0 1 2 3 4 5 6;
#X obj 183 188 t 0 0;
#X obj 229 188 t 0 0;
#X obj 275 188 t 1 0;
#X floatatom 61 369 5 0 0 0 - - -, f 5;
#X obj 79 391 change;
#X floatatom 158 366 5 0 0 0 - - -, f 5;
#X obj 186 386 change;
#X floatatom 321 158 5 0 0 0 - - -, f 5;
#X obj 152 162 bng 15 250 50 0 empty empty empty 17 7 0 10 -262144
-1 -1;
#X obj 187 159 bng 15 250 50 0 empty empty empty 17 7 0 10 -262144
-1 -1;
#X obj 209 159 bng 15 250 50 0 empty empty empty 17 7 0 10 -262144
-1 -1;
#X obj 229 159 bng 15 250 50 0 empty empty empty 17 7 0 10 -262144
-1 -1;
#X obj 247 158 bng 15 250 50 0 empty empty empty 17 7 0 10 -262144
-1 -1;
#X obj 266 157 bng 15 250 50 0 empty empty empty 17 7 0 10 -262144
-1 -1;
#X obj 285 157 bng 15 250 50 0 empty empty empty 17 7 0 10 -262144
-1 -1;
#X obj 333 182 bng 15 250 50 0 empty empty empty 17 7 0 10 -262144
-1 -1;
#X floatatom 176 110 5 0 0 0 - - -, f 5;
#X msg 176 83 set \$1;
#X obj 61 294 bng 15 250 50 0 empty empty empty 17 7 0 10 -262144 -1
-1;
#X obj 135 296 bng 15 250 50 0 empty empty empty 17 7 0 10 -262144
-1 -1;
#X msg 94 116 symbol \$1;
#X obj 20 250 bng 15 250 50 0 empty empty empty 17 7 0 10 -262144 -1
-1;
#X msg 136 4 symbol voice\$0;
#X obj 60 275 select 1 0, f 22;
#X text 208 276 if the voice array is smaller than 100 samples \, record
\; otherwise play, f 32;
#X text 312 123 check the status of the button \; if off of stopped
\, check array size;
#X obj 301 325 r \$0-play-r;
#X msg 301 347 set \$1;
#X msg 427 351 set \$1;
#X obj 427 326 r \$0-rec-r;
#X connect 0 0 17 0;
#X connect 1 0 4 0;
#X connect 2 0 44 0;
#X connect 4 0 47 0;
#X connect 5 0 27 0;
#X connect 6 0 5 0;
#X connect 6 1 7 0;
#X connect 7 0 29 0;
#X connect 8 0 9 0;
#X connect 8 1 10 0;
#X connect 9 0 27 0;
#X connect 10 0 29 0;
#X connect 11 0 0 0;
#X connect 12 0 1 0;
#X connect 12 0 45 0;
#X connect 17 3 40 0;
#X connect 18 0 19 0;
#X connect 19 1 41 0;
#X connect 20 0 19 0;
#X connect 22 0 41 0;
#X connect 23 0 32 0;
#X connect 23 1 33 0;
#X connect 23 2 34 0;
#X connect 23 3 35 0;
#X connect 23 4 36 0;
#X connect 23 5 37 0;
#X connect 23 6 38 0;
#X connect 23 7 31 0;
#X connect 24 0 27 0;
#X connect 24 1 29 0;
#X connect 25 0 27 0;
#X connect 25 1 29 0;
#X connect 26 0 27 0;
#X connect 26 1 29 0;
#X connect 27 0 28 0;
#X connect 27 0 16 0;
#X connect 29 0 30 0;
#X connect 29 0 15 0;
#X connect 31 0 39 0;
#X connect 32 0 12 0;
#X connect 33 0 24 0;
#X connect 34 0 24 0;
#X connect 35 0 25 0;
#X connect 36 0 25 0;
#X connect 37 0 12 0;
#X connect 38 0 12 0;
#X connect 40 0 23 0;
#X connect 41 0 40 0;
#X connect 42 0 6 0;
#X connect 43 0 8 0;
#X connect 44 0 12 1;
#X connect 46 0 12 1;
#X connect 47 0 42 0;
#X connect 47 1 43 0;
#X connect 50 0 51 0;
#X connect 51 0 27 0;
#X connect 52 0 29 0;
#X connect 53 0 52 0;
#X restore 114 363 pd midictrl;
#X obj 90 388 s \$0-play-r;
#X obj 179 390 s \$0-rec-r;
#X obj 221 341 r \$0-rec-s;
#X obj 342 332 t 0 0;
#X obj 342 356 s \$0-play-r;
#X obj 343 381 s \$0-rec-r;
#N canvas 72 188 450 346 output_sel~ 0;
#X obj 133 292 throw~;
#X obj 185 292 throw~;
#X obj 163 77 r \$0-dd-s;
#X floatatom 162 105 5 0 0 0 - - -, f 5;
#X obj 160 150 t f f;
#X obj 158 177 + 1;
#X obj 190 177 + 2;
#X obj 161 126 * 2;
#X floatatom 158 202 5 0 0 0 - - -, f 5;
#X floatatom 190 202 5 0 0 0 - - -, f 5;
#X msg 142 253 set signal_\$1;
#X msg 206 227 set signal_\$1;
#X text 157 56 receive from drop-down;
#X obj 56 21 inlet~;
#X obj 107 22 inlet~;
#X obj 267 326 outlet;
#X obj 267 282 pack f f;
#X msg 268 305 symbol signal_\$1+signal_\$2;
#X obj 304 44 r \$0-loadnum;
#X obj 304 69 t 0;
#X connect 2 0 3 0;
#X connect 3 0 7 0;
#X connect 4 0 5 0;
#X connect 4 1 6 0;
#X connect 5 0 8 0;
#X connect 6 0 9 0;
#X connect 7 0 4 0;
#X connect 8 0 10 0;
#X connect 8 0 16 0;
#X connect 9 0 11 0;
#X connect 9 0 16 1;
#X connect 10 0 0 0;
#X connect 11 0 1 0;
#X connect 13 0 0 0;
#X connect 14 0 1 0;
#X connect 16 0 17 0;
#X connect 17 0 15 0;
#X connect 18 0 19 0;
#X connect 19 0 3 0;
#X restore 646 115 pd output_sel~;
#X symbolatom 648 145 22 0 0 0 - - -, f 22;
#X obj 333 -222 s \$0-loadnum;
#X obj 276 -201 r \$0-loadnum;
#N canvas 602 259 450 323 midiout 0;
#X obj 107 80 inlet;
#X text 144 80 button;
#X obj 218 80 inlet;
#X text 259 80 velocity;
#X obj 110 242 noteout 1;
#X obj 177 138 \$1;
#X obj 218 105 t b b f;
#X floatatom 136 186 5 0 0 0 - - -, f 5;
#X floatatom 202 201 5 0 0 0 - - -, f 5;
#X msg 321 104 2;
#X connect 2 0 6 0;
#X connect 5 0 7 0;
#X connect 6 1 5 0;
#X connect 6 2 8 0;
#X connect 7 0 4 0;
#X connect 8 0 4 1;
#X connect 9 0 6 0;
#X restore 13 151 pd midiout;
#X obj 580 -221 table voice\$0;
#N canvas 843 377 450 348 gradarray-init 0;
#X msg 289 28 32;
#X obj 289 55 array size gradarray;
#X obj 205 125 int;
#X floatatom 205 144 5 0 0 0 - - -, f 5;
#X obj 222 57 pack f f;
#X obj 204 95 expr $f2 / $f1;
#X msg 219 3 4;
#X obj 167 4 inlet;
#X text 27 4 number of bars to show;
#X obj 285 -17 r \$0-loadnum;
#X msg 348 119 \; \$2 const \$1;
#X obj 287 6 t f b f f;
#X obj 208 170 pack f f;
#X msg 205 195 \; grad\$2 xticks 0 \$1 1;
#X msg 433 47 \; grad\$0 rename grad\$1;
#X msg 348 90 -1 grad\$1;
#X connect 0 0 4 1;
#X connect 2 0 3 0;
#X connect 3 0 12 0;
#X connect 4 0 5 0;
#X connect 5 0 2 0;
#X connect 6 0 4 0;
#X connect 7 0 4 0;
#X connect 9 0 11 0;
#X connect 11 0 12 1;
#X connect 11 1 0 0;
#X connect 11 2 15 0;
#X connect 11 3 14 0;
#X connect 12 0 13 0;
#X connect 15 0 10 0;
#X restore 518 -247 pd gradarray-init;
#X obj 518 -270 r \$0-barrec-s;
#X obj 149 66 \$1;
#X obj 149 91 s \$1recstart;
#N canvas 607 26 478 741 play_sample_queue 0;
#X obj 243 15 inlet;
#X text 243 40 Play toggle;
#X obj 53 17 inlet;
#X text 53 42 beat number;
#X obj 68 521 outlet;
#X text 117 522 status number;
#X obj 269 518 outlet;
#X text 269 543 play;
#X obj 340 523 outlet;
#X text 340 548 stop;
#X floatatom 51 78 5 0 0 0 - - -, f 5;
#X obj 65 108 select 0;
#X obj 124 143 spigot;
#X obj 166 199 spigot;
#X text -7 107 first beat;
#X text 6 141 end of the sample;
#X text 82 200 Play activé;
#X text 265 199 sinon;
#X obj 218 199 spigot;
#X obj 252 154 == 0;
#X obj 168 177 t b b;
#X msg 171 255 \$1;
#X obj 120 281 select 1;
#X obj 122 305 t b 2;
#X obj 218 119 t f b f f;
#X msg 156 335 \$1;
#X obj 139 335 bng 15 250 50 0 empty empty empty 17 7 0 10 -262144
-1 -1;
#X floatatom 202 365 5 0 0 0 - - -, f 5;
#X obj 314 204 select 1;
#X obj 314 229 t b 6;
#X obj 252 176 t f f;
#X obj 318 258 bng 15 250 50 0 empty empty empty 17 7 0 10 -262144
-1 -1;
#X msg 334 258 \$1;
#X obj 296 310 t 5 b;
#X obj 283 334 bng 15 250 50 0 empty empty empty 17 7 0 10 -262144
-1 -1;
#X msg 299 334 \$1;
#X obj 354 15 inlet;
#X text 352 36 end or start of the sample \; 1 at end or start;
#X obj 198 254 bng 15 250 50 0 empty empty empty 17 7 0 10 -262144
-1 -1;
#X obj 110 174 bng 15 250 50 0 empty empty empty 17 7 0 10 -262144
-1 -1;
#X floatatom 178 99 5 0 0 0 - - -, f 5;
#X obj 208 520 outlet;
#X text 198 539 play queue;
#X obj 166 222 t 1 b;
#X obj 159 19 inlet;
#X text 156 41 play after rec, f 10;
#X msg 145 72 1;
#X connect 0 0 24 0;
#X connect 2 0 10 0;
#X connect 10 0 11 0;
#X connect 11 0 12 0;
#X connect 12 0 20 0;
#X connect 12 0 39 0;
#X connect 13 0 43 0;
#X connect 18 0 33 0;
#X connect 19 0 30 0;
#X connect 20 0 13 0;
#X connect 20 1 18 0;
#X connect 21 0 27 0;
#X connect 22 0 23 0;
#X connect 23 0 41 0;
#X connect 23 1 26 0;
#X connect 23 1 25 0;
#X connect 24 0 22 0;
#X connect 24 2 19 0;
#X connect 24 3 13 1;
#X connect 25 0 27 0;
#X connect 27 0 4 0;
#X connect 28 0 29 0;
#X connect 29 1 31 0;
#X connect 29 1 32 0;
#X connect 30 0 18 1;
#X connect 30 1 28 0;
#X connect 32 0 27 0;
#X connect 33 0 34 0;
#X connect 33 0 35 0;
#X connect 33 1 8 0;
#X connect 35 0 27 0;
#X connect 36 0 40 0;
#X connect 38 0 6 0;
#X connect 40 0 12 1;
#X connect 43 0 21 0;
#X connect 43 1 38 0;
#X connect 44 0 46 0;
#X restore 421 -59 pd play_sample_queue;
#X text 436 -40 play queue;
#N canvas 816 40 588 743 play_full_sample 0;
#X obj 313 38 inlet;
#X text 355 40 array to read;
#X obj 51 37 inlet;
#X text 92 39 start;
#X obj 132 36 inlet;
#X text 162 38 stop;
#X obj 184 469 outlet;
#X floatatom 273 145 7 0 0 0 - - -, f 7;
#X obj 270 117 array size \$1;
#X obj 268 91 bng 15 250 50 0 empty empty empty 17 7 0 10 -262144 -1
-1;
#X obj 173 145 samplerate~;
#X obj 275 178 /;
#X floatatom 319 206 5 0 0 0 - - -, f 5;
#X obj 171 120 bng 15 250 50 0 empty empty empty 17 7 0 10 -262144
-1 -1;
#X obj 268 207 * 1000;
#X obj 288 354 line~;
#X msg 366 278 0 \, 245000 5112;
#X floatatom 272 237 5 0 0 0 - - -, f 5;
#X text 345 303 arguments: start sample \, end sample \, duration ms
;
#X text 332 204 duration in s as per sample rate;
#X obj 290 382 tabread~;
#X msg 367 345 set \$1;
#X obj 304 441 outlet~;
#X obj 195 380 snapshot~;
#X obj 195 410 * 127;
#X obj 195 435 /;
#X text 231 469 % of number of samples elapsed out of 127;
#X floatatom 143 472 5 0 0 0 - - -, f 5;
#X text -7 380 update progress bar as per metro;
#X msg 139 433 0;
#X obj 3 61 t b b;
#X obj 314 73 t s s;
#X msg 107 197 stop;
#X obj 367 163 print lecture;
#X obj 191 348 metro 50;
#X obj 373 441 outlet~;
#X obj 172 93 r \$0-loadnum;
#X obj 2 34 inlet;
#X text 3 11 play queue;
#X obj 264 263 pack b f f;
#X msg 284 302 0 \, \$2 \$3;
#X obj 57 62 bng 15 250 50 0 empty empty empty 17 7 0 10 -262144 -1
-1;
#X obj 324 335 bng 15 250 50 0 empty empty empty 17 7 0 10 -262144
-1 -1;
#X obj 424 379 \$1;
#X obj 424 404 s \$1-playstart;
#X connect 0 0 31 0;
#X connect 2 0 41 0;
#X connect 4 0 32 0;
#X connect 7 0 11 0;
#X connect 7 0 25 1;
#X connect 7 0 33 0;
#X connect 7 0 39 1;
#X connect 8 0 7 0;
#X connect 9 0 8 0;
#X connect 9 0 34 0;
#X connect 10 0 11 1;
#X connect 11 0 12 0;
#X connect 11 0 14 0;
#X connect 13 0 10 0;
#X connect 14 0 17 0;
#X connect 15 0 20 0;
#X connect 15 0 23 0;
#X connect 16 0 15 0;
#X connect 17 0 39 2;
#X connect 20 0 22 0;
#X connect 20 0 35 0;
#X connect 21 0 20 0;
#X connect 23 0 24 0;
#X connect 24 0 25 0;
#X connect 25 0 6 0;
#X connect 25 0 27 0;
#X connect 29 0 27 0;
#X connect 29 0 6 0;
#X connect 30 0 13 0;
#X connect 30 1 9 0;
#X connect 31 0 21 0;
#X connect 31 1 8 1;
#X connect 32 0 15 0;
#X connect 32 0 29 0;
#X connect 32 0 34 0;
#X connect 34 0 23 0;
#X connect 36 0 13 0;
#X connect 37 0 30 0;
#X connect 39 0 40 0;
#X connect 40 0 15 0;
#X connect 40 0 42 0;
#X connect 41 0 39 0;
#X connect 42 0 43 0;
#X connect 43 0 44 0;
#X restore 410 16 pd play_full_sample;
#X text 444 -4 play;
#X text 483 -3 stop;
#X text 527 -3 array;
#X text 535 35 audio out;
#X text 421 37 % (127);
#N canvas 305 210 450 323 endstartsample 0;
#X floatatom 45 47 5 0 0 0 - - -, f 5;
#X obj 42 77 select 0 127;
#X floatatom 49 190 5 0 0 0 - - -, f 5;
#X msg 54 158 1;
#X msg 94 157 0;
#X obj 101 109 moses 126.9;
#X msg 164 189 1;
#X obj 156 152 r \$0-loadnum;
#X obj 48 15 inlet;
#X text 97 14 /127 share of samples elapsed;
#X obj 51 230 outlet;
#X text 139 76 end or start of the sample reached?;
#X connect 0 0 1 0;
#X connect 1 0 3 0;
#X connect 1 1 3 0;
#X connect 1 2 5 0;
#X connect 2 0 10 0;
#X connect 3 0 2 0;
#X connect 4 0 2 0;
#X connect 5 0 4 0;
#X connect 5 1 3 0;
#X connect 6 0 2 0;
#X connect 7 0 6 0;
#X connect 8 0 0 0;
#X restore 623 -19 pd endstartsample;
#N canvas 732 276 450 323 slider_update 0;
#X floatatom 130 123 5 0 0 0 - - -, f 5;
#X obj 130 174 send;
#X msg 130 149 set \$1;
#X obj 173 174 print;
#X msg 173 124 symbol slider_\$1;
#X obj 130 93 change;
#X obj 130 18 inlet;
#X obj 222 21 inlet;
#X text 263 20 array name;
#X text 71 18 % (127);
#X connect 0 0 2 0;
#X connect 2 0 1 0;
#X connect 4 0 1 1;
#X connect 4 0 3 0;
#X connect 5 0 0 0;
#X connect 6 0 5 0;
#X connect 7 0 4 0;
#X restore 417 161 pd slider_update;
#X obj 272 119 moses 126;
#X msg 300 145 1;
#N canvas 0 0 450 300 activeloopsout 0;
#X obj 129 148 \$1;
#X obj 128 177 pack f f;
#X obj 130 121 t b f;
#X obj 128 207 s activeloops-r;
#X msg 173 97 0;
#X msg 130 97 1;
#X obj 130 46 inlet;
#X text 173 46 status number;
#X obj 130 76 select 1 6;
#X connect 0 0 1 0;
#X connect 1 0 3 0;
#X connect 2 0 0 0;
#X connect 2 1 1 1;
#X connect 4 0 2 0;
#X connect 5 0 2 0;
#X connect 6 0 8 0;
#X connect 8 0 5 0;
#X connect 8 1 5 0;
#X connect 8 2 4 0;
#X restore 522 234 pd activeloopsout;
#X obj 213 -182 s \$0-pan-r;
#X symbolatom 706 228 11 0 0 0 - #0-trackname-r #0-trackname-s, f
11;
#X obj 75 110 nbx 5 14 -1e+37 1e+37 0 0 loopstatus-s loopstatus-r Loopstatus
0 -8 0 10 -260909 -1 -1 0 256 0;
#N canvas 836 119 450 346 vol_pan 0;
#X obj 69 34 inlet~;
#X obj 196 33 inlet~;
#X obj 275 31 inlet;
#X text 312 35 vol;
#X obj 363 34 inlet;
#X text 399 35 pan;
#X obj 67 245 outlet~;
#X obj 199 246 outlet~;
#X obj 67 217 *~;
#X obj 275 72 / 127;
#X obj 199 216 *~;
#X text 321 166 interpolate from the previous value to avoid clicks?
, f 14;
#X obj 88 145 sqrt;
#X obj 67 182 *~;
#X obj 229 148 sqrt;
#X obj 201 182 *~;
#X obj 363 65 / 127;
#X floatatom 225 123 5 0 0 0 - - -, f 5;
#X obj 121 104 * -1;
#X obj 120 128 + 1;
#X floatatom 229 169 5 0 0 0 - - -, f 5;
#X floatatom 87 165 5 0 0 0 - - -, f 5;
#X floatatom 95 200 5 0 0 0 - - -, f 5;
#X floatatom 238 195 5 0 0 0 - - -, f 5;
#X floatatom 363 90 5 0 0 0 - - -, f 5;
#X connect 0 0 13 0;
#X connect 1 0 15 0;
#X connect 2 0 9 0;
#X connect 4 0 16 0;
#X connect 8 0 6 0;
#X connect 9 0 22 0;
#X connect 9 0 23 0;
#X connect 10 0 7 0;
#X connect 12 0 21 0;
#X connect 13 0 8 0;
#X connect 14 0 20 0;
#X connect 15 0 10 0;
#X connect 16 0 24 0;
#X connect 17 0 14 0;
#X connect 18 0 19 0;
#X connect 19 0 12 0;
#X connect 20 0 15 1;
#X connect 21 0 13 1;
#X connect 22 0 8 1;
#X connect 23 0 10 1;
#X connect 24 0 18 0;
#X connect 24 0 17 0;
#X restore 640 79 pd vol_pan;
#X msg 213 -205 63;
#N canvas 348 130 450 394 trackconfig 0;
#N canvas 814 53 551 688 initconfig 0;
#X obj 35 14 bng 15 250 50 0 empty button-initbang-r initbang 17 7
0 10 -262144 -1 -1;
#X obj 35 34 \$1;
#X msg 203 113 receive \$1-trackstatus-r;
#X msg 203 88 send \$1-trackstatus-s;
#X msg 203 189 receive \$1-trackname-r;
#X msg 203 139 send \$1-trackname-s;
#X msg 203 268 receive \$1-trackbars-r;
#X msg 203 220 send \$1-trackbars-s;
#X msg 203 241 2;
#X obj 365 225 s trackname-r;
#X obj 373 142 s trackstatus-r;
#X obj 354 305 s trackbars-r;
#X msg 205 328 send \$1-trackvol-s;
#X msg 205 349 127;
#X msg 205 376 receive \$1-trackvol-r;
#X obj 369 399 s trackvol-r;
#X msg 202 415 send \$1-trackpan-s;
#X msg 203 436 63;
#X msg 203 463 receive \$1-trackpan-r;
#X obj 367 487 s trackpan-r;
#X msg 210 508 send \$1-trackoutput-s;
#X msg 211 556 receive \$1-trackoutput-r;
#X obj 375 580 s trackoutput-r;
#X msg 211 529 0;
#X obj 110 81 t f f;
#X obj 95 113 t f f f;
#X obj 80 188 t f f f;
#X obj 65 294 t f f f;
#X obj 50 395 t f f f;
#X obj 35 485 t f f f;
#X obj 35 57 t f f f f f f f;
#X msg 203 162 symbol \$1-Unnamed;
#X obj 109 14 r button-initbang-s;
#X connect 1 0 30 0;
#X connect 2 0 10 0;
#X connect 3 0 10 0;
#X connect 4 0 9 0;
#X connect 5 0 9 0;
#X connect 6 0 11 0;
#X connect 7 0 11 0;
#X connect 8 0 11 0;
#X connect 12 0 15 0;
#X connect 13 0 15 0;
#X connect 14 0 15 0;
#X connect 16 0 19 0;
#X connect 17 0 19 0;
#X connect 18 0 19 0;
#X connect 20 0 22 0;
#X connect 21 0 22 0;
#X connect 23 0 22 0;
#X connect 24 0 2 0;
#X connect 24 1 3 0;
#X connect 25 0 4 0;
#X connect 25 1 31 0;
#X connect 25 2 5 0;
#X connect 26 0 6 0;
#X connect 26 1 8 0;
#X connect 26 2 7 0;
#X connect 27 0 14 0;
#X connect 27 1 13 0;
#X connect 27 2 12 0;
#X connect 28 0 18 0;
#X connect 28 1 17 0;
#X connect 28 2 16 0;
#X connect 29 0 21 0;
#X connect 29 1 23 0;
#X connect 29 2 20 0;
#X connect 30 0 29 0;
#X connect 30 1 28 0;
#X connect 30 2 27 0;
#X connect 30 3 26 0;
#X connect 30 4 25 0;
#X connect 30 5 24 0;
#X connect 31 0 9 0;
#X connect 32 0 1 0;
#X restore 218 47 pd initconfig;
#N canvas 810 373 450 323 cfgbang 0;
#X restore 219 101 pd cfgbang;
#X symbolatom 101 55 10 0 0 0 trackname trackname-r trackname-s, f
10;
#X obj 104 101 nbx 5 14 -1e+37 1e+37 0 0 trackvol-s trackvol-r trackvol
-54 6 0 10 -262144 -1 -1 0 256 0;
#X obj 105 78 nbx 5 14 -1e+37 1e+37 0 0 trackbars-s trackbars-r trackbars
-60 6 0 10 -262144 -1 -1 0 256 0;
#X obj 105 125 nbx 5 14 -1e+37 1e+37 0 0 trackpan-s trackpan-r trackpan
-54 6 0 10 -262144 -1 -1 0 256 0;
#X obj 107 145 nbx 5 14 -1e+37 1e+37 0 0 trackoutput-s trackoutput-r
trackoutput -69 6 0 10 -262144 -1 -1 0 256 0;
#X obj 99 28 nbx 5 14 -1e+37 1e+37 0 0 trackstatus-s trackstatus-r
trackstatus -71 5 0 10 -262144 -1 -1 0 256 0;
#X restore 579 -195 pd trackconfig;
#X obj 671 264 bng 16 250 50 0 \$0-stop-s \$0-stop-r S 4 6 0 10 -262144
-1 -1;
#X obj 671 228 tgl 16 0 \$0-play-s \$0-play-r P 4 6 0 10 -262144 -1
-1 0 1;
#X obj 671 246 tgl 16 0 \$0-rec-s \$0-rec-r R 4 6 0 10 -262144 -258049
-176129 0 1;
#X obj 707 228 cnv 10 44 15 empty \$0-voicename-r Unnamed\ 1 1 6 0
10 -233017 -66577 0;
#X obj 483 356 output~;
#X obj 689 228 moonlib/mknob 16 20 0 127 0 0 \$0-trackvol-s \$0-trackvol-r
V 4 7 0 11 -191407 -1 -253822 0 0;
#X obj 689 246 moonlib/mknob 16 128 0 127 0 1 \$0-trackpan-s \$0-trackpan-r
P 4 7 0 11 -191407 -1 -249661 6300 0;
#X obj 666 39 r \$0-trackvol-s;
#X obj 715 60 r \$0-trackpan-s;
#N canvas 709 73 625 400 buttonUI 0;
#X msg 261 104 clear;
#X obj 216 23 inlet;
#X obj 216 48 select 0 1, f 60;
#X obj 30 65 tgl 15 0 empty empty cfg 0 5 0 10 -262144 -1 -1 0 1;
#X obj 216 73 t b b b, f 8;
#X obj 394 73 t b b b, f 8;
#X msg 439 100 clear;
#X obj 216 183 bng 15 250 50 0 empty empty empty 17 7 0 10 -262144
-1 -1;
#X obj 216 220 s buttonguibang-r;
#X obj 397 185 bng 15 250 50 0 empty empty empty 17 7 0 10 -262144
-1 -1;
#X obj 397 208 s initbang-buttoncfg;
#X msg 238 128 obj 30 60 buttonGUI \$1;
#X msg 416 125 obj 30 60 buttoncfg \$1;
#X obj 238 101 \$1;
#X obj 414 100 \$1;
#X obj 238 196 s pd-\$0-buttoncontent;
#N canvas 129 417 450 350 \$0-buttoncontent 0;
#X obj 30 60 buttonGUI 0;
#X coords 0 -1 1 1 104 41 2 30 60;
#X restore 27 24 pd \$0-buttoncontent;
#X connect 0 0 15 0;
#X connect 1 0 2 0;
#X connect 2 0 4 0;
#X connect 2 1 5 0;
#X connect 3 0 2 0;
#X connect 4 0 7 0;
#X connect 4 1 13 0;
#X connect 4 2 0 0;
#X connect 5 0 9 0;
#X connect 5 1 14 0;
#X connect 5 2 6 0;
#X connect 6 0 15 0;
#X connect 7 0 8 0;
#X connect 9 0 10 0;
#X connect 11 0 15 0;
#X connect 12 0 15 0;
#X connect 13 0 11 0;
#X connect 14 0 12 0;
#X coords 0 -1 1 1 104 58 1 27 23;
#X restore 529 258 pd buttonUI;
#X text 461 -293 initbang \, then receive is renamed;
#X connect 4 0 18 0;
#X connect 6 0 15 5;
#X connect 7 0 4 0;
#X connect 7 1 15 0;
#X connect 7 2 10 0;
#X connect 7 3 17 0;
#X connect 8 0 15 1;
#X connect 8 0 82 0;
#X connect 9 0 15 2;
#X connect 10 1 8 0;
#X connect 11 0 19 0;
#X connect 12 0 7 0;
#X connect 13 0 6 0;
#X connect 14 0 84 0;
#X connect 15 0 93 0;
#X connect 15 0 92 0;
#X connect 15 0 94 0;
#X connect 16 0 45 0;
#X connect 17 0 33 0;
#X connect 17 1 35 0;
#X connect 17 2 9 0;
#X connect 18 0 99 0;
#X connect 19 0 99 0;
#X connect 22 0 2 0;
#X connect 22 0 76 0;
#X connect 23 0 27 1;
#X connect 23 1 64 0;
#X connect 23 2 66 0;
#X connect 24 0 22 0;
#X connect 25 0 22 0;
#X connect 26 0 7 1;
#X connect 26 1 46 0;
#X connect 26 2 6 0;
#X connect 28 0 49 0;
#X connect 28 1 50 0;
#X connect 28 2 9 0;
#X connect 28 3 86 2;
#X connect 30 0 22 0;
#X connect 30 0 16 0;
#X connect 30 0 101 0;
#X connect 31 0 67 0;
#X connect 32 0 40 0;
#X connect 34 0 41 0;
#X connect 36 0 42 0;
#X connect 38 0 43 0;
#X connect 40 0 84 2;
#X connect 41 0 26 0;
#X connect 42 0 28 0;
#X connect 44 0 47 0;
#X connect 47 0 48 0;
#X connect 48 0 7 2;
#X connect 48 1 15 4;
#X connect 53 0 99 0;
#X connect 55 0 54 0;
#X connect 57 0 56 0;
#X connect 58 0 59 0;
#X connect 59 0 61 1;
#X connect 60 0 53 0;
#X connect 60 1 61 0;
#X connect 60 2 58 0;
#X connect 62 0 23 0;
#X connect 63 0 15 6;
#X connect 63 1 15 7;
#X connect 64 0 15 3;
#X connect 64 2 86 3;
#X connect 64 3 93 1;
#X connect 64 4 67 1;
#X connect 67 0 68 0;
#X connect 67 1 69 0;
#X connect 71 0 72 0;
#X connect 71 1 73 0;
#X connect 74 0 75 0;
#X connect 77 0 23 0;
#X connect 81 0 80 0;
#X connect 82 0 83 0;
#X connect 84 0 11 0;
#X connect 84 1 86 0;
#X connect 84 2 86 1;
#X connect 84 3 86 2;
#X connect 86 0 92 0;
#X connect 86 0 93 0;
#X connect 86 1 100 0;
#X connect 86 2 100 1;
#X connect 92 0 84 3;
#X connect 94 1 95 0;
#X connect 95 0 40 0;
#X connect 99 0 27 0;
#X connect 99 0 78 1;
#X connect 99 0 67 2;
#X connect 99 0 96 0;
#X connect 100 0 74 0;
#X connect 100 1 74 1;
#X connect 101 0 97 0;
#X connect 110 0 100 2;
#X connect 111 0 100 3;
#X coords 0 -1 1 1 110 58 1 529 258;
