#N canvas 98 262 599 453 10;
#X obj 94 65 hsl 58 16 0 127 0 0 empty slider_voice\$0 empty -2 -9
0 10 -262144 -1 -1 0 0;
#X obj 58 65 bng 16 250 50 0 \$0-stop-s \$0-stop-r S 4 6 0 10 -262144
-1 -1;
#X obj 58 47 tgl 16 0 \$0-play-s \$0-play-r P 4 6 0 10 -262144 -1 -1
0 1;
#X obj 76 47 tgl 16 0 \$0-rec-s \$0-rec-r R 4 6 0 10 -262144 -258049
-176129 0 1;
#X obj 94 47 cnv 10 44 15 empty \$0-voicename-r Unnamed\ 1 1 6 0 10
-233017 -66577 0;
#N canvas 0 0 450 300 (subpatch) 0;
#X array grad\$0 32 float 2 black black;
#X coords 0 1 32 -1 57 14 1;
#X restore 97 66 graph;
#X msg 41 112 \$0;
#X floatatom 41 137 5 0 0 0 - - -, f 5;
#X floatatom 138 46 3 0 0 0 - - -, f 3;
#X obj 249 89 bng 15 250 50 0 empty buttonguibang-r buttonguibang 17
7 0 10 -262144 -1 -1;
#X obj 249 113 \$1;
#X obj 277 191 s buttonguibang-r;
#X msg 277 166 receive \$1-buttonguibang-r;
#X obj 249 32 s buttonguibang-r;
#X obj 250 3 bng 15 250 50 0 empty empty empty 17 7 0 10 -262144 -1
-1;
#X obj 291 361 s;
#X text 280 381 send to slider;
#X msg 327 252 receive slider_voice\$1;
#X msg 319 276 symbol slider_voice\$1;
#X floatatom 335 223 5 0 0 0 - - -, f 5;
#X obj 250 222 t f b f f f;
#X msg 308 299 label;
#N canvas 731 372 450 373 gradarray-init 0;
#X msg 289 28 32;
#X obj 289 55 array size gradarray;
#X obj 205 125 int;
#X floatatom 205 144 5 0 0 0 - - -, f 5;
#X obj 222 57 pack f f;
#X obj 204 95 expr $f2 / $f1;
#X msg 219 3 4;
#X obj 167 4 inlet;
#X text 27 4 number of bars to show;
#X msg 348 119 \; \$2 const \$1;
#X obj 287 6 t f b f f;
#X obj 208 170 pack f f;
#X msg 205 195 \; grad\$2 xticks 0 \$1 1;
#X msg 433 47 \; grad\$0 rename grad\$1;
#X msg 348 90 -1 grad\$1;
#X obj 296 -16 inlet;
#X connect 0 0 4 1;
#X connect 2 0 3 0;
#X connect 3 0 11 0;
#X connect 4 0 5 0;
#X connect 5 0 2 0;
#X connect 6 0 4 0;
#X connect 7 0 4 0;
#X connect 10 0 11 1;
#X connect 10 1 0 0;
#X connect 10 2 14 0;
#X connect 10 3 13 0;
#X connect 11 0 12 0;
#X connect 14 0 9 0;
#X connect 15 0 10 0;
#X restore 104 267 pd gradarray-init;
#X obj 248 137 t f f f;
#X obj 104 238 tools/receiver;
#X msg 121 217 \$1-trackbars-s;
#X obj 70 195 t b f b f f;
#X connect 6 0 7 0;
#X connect 9 0 10 0;
#X connect 10 0 8 0;
#X connect 10 0 23 0;
#X connect 12 0 11 0;
#X connect 14 0 13 0;
#X connect 17 0 15 0;
#X connect 18 0 15 1;
#X connect 19 0 18 0;
#X connect 20 0 19 0;
#X connect 20 2 21 0;
#X connect 20 3 18 0;
#X connect 20 4 17 0;
#X connect 21 0 15 0;
#X connect 23 0 26 0;
#X connect 23 1 20 0;
#X connect 23 2 12 0;
#X connect 24 0 22 0;
#X connect 25 0 24 0;
#X connect 26 2 24 0;
#X connect 26 3 25 0;
#X connect 26 4 22 1;
#X coords 0 -1 1 1 104 41 2 55 44;
