#N canvas 120 193 488 500 10;
#X floatatom 124 68 3 1 127 0 - - -, f 3;
#X dropdown 81 68 4 0 0 0 - - -, f 4;
#X obj 63 50 moonlib/mknob 16 20 0 127 0 0 volcfg-s volcfg-r V 4 7
0 11 -191407 -1 -253822 0 0;
#X obj 63 68 moonlib/mknob 16 128 0 127 0 1 0-pancfg-s 0-pancfg-r P
4 7 0 11 -191407 -1 -249661 6300 0;
#X symbolatom 81 50 7 0 0 0 - - -, f 7;
#N canvas 372 98 450 623 init_buttoncfg 0;
#X obj 68 43 \$1;
#X obj 119 322 tools/receiver;
#X floatatom 119 345 5 0 0 0 - - -, f 5;
#X floatatom 33 82 5 0 0 0 - - -, f 5;
#X msg 116 132 \$1 vol;
#X msg 119 299 \$1-track\$2-s;
#X obj 119 368 s;
#X msg 100 154 \$1 pan;
#X msg 85 176 \$1 bars;
#X msg 69 199 \$1 output;
#X msg 132 113 \$1 name;
#X obj 68 448 s;
#X obj 68 248 t a a a a;
#X msg 85 394 symbol \$1-track\$2-r;
#X msg 68 418 bang;
#X obj 68 17 inlet;
#X obj 68 91 t f f f f f b f;
#X obj 399 141 s initbang-buttoncfg-r;
#X msg 399 110 receive \$1-initbang-buttoncfg-r;
#X msg 145 274 symbol \$1-\$2cfg-r;
#X text 79 230 initiate values:;
#X obj 68 67 t f f;
#X msg 309 222 \$1 vol;
#X obj 295 414 s;
#X msg 293 244 \$1 pan;
#X msg 278 266 \$1 bars;
#X msg 262 289 \$1 output;
#X msg 325 203 \$1 name;
#X obj 261 338 t a a a a;
#X text 272 320 rename elements:;
#X obj 261 91 t f f f f f f f f;
#X msg 345 128 \$1 play;
#X msg 335 163 \$1 stop;
#X msg 321 364 symbol \$2cfg-r;
#X msg 295 389 send \$1-\$2cfg-s \, receive \$1-\$2cfg-r;
#X connect 0 0 3 0;
#X connect 0 0 21 0;
#X connect 1 0 2 0;
#X connect 2 0 6 0;
#X connect 4 0 12 0;
#X connect 5 0 1 0;
#X connect 7 0 12 0;
#X connect 8 0 12 0;
#X connect 9 0 12 0;
#X connect 10 0 12 0;
#X connect 12 0 14 0;
#X connect 12 1 13 0;
#X connect 12 2 5 0;
#X connect 12 3 19 0;
#X connect 13 0 11 1;
#X connect 14 0 11 0;
#X connect 15 0 0 0;
#X connect 16 0 9 0;
#X connect 16 1 8 0;
#X connect 16 2 7 0;
#X connect 16 3 4 0;
#X connect 16 4 10 0;
#X connect 18 0 17 0;
#X connect 19 0 6 1;
#X connect 21 0 16 0;
#X connect 21 1 30 0;
#X connect 22 0 28 0;
#X connect 24 0 28 0;
#X connect 25 0 28 0;
#X connect 26 0 28 0;
#X connect 27 0 28 0;
#X connect 28 2 34 0;
#X connect 28 3 33 0;
#X connect 30 0 26 0;
#X connect 30 1 25 0;
#X connect 30 2 24 0;
#X connect 30 3 22 0;
#X connect 30 4 27 0;
#X connect 30 5 32 0;
#X connect 30 6 31 0;
#X connect 30 7 18 0;
#X connect 31 0 28 0;
#X connect 32 0 28 0;
#X connect 33 0 23 1;
#X connect 34 0 23 0;
#X restore 251 60 pd init_buttoncfg;
#X floatatom 45 108 5 0 0 0 - - -, f 5;
#X floatatom 44 137 5 0 0 0 - - -, f 5;
#X obj 208 70 \$1;
#X obj 203 13 bng 15 250 50 0 empty initbang-buttoncfg-r initbang-buttoncfg
17 7 0 10 -262144 -1 -1;
#X obj 204 36 t b b;
#X obj 208 94 t f f f f f f f f, f 23;
#X obj 139 11 loadbang;
#X obj 46 69 bng 16 250 50 0 stopcfg-s stopcfg-r S 4 6 0 10 -262144
-1 -1;
#X obj 46 51 tgl 16 0 playcfg-s playcfg-r P 4 6 0 10 -262144 -1 -1
0 1;
#X obj 328 144 s;
#X obj 308 194 s;
#X obj 289 244 s;
#X obj 246 380 tools/receiver;
#X obj 271 291 tools/receiver;
#X obj 256 335 tools/receiver;
#X floatatom 383 88 5 0 0 0 - - -, f 5;
#X msg 271 266 \$1-namecfg-s;
#X msg 256 310 \$1-outputcfg-s;
#X msg 246 355 \$1-barscfg-s;
#X msg 323 168 symbol \$1-outputcfg-r;
#X msg 343 119 symbol \$1-namecfg-r;
#X msg 304 218 symbol \$1-barscfg-r;
#X connect 0 0 17 0;
#X connect 1 0 16 0;
#X connect 2 0 6 0;
#X connect 3 0 7 0;
#X connect 4 0 15 0;
#X connect 8 0 11 0;
#X connect 9 0 10 0;
#X connect 10 0 8 0;
#X connect 10 1 5 0;
#X connect 11 2 24 0;
#X connect 11 3 23 0;
#X connect 11 4 22 0;
#X connect 11 5 27 0;
#X connect 11 6 25 0;
#X connect 11 7 26 0;
#X connect 11 7 21 0;
#X connect 18 0 0 0;
#X connect 19 0 4 0;
#X connect 20 0 1 0;
#X connect 22 0 19 0;
#X connect 23 0 20 0;
#X connect 24 0 18 0;
#X connect 25 0 16 1;
#X connect 26 0 15 1;
#X connect 27 0 17 1;
#X coords 0 -1 1 1 103 40 2 43 48;
