#N canvas 46 38 1030 704 10;
#X floatatom 124 68 3 1 127 0 - - -, f 3;
#X dropdown 81 68 4 0 0 0 - - -, f 4;
#X obj 63 50 moonlib/mknob 16 20 0 127 0 0 volcfg-s volcfg-r V 4 7
0 11 -191407 -1 -253822 0 0;
#X obj 63 68 moonlib/mknob 16 128 0 127 0 1 0-pancfg-s 0-pancfg-r P
4 7 0 11 -191407 -1 -249661 6300 0;
#X symbolatom 81 50 7 0 0 0 - - -, f 7;
#N canvas 712 119 450 648 init_buttoncfg 0;
#X obj 68 43 \$1;
#X obj 119 322 tools/receiver;
#X floatatom 119 345 5 0 0 0 - - -, f 5;
#X floatatom 33 82 5 0 0 0 - - -, f 5;
#X msg 116 132 \$1 vol;
#X msg 119 299 \$1-track\$2-s;
#X obj 119 368 s;
#X msg 100 154 \$1 pan;
#X msg 85 176 \$1 bars;
#X msg 69 199 \$1 output;
#X msg 132 113 \$1 name;
#X obj 68 448 s;
#X obj 68 248 t a a a a;
#X msg 85 394 symbol \$1-track\$2-r;
#X msg 68 418 bang;
#X obj 68 17 inlet;
#X obj 68 91 t f f f f f b f;
#X obj 399 141 s initbang-buttoncfg-r;
#X msg 399 110 receive \$1-initbang-buttoncfg-r;
#X msg 145 274 symbol \$1-\$2cfg-r;
#X text 79 230 initiate values:;
#X obj 68 67 t f f;
#X msg 309 222 \$1 vol;
#X obj 295 414 s;
#X msg 293 244 \$1 pan;
#X msg 278 266 \$1 bars;
#X msg 262 289 \$1 output;
#X msg 325 203 \$1 name;
#X obj 261 338 t a a a a;
#X text 272 320 rename elements:;
#X obj 261 91 t f f f f f f f f;
#X msg 345 128 \$1 play;
#X msg 335 163 \$1 stop;
#X msg 321 364 symbol \$2cfg-r;
#X msg 295 389 send \$1-\$2cfg-s \, receive \$1-\$2cfg-r;
#X connect 0 0 3 0;
#X connect 0 0 21 0;
#X connect 1 0 2 0;
#X connect 2 0 6 0;
#X connect 4 0 12 0;
#X connect 5 0 1 0;
#X connect 7 0 12 0;
#X connect 8 0 12 0;
#X connect 9 0 12 0;
#X connect 10 0 12 0;
#X connect 12 0 14 0;
#X connect 12 1 13 0;
#X connect 12 2 5 0;
#X connect 12 3 19 0;
#X connect 13 0 11 1;
#X connect 14 0 11 0;
#X connect 15 0 0 0;
#X connect 16 0 9 0;
#X connect 16 1 8 0;
#X connect 16 2 7 0;
#X connect 16 3 4 0;
#X connect 16 4 10 0;
#X connect 18 0 17 0;
#X connect 19 0 6 1;
#X connect 21 0 16 0;
#X connect 21 1 30 0;
#X connect 22 0 28 0;
#X connect 24 0 28 0;
#X connect 25 0 28 0;
#X connect 26 0 28 0;
#X connect 27 0 28 0;
#X connect 28 2 34 0;
#X connect 28 3 33 0;
#X connect 30 0 26 0;
#X connect 30 1 25 0;
#X connect 30 2 24 0;
#X connect 30 3 22 0;
#X connect 30 4 27 0;
#X connect 30 5 32 0;
#X connect 30 6 31 0;
#X connect 30 7 18 0;
#X connect 31 0 28 0;
#X connect 32 0 28 0;
#X connect 33 0 23 1;
#X connect 34 0 23 0;
#X restore 251 60 pd init_buttoncfg;
#X floatatom 45 108 5 0 0 0 - - -, f 5;
#X floatatom 44 137 5 0 0 0 - - -, f 5;
#X obj 208 70 \$1;
#X obj 203 13 bng 15 250 50 0 empty initbang-buttoncfg-r initbang-buttoncfg
17 7 0 10 -262144 -1 -1;
#X obj 204 36 t b b;
#X obj 139 11 loadbang;
#X obj 46 69 bng 16 250 50 0 stopcfg-s stopcfg-r S 4 6 0 10 -262144
-1 -1;
#X obj 46 51 tgl 16 0 playcfg-s playcfg-r P 4 6 0 10 -262144 -1 -1
0 1;
#X floatatom 484 42 5 0 0 0 - - -, f 5;
#X obj 162 95 t f f f f f f f, f 77;
#X obj 376 574 s;
#X obj 410 523 tools/receiver;
#X msg 391 445 \$1 vol;
#X obj 391 472 t a b a;
#X msg 391 549 symbol \$1-track\$2-r;
#X msg 430 498 \$1-track\$2-s;
#X obj 453 410 s;
#X obj 487 359 tools/receiver;
#X obj 468 308 t a b a;
#X msg 468 385 symbol \$1-track\$2-r;
#X msg 507 334 \$1-track\$2-s;
#X msg 468 281 \$1 pan;
#X obj 300 250 s;
#X obj 334 199 tools/receiver;
#X obj 315 148 t a b a;
#X msg 315 225 symbol \$1-track\$2-r;
#X msg 354 174 \$1-track\$2-s;
#X msg 315 121 \$1 name;
#X obj 147 577 s;
#X obj 181 526 tools/receiver;
#X obj 162 475 t a b a;
#X msg 162 552 symbol \$1-track\$2-r;
#X msg 201 501 \$1-track\$2-s;
#X msg 162 448 \$1 bars;
#X obj 254 413 s;
#X obj 285 362 tools/receiver;
#X msg 269 388 symbol \$1-track\$2-r;
#X msg 301 337 \$1-track\$2-s;
#X msg 238 264 \$1 output;
#X obj 529 243 s;
#X obj 544 151 t a b a;
#X msg 544 124 \$1 play;
#X obj 563 195 tools/receiver;
#X msg 583 172 \$1-\$2-s;
#X msg 544 222 symbol \$1-\$2-r;
#X obj 621 301 s initbang-buttoncfg-r;
#X msg 621 270 receive \$1-initbang-buttoncfg-r;
#X msg 253 313 names 1_2 3_4 5_6 7_8 9_10 11_12;
#X msg 238 335 set 1_2;
#X obj 238 291 t b b a b a;
#X connect 0 0 34 0;
#X connect 1 0 40 0;
#X connect 2 0 6 0;
#X connect 2 0 16 0;
#X connect 3 0 7 0;
#X connect 3 0 22 0;
#X connect 4 0 28 0;
#X connect 8 0 15 0;
#X connect 8 0 14 0;
#X connect 9 0 10 0;
#X connect 10 0 8 0;
#X connect 13 0 45 0;
#X connect 15 0 39 0;
#X connect 15 1 44 0;
#X connect 15 2 33 0;
#X connect 15 3 18 0;
#X connect 15 4 27 0;
#X connect 15 5 47 0;
#X connect 15 6 52 0;
#X connect 17 0 2 0;
#X connect 18 0 19 0;
#X connect 19 0 20 0;
#X connect 19 1 17 0;
#X connect 19 2 21 0;
#X connect 20 0 16 1;
#X connect 21 0 17 0;
#X connect 23 0 3 0;
#X connect 24 0 25 0;
#X connect 24 1 23 0;
#X connect 24 2 26 0;
#X connect 25 0 22 1;
#X connect 26 0 23 0;
#X connect 27 0 24 0;
#X connect 29 0 4 0;
#X connect 30 0 31 0;
#X connect 30 1 29 0;
#X connect 30 2 32 0;
#X connect 31 0 28 1;
#X connect 32 0 29 0;
#X connect 33 0 30 0;
#X connect 35 0 0 0;
#X connect 36 0 37 0;
#X connect 36 1 35 0;
#X connect 36 2 38 0;
#X connect 37 0 34 1;
#X connect 38 0 35 0;
#X connect 39 0 36 0;
#X connect 41 0 1 0;
#X connect 42 0 40 1;
#X connect 43 0 41 0;
#X connect 44 0 55 0;
#X connect 46 0 50 0;
#X connect 46 1 48 0;
#X connect 46 2 49 0;
#X connect 47 0 46 0;
#X connect 48 0 13 0;
#X connect 49 0 48 0;
#X connect 50 0 45 1;
#X connect 52 0 51 0;
#X connect 53 0 1 0;
#X connect 54 0 1 0;
#X connect 55 0 54 0;
#X connect 55 1 53 0;
#X connect 55 2 42 0;
#X connect 55 3 41 0;
#X connect 55 4 43 0;
#X coords 0 -1 1 1 103 40 2 43 48;
