#N canvas 741 185 450 325 10;
#N canvas 451 105 798 620 OSCconnections 0;
#X obj 41 98 loadbang;
#X obj 42 420 mrpeach/udpsend;
#X obj 41 465 tgl 15 0 empty empty empty 17 7 0 10 #fcfcfc #000000
#000000 1 1;
#X obj 64 339 mrpeach/packOSC;
#X msg 50 156 disconnect;
#X obj 37 24 bng 15 250 50 0 empty empty connect_to_8081 17 7 0 10
#fcfcfc #000000 #000000;
#X obj 36 47 bng 15 250 50 0 empty empty disconnect 17 7 0 10 #fcfcfc
#000000 #000000;
#X obj 156 13 tgl 18 0 empty empty connected 35 6 0 10 #fcfcfc #000000
#000000 1 1;
#X obj 282 33 import mrpeach;
#X obj 237 109 r toui;
#X obj 293 158 list split 1;
#X msg 293 183 send /zig/ui\$1;
#X obj 293 208 list append;
#X obj 293 233 list trim;
#X obj 256 390 mrpeach/routeOSC /zig;
#X obj 256 440 s fromui;
#X obj 157 33 tgl 15 0 empty empty printOSC\ in 17 7 0 10 #fcfcfc #000000
#000000 0 1;
#X obj 156 50 tgl 15 0 empty empty printOSC\ out 17 7 0 10 #fcfcfc
#000000 #000000 0 1;
#X obj 203 462 spigot;
#X obj 319 277 spigot;
#X obj 319 302 print OSCout_toui;
#X obj 203 487 print OSCin_fromui;
#X obj 292 254 t a a;
#X obj 237 131 route [ ], f 10;
#X msg 237 158 [;
#X msg 265 158 ];
#X obj 432 124 r fromui;
#X msg 354 85 /oscconnect/status \$1;
#X obj 354 110 s toui;
#X obj 51 72 t b 0;
#X obj 256 364 mrpeach/unpackOSC;
#X obj 432 149 mrpeach/routeOSC /oscconnect;
#X obj 432 173 mrpeach/routeOSC /connect /disconnect /printIn /printOut
;
#X obj 256 341 mrpeach/udpreceive 8082;
#X msg 41 123 connect localhost 8081;
#X obj 256 415 mrpeach/routeOSC /pdfluid;
#X obj 50 389 spigot;
#X obj 108 10 tgl 15 0 empty empty empty 17 7 0 10 #fcfcfc #000000
#000000 1 1;
#X connect 0 0 34 0;
#X connect 1 0 2 0;
#X connect 2 0 7 0;
#X connect 2 0 37 0;
#X connect 3 0 36 0;
#X connect 4 0 1 0;
#X connect 5 0 34 0;
#X connect 6 0 29 0;
#X connect 7 0 27 0;
#X connect 9 0 23 0;
#X connect 10 0 11 0;
#X connect 10 1 12 1;
#X connect 11 0 12 0;
#X connect 12 0 13 0;
#X connect 13 0 22 0;
#X connect 14 0 35 0;
#X connect 16 0 18 1;
#X connect 17 0 19 1;
#X connect 18 0 21 0;
#X connect 19 0 20 0;
#X connect 22 0 3 0;
#X connect 22 1 19 0;
#X connect 23 0 24 0;
#X connect 23 1 25 0;
#X connect 23 2 10 0;
#X connect 24 0 22 0;
#X connect 25 0 22 0;
#X connect 26 0 31 0;
#X connect 27 0 28 0;
#X connect 29 0 4 0;
#X connect 29 1 7 0;
#X connect 30 0 18 0;
#X connect 30 0 14 0;
#X connect 31 0 32 0;
#X connect 32 0 5 0;
#X connect 32 1 6 0;
#X connect 32 2 16 0;
#X connect 32 3 17 0;
#X connect 33 0 30 0;
#X connect 34 0 1 0;
#X connect 35 0 15 0;
#X connect 36 0 1 0;
#X connect 37 0 36 1;
#X coords 0 -1 1 1 235 60 1 26 8;
#X restore 15 13 pd OSCconnections;
#X obj 13 120 midifluid;
#N canvas 94 143 708 581 sound_input 0;
#X text 125 7 switch between adc~ and midifluid, f 14;
#X dropdown 51 114 6 0 0 0 - - -, f 6;
#X obj 51 9 loadbang;
#X floatatom 150 172 5 0 0 0 - - -, f 5;
#X obj 150 196 select 0 1, f 41;
#X obj 51 134 tgl 15 0 empty empty monitor-> 17 7 0 10 #fcfcfc #000000
#000000 1 1;
#X text 156 386 [spigot~] sends to left output if input=0 \, sends
to right outlet if input=1, f 35;
#X obj 290 359 send~ sigin_2;
#X obj 51 34 t b b 1;
#X msg 51 80 set 1;
#X obj 260 13 r fromui;
#X obj 260 38 routeOSC /input;
#X obj 260 63 routeOSC /monitor /dd /volmon, f 31;
#X msg 317 88 \$1;
#X obj 150 358 send~ sigin_1;
#N canvas 302 151 473 506 input_adc~ 0;
#X obj 264 140 dsp_switch;
#X obj 170 21 inlet;
#X obj 21 91 adc~, f 17;
#X obj 21 246 spigot~;
#X obj 119 247 spigot~;
#X floatatom 61 222 5 0 0 0 - - -, f 5;
#X text 217 241 [spigot~] sends to left output if right input=0 \,
sends to right outlet if right input=1, f 35;
#X obj 60 285 outlet~;
#X obj 158 285 outlet~;
#X obj 119 209 *~;
#X obj 21 203 *~;
#X floatatom 170 46 5 0 0 0 - - -, f 5;
#X obj 170 70 select 1 0, f 19;
#X obj 170 109 t 1 1 1;
#X obj 225 107 t 0 0 0;
#X obj 264 213 switch~;
#X connect 0 0 15 0;
#X connect 0 1 9 1;
#X connect 0 1 10 1;
#X connect 1 0 11 0;
#X connect 2 0 10 0;
#X connect 2 1 9 0;
#X connect 3 1 7 0;
#X connect 4 1 8 0;
#X connect 5 0 3 1;
#X connect 9 0 4 0;
#X connect 10 0 3 0;
#X connect 11 0 12 0;
#X connect 12 0 13 0;
#X connect 12 1 14 0;
#X connect 13 0 5 0;
#X connect 13 1 4 1;
#X connect 13 2 0 0;
#X connect 14 0 5 0;
#X connect 14 1 4 1;
#X connect 14 2 0 0;
#X restore 150 280 pd input_adc~;
#N canvas 245 205 473 531 input_fluid~ 0;
#X obj 362 193 dsp_switch;
#X obj 300 21 inlet;
#X obj 56 326 spigot~, f 8;
#X obj 146 327 spigot~;
#X floatatom 101 301 5 0 0 0 - - -, f 5;
#X text 252 317 [spigot~] sends to left output if right input=0 \,
sends to right outlet if right input=1, f 35;
#X obj 101 385 outlet~;
#X obj 185 385 outlet~;
#X obj 146 267 *~;
#X obj 56 267 *~;
#X floatatom 300 46 5 0 0 0 - - -, f 5;
#X obj 300 70 select 1 0, f 19;
#X obj 300 109 t 1 1 1;
#X obj 355 109 t 0 0 0;
#X obj 58 53 catch~ fluid_1, f 17;
#X obj 148 81 catch~ fluid_2, f 17;
#X obj 362 242 switch~;
#X connect 0 0 16 0;
#X connect 0 1 8 1;
#X connect 0 1 9 1;
#X connect 1 0 10 0;
#X connect 2 1 6 0;
#X connect 3 1 7 0;
#X connect 4 0 2 1;
#X connect 8 0 3 0;
#X connect 9 0 2 0;
#X connect 10 0 11 0;
#X connect 11 0 12 0;
#X connect 11 1 13 0;
#X connect 12 0 4 0;
#X connect 12 1 3 1;
#X connect 12 2 0 0;
#X connect 13 0 4 0;
#X connect 13 1 3 1;
#X connect 13 2 0 0;
#X connect 14 0 9 0;
#X connect 15 0 8 0;
#X restore 288 280 pd input_fluid~;
#N canvas 791 151 430 396 monitor 0;
#X obj 120 31 inlet;
#X floatatom 120 56 5 0 0 0 - - -, f 5;
#X obj 81 156 spigot~;
#X obj 142 156 spigot~;
#X text 96 318 monitoring to adc~;
#X obj 120 270 output~;
#X obj 81 109 receive~ sigin_1;
#X obj 142 130 receive~ sigin_2;
#X obj 284 30 inlet;
#X text 329 32 volmon;
#X obj 243 150 dsp_switch;
#X obj 120 81 t f f f, f 21;
#X obj 120 209 *~;
#X obj 181 208 *~;
#X obj 243 208 switch~;
#X connect 0 0 1 0;
#X connect 1 0 11 0;
#X connect 2 1 12 0;
#X connect 3 1 13 0;
#X connect 6 0 2 0;
#X connect 7 0 3 0;
#X connect 8 0 5 2;
#X connect 10 0 14 0;
#X connect 10 1 12 1;
#X connect 10 1 13 1;
#X connect 11 0 2 1;
#X connect 11 1 3 1;
#X connect 11 2 10 0;
#X connect 12 0 5 0;
#X connect 13 0 5 1;
#X coords 0 -1 1 1 93 43 2 118 268;
#X restore 125 107 pd monitor;
#X msg 70 58 names adc~ midifluid none;
#X obj 393 271 dsp_switch;
#X obj 393 219 t 0;
#X obj 150 335 *~;
#X obj 290 332 *~;
#X obj 393 355 switch~;
#X obj 271 237 t 0 1 1 1 1;
#X obj 508 272 s fluidswitch;
#X obj 150 235 t 1 0 0 1 0;
#X connect 1 0 3 0;
#X connect 2 0 8 0;
#X connect 3 0 4 0;
#X connect 4 0 26 0;
#X connect 4 1 24 0;
#X connect 4 2 20 0;
#X connect 5 0 17 0;
#X connect 8 0 9 0;
#X connect 8 1 18 0;
#X connect 8 2 5 0;
#X connect 9 0 1 0;
#X connect 10 0 11 0;
#X connect 11 0 12 0;
#X connect 12 0 5 0;
#X connect 12 1 13 0;
#X connect 12 2 17 1;
#X connect 13 0 1 0;
#X connect 15 0 21 0;
#X connect 15 1 22 0;
#X connect 16 0 21 0;
#X connect 16 1 22 0;
#X connect 18 0 1 0;
#X connect 19 0 23 0;
#X connect 19 1 21 1;
#X connect 19 1 22 1;
#X connect 20 0 19 0;
#X connect 21 0 14 0;
#X connect 22 0 7 0;
#X connect 24 0 15 0;
#X connect 24 1 16 0;
#X connect 24 2 5 0;
#X connect 24 3 19 0;
#X connect 24 4 25 0;
#X connect 26 0 15 0;
#X connect 26 1 16 0;
#X connect 26 2 5 0;
#X connect 26 3 19 0;
#X connect 26 4 25 0;
#X coords 0 -1 1 1 171 51 1 49 103;
#X restore 177 121 pd sound_input;
#N canvas 621 122 540 462 monitor_vu 0;
#X obj 23 213 receive~ sigin_1;
#X obj 24 286 - 100;
#X floatatom 133 82 5 0 0 0 - - -, f 5;
#X obj 111 83 tgl 15 0 empty empty empty 17 7 0 10 #fcfcfc #000000
#000000 0 1;
#X msg 29 372 /monitor \$1;
#X obj 29 397 s toui;
#X obj 110 17 r fromui;
#X obj 110 42 routeOSC /monitor;
#X obj 24 261 env~ 8192;
#X obj 153 288 - 100;
#X obj 154 263 env~ 8192;
#X obj 153 212 adc~;
#X floatatom 133 113 5 0 0 2 adc~ - -, f 5;
#X obj 113 114 tgl 15 0 empty empty empty 17 7 0 10 #fcfcfc #000000
#000000 0 1;
#X obj 23 237 spigot~;
#X obj 153 235 spigot~;
#X obj 29 327 spigot;
#X obj 153 319 spigot;
#X obj 45 149 t f f f;
#X obj 141 151 t f f f;
#X obj 305 192 dsp_switch;
#X obj 304 157 max;
#X obj 275 124 t b f;
#X obj 305 241 switch~;
#X connect 0 0 14 0;
#X connect 1 0 16 0;
#X connect 3 0 18 0;
#X connect 3 0 21 0;
#X connect 4 0 5 0;
#X connect 6 0 7 0;
#X connect 7 0 3 0;
#X connect 8 0 1 0;
#X connect 9 0 17 0;
#X connect 10 0 9 0;
#X connect 11 0 15 0;
#X connect 13 0 19 0;
#X connect 13 0 22 0;
#X connect 14 1 8 0;
#X connect 15 1 10 0;
#X connect 16 0 2 0;
#X connect 16 0 4 0;
#X connect 17 0 12 0;
#X connect 18 0 16 1;
#X connect 18 1 14 1;
#X connect 19 0 17 1;
#X connect 19 1 15 1;
#X connect 20 0 23 0;
#X connect 21 0 20 0;
#X connect 22 0 21 0;
#X connect 22 1 21 1;
#X coords 0 -1 1 1 74 73 1 107 60;
#X restore 354 120 pd monitor_vu;
#X obj 179 195 midi_in_monitor;
#N canvas 1041 221 450 325 init 0;
#X obj 90 21 loadbang;
#X msg 195 100 \; pd dsp 1;
#X obj 90 76 t b b, f 18;
#X obj 90 101 samplerate~;
#X obj 90 126 s samplerateval;
#X obj 90 46 bng 15 250 50 0 empty empty empty 17 7 0 10 #fcfcfc #000000
#000000;
#X connect 0 0 5 0;
#X connect 2 0 3 0;
#X connect 2 1 1 0;
#X connect 3 0 4 0;
#X connect 5 0 2 0;
#X restore 294 26 pd init;
#N canvas 576 162 633 440 sound_outputs 0;
#X obj 19 20 catch~ signal_1;
#X obj 43 44 catch~ signal_2;
#X obj 69 65 catch~ signal_3;
#X obj 94 89 catch~ signal_4;
#X obj 123 112 catch~ signal_5;
#X obj 148 135 catch~ signal_6;
#X obj 171 159 catch~ signal_7;
#X obj 197 181 catch~ signal_8;
#X obj 224 18 catch~ signal_9;
#X obj 249 42 catch~ signal_10;
#X obj 275 68 catch~ signal_11;
#X obj 300 90 catch~ signal_12;
#X obj 514 121 r metrostart;
#X msg 514 146 1;
#X obj 514 171 dsp_switch;
#X obj 514 220 switch~;
#X obj 541 76 r metrostop;
#X msg 541 101 0;
#X obj 18 231 *~;
#X obj 43 230 *~;
#X obj 69 229 *~;
#X obj 94 228 *~;
#X obj 121 230 *~;
#X obj 147 229 *~;
#X obj 171 229 *~;
#X obj 197 229 *~;
#X obj 224 229 *~;
#X obj 249 227 *~;
#X obj 275 229 *~;
#X obj 300 228 *~;
#X obj 18 254 dac~ 1 2 3 4 5 6 7 8 9 10 11 12 13 14 15 16, f 65;
#X obj 325 229 *~;
#X obj 350 227 *~;
#X obj 376 229 *~;
#X obj 401 228 *~;
#X obj 324 113 catch~ signal_13;
#X obj 350 135 catch~ signal_14;
#X obj 376 158 catch~ signal_15;
#X obj 401 181 catch~ signal_16;
#X connect 0 0 18 0;
#X connect 1 0 19 0;
#X connect 2 0 20 0;
#X connect 3 0 21 0;
#X connect 4 0 22 0;
#X connect 5 0 23 0;
#X connect 6 0 24 0;
#X connect 7 0 25 0;
#X connect 8 0 26 0;
#X connect 9 0 27 0;
#X connect 10 0 28 0;
#X connect 11 0 29 0;
#X connect 12 0 13 0;
#X connect 13 0 14 0;
#X connect 14 0 15 0;
#X connect 14 1 34 1;
#X connect 14 1 33 1;
#X connect 14 1 32 1;
#X connect 14 1 31 1;
#X connect 14 1 29 1;
#X connect 14 1 28 1;
#X connect 14 1 27 1;
#X connect 14 1 26 1;
#X connect 14 1 25 1;
#X connect 14 1 24 1;
#X connect 14 1 23 1;
#X connect 14 1 22 1;
#X connect 14 1 21 1;
#X connect 14 1 20 1;
#X connect 14 1 19 1;
#X connect 14 1 18 1;
#X connect 16 0 17 0;
#X connect 17 0 14 0;
#X connect 18 0 30 0;
#X connect 19 0 30 1;
#X connect 20 0 30 2;
#X connect 21 0 30 3;
#X connect 22 0 30 4;
#X connect 23 0 30 5;
#X connect 24 0 30 6;
#X connect 25 0 30 7;
#X connect 26 0 30 8;
#X connect 27 0 30 9;
#X connect 28 0 30 10;
#X connect 29 0 30 11;
#X connect 31 0 30 12;
#X connect 32 0 30 13;
#X connect 33 0 30 14;
#X connect 34 0 30 15;
#X connect 35 0 31 0;
#X connect 36 0 32 0;
#X connect 37 0 33 0;
#X connect 38 0 34 0;
#X restore 295 48 pd sound_outputs;
#N canvas 459 245 390 271 stdout_pdsend 0;
#X obj 71 35 netreceive 9999 1;
#X obj 71 60 t a a;
#X obj 98 83 print;
#X text 187 35 stderr is redirected to stdout in pdlooper.sh \, then
piped to `pdsend 9999 localhost udp` so we can catch it here., f 28
;
#X obj 71 108 route Loaded;
#X obj 71 133 route Soundfont:;
#X obj 71 158 list2symbol;
#X obj 71 183 splitfilename;
#X obj 146 213 s stdout_sndfnt_loaded;
#X msg 250 123 hola;
#X obj 250 148 stdout -f;
#X connect 0 0 1 0;
#X connect 1 0 4 0;
#X connect 1 1 2 0;
#X connect 4 0 5 0;
#X connect 5 0 6 0;
#X connect 6 0 7 0;
#X connect 7 1 8 0;
#X connect 9 0 10 0;
#X restore 295 69 pd stdout_pdsend;
