#N canvas 1084 338 544 558 10;
#N canvas 963 107 450 692 metronome 0;
#X text 113 527 OSC messages to /ui/metro;
#X text 145 15 OSC messages to /dsp/metro;
#X floatatom 23 97 5 0 0 0 - - -, f 5;
#X obj 23 126 t f b;
#X obj 23 174 metro;
#X obj 23 199 f 0;
#X floatatom 23 224 5 0 0 0 - - -, f 5;
#X obj 23 248 mod 4;
#X floatatom 23 273 5 0 0 0 - - -, f 5;
#X obj 55 199 + 1;
#X text 63 272 beat number between 0 and 3;
#X obj 74 322 spigot;
#X floatatom 92 83 5 0 0 0 - - -, f 5;
#X msg 74 349 1;
#N canvas 918 78 450 325 click 0;
#X obj 86 15 inlet;
#X obj 86 40 t f f;
#X obj 86 65 * -1;
#X obj 86 120 pack -1 1 f;
#X msg 86 145 \$1 0 \, \$2 0 \, 0 \$3;
#X obj 86 170 vline~;
#X obj 86 195 outlet~;
#X obj 203 13 loadbang;
#X floatatom 203 58 5 0 0 0 - - -, f 5;
#X msg 203 36 31;
#X obj 203 82 / 100;
#X connect 0 0 1 0;
#X connect 1 0 2 0;
#X connect 1 1 3 1;
#X connect 2 0 3 0;
#X connect 3 0 4 0;
#X connect 4 0 5 0;
#X connect 5 0 6 0;
#X connect 7 0 9 0;
#X connect 8 0 10 0;
#X connect 9 0 8 0;
#X connect 10 0 3 2;
#X restore 74 374 pd click;
#X obj 74 399 *~ 0.5;
#X obj 74 424 dac~;
#X msg 162 95 53;
#X obj 162 120 makenote 127;
#X obj 162 145 beat 4;
#X text 195 93 midi note used by [beat];
#X obj 162 191 pow -1;
#X obj 162 216 * 60000;
#X floatatom 162 241 5 0 0 0 - - -, f 5;
#X floatatom 232 75 5 0 0 0 - - -, f 5;
#X obj 349 53 loadbang;
#X msg 349 78 120;
#X text 201 243 tempo in ms;
#X obj 162 74 bng 15 250 50 0 empty empty empty 17 7 0 10 -262144 -1
-1;
#X msg 38 148 0;
#X floatatom 162 168 5 0 0 0 - - -, f 5;
#X obj 23 75 tgl 15 0 empty empty empty 17 7 0 10 -262144 -1 -1 0 1
;
#X obj 14 323 select 0;
#X obj 23 2 r fromui;
#X msg 121 461 /metro/tempo_bpm \$1;
#X msg 144 437 /metro/tempo_ms \$1;
#X msg 57 484 /metro/beatnum \$1;
#X obj 57 522 s toui;
#X obj 23 27 mrpeach/routeOSC /metro;
#X obj 23 53 mrpeach/routeOSC /playpause /click /tap /bpmvalue, f
50;
#X obj 23 297 t b f f f f, f 12;
#X obj 286 515 s beatnum;
#X obj 358 515 s tempo_ms;
#X obj 162 290 t f f f;
#X connect 2 0 3 0;
#X connect 3 0 4 0;
#X connect 3 1 29 0;
#X connect 4 0 5 0;
#X connect 5 0 6 0;
#X connect 5 0 9 0;
#X connect 6 0 7 0;
#X connect 7 0 8 0;
#X connect 8 0 40 0;
#X connect 9 0 5 1;
#X connect 11 0 13 0;
#X connect 12 0 11 1;
#X connect 13 0 14 0;
#X connect 14 0 15 0;
#X connect 15 0 16 0;
#X connect 15 0 16 1;
#X connect 17 0 18 0;
#X connect 18 0 19 0;
#X connect 18 1 19 1;
#X connect 19 0 30 0;
#X connect 21 0 22 0;
#X connect 22 0 23 0;
#X connect 23 0 43 0;
#X connect 24 0 30 0;
#X connect 25 0 26 0;
#X connect 26 0 30 0;
#X connect 28 0 17 0;
#X connect 29 0 5 1;
#X connect 30 0 21 0;
#X connect 30 0 34 0;
#X connect 31 0 2 0;
#X connect 32 0 30 0;
#X connect 33 0 38 0;
#X connect 34 0 37 0;
#X connect 35 0 37 0;
#X connect 36 0 37 0;
#X connect 38 0 39 0;
#X connect 39 0 31 0;
#X connect 39 1 12 0;
#X connect 39 2 28 0;
#X connect 39 3 24 0;
#X connect 40 1 32 0;
#X connect 40 2 36 0;
#X connect 40 3 11 0;
#X connect 40 4 41 0;
#X connect 43 0 4 1;
#X connect 43 1 35 0;
#X connect 43 2 42 0;
#X restore 332 107 pd metronome;
#N canvas 838 342 467 545 OSCconnections 0;
#X obj 41 98 loadbang;
#X obj 41 382 mrpeach/udpsend;
#X obj 41 407 tgl 15 0 empty empty empty 17 7 0 10 -262144 -1 -1 1
1;
#X obj 64 339 mrpeach/packOSC;
#X msg 50 156 disconnect;
#X msg 41 123 connect localhost 8081;
#X obj 37 24 bng 15 250 50 0 empty empty connect_to_8081 17 7 0 10
-262144 -1 -1;
#X obj 36 47 bng 15 250 50 0 empty empty disconnect 17 7 0 10 -262144
-1 -1;
#X obj 156 13 tgl 18 0 empty empty connected 35 6 0 10 -262144 -1 -1
1 1;
#X obj 252 100 import mrpeach;
#X obj 252 133 r toui;
#X obj 252 158 list split 1;
#X msg 252 183 send /zig/ui\$1;
#X obj 252 208 list append;
#X obj 252 233 list trim;
#X obj 256 304 dumpOSC 8080;
#X obj 256 330 mrpeach/routeOSC /zig;
#X obj 256 355 mrpeach/routeOSC /dsp;
#X obj 256 380 s fromui;
#X msg 392 170 /metro;
#X obj 157 33 tgl 15 0 empty empty printOSC\ in 17 7 0 10 -262144 -1
-1 1 1;
#X obj 156 50 tgl 15 0 empty empty printOSC\ out 17 7 0 10 -262144
-1 -1 1 1;
#X obj 203 402 spigot;
#X obj 371 258 spigot;
#X obj 371 283 print OSCout_toui;
#X obj 203 427 print OSCin_fromui;
#X connect 0 0 5 0;
#X connect 1 0 2 0;
#X connect 2 0 8 0;
#X connect 3 0 1 0;
#X connect 4 0 1 0;
#X connect 5 0 1 0;
#X connect 6 0 5 0;
#X connect 7 0 4 0;
#X connect 10 0 11 0;
#X connect 11 0 12 0;
#X connect 11 1 13 1;
#X connect 12 0 13 0;
#X connect 13 0 14 0;
#X connect 14 0 3 0;
#X connect 14 0 23 0;
#X connect 15 0 16 0;
#X connect 15 0 22 0;
#X connect 16 0 17 0;
#X connect 17 0 18 0;
#X connect 20 0 22 1;
#X connect 21 0 23 1;
#X connect 22 0 25 0;
#X connect 23 0 24 0;
#X coords 0 -1 1 1 235 60 1 26 8;
#X restore 20 36 pd OSCconnections;
#N canvas 0 0 450 300 sound_outputs 0;
#X obj 19 20 catch~ signal_1;
#X obj 36 44 catch~ signal_2;
#X obj 18 254 dac~ 1 2 3 4 5 6 7 8 9 10 11 12, f 65;
#X obj 51 66 catch~ signal_3;
#X obj 68 90 catch~ signal_4;
#X obj 84 113 catch~ signal_5;
#X obj 110 137 catch~ signal_6;
#X obj 212 19 catch~ signal_7;
#X obj 229 43 catch~ signal_8;
#X obj 244 65 catch~ signal_9;
#X obj 261 89 catch~ signal_10;
#X obj 286 112 catch~ signal_11;
#X obj 303 136 catch~ signal_12;
#X connect 0 0 2 0;
#X connect 1 0 2 1;
#X connect 3 0 2 2;
#X connect 4 0 2 3;
#X connect 5 0 2 4;
#X connect 6 0 2 5;
#X connect 7 0 2 6;
#X connect 8 0 2 7;
#X connect 9 0 2 8;
#X connect 10 0 2 9;
#X connect 11 0 2 10;
#X connect 12 0 2 11;
#X restore 332 140 pd sound_outputs;
#N canvas 99 111 594 727 create_dspbutton_array 0;
#N canvas 77 136 657 556 matrix_loop 0;
#X floatatom 82 -22 3 0 0 0 - - -, f 3;
#X obj 104 118 f 0;
#X obj 134 117 + 1;
#X msg 18 68 stop;
#X obj 209 12 loadbang;
#X obj 143 193 outlet;
#X obj 101 145 t f f;
#X floatatom 150 173 5 0 0 0 - - -, f 5;
#X obj 65 -21 bng 15 250 50 0 empty empty empty 17 7 0 10 -262144 -1
-1;
#X obj 73 214 select 1;
#X obj 203 247 bng 15 250 50 0 empty empty empty 17 7 0 10 -262144
-1 -1;
#X msg 175 82 0;
#X msg 207 43 4;
#X obj 65 -2 bng 15 250 50 0 empty empty S 4 6 0 10 -262144 -1 -1;
#X obj 348 197 outlet;
#X obj 84 183 ==;
#X obj 101 50 t b b 0;
#X obj 48 29 t b b;
#X obj 60 -49 inlet;
#X obj 373 36 inlet;
#X obj 118 -48 inlet;
#X obj 99 82 metro 100;
#X connect 0 0 14 0;
#X connect 0 0 15 1;
#X connect 1 0 2 0;
#X connect 1 0 6 0;
#X connect 2 0 1 1;
#X connect 3 0 21 0;
#X connect 4 0 12 0;
#X connect 6 0 15 0;
#X connect 6 1 7 0;
#X connect 7 0 5 0;
#X connect 8 0 16 0;
#X connect 9 0 3 0;
#X connect 9 0 10 0;
#X connect 10 0 11 0;
#X connect 11 0 1 1;
#X connect 12 0 0 0;
#X connect 13 0 17 0;
#X connect 15 0 9 0;
#X connect 16 0 21 0;
#X connect 16 2 7 0;
#X connect 17 0 11 0;
#X connect 17 1 3 0;
#X connect 18 0 8 0;
#X connect 19 0 0 0;
#X connect 20 0 13 0;
#X connect 21 0 1 0;
#X coords 0 -1 1 1 88 42 1 62 -25;
#X restore 52 23 pd matrix_loop;
#X text 66 76 number;
#X msg 253 21 2;
#X text 283 20 columns;
#X floatatom 257 48 4 0 0 0 cols - -, f 4;
#X floatatom 249 120 5 0 0 0 - - -, f 5;
#X text 283 119 rows;
#X floatatom 240 166 5 0 0 0 - - -, f 5;
#X text 276 177 number;
#X floatatom 202 23 4 0 0 0 cols - -, f 4;
#X obj 246 95 div;
#X text 147 68 max;
#X obj 214 107 + 1;
#X text -31 435 fill from the bottom left;
#X obj 3 207 bng 15 250 50 0 empty empty empty 17 7 0 10 -262144 -1
-1;
#X obj 261 72 t f f f;
#X text 342 269 button width \; button height \; horizontal space
\; vert space \; X init \; Y init \; ncol \; nrow;
#X text 18 206 create 8x8;
#X obj 150 255 t b b b b 8 63;
#X obj 81 207 bng 16 250 50 0 empty empty S 4 6 0 10 -262144 -1 -1
;
#X obj 181 306 t a a a;
#X msg 99 275 clear;
#X obj 41 280 t b b;
#X msg 185 280 110 25 2 2 10 10 8 8;
#X obj 140 482 s pd-track_dsp_all;
#N canvas 32 24 644 743 tracks_dsp_create 0;
#X obj 19 15 inlet;
#X obj 158 16 inlet;
#X obj 55 57 unpack f f f f f f f f, f 43;
#X floatatom 233 150 5 0 0 0 element_number - -, f 5;
#X floatatom 232 232 5 0 0 0 col - -, f 5;
#X obj 233 193 mod;
#X obj 321 209 + 1;
#X floatatom 289 254 5 0 0 0 row - -, f 5;
#X obj 233 211 + 1;
#X obj 289 184 select 1;
#X obj 289 209 f 1;
#X obj 289 230 + 1;
#X msg 232 98 0;
#X msg 206 103 1;
#X obj 206 171 t f f;
#X obj 233 258 t f f;
#X floatatom 237 435 5 0 0 0 - - -, f 5;
#X floatatom 294 434 5 0 0 0 - - -, f 5;
#X obj 254 477 pack f f f;
#X obj 109 573 bng 15 250 50 0 empty empty empty 17 7 0 10 -262144
-1 -1;
#X obj 230 540 t b a;
#X text 115 612 renumber the array etc. and rename the initbang in
the abstraction, f 29;
#X msg 225 15 146 64 5 5 700 200 2 2;
#X floatatom 310 79 2 0 0 1 cols - -, f 2;
#X text 32 28 elem number;
#X floatatom 273 79 2 0 0 1 rows - -, f 2;
#X floatatom 53 85 5 0 0 0 - - -, f 5;
#X obj 421 16 inlet;
#X obj 422 47 unpack f f;
#X floatatom 422 72 5 0 0 0 - - -, f 5;
#X floatatom 479 74 5 0 0 0 - - -, f 5;
#X floatatom 90 85 5 0 0 0 - - -, f 5;
#X floatatom 127 86 5 0 0 0 - - -, f 5;
#X floatatom 163 86 5 0 0 0 - - -, f 5;
#X text 461 20 foord of 1st elem;
#X obj 232 283 - 1;
#X obj 183 281 +;
#X obj 232 307 *;
#X obj 232 330 +;
#X obj 291 285 - 1;
#X obj 334 286 +;
#X obj 291 309 *;
#X obj 291 365 +;
#X obj 268 570 outlet;
#X obj 291 330 * -1;
#X obj 35 146 select 0;
#X obj 19 109 t f f f;
#X obj 251 121 t 0 0;
#X text 462 389 Xi for side column;
#X obj 447 366 expr ( ( $f1 + $f2 ) * $f3 ) + $f4;
#X msg 231 516 obj \$1 \$2 track_dsp \$3;
#X obj 109 596 s button-initbang-r;
#X connect 0 0 46 0;
#X connect 1 0 2 0;
#X connect 2 0 26 0;
#X connect 2 1 31 0;
#X connect 2 2 32 0;
#X connect 2 3 33 0;
#X connect 2 6 25 0;
#X connect 2 7 23 0;
#X connect 3 0 14 0;
#X connect 4 0 9 0;
#X connect 4 0 15 0;
#X connect 5 0 8 0;
#X connect 6 0 10 1;
#X connect 7 0 39 0;
#X connect 8 0 4 0;
#X connect 9 0 10 0;
#X connect 10 0 6 0;
#X connect 10 0 11 0;
#X connect 11 0 7 0;
#X connect 12 0 3 0;
#X connect 13 0 3 0;
#X connect 14 1 5 0;
#X connect 15 0 35 0;
#X connect 16 0 18 0;
#X connect 17 0 18 1;
#X connect 18 0 50 0;
#X connect 19 0 51 0;
#X connect 20 1 43 0;
#X connect 22 0 2 0;
#X connect 23 0 5 1;
#X connect 26 0 36 0;
#X connect 27 0 28 0;
#X connect 28 0 29 0;
#X connect 28 1 30 0;
#X connect 29 0 38 1;
#X connect 30 0 42 1;
#X connect 31 0 40 0;
#X connect 32 0 36 1;
#X connect 33 0 40 1;
#X connect 35 0 37 0;
#X connect 36 0 37 1;
#X connect 37 0 38 0;
#X connect 38 0 16 0;
#X connect 39 0 41 0;
#X connect 40 0 41 1;
#X connect 41 0 44 0;
#X connect 42 0 17 0;
#X connect 44 0 42 0;
#X connect 45 0 47 0;
#X connect 45 1 3 0;
#X connect 46 1 45 0;
#X connect 46 2 18 2;
#X connect 47 0 3 0;
#X connect 47 1 10 1;
#X connect 50 0 20 0;
#X restore 165 436 pd tracks_dsp_create;
#X connect 0 0 7 0;
#X connect 0 1 10 0;
#X connect 2 0 4 0;
#X connect 4 0 15 0;
#X connect 7 0 25 0;
#X connect 9 0 4 0;
#X connect 10 0 12 0;
#X connect 12 0 5 0;
#X connect 14 0 22 0;
#X connect 15 0 10 1;
#X connect 18 0 0 0;
#X connect 18 2 23 0;
#X connect 18 3 23 0;
#X connect 18 4 9 0;
#X connect 18 5 0 2;
#X connect 19 0 0 1;
#X connect 20 1 25 1;
#X connect 21 0 24 0;
#X connect 22 0 18 0;
#X connect 22 1 21 0;
#X connect 23 0 20 0;
#X connect 25 0 24 0;
#X coords 0 -1 1 1 100 34 1 1 191;
#X restore 20 124 pd create_dspbutton_array;
#N canvas 596 323 450 325 track_dsp_all 0;
#X obj 0 0 track_dsp 0;
#X obj 0 0 track_dsp 0;
#X obj 112 0 track_dsp 1;
#X obj 224 0 track_dsp 2;
#X obj 336 0 track_dsp 3;
#X obj 448 0 track_dsp 4;
#X obj 560 0 track_dsp 5;
#X obj 672 0 track_dsp 6;
#X obj 784 0 track_dsp 7;
#X obj 0 -27 track_dsp 8;
#X obj 112 -27 track_dsp 9;
#X obj 224 -27 track_dsp 10;
#X obj 336 -27 track_dsp 11;
#X obj 448 -27 track_dsp 12;
#X obj 560 -27 track_dsp 13;
#X obj 672 -27 track_dsp 14;
#X obj 784 -27 track_dsp 15;
#X obj 0 -54 track_dsp 16;
#X obj 112 -54 track_dsp 17;
#X obj 224 -54 track_dsp 18;
#X obj 336 -54 track_dsp 19;
#X obj 448 -54 track_dsp 20;
#X obj 560 -54 track_dsp 21;
#X obj 672 -54 track_dsp 22;
#X obj 784 -54 track_dsp 23;
#X obj 0 -81 track_dsp 24;
#X obj 112 -81 track_dsp 25;
#X obj 224 -81 track_dsp 26;
#X obj 336 -81 track_dsp 27;
#X obj 448 -81 track_dsp 28;
#X obj 560 -81 track_dsp 29;
#X obj 672 -81 track_dsp 30;
#X obj 784 -81 track_dsp 31;
#X obj 0 -108 track_dsp 32;
#X obj 112 -108 track_dsp 33;
#X obj 224 -108 track_dsp 34;
#X obj 336 -108 track_dsp 35;
#X obj 448 -108 track_dsp 36;
#X obj 560 -108 track_dsp 37;
#X obj 672 -108 track_dsp 38;
#X obj 784 -108 track_dsp 39;
#X obj 0 -135 track_dsp 40;
#X obj 112 -135 track_dsp 41;
#X obj 224 -135 track_dsp 42;
#X obj 336 -135 track_dsp 43;
#X obj 448 -135 track_dsp 44;
#X obj 560 -135 track_dsp 45;
#X obj 672 -135 track_dsp 46;
#X obj 784 -135 track_dsp 47;
#X obj 0 -162 track_dsp 48;
#X obj 112 -162 track_dsp 49;
#X obj 224 -162 track_dsp 50;
#X obj 336 -162 track_dsp 51;
#X obj 448 -162 track_dsp 52;
#X obj 560 -162 track_dsp 53;
#X obj 672 -162 track_dsp 54;
#X obj 784 -162 track_dsp 55;
#X obj 0 -189 track_dsp 56;
#X obj 112 -189 track_dsp 57;
#X obj 224 -189 track_dsp 58;
#X obj 336 -189 track_dsp 59;
#X obj 448 -189 track_dsp 60;
#X obj 560 -189 track_dsp 61;
#X obj 672 -189 track_dsp 62;
#X obj 784 -189 track_dsp 63;
#X restore 20 184 pd track_dsp_all;
#X text 210 177 how do I load files from the UI into DSP? path only?
;
#X obj 25 239 midifluid;
