#N canvas 51 186 711 710 10;
#X obj 203 330 cnv 15 110 58 empty empty empty 20 12 0 14 -120670 -66577
0;
#N canvas 842 99 450 438 \$0-buttonframe 0;
#X obj 79 52 bng 56 250 50 0 1361-bng-s 0-bng-r ADD 5 26 0 10 -128992
-1 -1;
#X obj 130 52 bng 56 250 50 0 1361-bng-s 1361-bng-r ADD 5 26 0 10 -128992
-1 -1;
#X obj 78 51 cnv 15 110 58 empty empty Empty 42 25 0 10 -128992 -66577
0;
#X coords 0 -1 1 1 110 58 1 78 51;
#X restore 203 330 pd \$0-buttonframe;
#X msg 236 465 clear;
#X obj 44 48 \$1;
#X obj 100 -6 loadbang;
#X msg 9 207 1;
#X msg 132 471 1;
#X obj 191 -12 bng 15 250 50 1 empty 0-initbang-emptybutton-r 0-initbang-emptybutton-r
17 7 0 10 -262144 -1 -1;
#X obj 193 9 t b b;
#X floatatom 111 78 5 0 0 0 - - -, f 5;
#X obj 43 674 s pd-\$0-buttonframe;
#X obj 214 426 bng 15 250 50 0 empty empty empty 17 7 0 10 -262144
-1 -1;
#X obj 125 410 r \$0-bng-s;
#X msg 119 207 clear;
#X obj 192 34 \$1;
#X text 566 314 +3rd tree to create a midi sequence;
#X obj 194 202 s initbang-emptybutton-r;
#X obj 125 605 t b b;
#X obj 125 647 s;
#X msg 77 228 obj 79 52 bng 56 250 50 0 \$0-bng-s \$1-bng-r ADD 5 26
0 10 -128992 -1 -1;
#X obj 49 708 noteout 1;
#X obj 43 185 t b f f f 0 b;
#X msg 60 262 obj 130 52 bng 56 250 50 0 \$0-bng-s \$0-bng-r ADD 5
26 0 10 -128992 -1 -1;
#X msg 43 295 obj 78 51 cnv 15 110 58 empty empty Empty 42 25 0 10
-128992 -66577 0;
#X obj 125 444 t b b b b b, f 19;
#X msg 209 532 obj 78 51 track_ui_2 \$1;
#X msg 152 623 symbol trackui-initbang-r;
#X msg 384 396 9;
#X obj 384 421 t b f b;
#X obj 44 79 t f f f;
#N canvas 293 175 450 472 clear_track 0;
#X obj 89 15 inlet;
#X obj 88 117 tools/receiver;
#X obj 88 144 t b b;
#X obj 166 387 s todsp;
#X obj 87 397 outlet;
#X floatatom 89 40 5 0 0 0 - - -, f 5;
#X obj 89 64 t f f, f 12;
#X msg 89 92 \$1-clear;
#X obj 88 169 bng 15 250 50 0 empty empty empty 17 7 0 10 -262144 -1
-1;
#X obj 114 291 delay 51;
#X floatatom 166 327 5 0 0 0 - - -, f 5;
#X msg 166 356 /track/\$1/clear;
#X obj 115 167 \$1;
#X msg 166 265 set \$1;
#X msg 219 264 /track/\$1/stop;
#X obj 114 240 t f f f f, f 26;
#X connect 0 0 5 0;
#X connect 1 0 2 0;
#X connect 2 0 8 0;
#X connect 2 1 12 0;
#X connect 5 0 6 0;
#X connect 6 0 7 0;
#X connect 7 0 1 0;
#X connect 8 0 4 0;
#X connect 9 0 10 0;
#X connect 10 0 11 0;
#X connect 11 0 3 0;
#X connect 12 0 15 0;
#X connect 13 0 10 0;
#X connect 14 0 3 0;
#X connect 15 0 9 0;
#X connect 15 1 13 0;
#X connect 15 2 14 0;
#X restore 44 107 pd clear_track;
#N canvas 415 166 450 447 switchon_track 0;
#X obj 87 33 inlet;
#X obj 86 188 t b b;
#X obj 85 338 delay 51;
#X obj 112 308 s todsp;
#X obj 86 398 outlet;
#X floatatom 87 84 5 0 0 0 - - -, f 5;
#X obj 87 108 t f f, f 12;
#X msg 113 283 /track/\$2/switch \$1;
#X obj 113 259 pack f f;
#X msg 113 227 1;
#X obj 85 363 \$1;
#X obj 87 58 \$1;
#X connect 0 0 11 0;
#X connect 1 0 2 0;
#X connect 1 1 9 0;
#X connect 2 0 10 0;
#X connect 5 0 6 0;
#X connect 6 0 1 0;
#X connect 6 1 8 1;
#X connect 7 0 3 0;
#X connect 8 0 7 0;
#X connect 9 0 8 0;
#X connect 10 0 4 0;
#X connect 11 0 5 0;
#X restore 507 511 pd switchon_track;
#X text 501 467 OBSOLETE since I removed the main track switch, f
20;
#X msg 194 150 label \$1-initbang-emptybutton-r \, receive \$1-initbang-emptybutton-r
;
#X obj 208 481 \$1;
#X connect 2 0 10 0;
#X connect 3 0 29 0;
#X connect 5 0 19 0;
#X connect 6 0 25 0;
#X connect 7 0 8 0;
#X connect 8 0 14 0;
#X connect 8 1 3 0;
#X connect 12 0 11 0;
#X connect 12 0 24 0;
#X connect 13 0 10 0;
#X connect 14 0 33 0;
#X connect 17 0 18 0;
#X connect 17 1 26 0;
#X connect 19 0 10 0;
#X connect 21 0 23 0;
#X connect 21 1 22 0;
#X connect 21 2 19 0;
#X connect 21 3 20 0;
#X connect 21 4 20 1;
#X connect 21 5 13 0;
#X connect 22 0 10 0;
#X connect 23 0 10 0;
#X connect 24 0 17 0;
#X connect 24 3 34 0;
#X connect 24 4 2 0;
#X connect 25 0 10 0;
#X connect 26 0 18 1;
#X connect 27 0 28 0;
#X connect 28 0 17 0;
#X connect 28 2 2 0;
#X connect 29 0 30 0;
#X connect 29 1 21 0;
#X connect 29 2 9 0;
#X connect 30 0 21 0;
#X connect 33 0 16 0;
#X connect 34 0 25 0;
#X coords 0 -1 1 1 110 58 1 203 330;
