#N canvas 21 24 711 710 10;
#N canvas 842 99 450 438 \$0-buttonframe 0;
#X obj 78 51 button 0;
#X obj 99 91 bng 15 250 50 0 1003-clear-s 1003-clear-r C 4 6 0 10 -262144
-1 -1;
#X obj 116 91 bng 15 250 50 0 1003-cfg-s 0-cfg-r cf 1 5 0 10 -262144
-1 -1;
#X coords 0 -1 1 1 110 58 1 78 51;
#X restore 203 210 pd \$0-buttonframe;
#X msg 236 345 clear;
#X obj 43 43 \$1;
#X msg 208 392 obj 78 51 button \$1;
#X obj 208 369 \$1;
#X obj 100 -6 loadbang;
#X obj 203 210 cnv 15 110 58 empty empty empty 20 12 0 14 -120670 -66577
0;
#X msg 109 49 1;
#X msg 260 368 1;
#X obj 191 -12 bng 15 250 50 1 empty initbang-emptybutton-r empty 17
7 0 10 -262144 -1 -1;
#X obj 193 9 t b b;
#X floatatom 9 67 5 0 0 0 - - -, f 5;
#X obj 43 554 s pd-\$0-buttonframe;
#X obj 214 306 bng 15 250 50 0 empty empty empty 17 7 0 10 -262144
-1 -1;
#X obj 125 290 r \$0-bng-s;
#X msg 119 87 clear;
#X obj 192 34 \$1;
#X msg 180 412 obj 99 91 bng 15 250 50 0 \$0-clear-s \$0-clear-r C
4 6 0 10 -262144 -1 -1;
#X obj 7 16 r \$0-clear-s;
#X text 566 314 +3rd tree to create a midi sequence;
#X msg 194 58 receive \$1-initbang-emptybutton-r;
#X obj 194 82 s initbang-emptybutton-r;
#X msg 152 503 symbol button-initbang-r;
#X obj 125 485 t b b;
#X obj 125 527 s;
#X msg 77 108 obj 79 52 bng 56 250 50 0 \$0-bng-s \$1-bng-r ADD 5 26
0 10 -128992 -1 -1;
#X obj 49 588 noteout 1;
#X obj 43 65 t b f f f 0 b;
#X msg 60 142 obj 130 52 bng 56 250 50 0 \$0-bng-s \$0-bng-r ADD 5
26 0 10 -128992 -1 -1;
#X msg 43 175 obj 78 51 cnv 15 110 58 empty empty Empty 42 25 0 10
-128992 -66577 0;
#X obj 125 324 t b b b b b, f 19;
#X obj 428 288 r \$0-cfg-s;
#X msg 152 446 obj 116 91 bng 15 250 50 0 \$0-cfg-s \$1-cfg-r cf 1
5 0 10 -262144 -1 -1;
#X obj 152 380 \$1;
#X obj 428 311 bng 12 250 50 0 empty empty empty 17 7 0 10 -262144
-1 -1;
#X obj 428 330 t b b b;
#X obj 467 351 \$1;
#X msg 467 374 obj 78 51 buttoncfg \$1;
#X obj 544 459 bng 15 250 50 0 empty empty empty 17 7 0 10 -262144
-1 -1;
#X obj 426 418 s;
#X msg 447 396 symbol initbang-buttoncfg-r;
#X obj 544 433 r \$1-closecfg-s;
#X obj 419 527 s pd-\$0-cfgframe;
#X msg 548 483 clear;
#N canvas 679 238 450 323 \$0-cfgframe 0;
#X obj 78 51 buttoncfg 0;
#X obj 78 51 buttoncfg 0;
#X coords 0 -1 1 1 110 58 2 78 51;
#X restore 351 211 pd \$0-cfgframe;
#X msg 546 213 cut;
#X msg 542 165 find +buttoncfg \$1;
#X msg 564 186 mouse 79 52 0 0;
#X msg 570 248 vis 0;
#X obj 602 497 tools/receiver;
#X msg 603 470 \$1-closecfg-s;
#X obj 586 527 t b b b;
#X msg 624 553 find +buttoncfg \$1;
#X msg 592 596 vis 0;
#X msg 600 573 cut;
#X connect 1 0 12 0;
#X connect 2 0 11 0;
#X connect 2 0 27 0;
#X connect 3 0 12 0;
#X connect 4 0 3 0;
#X connect 7 0 25 0;
#X connect 8 0 3 0;
#X connect 9 0 10 0;
#X connect 10 0 16 0;
#X connect 10 1 2 0;
#X connect 14 0 13 0;
#X connect 14 0 30 0;
#X connect 15 0 12 0;
#X connect 16 0 20 0;
#X connect 17 0 12 0;
#X connect 18 0 2 0;
#X connect 20 0 21 0;
#X connect 22 0 24 1;
#X connect 23 0 24 0;
#X connect 23 1 22 0;
#X connect 25 0 12 0;
#X connect 27 0 29 0;
#X connect 27 1 28 0;
#X connect 27 2 25 0;
#X connect 27 3 26 0;
#X connect 27 4 26 1;
#X connect 27 5 15 0;
#X connect 28 0 12 0;
#X connect 29 0 12 0;
#X connect 30 0 23 0;
#X connect 30 1 33 0;
#X connect 30 2 17 0;
#X connect 30 3 4 0;
#X connect 30 4 1 0;
#X connect 31 0 34 0;
#X connect 32 0 12 0;
#X connect 33 0 32 0;
#X connect 34 0 35 0;
#X connect 35 0 39 0;
#X connect 35 1 40 0;
#X connect 35 2 36 0;
#X connect 36 0 37 0;
#X connect 36 0 50 0;
#X connect 37 0 42 0;
#X connect 37 0 12 0;
#X connect 38 0 43 0;
#X connect 40 0 39 1;
#X connect 41 0 38 0;
#X connect 43 0 42 0;
#X connect 45 0 42 0;
#X connect 46 0 42 0;
#X connect 47 0 42 0;
#X connect 48 0 42 0;
#X connect 49 0 51 0;
#X connect 50 0 49 0;
#X connect 51 0 53 0;
#X connect 51 1 54 0;
#X connect 51 2 52 0;
#X connect 52 0 12 0;
#X connect 53 0 12 0;
#X connect 54 0 12 0;
#X coords 0 -1 1 1 110 58 1 203 210;
