#N canvas 915 148 711 710 10;
#X obj 203 210 cnv 15 110 58 empty empty empty 20 12 0 14 -120670 -66577
0;
#N canvas 842 99 450 438 \$0-buttonframe 0;
#X obj 79 52 bng 56 250 50 0 1003-bng-s 0-bng-r ADD 5 26 0 10 -128992
-1 -1;
#X obj 130 52 bng 56 250 50 0 1003-bng-s 1003-bng-r ADD 5 26 0 10 -128992
-1 -1;
#X obj 78 51 cnv 15 110 58 empty empty Empty 42 25 0 10 -128992 -66577
0;
#X coords 0 -1 1 1 110 58 1 78 51;
#X restore 203 210 pd \$0-buttonframe;
#X msg 236 345 clear;
#X obj 67 39 \$1;
#X obj 208 369 \$1;
#X obj 100 -6 loadbang;
#X msg 109 49 1;
#X msg 260 368 1;
#X obj 191 -12 bng 15 250 50 1 empty initbang-emptybutton-r empty 17
7 0 10 -262144 -1 -1;
#X obj 193 9 t b b;
#X floatatom 9 67 5 0 0 0 - - -, f 5;
#X obj 43 554 s pd-\$0-buttonframe;
#X obj 214 306 bng 15 250 50 0 empty empty empty 17 7 0 10 -262144
-1 -1;
#X obj 125 290 r \$0-bng-s;
#X msg 119 87 clear;
#X obj 192 34 \$1;
#X msg 296 598 obj 99 91 bng 15 250 50 0 \$0-clear-s \$0-clear-r C
4 6 0 10 -262144 -1 -1;
#X obj 285 650 r \$0-clear-s;
#X text 566 314 +3rd tree to create a midi sequence;
#X msg 194 58 receive \$1-initbang-emptybutton-r;
#X obj 194 82 s initbang-emptybutton-r;
#X obj 125 485 t b b;
#X obj 125 527 s;
#X msg 77 108 obj 79 52 bng 56 250 50 0 \$0-bng-s \$1-bng-r ADD 5 26
0 10 -128992 -1 -1;
#X obj 49 588 noteout 1;
#X obj 43 65 t b f f f 0 b;
#X msg 60 142 obj 130 52 bng 56 250 50 0 \$0-bng-s \$0-bng-r ADD 5
26 0 10 -128992 -1 -1;
#X msg 43 175 obj 78 51 cnv 15 110 58 empty empty Empty 42 25 0 10
-128992 -66577 0;
#X obj 125 324 t b b b b b, f 19;
#X msg 208 392 obj 78 51 track_ui_2 \$1;
#X msg 152 503 symbol trackui-initbang-r;
#X msg 384 276 9;
#X obj 384 301 t b f b;
#X obj 20 19 tools/receiver;
#X msg 28 -3 \$1-clear-s;
#X connect 2 0 11 0;
#X connect 3 0 10 0;
#X connect 3 0 25 0;
#X connect 3 0 34 0;
#X connect 4 0 29 0;
#X connect 6 0 23 0;
#X connect 7 0 29 0;
#X connect 8 0 9 0;
#X connect 9 0 15 0;
#X connect 9 1 3 0;
#X connect 13 0 12 0;
#X connect 13 0 28 0;
#X connect 14 0 11 0;
#X connect 15 0 19 0;
#X connect 19 0 20 0;
#X connect 21 0 22 0;
#X connect 21 1 30 0;
#X connect 23 0 11 0;
#X connect 25 0 27 0;
#X connect 25 1 26 0;
#X connect 25 2 23 0;
#X connect 25 3 24 0;
#X connect 25 4 24 1;
#X connect 25 5 14 0;
#X connect 26 0 11 0;
#X connect 27 0 11 0;
#X connect 28 0 21 0;
#X connect 28 3 4 0;
#X connect 28 4 2 0;
#X connect 29 0 11 0;
#X connect 30 0 22 1;
#X connect 31 0 32 0;
#X connect 32 0 21 0;
#X connect 32 1 29 0;
#X connect 32 2 2 0;
#X connect 33 0 25 0;
#X connect 34 0 33 0;
#X coords 0 -1 1 1 110 58 1 203 210;
