#N canvas 20 242 937 453 10;
#N canvas 739 327 450 350 OSC_out 1;
#X obj 206 19 bng 15 250 50 0 empty empty Connect_NonMixer 17 7 0 10
#fcfcfc #000000 #000000;
#X msg 339 125 connect localhost 17154;
#X obj 207 242 mrpeach/udpsend;
#X obj 169 18 tgl 33 0 empty empty empty 17 7 0 10 #fcfcfc #000000
#000000 1 1;
#X obj 206 37 bng 15 250 50 0 empty empty disconnect 17 7 0 10 #fcfcfc
#000000 #000000;
#X msg 214 64 disconnect;
#X obj 49 185 mrpeach/packOSC;
#X obj 42 44 inlet;
#X floatatom 43 94 5 0 0 0 - - -, f 5;
#X obj 43 118 / 127;
#X obj 42 69 unpack f s;
#X obj 49 140 pack f s;
#X msg 49 162 /strip/\$2/Gain/Gain%20(dB) \$1;
#X symbolatom 99 113 10 0 0 0 - - -, f 10;
#X obj 95 92 tosymbol;
#X obj 88 39 print;
#X obj 338 101 shell;
#X msg 338 76 ./connect_jack_pd_nonmixer.sh;
#X obj 97 259 outlet;
#X connect 0 0 17 0;
#X connect 0 0 18 0;
#X connect 1 0 2 0;
#X connect 2 0 3 0;
#X connect 4 0 5 0;
#X connect 5 0 2 0;
#X connect 6 0 2 0;
#X connect 7 0 10 0;
#X connect 7 0 15 0;
#X connect 8 0 9 0;
#X connect 9 0 11 0;
#X connect 10 0 8 0;
#X connect 10 1 14 0;
#X connect 11 0 12 0;
#X connect 12 0 6 0;
#X connect 13 0 11 1;
#X connect 14 0 13 0;
#X connect 16 1 1 0;
#X connect 17 0 16 0;
#X coords 0 -1 1 1 153 39 2 168 16;
#X restore 174 186 pd OSC_out;
#X obj 34 -80 cnv 15 406 131 empty empty empty 20 12 0 14 #383838 #404040
0;
#X obj 42 -74 vsl 22 102 0 127 0 0 empty fader48-r fader48 -8 112 0
10 #606060 #f0f0f0 #d8d8d8 0 1;
#X obj 86 -74 vsl 22 102 0 127 0 0 fader49-s fader49-r fader49 -8 112
0 10 #808080 #000000 #d8d8d8 0 1;
#X obj 134 -73 vsl 22 102 0 127 0 0 fader50-s fader50-r fader50 -8
112 0 10 #808080 #000000 #d8d8d8 0 1;
#X obj 181 -73 vsl 22 102 0 127 0 0 fader51-s fader51-r fader51 -8
112 0 10 #808080 #000000 #d8d8d8 0 1;
#X obj 225 -73 vsl 22 102 0 127 0 0 fader52-s fader52-r fader52 -8
112 0 10 #808080 #000000 #d8d8d8 0 1;
#X obj 273 -73 vsl 22 102 0 127 0 0 fader53-s fader53-r fader53 -8
112 0 10 #808080 #000000 #d8d8d8 0 1;
#X obj 315 -73 vsl 22 102 0 127 0 0 fader54-s fader54-r fader54 -8
112 0 10 #808080 #000000 #d8d8d8 0 1;
#X obj 359 -73 vsl 22 102 0 127 0 0 fader55-s fader55-r fader55 -8
112 0 10 #808080 #000000 #d8d8d8 0 1;
#X obj 407 -72 vsl 22 102 0 127 0 0 fader56-s fader56-r fader56 -8
112 0 10 #808080 #000000 #d8d8d8 0 1;
#X obj 35 82 pack f s;
#X obj 81 125 pack f s;
#X obj 132 86 pack f s;
#X obj 165 128 pack f s;
#X obj 216 83 pack f s;
#X obj 265 126 pack f s;
#X obj 305 82 pack f s;
#X obj 353 126 pack f s;
#X obj 390 85 pack f s;
#X obj 469 172 bng 15 250 50 0 empty empty empty 17 7 0 10 #fcfcfc
#000000 #000000;
#X obj 35 62 symbol Drums;
#X obj 63 104 symbol Percu;
#X obj 111 62 symbol Bass;
#X obj 160 108 symbol Pads;
#X obj 194 63 symbol Chords;
#X obj 254 106 symbol Lead;
#X obj 284 60 symbol Other1;
#X obj 333 106 symbol Other2;
#X obj 373 62 symbol Master;
#N canvas 274 133 450 350 midictl_in 0;
#X obj 111 31 r midictl;
#X floatatom 111 81 5 0 0 0 value - -, f 5;
#X floatatom 169 80 5 0 0 0 cc# - -, f 5;
#X obj 111 227 s;
#X msg 169 108 symbol fader\$1-r;
#X obj 111 56 unpack f f f, f 20;
#X floatatom 228 79 5 0 0 0 - - -, f 5;
#X obj 111 190 spigot;
#X obj 228 132 == 1;
#X floatatom 228 157 5 0 0 0 - - -, f 5;
#X text 267 157 only midi channel 1 is APC;
#X connect 0 0 5 0;
#X connect 1 0 7 0;
#X connect 2 0 4 0;
#X connect 4 0 3 1;
#X connect 5 0 1 0;
#X connect 5 1 2 0;
#X connect 5 2 6 0;
#X connect 6 0 8 0;
#X connect 7 0 3 0;
#X connect 8 0 9 0;
#X connect 9 0 7 1;
#X restore 49 179 pd midictl_in;
#N canvas 195 170 450 325 midiin 0;
#X obj 46 12 r midictl;
#X floatatom 46 62 5 0 0 0 value - -, f 5;
#X floatatom 104 61 5 0 0 0 cc# - -, f 5;
#X obj 46 208 s;
#X obj 46 37 unpack f f f, f 20;
#X floatatom 163 60 5 0 0 0 - - -, f 5;
#X obj 46 171 spigot;
#X floatatom 163 138 5 0 0 0 - - -, f 5;
#X obj 163 113 == 2;
#X text 202 138 only midi channel 2 is MPK (to check);
#X msg 104 89 symbol knob\$1-r;
#X connect 0 0 4 0;
#X connect 1 0 6 0;
#X connect 2 0 10 0;
#X connect 4 0 1 0;
#X connect 4 1 2 0;
#X connect 4 2 5 0;
#X connect 5 0 8 0;
#X connect 6 0 3 0;
#X connect 7 0 6 1;
#X connect 8 0 7 0;
#X connect 10 0 3 1;
#X restore 546 189 pd midiin;
#X text 543 129 Vol & Pan of the selected track, f 9;
#X msg 636 78 \$1 1 2;
#X msg 649 110 \$1 5 2;
#X msg 728 78 \$1 2 2;
#X msg 806 79 \$1 3 2;
#X msg 743 112 \$1 6 2;
#X msg 813 110 \$1 7 2;
#N canvas 161 127 615 486 midiout 0;
#X obj 49 293 spigot;
#X obj 103 58 r midishift;
#X floatatom 103 108 5 0 0 0 - - -, f 5;
#X obj 111 80 r midipedal;
#X obj 103 132 == 0;
#X obj 198 59 r global-selected-s;
#X floatatom 198 84 5 0 0 0 - - -, f 5;
#X obj 198 108 select 128;
#X floatatom 92 272 5 0 0 0 - - -, f 5;
#X obj 202 217 spigot;
#X floatatom 234 179 5 0 0 0 - - -, f 5;
#X obj 260 133 t 0 0 1;
#X obj 198 133 t 1 1;
#X text 106 154 Do not pass controls if a track is selected;
#X obj 49 22 inlet;
#X text 93 23 global controls (track controls are defined in track_ui_2)
;
#X obj 49 318 ctlout;
#X connect 0 0 16 0;
#X connect 1 0 2 0;
#X connect 2 0 4 0;
#X connect 3 0 2 0;
#X connect 4 0 9 0;
#X connect 5 0 6 0;
#X connect 6 0 7 0;
#X connect 7 0 12 0;
#X connect 7 1 11 0;
#X connect 8 0 0 1;
#X connect 9 0 8 0;
#X connect 10 0 9 1;
#X connect 11 0 10 0;
#X connect 11 1 9 0;
#X connect 11 2 10 0;
#X connect 12 0 9 0;
#X connect 12 1 10 0;
#X connect 14 0 0 0;
#X restore 636 188 pd midiout;
#X text 614 207 send controls to MIDI only if no track is selected
\; If a track is selected \, it will grab the controls directly.,
f 40;
#X msg 563 75 \$1 0 2;
#X msg 576 107 \$1 4 2;
#X obj 558 2 r knob0-s;
#X text 556 36 infinite loop between midiin and midiout?;
#X connect 0 0 20 0;
#X connect 2 0 11 0;
#X connect 3 0 12 0;
#X connect 4 0 13 0;
#X connect 5 0 14 0;
#X connect 6 0 15 0;
#X connect 7 0 16 0;
#X connect 8 0 17 0;
#X connect 9 0 18 0;
#X connect 10 0 19 0;
#X connect 11 0 0 0;
#X connect 12 0 0 0;
#X connect 13 0 0 0;
#X connect 14 0 0 0;
#X connect 15 0 0 0;
#X connect 16 0 0 0;
#X connect 17 0 0 0;
#X connect 18 0 0 0;
#X connect 19 0 0 0;
#X connect 20 0 21 0;
#X connect 20 0 22 0;
#X connect 20 0 23 0;
#X connect 20 0 24 0;
#X connect 20 0 25 0;
#X connect 20 0 26 0;
#X connect 20 0 27 0;
#X connect 20 0 28 0;
#X connect 20 0 29 0;
#X connect 21 0 11 1;
#X connect 22 0 12 1;
#X connect 23 0 13 1;
#X connect 24 0 14 1;
#X connect 25 0 15 1;
#X connect 26 0 16 1;
#X connect 27 0 17 1;
#X connect 28 0 18 1;
#X connect 29 0 19 1;
#X connect 33 0 39 0;
#X connect 34 0 39 0;
#X connect 35 0 39 0;
#X connect 36 0 39 0;
#X connect 37 0 39 0;
#X connect 38 0 39 0;
#X connect 41 0 39 0;
#X connect 42 0 39 0;
#X coords 0 -1 1 1 156 53 1 172 173;
