#N canvas 2 30 1363 714 10;
#X obj 16 -71 cnv 15 1030 662 empty empty empty 0 0 0 4 -66577 -262144
0;
#N canvas 298 70 450 437 tempo 0;
#X obj 90 -432 cnv 15 182 48 empty empty empty 20 12 0 14 -233017 -66577
0;
#X obj 82 -181 beat 4;
#X floatatom 231 -406 4 0 0 0 - #0-tempobpm.r #0-tempobpm.s, f 4;
#X floatatom 141 -106 5 0 0 0 - - -, f 5;
#X obj 151 -179 bng 15 250 50 0 empty empty empty 17 7 0 10 -262144
-1 -1;
#X msg 96 -249 53;
#X obj 230 -428 bng 15 250 50 0 empty empty tap 17 7 0 10 -262144 -1
-1;
#X obj 81 -207 makenote 127;
#X obj 316 -267 metro;
#X obj 107 -411 tgl 20 0 \$0-globalplaypause-s \$0-globalplaypause-r
play/pause -14 -12 0 10 -154176 -1 -1 1 1;
#X floatatom 316 -202 5 0 0 0 - - -, f 5;
#X obj 351 -233 + 1;
#X obj 317 -176 mod 4;
#X floatatom 317 -151 5 0 0 0 - - -, f 5;
#X obj 315 -232 f 0;
#X msg 283 -267 1;
#X obj 166 -429 tgl 14 0 empty empty metro 17 7 0 10 -262144 -1 -1
0 1;
#X obj 325 -90 spigot;
#X msg 325 -65 1;
#N canvas 342 168 450 323 click 0;
#X obj 109 22 inlet;
#X obj 106 242 outlet~;
#X obj 190 86 nbx 4 14 1 999 0 1 empty empty empty 0 -8 0 10 -262144
-1 -1 31 256 0;
#X obj 110 204 vline~;
#X msg 113 179 \$1 0 \, \$2 0 \, 0 \$3;
#X obj 112 151 pack -1 1 f;
#X obj 182 120 / 100;
#X obj 107 71 t f f;
#X obj 114 106 * -1;
#X obj 202 49 loadbang;
#X connect 0 0 7 0;
#X connect 2 0 6 0;
#X connect 3 0 1 0;
#X connect 4 0 3 0;
#X connect 5 0 4 0;
#X connect 6 0 5 2;
#X connect 7 0 8 0;
#X connect 7 1 5 1;
#X connect 8 0 5 0;
#X connect 9 0 2 0;
#X restore 324 -24 pd click;
#X obj 326 9 *~ 0.5;
#X obj 334 41 dac~;
#X text 374 -92 activate the metronome;
#X text 389 -26 subpatch for making a click;
#X text 36 -230 midi note needed by [beat];
#X text 371 -268 run the metronome at the speed found by [beat];
#X text 365 -147 beat number between 0 and 3;
#X obj 9 -387 loadbang;
#X msg 9 -362 120;
#X obj 29 -136 pow -1;
#X obj 68 -121 * 60000;
#X obj 278 -300 t b b f;
#X text -8 -50 outputs 0 for the first beat;
#X text 171 -51 tempo in ms;
#X obj 173 -29 s tempo_ms;
#X obj 71 -28 s beat_num;
#X obj 318 -126 t b f f f;
#X obj 497 -212 bng 15 250 50 0 empty empty empty 17 7 0 10 -262144
-1 -1;
#X obj 533 -212 bng 15 250 50 0 empty empty empty 17 7 0 10 -262144
-1 -1;
#X obj 533 -233 r beat_num;
#X obj 497 -180 realtime;
#X floatatom 497 -155 5 0 0 0 - - -, f 5;
#X obj 485 -312 pipe f 5;
#X obj 6 -332 s \$0-tempobpm.r;
#X obj 24 -159 r \$0-tempobpm.s;
#X obj 138 -411 hradio 20 0 0 4 empty empty empty 0 -8 0 10 -262144
-1 -1 1;
#X connect 1 0 43 0;
#X connect 1 2 4 0;
#X connect 3 0 8 1;
#X connect 3 0 34 0;
#X connect 5 0 7 0;
#X connect 6 0 5 0;
#X connect 7 0 1 0;
#X connect 7 1 1 1;
#X connect 8 0 14 0;
#X connect 9 0 31 0;
#X connect 10 0 12 0;
#X connect 11 0 14 1;
#X connect 12 0 13 0;
#X connect 13 0 36 0;
#X connect 14 0 11 0;
#X connect 14 0 10 0;
#X connect 15 0 14 1;
#X connect 16 0 17 1;
#X connect 17 0 18 0;
#X connect 18 0 19 0;
#X connect 19 0 20 0;
#X connect 20 0 21 0;
#X connect 20 0 21 1;
#X connect 27 0 28 0;
#X connect 28 0 43 0;
#X connect 29 0 30 0;
#X connect 30 0 3 0;
#X connect 31 1 15 0;
#X connect 31 2 8 0;
#X connect 36 0 3 0;
#X connect 36 1 35 0;
#X connect 36 2 45 0;
#X connect 36 3 17 0;
#X connect 38 0 40 1;
#X connect 40 0 41 0;
#X connect 44 0 29 0;
#X connect 45 0 37 0;
#X coords 0 -1 1 1 184 50 2 89 -433;
#X restore 268 -39 pd tempo;
#N canvas 704 296 450 323 save 0;
#N canvas 95 116 657 556 matrix_loop 0;
#X floatatom 82 -22 3 0 0 0 - - -, f 3;
#X obj 104 118 f 0;
#X obj 134 117 + 1;
#X obj 99 82 metro 500;
#X msg 18 68 stop;
#X obj 209 12 loadbang;
#X obj 143 193 outlet;
#X obj 101 145 t f f;
#X floatatom 150 173 5 0 0 0 - - -, f 5;
#X obj 65 -21 bng 15 250 50 0 empty empty empty 17 7 0 10 -262144 -1
-1;
#X obj 73 214 select 1;
#X obj 203 247 bng 15 250 50 0 empty empty empty 17 7 0 10 -262144
-1 -1;
#X msg 175 82 0;
#X msg 207 43 4;
#X obj 65 -2 bng 15 250 50 0 empty empty S 4 6 0 10 -262144 -1 -1;
#X obj 348 197 outlet;
#X obj 84 183 ==;
#X obj 101 50 t b b 0;
#X obj 48 29 t b b;
#X obj 60 -49 inlet;
#X obj 373 36 inlet;
#X obj 118 -48 inlet;
#X connect 0 0 15 0;
#X connect 0 0 16 1;
#X connect 1 0 2 0;
#X connect 1 0 7 0;
#X connect 2 0 1 1;
#X connect 3 0 1 0;
#X connect 4 0 3 0;
#X connect 5 0 13 0;
#X connect 7 0 16 0;
#X connect 7 1 8 0;
#X connect 8 0 6 0;
#X connect 9 0 17 0;
#X connect 10 0 4 0;
#X connect 10 0 11 0;
#X connect 11 0 12 0;
#X connect 12 0 1 1;
#X connect 13 0 0 0;
#X connect 14 0 18 0;
#X connect 16 0 10 0;
#X connect 17 0 3 0;
#X connect 17 2 8 0;
#X connect 18 0 12 0;
#X connect 18 1 4 0;
#X connect 19 0 9 0;
#X connect 20 0 0 0;
#X connect 21 0 14 0;
#X coords 0 -1 1 1 88 42 1 62 -25;
#X restore 201 121 pd matrix_loop;
#X text 209 166 number;
#X text 296 166 max;
#X obj 38 27 bng 15 250 50 0 empty empty empty 17 7 0 10 -262144 -1
-1;
#X obj 116 25 bng 16 250 50 0 empty empty S 4 6 0 10 -262144 -1 -1
;
#X floatatom 201 188 5 0 0 0 - - -, f 5;
#X text 53 26 save 8x8;
#X obj 126 259 soundfiler;
#X obj 185 73 t b b b b 8 63 b;
#X obj 260 207 pack f s;
#X msg 127 231 write -wave \$2/voice\$1 voice\$1;
#X symbolatom 99 6 10 0 0 0 subfolder: - -, f 10;
#X obj 211 259 print storing;
#X connect 0 0 5 0;
#X connect 3 0 8 0;
#X connect 4 0 0 1;
#X connect 5 0 9 0;
#X connect 8 0 0 0;
#X connect 8 5 0 2;
#X connect 9 0 10 0;
#X connect 10 0 7 0;
#X connect 10 0 12 0;
#X connect 11 0 9 1;
#X coords 0 -1 1 1 131 49 1 35 -3;
#X restore 386 -97 pd save;
#N canvas 367 113 450 346 load 0;
#N canvas 95 116 657 556 matrix_loop 0;
#X floatatom 82 -22 3 0 0 0 - - -, f 3;
#X obj 104 118 f 0;
#X obj 134 117 + 1;
#X obj 99 82 metro 500;
#X msg 18 68 stop;
#X obj 209 12 loadbang;
#X obj 143 193 outlet;
#X obj 101 145 t f f;
#X floatatom 150 173 5 0 0 0 - - -, f 5;
#X obj 65 -21 bng 15 250 50 0 empty empty empty 17 7 0 10 -262144 -1
-1;
#X obj 73 214 select 1;
#X obj 203 247 bng 15 250 50 0 empty empty empty 17 7 0 10 -262144
-1 -1;
#X msg 175 82 0;
#X msg 207 43 4;
#X obj 65 -2 bng 15 250 50 0 empty empty S 4 6 0 10 -262144 -1 -1;
#X obj 348 197 outlet;
#X obj 84 183 ==;
#X obj 101 50 t b b 0;
#X obj 48 29 t b b;
#X obj 60 -49 inlet;
#X obj 373 36 inlet;
#X obj 118 -48 inlet;
#X connect 0 0 15 0;
#X connect 0 0 16 1;
#X connect 1 0 2 0;
#X connect 1 0 7 0;
#X connect 2 0 1 1;
#X connect 3 0 1 0;
#X connect 4 0 3 0;
#X connect 5 0 13 0;
#X connect 7 0 16 0;
#X connect 7 1 8 0;
#X connect 8 0 6 0;
#X connect 9 0 17 0;
#X connect 10 0 4 0;
#X connect 10 0 11 0;
#X connect 11 0 12 0;
#X connect 12 0 1 1;
#X connect 13 0 0 0;
#X connect 14 0 18 0;
#X connect 16 0 10 0;
#X connect 17 0 3 0;
#X connect 17 2 8 0;
#X connect 18 0 12 0;
#X connect 18 1 4 0;
#X connect 19 0 9 0;
#X connect 20 0 0 0;
#X connect 21 0 14 0;
#X coords 0 -1 1 1 88 42 1 62 -25;
#X restore 201 121 pd matrix_loop;
#X text 209 166 number;
#X text 296 166 max;
#X obj 38 27 bng 15 250 50 0 empty empty empty 17 7 0 10 -262144 -1
-1;
#X obj 116 25 bng 16 250 50 0 empty empty S 4 6 0 10 -262144 -1 -1
;
#X floatatom 201 188 5 0 0 0 - - -, f 5;
#X obj 126 259 soundfiler;
#X obj 185 73 t b b b b 8 63 b;
#X obj 260 207 pack f s;
#X symbolatom 99 6 10 0 0 0 subfolder: - -, f 10;
#X text 53 26 load 8x8;
#X msg 127 231 read -resize \$2/voice\$1.wav voice\$1;
#X obj 211 259 print reading;
#X text 21 151 need to add creation of buttons first, f 13;
#X obj 349 41 s;
#X msg 362 12 symbol 17-bng-r;
#X obj 325 11 bng 15 250 50 0 empty empty empty 17 7 0 10 -262144 -1
-1;
#X connect 0 0 5 0;
#X connect 3 0 7 0;
#X connect 4 0 0 1;
#X connect 5 0 8 0;
#X connect 7 0 0 0;
#X connect 7 5 0 2;
#X connect 8 0 11 0;
#X connect 9 0 8 1;
#X connect 11 0 6 0;
#X connect 11 0 12 0;
#X connect 15 0 14 1;
#X connect 16 0 14 0;
#X coords 0 -1 1 1 131 49 1 35 -3;
#X restore 544 -97 pd load;
#N canvas 266 66 657 534 activeloop 0;
#X obj 82 52 cnv 15 132 41 empty empty empty 20 12 0 14 -233017 -66577
0;
#X obj 125 55 groupimage;
#X text 84 55 Active loops:, f 6;
#X obj 192 55 bng 15 250 50 0 empty empty Reset -32 4 0 10 -262144
-1 -1;
#X obj 348 32 loadbang;
#X obj 275 94 bng 15 250 50 0 empty empty empty 17 7 0 10 -262144 -1
-1;
#X msg 412 136 clear;
#X msg 371 138 clear;
#X obj 279 207 list cat;
#X obj 279 232 list trim;
#X obj 279 257 s activeloopsenddd-r;
#X msg 328 137 names;
#X obj 243 115 t b b b b b, f 29;
#X msg 292 138 82;
#X obj 120 13 r activeloops-r;
#X obj 50 175 r activeloopsenddd-s;
#X floatatom 50 200 5 0 0 0 - - -, f 5;
#X msg 235 24 reset;
#X msg 201 153 stop;
#X obj 182 265 print;
#X text 12 109 this here --> \; is an aborted -(ofr now) tentative
to send the list of active tracks to a sidebutton., f 29;
#X dropdown 186 74 2 1 0 0 Send activeloopsenddd-r activeloopsenddd-s
, f 2;
#X obj 198 226 print;
#X msg 243 138 89 7, f 6;
#X obj 280 184 line 82 1;
#X obj 28 291 line 0 1;
#X msg 70 257 0;
#X msg 27 258 64 64;
#X msg -7 258 stop;
#X obj 27 359 pack;
#X text 211 334 in: index \; out: value;
#X obj 27 419 s;
#X msg 64 360 symbol sb\$1-groupimagearray;
#X obj 49 231 t b b f b;
#X floatatom 116 290 5 0 0 0 - - -, f 5;
#X obj 49 337 tabread \$1-groupimagearray;
#X msg 56 316 set \$1-groupimagearray;
#X obj 74 424 pack f f f;
#X msg 74 450 \; sb\$3-groupimagearray \$2 \$1;
#X obj 27 316 t f f;
#X connect 1 0 34 0;
#X connect 3 0 17 0;
#X connect 4 0 5 0;
#X connect 5 0 12 0;
#X connect 6 0 8 1;
#X connect 7 0 1 0;
#X connect 8 0 9 0;
#X connect 9 0 10 0;
#X connect 11 0 8 0;
#X connect 12 0 23 0;
#X connect 12 1 13 0;
#X connect 12 2 11 0;
#X connect 12 3 7 0;
#X connect 12 4 6 0;
#X connect 14 0 1 0;
#X connect 15 0 16 0;
#X connect 16 0 33 0;
#X connect 17 0 1 0;
#X connect 18 0 24 0;
#X connect 23 0 24 0;
#X connect 24 0 8 0;
#X connect 25 0 39 0;
#X connect 26 0 25 0;
#X connect 27 0 25 0;
#X connect 28 0 25 0;
#X connect 32 0 31 1;
#X connect 33 0 27 0;
#X connect 33 1 26 0;
#X connect 33 2 37 2;
#X connect 33 3 1 0;
#X connect 34 0 36 0;
#X connect 35 0 29 1;
#X connect 35 0 37 0;
#X connect 36 0 35 0;
#X connect 37 0 38 0;
#X connect 39 0 29 0;
#X connect 39 0 37 1;
#X connect 39 1 35 0;
#X coords 0 -1 1 1 134 43 1 81 51;
#X restore 613 -34 pd activeloop;
#N canvas 460 186 672 307 saveload 0;
#X obj 144 86 cnv 15 186 58 empty empty empty 20 12 0 14 -261682 -66577
0;
#X obj 199 121 bng 20 250 50 0 \$0-save.s \$0-save.r save 22 7 0 10
-261234 -1 -1;
#X obj 149 121 bng 20 250 50 0 \$0-load.s \$0-load.r load 22 7 0 10
-204786 -1 -1;
#X obj 149 91 cnv 15 178 20 \$0-preset.name.s \$0-preset.name.r PRESET_FILE:no_preset_loaded
5 10 0 10 -86853 -261682 0;
#N canvas 658 158 664 469 presets 0;
#N canvas 674 249 666 431 read.write 0;
#X obj 51 41 r \$0-save.s;
#X msg 90 101 clear;
#X obj 51 61 savepanel;
#X msg 51 141 write \$1;
#X obj 70 121 s \$0-get.values;
#X obj 51 81 t s b b;
#X obj 261 41 r \$0-load.s;
#X obj 261 61 openpanel;
#X obj 261 81 t b s s;
#X msg 280 101 read \$1;
#X obj 280 121 s \$0-to.text.define;
#X obj 51 241 text define \$0-preset;
#X obj 51 171 s \$0-to.text.define;
#X obj 51 221 r \$0-to.text.define;
#X msg 261 141 line 0 \, bang;
#X obj 261 161 text sequence \$0-preset;
#X obj 261 241 t a a;
#X obj 261 281 list split 2;
#X obj 261 221 list prepend \$0;
#X msg 346 257 symbol \$1-\$2;
#X obj 441 237 t a a;
#X obj 441 217 list prepend \$0;
#X msg 496 253 symbol \$1-\$2.r;
#X obj 441 277 list split 2;
#X obj 475 297 send;
#X obj 51 281 r \$0-to.text.set;
#X obj 51 301 text set \$0-preset 1e+06;
#X obj 295 301 array set;
#X obj 261 181 list trim;
#X obj 261 201 route @array;
#N canvas 132 151 450 300 write.preset.name 0;
#X msg 234 202 label \$1;
#X obj 234 222 s \$0-preset.name.r;
#X obj 44 146 loadbang;
#X obj 44 166 symbol no_preset_loaded;
#X obj 234 182 makefilename PRESET_FILE:%s;
#X obj 206 56 list fromsymbol;
#X obj 206 132 list split;
#X obj 234 152 list tosymbol;
#X obj 263 112 + 1;
#X obj 206 36 inlet;
#N canvas 583 113 293 386 find 0;
#X obj 102 46 inlet;
#X obj 102 175 list store;
#X obj 102 90 until;
#X obj 102 112 f;
#X obj 132 112 + 1;
#X msg 102 153 get \$1 1;
#X obj 145 91 0;
#X obj 102 68 t b b a;
#X obj 102 133 t f f;
#X obj 102 196 == 47;
#X obj 102 217 sel 1;
#X obj 102 238 f;
#X obj 159 279 f;
#X obj 159 300 outlet;
#X connect 0 0 7 0;
#X connect 1 0 9 0;
#X connect 1 1 2 1;
#X connect 1 1 12 0;
#X connect 2 0 3 0;
#X connect 3 0 4 0;
#X connect 3 0 8 0;
#X connect 4 0 3 1;
#X connect 5 0 1 0;
#X connect 6 0 3 1;
#X connect 7 0 2 0;
#X connect 7 1 6 0;
#X connect 7 2 1 1;
#X connect 8 0 5 0;
#X connect 8 1 11 1;
#X connect 9 0 10 0;
#X connect 10 0 11 0;
#X connect 11 0 12 1;
#X connect 12 0 13 0;
#X restore 263 92 pd find;
#X obj 206 76 t a a;
#X connect 0 0 1 0;
#X connect 2 0 3 0;
#X connect 3 0 4 0;
#X connect 4 0 0 0;
#X connect 5 0 11 0;
#X connect 6 1 7 0;
#X connect 7 0 4 0;
#X connect 8 0 6 1;
#X connect 9 0 5 0;
#X connect 10 0 8 0;
#X connect 11 0 6 0;
#X connect 11 1 10 0;
#X restore 341 97 pd write.preset.name;
#X connect 0 0 2 0;
#X connect 1 0 12 0;
#X connect 2 0 5 0;
#X connect 3 0 12 0;
#X connect 5 0 3 0;
#X connect 5 1 4 0;
#X connect 5 2 1 0;
#X connect 6 0 7 0;
#X connect 7 0 8 0;
#X connect 8 0 14 0;
#X connect 8 1 9 0;
#X connect 8 2 30 0;
#X connect 9 0 10 0;
#X connect 13 0 11 0;
#X connect 14 0 15 0;
#X connect 15 0 28 0;
#X connect 16 0 17 0;
#X connect 16 1 19 0;
#X connect 17 1 27 0;
#X connect 18 0 16 0;
#X connect 19 0 27 2;
#X connect 20 0 23 0;
#X connect 20 1 22 0;
#X connect 21 0 20 0;
#X connect 22 0 24 1;
#X connect 23 1 24 0;
#X connect 25 0 26 0;
#X connect 28 0 29 0;
#X connect 29 0 18 0;
#X connect 29 1 21 0;
#X restore 50 32 pd read.write;
#X text 253 171 SEND: \$0-<parameter_name>.s;
#X text 253 191 RECEIVE: \$0-<parameter_name>.r;
#X text 253 31 this is the read/write subpatch which should be left
as-is., f 82;
#X text 253 81 in order for a parameter that is in the parent patch
to be saved in the preset file \, here there needs to be a 'save.param'
abstraction with the name of that parameter as the second argument
(whilst the first argument is always \$0). The send and receive symbols
for each parameter must be formated in this way:, f 82;
#X text 253 231 tables can be saves as well with the [save.table] object.
The first argument is \$0 \, the second is the name of the table without
\$0-. The object on the left will save the content of a table named
"\$0-array1"., f 82;
#X text 253 301 With this method it's still required to create a new
'save.param' (or 'save.table') abstraction for every parameter or table
to be saved in the presets \, but at least there is no need to patch
all the send and receives individually., f 82;
#X obj 50 102 saveload/save.param \$0 number2;
#X obj 50 82 saveload/save.param \$0 tempobpm;
#X obj 50 232 saveload/save.array \$0 groupimagearray;
#X restore 259 121 pd presets;
#X coords 0 0 1 1 193 65 0;
#X restore 767 -87 pd saveload;
#N canvas 278 200 865 605 track_follow 0;
#X obj 45 54 cnv 15 148 44 empty empty empty 20 12 0 14 -233017 -66577
0;
#N canvas 0 0 450 300 (subpatch) 0;
#X array track_follow_table 8 float 19 black black;
#A 0 42 45 56 -1 -1 -1 -1 -1;
#X coords 0 64 8 -1 200 140 1;
#X restore 203 15 graph;
#X floatatom 48 183 5 0 0 0 current - -, f 5;
#X msg 26 380 \; track_follow_table 0 57 57 49 57 49 57 57 49;
#X obj 85 60 tgl 15 0 empty empty Follow -39 5 0 10 -262144 -1 -1 0
1;
#X floatatom 168 59 3 0 0 0 next - -, f 3;
#X floatatom 117 183 5 0 0 0 next - -, f 5;
#N canvas 112 77 1017 640 followseq 0;
#X obj 90 -99 select 0;
#X obj 90 -149 r beat_num;
#X obj 90 31 f 0;
#X obj 90 56 + 1;
#X obj 90 81 % 8;
#X floatatom 90 106 5 0 0 0 - - -, f 5;
#X obj 90 138 tabread track_follow_table;
#X floatatom 107 291 5 0 0 0 - - -, f 5;
#X obj 263 13 tabread track_follow_table;
#X floatatom 263 38 5 0 0 0 - - -, f 5;
#X obj 265 -66 + 1;
#X obj 265 -41 % 8;
#X floatatom 265 -16 5 0 0 0 next - -, f 5;
#X obj 275 58 select -1;
#X floatatom 37 58 5 0 0 0 - - -, f 5;
#X obj 275 83 f -1;
#X obj 272 139 tabread track_follow_table;
#X floatatom 289 292 5 0 0 0 - - -, f 5;
#X obj 272 114 + 1;
#X obj 107 327 outlet;
#X text 151 327 current;
#X obj 289 326 outlet;
#X text 338 326 next;
#X obj 214 -150 inlet;
#X obj 127 -126 spigot;
#X msg 350 -89 -1;
#X text 252 -150 toggle;
#X obj 473 -145 inlet;
#X text 516 -146 random toggle;
#X floatatom -188 -11 5 0 0 0 - - -, f 5;
#X obj -188 -32 list length;
#X obj 482 18 spigot;
#X obj 351 -115 select 0;
#X floatatom 473 -122 5 0 0 0 - - -, f 5;
#X obj 473 -98 select 0 1;
#X obj 501 -70 t 1 0;
#X obj 90 -1 spigot;
#X obj 473 -46 t 0 1;
#X obj -199 -146 inlet;
#X obj -207 -83 t a b, f 19;
#X msg -196 251 \; track_follow_table 0 \$1 \$2 \$3 \$4 \$5 \$6 \$7
\$8;
#X msg -134 190 -1 -1 -1 -1 -1 -1 -1 -1;
#X obj -196 218 list append;
#X obj -207 -58 t a a a;
#X text -147 -143 inlet;
#X obj 474 77 random;
#X floatatom 603 133 5 0 0 0 - - -, f 5;
#X obj 603 157 tabread track_follow_table;
#X floatatom 603 182 5 0 0 0 - - -, f 5;
#X floatatom 65 -125 5 0 0 0 - - -, f 5;
#X floatatom 204 -123 5 0 0 0 - - -, f 5;
#X obj 482 44 t b b b;
#X obj 524 74 f 0;
#X floatatom 441 132 5 0 0 0 - - -, f 5;
#X obj 441 156 tabread track_follow_table;
#X floatatom 441 181 5 0 0 0 - - -, f 5;
#X obj 474 98 t f f;
#X floatatom 90 163 5 0 0 0 - - -, f 5;
#X floatatom 272 164 5 0 0 0 - - -, f 5;
#X connect 0 0 36 0;
#X connect 0 0 31 0;
#X connect 1 0 24 0;
#X connect 1 0 49 0;
#X connect 2 0 3 0;
#X connect 2 0 14 0;
#X connect 3 0 4 0;
#X connect 3 0 10 0;
#X connect 4 0 2 1;
#X connect 4 0 5 0;
#X connect 5 0 6 0;
#X connect 6 0 57 0;
#X connect 7 0 19 0;
#X connect 8 0 9 0;
#X connect 9 0 13 0;
#X connect 10 0 11 0;
#X connect 11 0 12 0;
#X connect 12 0 8 0;
#X connect 13 0 15 0;
#X connect 13 1 17 0;
#X connect 15 0 2 1;
#X connect 15 0 18 0;
#X connect 16 0 58 0;
#X connect 17 0 21 0;
#X connect 18 0 16 0;
#X connect 23 0 24 1;
#X connect 23 0 32 0;
#X connect 23 0 50 0;
#X connect 24 0 0 0;
#X connect 25 0 17 0;
#X connect 27 0 33 0;
#X connect 29 0 45 1;
#X connect 30 0 29 0;
#X connect 31 0 51 0;
#X connect 32 0 25 0;
#X connect 33 0 34 0;
#X connect 34 0 37 0;
#X connect 34 1 35 0;
#X connect 35 0 31 1;
#X connect 35 1 36 1;
#X connect 36 0 2 0;
#X connect 37 0 31 1;
#X connect 37 1 36 1;
#X connect 38 0 39 0;
#X connect 39 0 43 0;
#X connect 39 1 41 0;
#X connect 41 0 42 1;
#X connect 42 0 40 0;
#X connect 43 1 30 0;
#X connect 43 2 42 0;
#X connect 45 0 56 0;
#X connect 46 0 47 0;
#X connect 47 0 48 0;
#X connect 48 0 21 0;
#X connect 51 0 45 0;
#X connect 51 2 52 0;
#X connect 52 0 46 0;
#X connect 53 0 54 0;
#X connect 54 0 55 0;
#X connect 55 0 7 0;
#X connect 56 0 52 1;
#X connect 56 1 53 0;
#X connect 57 0 7 0;
#X connect 58 0 17 0;
#X restore 48 156 pd followseq;
#X obj 169 289 delay 200;
#X obj 191 340 s;
#X obj 188 258 t b f;
#X text 243 179 replace all auto looping with the follow thing?;
#X obj 34 277 delay 200;
#X obj 47 329 s;
#X obj 44 247 t b f;
#X msg 106 278 symbol \$1-loopstatus-r;
#X msg 250 289 symbol \$1-loopstatus-r;
#X msg 35 304 6;
#X msg 179 315 2;
#X symbolatom 46 79 23 0 0 0 - - -, f 23;
#X obj 122 60 tgl 15 0 empty empty Rnd -21 6 0 10 -262144 -1 -1 0 1
;
#X msg 22 121 42 45 56, f 12;
#X connect 2 0 14 0;
#X connect 4 0 7 1;
#X connect 6 0 5 0;
#X connect 6 0 10 0;
#X connect 7 0 2 0;
#X connect 7 1 6 0;
#X connect 8 0 18 0;
#X connect 10 0 8 0;
#X connect 10 1 16 0;
#X connect 12 0 17 0;
#X connect 14 0 12 0;
#X connect 14 1 15 0;
#X connect 15 0 13 1;
#X connect 16 0 9 1;
#X connect 17 0 13 0;
#X connect 18 0 9 0;
#X connect 19 0 7 0;
#X connect 20 0 7 2;
#X connect 21 0 7 0;
#X coords 0 -1 1 1 150 46 1 44 53;
#X restore 460 -37 pd track_follow;
#X obj 1056 20 sidebutton_group 82;
#N canvas 0 0 450 300 options 0;
#X text 39 -395 0 empty \; 1 playing \; 2 play queued \; 3 recording
\; 4 record armed \; 5 not empty \, stopped \; 6 stop queued;
#X text 39 -508 MIDI out colors: \; 0 off \; 1 solid green \; 2
green blink \; 3 red solid \; 4 red blink \; 5 orange solid \; 6
orange blink;
#X text 30 -671 call button X with X=voice number;
#N canvas 12 49 594 702 button_array 0;
#N canvas 77 136 657 556 matrix_loop 0;
#X floatatom 82 -22 3 0 0 0 - - -, f 3;
#X obj 104 118 f 0;
#X obj 134 117 + 1;
#X msg 18 68 stop;
#X obj 209 12 loadbang;
#X obj 143 193 outlet;
#X obj 101 145 t f f;
#X floatatom 150 173 5 0 0 0 - - -, f 5;
#X obj 65 -21 bng 15 250 50 0 empty empty empty 17 7 0 10 -262144 -1
-1;
#X obj 73 214 select 1;
#X obj 203 247 bng 15 250 50 0 empty empty empty 17 7 0 10 -262144
-1 -1;
#X msg 175 82 0;
#X msg 207 43 4;
#X obj 65 -2 bng 15 250 50 0 empty empty S 4 6 0 10 -262144 -1 -1;
#X obj 348 197 outlet;
#X obj 84 183 ==;
#X obj 101 50 t b b 0;
#X obj 48 29 t b b;
#X obj 60 -49 inlet;
#X obj 373 36 inlet;
#X obj 118 -48 inlet;
#X obj 99 82 metro 20;
#X connect 0 0 14 0;
#X connect 0 0 15 1;
#X connect 1 0 2 0;
#X connect 1 0 6 0;
#X connect 2 0 1 1;
#X connect 3 0 21 0;
#X connect 4 0 12 0;
#X connect 6 0 15 0;
#X connect 6 1 7 0;
#X connect 7 0 5 0;
#X connect 8 0 16 0;
#X connect 9 0 3 0;
#X connect 9 0 10 0;
#X connect 10 0 11 0;
#X connect 11 0 1 1;
#X connect 12 0 0 0;
#X connect 13 0 17 0;
#X connect 15 0 9 0;
#X connect 16 0 21 0;
#X connect 16 2 7 0;
#X connect 17 0 11 0;
#X connect 17 1 3 0;
#X connect 18 0 8 0;
#X connect 19 0 0 0;
#X connect 20 0 13 0;
#X connect 21 0 1 0;
#X coords 0 -1 1 1 88 42 1 62 -25;
#X restore 52 23 pd matrix_loop;
#X text 66 76 number;
#X msg 253 21 2;
#X text 283 20 columns;
#X floatatom 257 48 4 0 0 0 cols - -, f 4;
#X floatatom 249 120 5 0 0 0 - - -, f 5;
#X text 283 119 rows;
#X floatatom 240 166 5 0 0 0 - - -, f 5;
#X text 276 177 number;
#X msg 415 67 0;
#X msg 414 98 1;
#X msg 418 132 2;
#X msg 420 159 3;
#X floatatom 202 23 4 0 0 0 cols - -, f 4;
#X obj 220 -3 loadbang;
#X obj 246 95 div;
#X text 147 68 max;
#X obj 214 107 + 1;
#X text -31 435 fill from the bottom left;
#X obj 3 207 bng 15 250 50 0 empty empty empty 17 7 0 10 -262144 -1
-1;
#N canvas 444 75 697 669 button_cnv 0;
#X text 363 -6 nrow;
#X text 206 14 ncol;
#X floatatom 179 202 5 0 0 0 - - -, f 5;
#X text 93 192 xmax;
#X obj 199 123 *;
#X obj 172 93 t f f;
#X obj 169 122 - 1;
#X obj 168 149 *;
#X obj 180 174 +;
#X floatatom 351 207 5 0 0 0 - - -, f 5;
#X obj 299 101 *;
#X obj 344 98 t f f;
#X obj 341 127 - 1;
#X obj 340 154 *;
#X obj 352 179 +;
#X text 299 205 ymax;
#X obj 84 238 -;
#X obj 398 230 -;
#X floatatom 81 285 5 0 0 0 - - -, f 5;
#X text 58 284 xi;
#X obj 301 44 t f f;
#X obj 81 262 * -1;
#X obj 178 228 +;
#X floatatom 176 277 5 0 0 0 - - -, f 5;
#X obj 378 23 t f f;
#X obj 396 248 * -1;
#X floatatom 396 273 5 0 0 0 - - -, f 5;
#X text 432 273 yi;
#X obj 350 233 +;
#X floatatom 350 301 5 0 0 0 - - -, f 5;
#X obj 37 305 bng 15 250 50 0 empty empty empty 17 7 0 10 -262144 -1
-1;
#X obj 178 253 +;
#X text 138 276 width;
#X text 308 300 height;
#X text 507 276 \$1 = X top left \; \$2 = Y top left \; \$3 = width
(X) \; \$4 = height (Y);
#X obj 350 280 +;
#X obj 124 428 pack f f f f f f, f 30;
#X msg 124 455 obj \$2 \$3 cnv 15 \$4 \$5 empty empty empty 0 0 14
-233017 -66577 0;
#X obj 36 -110 inlet;
#X floatatom 173 14 5 0 0 0 - - -, f 5;
#X floatatom 326 -1 5 0 0 0 - - -, f 5;
#X obj 126 606 outlet;
#X floatatom 166 -58 5 0 0 0 - - -, f 5;
#X floatatom 246 4 5 0 0 0 - - -, f 5;
#X floatatom 228 -63 5 0 0 0 - - -, f 5;
#X obj 170 -89 unpack f f f f f f f f, f 35;
#X floatatom 283 -1 5 0 0 0 - - -, f 5;
#X obj 225 -108 inlet;
#X obj 314 598 outlet;
#X obj 313 576 pack f f;
#X obj 326 258 t f f;
#X obj 351 534 -;
#X text 363 597 top left corner of the bottomm left button;
#X obj 355 514 +;
#X obj 351 555 -;
#X text 459 -95 button width \; button height \; horizontal space
\; vert space \; X init \; Y init \; ncol \; nrow;
#N canvas 3 24 974 743 colorcnvs 0;
#X obj 306 162 pack f f f f f f, f 23;
#X obj 156 115 bng 15 250 50 0 empty empty empty 17 7 0 10 -262144
-1 -1;
#X msg 457 182 obj \$2 \$3 cnv 10 \$4 \$5 empty empty drums 11 6 0
10 -237569 -66577;
#X floatatom 266 64 5 0 0 0 - - -, f 5;
#X floatatom 178 86 5 0 0 0 - - -, f 5;
#X floatatom 207 67 5 0 0 0 - - -, f 5;
#X floatatom 236 83 5 0 0 0 - - -, f 5;
#X obj 145 20 inlet;
#X obj 92 13 inlet;
#X obj 828 642 outlet;
#X obj 149 41 unpack f f f f f, f 20;
#X obj 236 117 + 2;
#X obj 304 218 pack f f f f f f, f 23;
#X obj 147 193 bng 15 250 50 0 empty empty empty 17 7 0 10 -262144
-1 -1;
#X obj 176 171 +;
#X floatatom 203 171 3 0 0 0 - - -, f 3;
#X floatatom 232 171 5 0 0 0 - - -, f 5;
#X floatatom 266 173 5 0 0 0 - - -, f 5;
#X obj 176 192 + 2;
#X obj 304 280 pack f f f f f f, f 23;
#X obj 147 255 bng 15 250 50 0 empty empty empty 17 7 0 10 -262144
-1 -1;
#X obj 176 233 +;
#X floatatom 203 233 3 0 0 0 - - -, f 3;
#X floatatom 232 233 5 0 0 0 - - -, f 5;
#X floatatom 266 235 5 0 0 0 - - -, f 5;
#X obj 176 254 + 2;
#X obj 301 343 pack f f f f f f, f 23;
#X obj 144 318 bng 15 250 50 0 empty empty empty 17 7 0 10 -262144
-1 -1;
#X obj 173 296 +;
#X floatatom 200 296 3 0 0 0 - - -, f 3;
#X floatatom 229 296 5 0 0 0 - - -, f 5;
#X floatatom 263 298 5 0 0 0 - - -, f 5;
#X obj 173 317 + 2;
#X obj 301 405 pack f f f f f f, f 23;
#X obj 144 380 bng 15 250 50 0 empty empty empty 17 7 0 10 -262144
-1 -1;
#X obj 173 358 +;
#X floatatom 200 358 3 0 0 0 - - -, f 3;
#X floatatom 229 358 5 0 0 0 - - -, f 5;
#X floatatom 263 360 5 0 0 0 - - -, f 5;
#X obj 173 379 + 2;
#X obj 301 469 pack f f f f f f, f 23;
#X obj 144 444 bng 15 250 50 0 empty empty empty 17 7 0 10 -262144
-1 -1;
#X obj 173 422 +;
#X floatatom 200 422 3 0 0 0 - - -, f 3;
#X floatatom 229 422 5 0 0 0 - - -, f 5;
#X floatatom 263 424 5 0 0 0 - - -, f 5;
#X obj 173 443 + 2;
#X obj 302 538 pack f f f f f f, f 23;
#X obj 145 513 bng 15 250 50 0 empty empty empty 17 7 0 10 -262144
-1 -1;
#X obj 174 491 +;
#X floatatom 201 491 3 0 0 0 - - -, f 3;
#X floatatom 230 491 5 0 0 0 - - -, f 5;
#X floatatom 264 493 5 0 0 0 - - -, f 5;
#X obj 174 512 + 2;
#X obj 300 611 pack f f f f f f, f 23;
#X obj 143 586 bng 15 250 50 0 empty empty empty 17 7 0 10 -262144
-1 -1;
#X obj 172 564 +;
#X floatatom 199 564 3 0 0 0 - - -, f 3;
#X floatatom 228 564 5 0 0 0 - - -, f 5;
#X floatatom 262 566 5 0 0 0 - - -, f 5;
#X obj 172 585 + 2;
#X floatatom 176 144 5 0 0 0 - - -, f 5;
#X text 15 39 Xi \; Yi \; button width \; height of columns
\; ;
#X floatatom 177 213 5 0 0 0 - - -, f 5;
#X floatatom 175 275 5 0 0 0 - - -, f 5;
#X obj 207 117 - 15;
#X obj 266 116 + 12;
#X msg 458 243 obj \$2 \$3 cnv 10 \$4 \$5 empty empty percu 11 6 0
10 -260097 -66577;
#X msg 454 305 obj \$2 \$3 cnv 10 \$4 \$5 empty empty bass 11 6 0 10
-241153 -66577;
#X msg 420 369 obj \$2 \$3 cnv 10 \$4 \$5 empty empty pads 11 6 0 10
-3650 -66577;
#X msg 419 428 obj \$2 \$3 cnv 10 \$4 \$5 empty empty chords 11 6 0
10 -2043 -66577;
#X msg 408 494 obj \$2 \$3 cnv 10 \$4 \$5 empty empty lead 11 6 0 10
-3761 -66577;
#X msg 399 565 obj \$2 \$3 cnv 10 \$4 \$5 empty empty other1 11 6 0
10 -237626 -66577;
#X msg 402 634 obj \$2 \$3 cnv 10 \$4 \$5 empty empty other2 11 6 0
10 -188475 -66577;
#X obj 178 115 + 3;
#X connect 0 0 2 0;
#X connect 1 0 0 0;
#X connect 1 0 13 0;
#X connect 2 0 9 0;
#X connect 3 0 66 0;
#X connect 4 0 74 0;
#X connect 5 0 65 0;
#X connect 6 0 11 0;
#X connect 7 0 10 0;
#X connect 8 0 1 0;
#X connect 10 1 4 0;
#X connect 10 2 5 0;
#X connect 10 3 6 0;
#X connect 10 4 3 0;
#X connect 11 0 0 3;
#X connect 11 0 16 0;
#X connect 11 0 14 1;
#X connect 12 0 67 0;
#X connect 13 0 12 0;
#X connect 13 0 20 0;
#X connect 14 0 18 0;
#X connect 15 0 12 2;
#X connect 15 0 22 0;
#X connect 16 0 12 3;
#X connect 16 0 23 0;
#X connect 16 0 21 1;
#X connect 17 0 12 4;
#X connect 17 0 24 0;
#X connect 18 0 12 1;
#X connect 18 0 63 0;
#X connect 19 0 68 0;
#X connect 20 0 19 0;
#X connect 20 0 27 0;
#X connect 21 0 25 0;
#X connect 22 0 19 2;
#X connect 22 0 29 0;
#X connect 23 0 19 3;
#X connect 23 0 30 0;
#X connect 23 0 28 1;
#X connect 24 0 19 4;
#X connect 24 0 31 0;
#X connect 25 0 19 1;
#X connect 25 0 64 0;
#X connect 26 0 69 0;
#X connect 27 0 26 0;
#X connect 27 0 34 0;
#X connect 28 0 32 0;
#X connect 29 0 26 2;
#X connect 29 0 36 0;
#X connect 30 0 26 3;
#X connect 30 0 37 0;
#X connect 30 0 35 1;
#X connect 31 0 26 4;
#X connect 31 0 38 0;
#X connect 32 0 26 1;
#X connect 32 0 35 0;
#X connect 33 0 70 0;
#X connect 34 0 33 0;
#X connect 34 0 41 0;
#X connect 35 0 39 0;
#X connect 36 0 33 2;
#X connect 36 0 43 0;
#X connect 37 0 33 3;
#X connect 37 0 44 0;
#X connect 37 0 42 1;
#X connect 38 0 33 4;
#X connect 38 0 45 0;
#X connect 39 0 33 1;
#X connect 39 0 42 0;
#X connect 40 0 71 0;
#X connect 41 0 40 0;
#X connect 41 0 48 0;
#X connect 42 0 46 0;
#X connect 43 0 40 2;
#X connect 43 0 50 0;
#X connect 44 0 40 3;
#X connect 44 0 51 0;
#X connect 44 0 49 1;
#X connect 45 0 40 4;
#X connect 45 0 52 0;
#X connect 46 0 40 1;
#X connect 46 0 49 0;
#X connect 47 0 72 0;
#X connect 48 0 47 0;
#X connect 48 0 55 0;
#X connect 49 0 53 0;
#X connect 50 0 47 2;
#X connect 50 0 57 0;
#X connect 51 0 47 3;
#X connect 51 0 58 0;
#X connect 51 0 56 1;
#X connect 52 0 47 4;
#X connect 52 0 59 0;
#X connect 53 0 47 1;
#X connect 53 0 56 0;
#X connect 54 0 73 0;
#X connect 55 0 54 0;
#X connect 56 0 60 0;
#X connect 57 0 54 2;
#X connect 58 0 54 3;
#X connect 59 0 54 4;
#X connect 60 0 54 1;
#X connect 61 0 14 0;
#X connect 63 0 21 0;
#X connect 64 0 28 0;
#X connect 65 0 0 2;
#X connect 65 0 15 0;
#X connect 66 0 0 4;
#X connect 66 0 17 0;
#X connect 67 0 9 0;
#X connect 68 0 9 0;
#X connect 69 0 9 0;
#X connect 70 0 9 0;
#X connect 71 0 9 0;
#X connect 72 0 9 0;
#X connect 73 0 9 0;
#X connect 74 0 0 1;
#X connect 74 0 61 0;
#X restore 39 567 pd colorcnvs;
#X obj 66 538 pack f f f f f f;
#X obj 39 477 t b b;
#X obj 66 503 bng 15 250 50 0 empty empty empty 17 7 0 10 -262144 -1
-1;
#X text 115 303 + side buttons -->;
#X obj 226 304 +;
#X obj 227 340 +;
#X obj 164 -25 t f f f;
#X obj 242 45 t f f f;
#X obj 260 304 +;
#X obj 69 88 t f f f f f;
#X obj 388 98 t f f f f f f;
#X obj 257 341 +;
#X obj 196 404 -;
#X obj 264 404 +;
#X text 608 -104 background canvas a little higher positioned and bigger
height, f 17;
#X obj 568 -100 inlet;
#X obj 578 28 t f f;
#X connect 2 0 22 0;
#X connect 4 0 8 1;
#X connect 5 0 6 0;
#X connect 5 1 4 0;
#X connect 6 0 7 0;
#X connect 7 0 8 0;
#X connect 8 0 2 0;
#X connect 9 0 28 0;
#X connect 10 0 14 1;
#X connect 11 0 12 0;
#X connect 11 1 10 0;
#X connect 12 0 13 0;
#X connect 13 0 14 0;
#X connect 14 0 9 0;
#X connect 16 0 21 0;
#X connect 17 0 25 0;
#X connect 18 0 36 1;
#X connect 18 0 57 1;
#X connect 20 0 16 1;
#X connect 20 1 49 0;
#X connect 21 0 18 0;
#X connect 22 0 31 0;
#X connect 23 0 61 0;
#X connect 24 0 17 1;
#X connect 24 1 53 1;
#X connect 25 0 26 0;
#X connect 26 0 57 2;
#X connect 26 0 69 0;
#X connect 28 0 50 0;
#X connect 29 0 57 4;
#X connect 29 0 65 0;
#X connect 30 0 36 0;
#X connect 30 0 58 0;
#X connect 31 0 23 0;
#X connect 35 0 29 0;
#X connect 36 0 37 0;
#X connect 37 0 41 0;
#X connect 38 0 30 0;
#X connect 39 0 5 0;
#X connect 40 0 11 0;
#X connect 42 0 63 0;
#X connect 43 0 64 0;
#X connect 44 0 66 0;
#X connect 45 0 42 0;
#X connect 45 1 43 0;
#X connect 45 2 44 0;
#X connect 45 3 46 0;
#X connect 45 4 20 0;
#X connect 45 5 24 0;
#X connect 45 6 39 0;
#X connect 45 7 40 0;
#X connect 46 0 67 0;
#X connect 47 0 45 0;
#X connect 49 0 48 0;
#X connect 50 0 53 0;
#X connect 50 1 35 0;
#X connect 51 0 54 0;
#X connect 53 0 51 0;
#X connect 54 0 49 1;
#X connect 56 0 41 0;
#X connect 57 0 56 1;
#X connect 58 0 56 0;
#X connect 58 1 59 0;
#X connect 59 0 57 0;
#X connect 61 0 62 0;
#X connect 62 0 36 3;
#X connect 63 0 57 3;
#X connect 63 1 61 1;
#X connect 63 2 4 1;
#X connect 64 0 51 1;
#X connect 64 1 65 1;
#X connect 64 2 10 1;
#X connect 65 0 68 0;
#X connect 66 0 16 0;
#X connect 66 1 62 1;
#X connect 66 2 31 1;
#X connect 66 3 22 1;
#X connect 66 4 7 1;
#X connect 67 0 17 0;
#X connect 67 1 68 1;
#X connect 67 2 54 1;
#X connect 67 3 35 1;
#X connect 67 4 28 1;
#X connect 67 5 13 1;
#X connect 68 0 70 0;
#X connect 69 0 36 2;
#X connect 70 0 36 4;
#X connect 72 0 73 0;
#X connect 73 0 69 1;
#X connect 73 1 70 1;
#X restore 166 342 pd button_cnv;
#X obj 261 72 t f f f;
#X text 342 269 button width \; button height \; horizontal space
\; vert space \; X init \; Y init \; ncol \; nrow;
#X text 90 359 out: obj message;
#X obj 245 382 unpack f f;
#X floatatom 245 407 5 0 0 0 - - -, f 5;
#X floatatom 302 409 5 0 0 0 - - -, f 5;
#X text 244 359 XY of button0;
#N canvas 32 24 644 743 buttons_create 0;
#X obj 19 15 inlet;
#X obj 158 16 inlet;
#X obj 55 57 unpack f f f f f f f f, f 43;
#X floatatom 233 150 5 0 0 0 element_number - -, f 5;
#X floatatom 232 232 5 0 0 0 col - -, f 5;
#X obj 233 193 mod;
#X obj 321 209 + 1;
#X floatatom 289 254 5 0 0 0 row - -, f 5;
#X obj 233 211 + 1;
#X obj 289 184 select 1;
#X obj 289 209 f 1;
#X obj 289 230 + 1;
#X msg 232 98 0;
#X msg 206 103 1;
#X obj 206 171 t f f;
#X obj 233 258 t f f;
#X floatatom 237 435 5 0 0 0 - - -, f 5;
#X floatatom 294 434 5 0 0 0 - - -, f 5;
#X obj 254 477 pack f f f;
#X obj 171 571 print;
#X obj 109 573 bng 15 250 50 0 empty empty empty 17 7 0 10 -262144
-1 -1;
#X obj 230 540 t b a;
#X text 115 612 renumber the array etc. and rename the initbang in
the abstraction, f 29;
#X msg 225 15 146 64 5 5 700 200 2 2;
#X floatatom 310 79 2 0 0 1 cols - -, f 2;
#X text 32 28 elem number;
#X floatatom 273 79 2 0 0 1 rows - -, f 2;
#X floatatom 53 85 5 0 0 0 - - -, f 5;
#X obj 421 16 inlet;
#X obj 422 47 unpack f f;
#X floatatom 422 72 5 0 0 0 - - -, f 5;
#X floatatom 479 74 5 0 0 0 - - -, f 5;
#X floatatom 90 85 5 0 0 0 - - -, f 5;
#X floatatom 127 86 5 0 0 0 - - -, f 5;
#X floatatom 163 86 5 0 0 0 - - -, f 5;
#X text 461 20 foord of 1st elem;
#X obj 232 283 - 1;
#X obj 183 281 +;
#X obj 232 307 *;
#X obj 232 330 +;
#X obj 291 285 - 1;
#X obj 334 286 +;
#X obj 291 309 *;
#X obj 291 365 +;
#X obj 268 570 outlet;
#X obj 291 330 * -1;
#X obj 35 146 select 0;
#X obj 19 109 t f f f;
#X obj 251 121 t 0 0;
#X msg 231 516 obj \$1 \$2 empty_button \$3;
#X obj 109 596 s initbang-emptybutton-r;
#X text 462 389 Xi for side column;
#X obj 447 366 expr ( ( $f1 + $f2 ) * $f3 ) + $f4;
#X connect 0 0 47 0;
#X connect 1 0 2 0;
#X connect 2 0 27 0;
#X connect 2 1 32 0;
#X connect 2 2 33 0;
#X connect 2 3 34 0;
#X connect 2 6 26 0;
#X connect 2 7 24 0;
#X connect 3 0 14 0;
#X connect 4 0 9 0;
#X connect 4 0 15 0;
#X connect 5 0 8 0;
#X connect 6 0 10 1;
#X connect 7 0 40 0;
#X connect 8 0 4 0;
#X connect 9 0 10 0;
#X connect 10 0 6 0;
#X connect 10 0 11 0;
#X connect 11 0 7 0;
#X connect 12 0 3 0;
#X connect 13 0 3 0;
#X connect 14 1 5 0;
#X connect 15 0 36 0;
#X connect 16 0 18 0;
#X connect 17 0 18 1;
#X connect 18 0 49 0;
#X connect 20 0 50 0;
#X connect 21 0 20 0;
#X connect 21 1 44 0;
#X connect 23 0 2 0;
#X connect 24 0 5 1;
#X connect 27 0 37 0;
#X connect 28 0 29 0;
#X connect 29 0 30 0;
#X connect 29 1 31 0;
#X connect 30 0 39 1;
#X connect 31 0 43 1;
#X connect 32 0 41 0;
#X connect 33 0 37 1;
#X connect 34 0 41 1;
#X connect 36 0 38 0;
#X connect 37 0 38 1;
#X connect 38 0 39 0;
#X connect 39 0 16 0;
#X connect 40 0 42 0;
#X connect 41 0 42 1;
#X connect 42 0 45 0;
#X connect 43 0 17 0;
#X connect 45 0 43 0;
#X connect 46 0 48 0;
#X connect 46 1 3 0;
#X connect 47 1 46 0;
#X connect 47 2 18 2;
#X connect 48 0 3 0;
#X connect 48 1 10 1;
#X connect 49 0 19 0;
#X connect 49 0 21 0;
#X restore 126 436 pd buttons_create;
#X text 18 206 create 8x8;
#X obj 150 255 t b b b b 8 63;
#X obj 81 207 bng 16 250 50 0 empty empty S 4 6 0 10 -262144 -1 -1
;
#X obj 140 482 s pd-looper_main.pd;
#X obj 2 228 bng 15 250 50 0 empty empty Create 17 7 0 10 -262144 -1
-1;
#X obj 181 306 t a a a;
#N canvas 771 24 568 743 sidebuttons_create 0;
#X obj 231 30 inlet;
#X obj 159 71 unpack f f f f f f f f, f 43;
#X floatatom 414 93 2 0 0 1 cols - -, f 2;
#X floatatom 377 93 2 0 0 1 rows - -, f 2;
#X floatatom 157 99 5 0 0 0 - - -, f 5;
#X floatatom 194 99 5 0 0 0 - - -, f 5;
#X floatatom 231 100 5 0 0 0 - - -, f 5;
#X floatatom 267 100 5 0 0 0 - - -, f 5;
#X text 470 20 button width \; button height \; horizontal space
\; vert space \; X init \; Y init \; ncol \; nrow;
#X obj 85 26 inlet;
#X obj 14 13 bng 15 250 50 0 empty empty empty 17 7 0 10 -262144 -1
-1;
#N canvas 1 93 618 505 sidebuttonscount 0;
#X obj 143 13 inlet;
#X text 183 13 starting num;
#X obj 204 119 f 0;
#X obj 232 119 + 1;
#X floatatom 208 66 5 0 0 0 - - -, f 5;
#X obj 133 69 bng 15 250 50 0 empty empty empty 17 7 0 10 -262144 -1
-1;
#X msg 351 266 stop;
#X floatatom 179 196 5 0 0 0 - - -, f 5;
#X obj 174 298 +;
#X floatatom 175 323 5 0 0 0 - - -, f 5;
#X obj 180 147 +;
#X floatatom 216 147 5 0 0 0 - - -, f 5;
#X obj 216 221 select 1;
#X floatatom 216 249 5 0 0 0 - - -, f 5;
#X obj 315 241 select 1;
#X obj 315 266 bng 15 250 50 0 empty empty empty 17 7 0 10 -262144
-1 -1;
#X floatatom 331 310 5 0 0 0 - - -, f 5;
#X obj 177 351 +;
#X floatatom 177 376 5 0 0 0 - - -, f 5;
#X text 235 274 <-- APC;
#X obj 209 274 + 2;
#X obj 216 171 t f f f;
#X obj 291 287 t b b;
#X obj 133 93 metro 500;
#X obj 315 216 >=;
#X obj 364 41 inlet;
#X obj 402 40 inlet;
#X obj 390 109 +;
#X obj 390 134 + 1;
#X floatatom 390 86 5 0 0 0 - - -, f 5;
#X floatatom 390 159 5 0 0 0 - - -, f 5;
#X text 430 160 number of side buttons;
#X text 356 12 rows;
#X text 404 14 cols;
#X obj 179 173 t f;
#X floatatom 361 64 5 0 0 0 - - -, f 5;
#X floatatom 402 63 5 0 0 0 - - -, f 5;
#X obj 177 408 outlet;
#X text 220 406 button number;
#X obj 334 403 outlet;
#X text 379 402 row num;
#X obj 443 400 outlet;
#X text 491 399 col num;
#X obj 292 365 f 0;
#X obj 320 365 + 1;
#X obj 291 344 bng 15 250 50 0 empty empty empty 17 7 0 10 -262144
-1 -1;
#X floatatom 291 386 5 0 0 0 - - -, f 5;
#X floatatom 438 367 5 0 0 0 - - -, f 5;
#X obj 446 306 moses;
#X obj 472 283 + 2;
#X floatatom 239 359 5 0 0 0 - - -, f 5;
#X obj 240 337 + 1;
#X obj 254 242 bng 15 250 50 0 empty empty empty 17 7 0 10 -262144
-1 -1;
#X obj 218 200 >;
#X msg 104 128 0;
#X obj 278 441 pack f f f;
#X obj 278 466 print;
#X obj 133 40 t b f f 1 0 0 0 1 1, f 32;
#X connect 0 0 57 0;
#X connect 2 0 3 0;
#X connect 2 0 10 0;
#X connect 2 0 11 0;
#X connect 3 0 2 1;
#X connect 5 0 23 0;
#X connect 6 0 23 0;
#X connect 7 0 8 0;
#X connect 8 0 9 0;
#X connect 9 0 17 0;
#X connect 10 0 34 0;
#X connect 11 0 21 0;
#X connect 12 0 13 0;
#X connect 12 1 52 0;
#X connect 13 0 20 0;
#X connect 14 0 15 0;
#X connect 14 0 6 0;
#X connect 15 0 22 0;
#X connect 16 0 17 1;
#X connect 17 0 18 0;
#X connect 18 0 37 0;
#X connect 18 0 55 0;
#X connect 20 0 8 1;
#X connect 20 0 45 0;
#X connect 21 0 53 0;
#X connect 21 1 24 0;
#X connect 21 2 48 0;
#X connect 22 0 17 0;
#X connect 22 1 16 0;
#X connect 23 0 2 0;
#X connect 24 0 14 0;
#X connect 25 0 35 0;
#X connect 26 0 36 0;
#X connect 27 0 28 0;
#X connect 28 0 30 0;
#X connect 29 0 27 0;
#X connect 30 0 24 1;
#X connect 34 0 7 0;
#X connect 35 0 29 0;
#X connect 35 0 16 0;
#X connect 35 0 51 0;
#X connect 36 0 27 1;
#X connect 36 0 13 0;
#X connect 36 0 49 0;
#X connect 36 0 53 1;
#X connect 43 0 44 0;
#X connect 43 0 46 0;
#X connect 44 0 43 1;
#X connect 45 0 43 0;
#X connect 46 0 39 0;
#X connect 46 0 55 1;
#X connect 47 0 41 0;
#X connect 47 0 55 2;
#X connect 48 0 47 0;
#X connect 49 0 48 1;
#X connect 50 0 46 0;
#X connect 51 0 50 0;
#X connect 52 0 50 0;
#X connect 53 0 12 0;
#X connect 54 0 43 0;
#X connect 55 0 56 0;
#X connect 57 0 5 0;
#X connect 57 1 10 1;
#X connect 57 2 4 0;
#X connect 57 3 2 0;
#X connect 57 4 8 1;
#X connect 57 5 17 1;
#X connect 57 6 43 1;
#X connect 57 7 2 1;
#X connect 57 8 48 0;
#X restore 321 381 pd sidebuttonscount;
#X floatatom 54 192 5 0 0 0 - - -, f 5;
#X floatatom 114 189 5 0 0 0 - - -, f 5;
#X floatatom 167 189 5 0 0 0 - - -, f 5;
#X text 11 210 button number;
#X text 110 206 row num;
#X text 177 210 col num;
#X obj 218 160 +;
#X floatatom 211 241 5 0 0 0 - - -, f 5;
#X obj 172 240 - 1;
#X obj 171 265 *;
#X floatatom 171 316 5 0 0 0 - - -, f 5;
#X obj 170 291 +;
#X text 208 314 X;
#X obj 108 235 - 1;
#X obj 109 262 *;
#X obj 267 162 +;
#X obj 110 287 +;
#X floatatom 112 313 5 0 0 0 - - -, f 5;
#X text 99 313 Y;
#X obj 60 358 pack f f f;
#X obj 59 441 bng 15 250 50 0 empty empty empty 17 7 0 10 -262144 -1
-1;
#X obj 63 408 t b a;
#X obj 59 464 s sidebutton-initbang-r;
#X msg 298 29 116 58 4 4 269 33 8 8;
#X obj 143 434 outlet;
#X msg 60 384 obj \$3 \$2 sidebutton \$1;
#X msg 318 352 63;
#N canvas 617 100 618 574 sidebuttonscount2 0;
#X obj 143 13 inlet;
#X floatatom 215 404 5 0 0 0 - - -, f 5;
#X text 356 12 rows;
#X text 404 14 cols;
#X obj 215 436 outlet;
#X text 258 434 button number;
#X obj 372 431 outlet;
#X text 417 430 row num;
#X obj 481 428 outlet;
#X text 529 427 col num;
#X floatatom 329 414 5 0 0 0 - - -, f 5;
#X floatatom 476 395 5 0 0 0 - - -, f 5;
#X obj 48 95 t b 64 9 1;
#X obj 48 120 t b 65 9 2;
#X obj 48 145 t b 66 9 3;
#X obj 48 170 t b 67 9 4;
#X obj 48 195 t b 68 9 5;
#X obj 48 220 t b 69 9 6;
#X obj 48 245 t b 70 9 7;
#X obj 48 270 t b 71 9 8;
#X obj 129 95 t b 82 1 9;
#X obj 129 120 t b 83 2 9;
#X obj 129 145 t b 84 3 9;
#X obj 129 170 t b 85 4 9;
#X obj 129 195 t b 86 5 9;
#X obj 129 221 t b 87 6 9;
#X obj 129 245 t b 88 7 9;
#X obj 129 270 t b 89 8 9;
#X text 362 245 This is extremely ugly (could have been done with calculating
loops \, or at least copy/pasting the [t b 64 9 1] together with 3
sends \, but whatever \, it was faster to do it manually just now.
, f 36;
#X text 183 13 bang;
#X obj 129 295 t b 98 9 9;
#X obj 247 95 t b 1064 9 0;
#X text 336 94 pedal;
#X connect 0 0 12 0;
#X connect 1 0 4 0;
#X connect 10 0 6 0;
#X connect 11 0 8 0;
#X connect 12 0 13 0;
#X connect 12 1 1 0;
#X connect 12 2 10 0;
#X connect 12 3 11 0;
#X connect 13 0 14 0;
#X connect 13 1 1 0;
#X connect 13 2 10 0;
#X connect 13 3 11 0;
#X connect 14 0 15 0;
#X connect 14 1 1 0;
#X connect 14 2 10 0;
#X connect 14 3 11 0;
#X connect 15 0 16 0;
#X connect 15 1 1 0;
#X connect 15 2 10 0;
#X connect 15 3 11 0;
#X connect 16 0 17 0;
#X connect 16 1 1 0;
#X connect 16 2 10 0;
#X connect 16 3 11 0;
#X connect 17 0 18 0;
#X connect 17 1 1 0;
#X connect 17 2 10 0;
#X connect 17 3 11 0;
#X connect 18 0 19 0;
#X connect 18 1 1 0;
#X connect 18 2 10 0;
#X connect 18 3 11 0;
#X connect 19 0 20 0;
#X connect 19 1 1 0;
#X connect 19 2 10 0;
#X connect 19 3 11 0;
#X connect 20 0 21 0;
#X connect 20 1 1 0;
#X connect 20 2 10 0;
#X connect 20 3 11 0;
#X connect 21 0 22 0;
#X connect 21 1 1 0;
#X connect 21 2 10 0;
#X connect 21 3 11 0;
#X connect 22 0 23 0;
#X connect 22 1 1 0;
#X connect 22 2 10 0;
#X connect 22 3 11 0;
#X connect 23 0 24 0;
#X connect 23 1 1 0;
#X connect 23 2 10 0;
#X connect 23 3 11 0;
#X connect 24 0 25 0;
#X connect 24 1 1 0;
#X connect 24 2 10 0;
#X connect 24 3 11 0;
#X connect 25 0 26 0;
#X connect 25 1 1 0;
#X connect 25 2 10 0;
#X connect 25 3 11 0;
#X connect 26 0 27 0;
#X connect 26 1 1 0;
#X connect 26 2 10 0;
#X connect 26 3 11 0;
#X connect 27 0 30 0;
#X connect 27 1 1 0;
#X connect 27 2 10 0;
#X connect 27 3 11 0;
#X connect 30 0 31 0;
#X connect 30 1 1 0;
#X connect 30 2 10 0;
#X connect 30 3 11 0;
#X connect 31 1 1 0;
#X connect 31 2 10 0;
#X connect 31 3 11 0;
#X restore 55 137 pd sidebuttonscount2;
#X text 88 46 bang;
#X connect 0 0 1 0;
#X connect 1 0 4 0;
#X connect 1 1 5 0;
#X connect 1 2 6 0;
#X connect 1 3 7 0;
#X connect 1 4 23 1;
#X connect 1 5 28 1;
#X connect 1 6 3 0;
#X connect 1 7 2 0;
#X connect 4 0 18 0;
#X connect 5 0 27 0;
#X connect 6 0 18 1;
#X connect 7 0 27 1;
#X connect 9 0 39 0;
#X connect 10 0 39 0;
#X connect 12 0 31 0;
#X connect 13 0 25 0;
#X connect 14 0 20 0;
#X connect 18 0 19 0;
#X connect 19 0 21 1;
#X connect 20 0 21 0;
#X connect 21 0 23 0;
#X connect 22 0 31 2;
#X connect 23 0 22 0;
#X connect 25 0 26 0;
#X connect 26 0 28 0;
#X connect 27 0 26 1;
#X connect 28 0 29 0;
#X connect 29 0 31 1;
#X connect 31 0 37 0;
#X connect 32 0 34 0;
#X connect 33 0 32 0;
#X connect 33 1 36 0;
#X connect 35 0 1 0;
#X connect 37 0 33 0;
#X connect 38 0 11 0;
#X connect 39 0 12 0;
#X connect 39 1 13 0;
#X connect 39 2 14 0;
#X restore 29 338 pd sidebuttons_create;
#X msg 185 280 110 58 4 4 20 33 8 8;
#X obj 321 211 loadbang;
#X text 353 236 background starts higher;
#X msg 320 236 100;
#X connect 0 0 7 0;
#X connect 0 1 15 0;
#X connect 2 0 4 0;
#X connect 4 0 21 0;
#X connect 7 0 28 0;
#X connect 9 0 7 0;
#X connect 10 0 7 0;
#X connect 11 0 7 0;
#X connect 12 0 7 0;
#X connect 13 0 4 0;
#X connect 15 0 17 0;
#X connect 17 0 5 0;
#X connect 19 0 30 0;
#X connect 20 0 32 0;
#X connect 20 1 24 0;
#X connect 20 1 28 2;
#X connect 21 0 15 1;
#X connect 24 0 25 0;
#X connect 24 1 26 0;
#X connect 28 0 32 0;
#X connect 30 0 0 0;
#X connect 30 1 20 0;
#X connect 30 2 36 0;
#X connect 30 3 36 0;
#X connect 30 4 13 0;
#X connect 30 5 0 2;
#X connect 31 0 0 1;
#X connect 33 0 35 0;
#X connect 34 0 35 1;
#X connect 34 1 28 1;
#X connect 34 2 20 1;
#X connect 35 0 32 0;
#X connect 36 0 34 0;
#X connect 37 0 39 0;
#X connect 39 0 20 2;
#X coords 0 -1 1 1 138 61 1 2 192;
#X restore 85 -713 pd button_array;
#N canvas 0 0 450 300 sound_outputs 0;
#X obj 19 20 catch~ signal_1;
#X obj 36 44 catch~ signal_2;
#X obj 18 254 dac~ 1 2 3 4 5 6 7 8 9 10 11 12, f 65;
#X obj 51 66 catch~ signal_3;
#X obj 68 90 catch~ signal_4;
#X obj 84 113 catch~ signal_5;
#X obj 110 137 catch~ signal_6;
#X obj 212 19 catch~ signal_7;
#X obj 229 43 catch~ signal_8;
#X obj 244 65 catch~ signal_9;
#X obj 261 89 catch~ signal_10;
#X obj 286 112 catch~ signal_11;
#X obj 303 136 catch~ signal_12;
#X connect 0 0 2 0;
#X connect 1 0 2 1;
#X connect 3 0 2 2;
#X connect 4 0 2 3;
#X connect 5 0 2 4;
#X connect 6 0 2 5;
#X connect 7 0 2 6;
#X connect 8 0 2 7;
#X connect 9 0 2 8;
#X connect 10 0 2 9;
#X connect 11 0 2 10;
#X connect 12 0 2 11;
#X restore 79 -645 pd sound_outputs;
#N canvas 345 164 800 485 apc_midi_control 0;
#X floatatom 69 53 5 0 0 0 - - -, f 5;
#X floatatom 120 55 5 0 0 0 - - -, f 5;
#X floatatom 102 -80 5 0 0 0 - - -, f 5;
#X obj 70 -1 stripnote;
#X floatatom 85 -61 5 0 0 0 - - -, f 5;
#X floatatom 69 -41 5 0 0 0 - - -, f 5;
#X obj 69 132 s;
#X msg 87 107 symbol midibutton-\$1;
#X obj 69 78 t b f b f;
#X msg 150 140 symbol \$1-bng-r;
#X obj 114 165 s;
#X obj 70 26 moses 64;
#X floatatom 347 53 5 0 0 0 - - -, f 5;
#X text 5 53 seq matrix;
#X obj 450 249 s \$0-globalplaypause-r;
#N canvas 316 198 450 323 midi_out 0;
#X obj 86 56 t 89 f;
#X obj 90 176 noteout 1;
#X obj 118 103 select 0 1;
#X msg 118 125 2;
#X floatatom 118 81 5 0 0 0 - - -, f 5;
#X obj 86 31 r \$0-globalplaypause-s;
#X msg 147 129 1;
#X connect 0 0 1 0;
#X connect 0 1 4 0;
#X connect 2 0 3 0;
#X connect 2 1 6 0;
#X connect 3 0 1 1;
#X connect 4 0 2 0;
#X connect 5 0 0 0;
#X connect 6 0 1 1;
#X restore 343 -81 pd midi_out;
#X obj 18 -22 select 98;
#X obj 389 118 +;
#X floatatom 389 143 5 0 0 0 - - -, f 5;
#N canvas 826 75 450 346 apc_shift 0;
#X obj 87 38 inlet;
#X text 129 38 bang note 98;
#X obj 229 39 inlet;
#X text 273 39 velocity;
#X obj 156 247 outlet;
#X text 204 245 0 or 8 to add to midi note;
#X msg 202 176 8;
#X text 243 152 if velocity is 0 or 127;
#X floatatom 190 206 5 0 0 0 - - -, f 5;
#X obj 161 89 bng 15 250 50 0 empty empty empty 17 7 0 10 -262144 -1
-1;
#X obj 161 70 t b 1;
#X obj 161 129 spigot;
#X obj 161 151 select 0 127;
#X obj 161 177 t 0 0;
#X obj 161 107 f \$1;
#X connect 0 0 10 0;
#X connect 2 0 14 1;
#X connect 6 0 8 0;
#X connect 8 0 4 0;
#X connect 9 0 14 0;
#X connect 10 0 9 0;
#X connect 10 1 11 1;
#X connect 11 0 12 0;
#X connect 12 0 13 0;
#X connect 12 1 6 0;
#X connect 12 2 13 0;
#X connect 13 0 11 1;
#X connect 13 1 8 0;
#X connect 14 0 11 0;
#X restore 425 37 pd apc_shift;
#X obj 450 224 select 97 90;
#X obj 280 232 s;
#X obj 574 -79 ctlin;
#X floatatom 608 -54 5 0 0 0 - - -, f 5;
#X floatatom 591 -35 5 0 0 0 - - -, f 5;
#X floatatom 575 -15 5 0 0 0 - - -, f 5;
#X obj 646 -5 select 0 127;
#X obj 575 50 t b f;
#X obj 575 20 + 1000;
#X floatatom 574 88 5 0 0 0 - - -, f 5;
#X obj 574 129 s;
#X msg 303 203 symbol \$1-sidebutton-r;
#X msg 613 109 symbol \$1-sidebutton-r;
#X msg 645 28 set 0;
#X msg 682 45 set 1;
#X obj 111 -39 t f f f;
#X obj 280 171 t b f;
#X obj 69 -103 notein 1;
#X connect 0 0 8 0;
#X connect 3 0 11 0;
#X connect 3 1 1 0;
#X connect 4 0 35 0;
#X connect 5 0 16 0;
#X connect 7 0 6 1;
#X connect 8 0 6 0;
#X connect 8 1 7 0;
#X connect 8 2 10 0;
#X connect 8 3 9 0;
#X connect 9 0 10 1;
#X connect 11 0 0 0;
#X connect 11 1 12 0;
#X connect 12 0 17 0;
#X connect 16 0 19 0;
#X connect 16 1 3 0;
#X connect 17 0 18 0;
#X connect 18 0 20 0;
#X connect 18 0 36 0;
#X connect 19 0 17 1;
#X connect 20 0 14 0;
#X connect 22 0 24 0;
#X connect 22 1 25 0;
#X connect 22 2 23 0;
#X connect 24 0 26 0;
#X connect 25 0 28 0;
#X connect 26 0 33 0;
#X connect 26 1 34 0;
#X connect 27 0 29 0;
#X connect 27 1 32 0;
#X connect 28 0 27 0;
#X connect 29 0 30 0;
#X connect 31 0 21 1;
#X connect 32 0 30 1;
#X connect 33 0 29 0;
#X connect 34 0 29 0;
#X connect 35 1 3 1;
#X connect 35 2 19 1;
#X connect 36 0 21 0;
#X connect 36 1 31 0;
#X connect 37 0 5 0;
#X connect 37 1 4 0;
#X restore 78 -620 pd apc_midi_control;
#N canvas 0 0 450 300 sidebuttons_config 0;
#X obj 75 78 s \$0-globalplaypause-r;
#X obj 75 53 select 97 90;
#X obj 71 16 r midibutton;
#X connect 1 0 0 0;
#X restore 78 -597 pd sidebuttons_config;
#N canvas 0 0 450 300 latency_test 0;
#X obj 103 150 bng 15 250 50 0 empty empty empty 17 7 0 10 -262144
-1 -1;
#X obj 139 150 bng 15 250 50 0 empty empty empty 17 7 0 10 -262144
-1 -1;
#X obj 93 93 r beat_num;
#X obj 103 182 realtime;
#X floatatom 103 207 5 0 0 0 - - -, f 5;
#X obj 89 113 select 0;
#X obj 160 111 r 56-recstart;
#X obj 160 136 bng 15 250 50 0 empty empty empty 17 7 0 10 -262144
-1 -1;
#X obj 140 43 r 56-playstart;
#X obj 140 68 bng 15 250 50 0 empty empty empty 17 7 0 10 -262144 -1
-1;
#X connect 0 0 3 0;
#X connect 1 0 3 1;
#X connect 2 0 5 0;
#X connect 3 0 4 0;
#X connect 5 0 0 0;
#X connect 6 0 7 0;
#X connect 7 0 1 0;
#X connect 8 0 9 0;
#X connect 9 0 1 0;
#X restore 42 -141 pd latency_test;
#N canvas 459 246 450 300 initialize 0;
#X obj 67 46 inlet;
#N canvas 682 104 657 556 matrix_loop 0;
#X floatatom 82 -22 3 0 0 0 - - -, f 3;
#X obj 104 118 f 0;
#X obj 134 117 + 1;
#X obj 99 82 metro 500;
#X msg 18 68 stop;
#X obj 143 193 outlet;
#X obj 101 145 t f f;
#X floatatom 150 173 5 0 0 0 - - -, f 5;
#X obj 65 -21 bng 15 250 50 0 empty empty empty 17 7 0 10 -262144 -1
-1;
#X obj 73 214 select 1;
#X obj 203 247 bng 15 250 50 0 empty empty empty 17 7 0 10 -262144
-1 -1;
#X msg 175 82 0;
#X obj 65 -2 bng 15 250 50 0 empty empty S 4 6 0 10 -262144 -1 -1;
#X obj 348 197 outlet;
#X obj 84 183 ==;
#X obj 101 50 t b b 0;
#X obj 48 29 t b b;
#X obj 60 -49 inlet;
#X obj 373 36 inlet;
#X msg 207 43 63;
#X connect 0 0 13 0;
#X connect 0 0 14 1;
#X connect 1 0 2 0;
#X connect 1 0 6 0;
#X connect 2 0 1 1;
#X connect 3 0 1 0;
#X connect 4 0 3 0;
#X connect 6 0 14 0;
#X connect 6 1 7 0;
#X connect 7 0 5 0;
#X connect 8 0 15 0;
#X connect 9 0 4 0;
#X connect 9 0 10 0;
#X connect 10 0 11 0;
#X connect 11 0 1 1;
#X connect 12 0 16 0;
#X connect 14 0 9 0;
#X connect 15 0 3 0;
#X connect 15 2 7 0;
#X connect 16 0 11 0;
#X connect 16 1 4 0;
#X connect 17 0 8 0;
#X connect 18 0 0 0;
#X connect 19 0 0 0;
#X coords 0 -1 1 1 88 42 1 62 -25;
#X restore 58 97 pd matrix_loop;
#X text 69 139 number;
#X text 150 131 max;
#X text 103 46 loadbang in;
#X floatatom 59 164 5 0 0 0 - - -, f 5;
#X obj 59 256 s;
#X msg 77 234 symbol \$1-button-initbang-r;
#X msg 110 212 symbol \$1-initbang-emptybutton-r;
#X obj 59 188 t b f b f;
#X obj 243 95 bng 15 250 50 0 empty empty empty 17 7 0 10 -262144 -1
-1;
#X obj 243 118 s sidebutton-initbang-r;
#X connect 0 0 1 0;
#X connect 0 0 10 0;
#X connect 1 0 5 0;
#X connect 5 0 9 0;
#X connect 7 0 6 1;
#X connect 8 0 6 1;
#X connect 9 0 6 0;
#X connect 9 1 7 0;
#X connect 9 2 6 0;
#X connect 9 3 8 0;
#X connect 10 0 11 0;
#X restore 305 -646 pd initialize;
#X obj 305 -675 loadbang;
#X connect 9 0 8 0;
#X restore 850 -38 pd options;
#X obj 19 14 cnv 10 112 512 empty empty drums 11 6 0 10 -237569 -66577
0;
#X obj 133 14 cnv 10 112 512 empty empty percu 11 6 0 10 -260097 -66577
0;
#X obj 247 14 cnv 10 112 512 empty empty bass 11 6 0 10 -241153 -66577
0;
#X obj 361 14 cnv 10 112 512 empty empty pads 11 6 0 10 -3650 -66577
0;
#X obj 475 14 cnv 10 112 512 empty empty chords 11 6 0 10 -2043 -66577
0;
#X obj 589 14 cnv 10 112 512 empty empty lead 11 6 0 10 -3761 -66577
0;
#X obj 703 14 cnv 10 112 512 empty empty other1 11 6 0 10 -237626 -66577
0;
#X obj 817 14 cnv 10 112 512 empty empty other2 11 6 0 10 -188475 -66577
0;
#X obj 20 467 empty_button 0;
#X obj 20 467 empty_button 0;
#X obj 134 467 empty_button 1;
#X obj 248 467 empty_button 2;
#X obj 362 467 empty_button 3;
#X obj 476 467 empty_button 4;
#X obj 590 467 empty_button 5;
#X obj 704 467 empty_button 6;
#X obj 818 467 empty_button 7;
#X obj 20 405 empty_button 8;
#X obj 134 405 empty_button 9;
#X obj 248 405 empty_button 10;
#X obj 362 405 empty_button 11;
#X obj 476 405 empty_button 12;
#X obj 590 405 empty_button 13;
#X obj 704 405 empty_button 14;
#X obj 818 405 empty_button 15;
#X obj 20 343 empty_button 16;
#X obj 134 343 empty_button 17;
#X obj 248 343 empty_button 18;
#X obj 362 343 empty_button 19;
#X obj 476 343 empty_button 20;
#X obj 590 343 empty_button 21;
#X obj 704 343 empty_button 22;
#X obj 818 343 empty_button 23;
#X obj 20 281 empty_button 24;
#X obj 134 281 empty_button 25;
#X obj 248 281 empty_button 26;
#X obj 362 281 empty_button 27;
#X obj 476 281 empty_button 28;
#X obj 590 281 empty_button 29;
#X obj 704 281 empty_button 30;
#X obj 818 281 empty_button 31;
#X obj 20 219 empty_button 32;
#X obj 134 219 empty_button 33;
#X obj 248 219 empty_button 34;
#X obj 362 219 empty_button 35;
#X obj 476 219 empty_button 36;
#X obj 590 219 empty_button 37;
#X obj 704 219 empty_button 38;
#X obj 818 219 empty_button 39;
#X obj 20 157 empty_button 40;
#X obj 134 157 empty_button 41;
#X obj 248 157 empty_button 42;
#X obj 362 157 empty_button 43;
#X obj 476 157 empty_button 44;
#X obj 590 157 empty_button 45;
#X obj 704 157 empty_button 46;
#X obj 818 157 empty_button 47;
#X obj 20 95 empty_button 48;
#X obj 134 95 empty_button 49;
#X obj 248 95 empty_button 50;
#X obj 362 95 empty_button 51;
#X obj 476 95 empty_button 52;
#X obj 590 95 empty_button 53;
#X obj 704 95 empty_button 54;
#X obj 818 95 empty_button 55;
#X obj 20 33 empty_button 56;
#X obj 134 33 empty_button 57;
#X obj 248 33 empty_button 58;
#X obj 362 33 empty_button 59;
#X obj 476 33 empty_button 60;
#X obj 590 33 empty_button 61;
#X obj 704 33 empty_button 62;
#X obj 818 33 empty_button 63;
#X obj 20 529 sidebutton 64;
#X obj 134 529 sidebutton 65;
#X obj 248 529 sidebutton 66;
#X obj 362 529 sidebutton 67;
#X obj 476 529 sidebutton 68;
#X obj 590 529 sidebutton 69;
#X obj 704 529 sidebutton 70;
#X obj 818 529 sidebutton 71;
#X obj 932 33 sidebutton 82;
#X obj 932 95 sidebutton 83;
#X obj 932 157 sidebutton 84;
#X obj 932 219 sidebutton 85;
#X obj 932 281 sidebutton 86;
#X obj 932 343 sidebutton 87;
#X obj 932 405 sidebutton 88;
#X obj 932 467 sidebutton 89;
#X obj 932 529 sidebutton 98;
#X obj -94 529 sidebutton 1064;
