#N canvas 442 372 941 403 10;
#X msg 468 24 load /home/zig/soundfounts/FluidR3_GM.sf2;
#X floatatom 258 136 5 0 0 0 channel - -, f 5;
#X floatatom 329 136 5 0 0 0 value - -, f 5;
#X floatatom 328 112 5 0 0 0 bank - -, f 5;
#X obj 260 203 pack f f;
#X msg 260 228 prog \$1 \$2;
#X msg 329 163 bank 1 \$1;
#X obj 258 181 bng 15 250 50 0 empty empty empty 17 7 0 10 #fcfcfc
#000000 #000000;
#X obj 257 111 bng 15 250 50 0 empty empty Load -28 5 0 10 #fcfcfc
#000000 #000000;
#X obj 144 6 notein;
#X obj 144 31 pack 0 0 0;
#X msg 144 56 \$3 \$1 \$2;
#X obj 127 279 fluid~;
#X obj 127 334 throw~ fluid_1;
#X obj 61 96 bng 15 250 50 0 empty empty empty 17 7 0 10 #fcfcfc #000000
#000000;
#X obj 438 197 r fromui;
#X obj 438 223 routeOSC /fluid;
#X msg 110 129 help;
#X obj 361 268 tosymbol;
#X obj 361 293 print;
#X obj 234 333 throw~ fluid_2;
#X obj 17 192 r fluidswitch;
#X floatatom 17 217 5 0 0 0 - - -, f 5;
#X obj 17 241 dsp_switch;
#X obj 127 304 *~;
#X obj 234 309 *~;
#X obj 17 290 switch~;
#X msg 468 49 load /home/zig/soundfounts/TimbresOfHeavenGM_GS_XG_SFX_V3.4_Final.sf2
, f 72;
#X msg 486 72 load /home/zig/soundfounts/TimbresOfHeavenGM_GS_XG_SFX_V3.4_Final.sf2
, f 72;
#X obj 241 19 openpanel;
#X msg 241 45 load \$1;
#X connect 1 0 4 0;
#X connect 2 0 4 1;
#X connect 2 0 7 0;
#X connect 3 0 6 0;
#X connect 4 0 5 0;
#X connect 7 0 1 0;
#X connect 8 0 29 0;
#X connect 9 0 10 0;
#X connect 9 1 10 1;
#X connect 9 2 10 2;
#X connect 10 0 11 0;
#X connect 10 0 14 0;
#X connect 11 0 12 0;
#X connect 12 0 24 0;
#X connect 12 1 25 0;
#X connect 15 0 16 0;
#X connect 16 0 12 0;
#X connect 16 0 18 0;
#X connect 17 0 12 0;
#X connect 18 0 19 0;
#X connect 18 0 12 0;
#X connect 21 0 22 0;
#X connect 22 0 23 0;
#X connect 23 0 26 0;
#X connect 23 1 24 1;
#X connect 23 1 25 1;
#X connect 24 0 13 0;
#X connect 25 0 20 0;
#X connect 29 0 30 0;
#X connect 30 0 12 0;
#X coords 0 -1 1 1 155 61 1 210 96;
