#N canvas 411 96 449 377 10;
#X msg 244 24 load /home/zig/soundfounts/FluidR3_GM.sf2;
#X msg 244 49 load /home/zig/soundfounts/Timbres Of Heaven GM_GS_XG_SFX
V 3.4 Final.sf2;
#X floatatom 258 136 5 0 0 0 channel - -, f 5;
#X floatatom 329 136 5 0 0 0 value - -, f 5;
#X floatatom 328 112 5 0 0 0 bank - -, f 5;
#X obj 260 203 pack f f;
#X msg 260 228 prog \$1 \$2;
#X msg 329 163 bank 1 \$1;
#X obj 258 181 bng 15 250 50 0 empty empty empty 17 7 0 10 -262144
-1 -1;
#X obj 257 111 bng 15 250 50 0 empty empty Load -28 5 0 10 -262144
-1 -1;
#X obj 62 286 s todsp;
#X obj 63 257 list trim;
#X obj 63 232 list prepend /fluid;
#X connect 0 0 12 0;
#X connect 1 0 12 0;
#X connect 2 0 5 0;
#X connect 3 0 5 1;
#X connect 3 0 8 0;
#X connect 4 0 7 0;
#X connect 5 0 6 0;
#X connect 6 0 12 0;
#X connect 7 0 12 0;
#X connect 8 0 2 0;
#X connect 9 0 0 0;
#X connect 11 0 10 0;
#X connect 12 0 11 0;
#X coords 0 -1 1 1 155 61 1 210 96;
