#N canvas 39 101 646 593 10;
#X obj 60 143 metro 500;
#X obj 61 100 bng 15 250 50 0 empty empty empty 17 7 0 10 #fcfcfc #000000
#000000;
#X msg 93 109 stop;
#X obj 60 191 f 0;
#X obj 93 191 + 1;
#X obj 60 216 mod;
#X floatatom 260 148 5 0 0 0 - - -, f 5;
#X floatatom 77 372 5 0 0 0 - - -, f 5;
#X msg 260 59 4;
#X obj 260 84 * 32;
#X obj 260 109 t f f;
#X msg 151 13 120;
#X obj 151 38 / 60;
#X obj 151 63 pow -1;
#X obj 151 88 * 1000;
#X floatatom 151 112 5 0 0 0 - - -, f 5;
#X msg 217 11 32;
#X obj 151 136 / 1;
#X obj 217 38 t f f f;
#X text 89 12 tempo_bpm;
#X text 247 12 nb of subdivision of one beat;
#X text 292 60 nb of bars;
#X obj 464 339 poly;
#X obj 338 213 notein;
#N canvas 691 197 450 325 \$0-midiarrays 1;
#N canvas 623 180 450 350 arrays 1;
#X obj 10 0 table midi_cc0 128;
#X obj 10 0 table midi_cc0 128;
#X obj 10 60 table midi_cc2 128;
#X obj 10 120 table midi_cc4 128;
#X obj 196 3 table midi_notes 128;
#X obj 193 25 table midi_vel 128;
#X obj 7 32 table midi_cc1 128;
#X obj 185 52 table midi_bend 128;
#X restore 30 54 pd arrays;
#X obj 159 124 s pd-arrays;
#X msg 169 36 obj 10 10 table midi_notes 128;
#X msg 159 10 clear;
#X msg 179 62 obj 10 10 table midi_vel 128;
#X floatatom 243 206 5 0 0 0 - - -, f 5;
#X msg 246 329 obj \$1 \$2 table midi_cc\$3 128;
#X obj 243 230 t f f f;
#X obj 246 296 pack f f f;
#X msg 243 255 10;
#X obj 265 261 * 30;
#X obj 243 181 line 10;
#X msg 244 149 0 \, 4 40;
#X msg 195 91 obj 10 30 table midi_bend 128;
#X connect 2 0 1 0;
#X connect 3 0 1 0;
#X connect 4 0 1 0;
#X connect 5 0 7 0;
#X connect 6 0 1 0;
#X connect 7 0 9 0;
#X connect 7 1 10 0;
#X connect 7 2 8 2;
#X connect 8 0 6 0;
#X connect 9 0 8 0;
#X connect 10 0 8 1;
#X connect 11 0 5 0;
#X connect 12 0 11 0;
#X connect 13 0 1 0;
#X restore 480 40 pd \$0-midiarrays;
#X obj 58 295 spigot;
#X obj 96 273 tgl 15 0 empty empty play 17 7 0 10 #fcfcfc #000000 #000000
0 1;
#X obj 77 347 tabread midi_notes;
#X obj 347 146 array size midi_notes;
#X obj 60 241 t f f;
#X obj 228 317 spigot;
#X obj 261 192 tgl 15 0 empty empty rec 17 7 0 10 #fcfcfc #000000 #000000
0 1;
#X obj 225 348 tabwrite midi_notes;
#X obj 229 291 pack f f;
#X obj 374 270 pack f f;
#X obj 374 324 tabwrite midi_vel;
#X floatatom 338 238 5 0 0 0 - - -, f 5;
#X floatatom 117 397 5 0 0 0 - - -, f 5;
#X obj 117 372 tabread midi_vel;
#X floatatom 383 238 5 0 0 0 - - -, f 5;
#X text 252 394 use arrays instead of qlists so I can also play backwards
et tout ça and I know which time I am in;
#X obj 225 491 fluid~;
#X msg 332 482 load \$1;
#X obj 331 431 bng 15 250 50 0 empty empty empty 17 7 0 10 #fcfcfc
#000000 #000000;
#X obj 331 454 openpanel;
#X obj 198 445 spigot;
#X obj 232 423 tgl 15 0 empty empty monitor 17 7 0 10 #fcfcfc #000000
#000000 1 1;
#X obj 45 441 notein;
#X obj 45 463 pack 0 0 0;
#X msg 45 485 \$3 \$1 \$2;
#X obj 225 516 output~;
#X floatatom 38 518 5 0 0 0 - - -, f 5;
#X msg 268 454 init;
#X obj 374 295 spigot;
#X obj 112 222 hsl 76 16 0 127 0 0 empty empty empty -2 -8 0 10 #fcfcfc
#000000 #000000 4902 1;
#X obj 124 497 pack 1 f f;
#X obj 450 437 bendin;
#X obj 450 459 pack 0 0;
#X msg 450 481 bend \$2 \$1;
#X obj 509 184 bendin;
#X obj 509 253 spigot;
#X obj 509 278 tabwrite midi_bend;
#X obj 425 525 tgl 15 0 empty empty empty 17 7 0 10 #fcfcfc #000000
#000000 1 1;
#X obj 424 548 switch~;
#X obj 58 320 t 1 f f f;
#X obj 158 397 tabread midi_bend;
#X msg 158 422 bend 1 \$1;
#X obj 226 244 t f f f;
#X obj 509 209 pack f f;
#X msg 428 84 \; midi_notes const 0 \; midi_vel const 0 \; midi_bend
const 0 \;;
#X text 378 506 how to record the CC value until it is changed?;
#X msg 509 234 \$2 \$1;
#X connect 0 0 3 0;
#X connect 1 0 0 0;
#X connect 2 0 0 0;
#X connect 3 0 4 0;
#X connect 3 0 5 0;
#X connect 4 0 3 1;
#X connect 5 0 29 0;
#X connect 5 0 54 0;
#X connect 6 0 5 1;
#X connect 7 0 55 1;
#X connect 8 0 9 0;
#X connect 9 0 10 0;
#X connect 10 0 6 0;
#X connect 10 1 28 0;
#X connect 11 0 12 0;
#X connect 12 0 13 0;
#X connect 13 0 14 0;
#X connect 14 0 15 0;
#X connect 15 0 17 0;
#X connect 16 0 18 0;
#X connect 17 0 0 1;
#X connect 18 0 17 1;
#X connect 18 1 9 1;
#X connect 23 0 36 0;
#X connect 23 1 39 0;
#X connect 25 0 64 0;
#X connect 26 0 25 1;
#X connect 27 0 7 0;
#X connect 29 0 25 0;
#X connect 29 1 67 0;
#X connect 30 0 32 0;
#X connect 31 0 30 1;
#X connect 31 0 53 1;
#X connect 31 0 60 1;
#X connect 33 0 30 0;
#X connect 34 0 53 0;
#X connect 36 0 33 0;
#X connect 37 0 55 2;
#X connect 38 0 37 0;
#X connect 39 0 34 0;
#X connect 41 0 50 0;
#X connect 41 1 50 1;
#X connect 42 0 41 0;
#X connect 43 0 44 0;
#X connect 44 0 42 0;
#X connect 45 0 41 0;
#X connect 46 0 45 1;
#X connect 47 0 48 0;
#X connect 47 0 51 0;
#X connect 47 1 48 1;
#X connect 47 2 48 2;
#X connect 48 0 49 0;
#X connect 49 0 45 0;
#X connect 52 0 41 0;
#X connect 53 0 35 0;
#X connect 55 0 41 0;
#X connect 56 0 57 0;
#X connect 56 1 57 1;
#X connect 57 0 58 0;
#X connect 58 0 41 0;
#X connect 59 0 68 1;
#X connect 60 0 61 0;
#X connect 62 0 63 0;
#X connect 64 0 55 0;
#X connect 64 1 27 0;
#X connect 64 2 38 0;
#X connect 64 3 65 0;
#X connect 65 0 66 0;
#X connect 66 0 41 0;
#X connect 67 0 33 1;
#X connect 67 1 34 1;
#X connect 67 2 68 0;
#X connect 68 0 71 0;
#X connect 71 0 60 0;
