#N canvas 49 35 969 948 10;
#X obj 60 143 metro 500;
#X obj 61 100 bng 15 250 50 0 empty empty empty 17 7 0 10 #fcfcfc #000000
#000000;
#X msg 93 109 stop;
#X obj 60 191 f 0;
#X obj 93 191 + 1;
#X obj 60 216 mod;
#X floatatom 260 148 5 0 0 0 - - -, f 5;
#X floatatom 77 372 5 0 0 0 - - -, f 5;
#X msg 260 59 4;
#X obj 260 84 * 32;
#X obj 260 109 t f f;
#X msg 151 13 120;
#X obj 151 38 / 60;
#X obj 151 63 pow -1;
#X obj 151 88 * 1000;
#X floatatom 151 112 5 0 0 0 - - -, f 5;
#X msg 217 11 32;
#X obj 151 136 / 1;
#X obj 217 38 t f f f;
#X text 89 12 tempo_bpm;
#X text 247 12 nb of subdivision of one beat;
#X text 292 60 nb of bars;
#X obj 338 213 notein;
#N canvas 1409 70 450 350 \$0-midiarrays 1;
#N canvas 880 70 450 375 arrays 1;
#X obj 10 0 table midi_cc0 128;
#X obj 10 0 table midi_cc0 128;
#X obj 10 60 table midi_cc2 128;
#X obj 10 120 table midi_cc4 128;
#X obj 7 32 table midi_cc1 128;
#X obj 185 52 table midi_bend 128;
#X obj 196 3 table \$0_notes_voice1 128;
#X obj 193 26 table \$0_vel_voice1 128;
#X obj 203 82 table \$0_notes_voice2 128;
#X obj 200 105 table \$0_vel_voice2 128;
#X obj 205 131 table \$0_notes_voice3 128;
#X obj 203 154 table \$0_vel_voice3 128;
#X obj 207 182 table \$0_notes_voice4 128;
#X obj 204 205 table \$0_vel_voice4 128;
#X restore 30 54 pd arrays;
#X obj 159 124 s pd-arrays;
#X msg 169 36 obj 10 10 table midi_notes 128;
#X msg 159 10 clear;
#X msg 179 62 obj 10 10 table midi_vel 128;
#X floatatom 243 206 5 0 0 0 - - -, f 5;
#X msg 246 329 obj \$1 \$2 table midi_cc\$3 128;
#X obj 243 230 t f f f;
#X obj 246 296 pack f f f;
#X msg 243 255 10;
#X obj 265 261 * 30;
#X obj 243 181 line 10;
#X msg 244 149 0 \, 4 40;
#X msg 195 91 obj 10 30 table midi_bend 128;
#X connect 2 0 1 0;
#X connect 3 0 1 0;
#X connect 4 0 1 0;
#X connect 5 0 7 0;
#X connect 6 0 1 0;
#X connect 7 0 9 0;
#X connect 7 1 10 0;
#X connect 7 2 8 2;
#X connect 8 0 6 0;
#X connect 9 0 8 0;
#X connect 10 0 8 1;
#X connect 11 0 5 0;
#X connect 12 0 11 0;
#X connect 13 0 1 0;
#X restore 552 44 pd \$0-midiarrays;
#X obj 58 295 spigot;
#X obj 96 273 tgl 15 0 empty empty play 17 7 0 10 #fcfcfc #000000 #000000
0 1;
#X obj 77 347 tabread midi_notes;
#X obj 60 241 t f f;
#X obj 228 317 spigot;
#X obj 261 192 tgl 15 0 empty empty rec 17 7 0 10 #fcfcfc #000000 #000000
0 1;
#X obj 225 348 tabwrite midi_notes;
#X obj 374 324 tabwrite midi_vel;
#X floatatom 338 238 5 0 0 0 - - -, f 5;
#X floatatom 117 397 5 0 0 0 - - -, f 5;
#X obj 117 372 tabread midi_vel;
#X floatatom 383 238 5 0 0 0 - - -, f 5;
#X text 329 384 use arrays instead of qlists so I can also play backwards
et tout ça and I know which time I am in;
#X obj 225 491 fluid~;
#X msg 332 482 load \$1;
#X obj 331 431 bng 15 250 50 0 empty empty empty 17 7 0 10 #fcfcfc
#000000 #000000;
#X obj 331 454 openpanel;
#X obj 198 445 spigot;
#X obj 232 423 tgl 15 0 empty empty monitor 17 7 0 10 #fcfcfc #000000
#000000 0 1;
#X obj 45 441 notein;
#X obj 45 463 pack 0 0 0;
#X msg 45 485 \$3 \$1 \$2;
#X obj 225 516 output~;
#X floatatom 38 518 5 0 0 0 - - -, f 5;
#X msg 268 454 init;
#X obj 374 295 spigot;
#X obj 112 222 hsl 76 16 0 127 0 0 empty empty empty -2 -8 0 10 #fcfcfc
#000000 #000000 0 1;
#X obj 124 497 pack 1 f f;
#X obj 450 437 bendin;
#X obj 450 459 pack 0 0;
#X msg 450 481 bend \$2 \$1;
#X obj 509 184 bendin;
#X obj 509 253 spigot;
#X obj 509 278 tabwrite midi_bend;
#X obj 425 525 tgl 15 0 empty empty empty 17 7 0 10 #fcfcfc #000000
#000000 0 1;
#X obj 424 548 switch~;
#X obj 58 320 t 1 f f f;
#X obj 158 397 tabread midi_bend;
#X msg 158 422 bend 1 \$1;
#X obj 226 244 t f f f;
#X obj 509 209 pack f f;
#X msg 554 77 \; midi_notes const 0 \; midi_vel const 0 \; midi_bend
const 0 \;;
#X text 579 202 how to record the CC value until it is changed?, f
27;
#X msg 509 234 \$2 \$1;
#X obj 503 609 poly 4;
#X floatatom 457 642 5 0 0 0 - - -, f 5;
#X floatatom 457 662 5 0 0 0 - - -, f 5;
#X floatatom 457 682 5 0 0 0 - - -, f 5;
#X text 378 641 voice number;
#X text 383 661 note number;
#X text 399 681 velocity;
#X obj 503 665 pack f f f;
#X obj 314 746 route 1 2 3 4;
#X obj 314 771 unpack f f;
#X obj 331 794 unpack f f;
#X obj 351 817 unpack f f;
#X obj 373 840 unpack f f;
#X obj 300 644 t f;
#X obj 503 577 notein;
#X obj 628 652 pack f f;
#X msg 628 677 1 \$1 \$2;
#X msg 554 759 set \$0_notes_voice\$1;
#X obj 502 858 tabwrite;
#X obj 503 736 t a a a a;
#X msg 520 803 set \$0_vel_voice\$1;
#X msg 299 588 1;
#X obj 118 672 spigot;
#X obj 156 650 tgl 15 0 empty empty play 17 7 0 10 #fcfcfc #000000
#000000 0 1;
#X obj 143 800 tabread;
#X obj 118 696 t 1 2 3 4 f;
#X obj 117 727 pack f f;
#X msg 117 820 set \$0_notes_voice\$1 \, \$2;
#X obj 117 752 t a a;
#X msg 143 776 set \$0_vel_voice\$1 \, \$2;
#X obj 116 846 tabread;
#X obj 116 871 pack f f;
#X msg 116 896 1 \$1 \$2;
#X msg 537 780 \$2;
#X msg 503 827 \$3;
#X obj 670 505 line 10;
#X floatatom 670 530 5 0 0 0 - - -, f 5;
#X msg 669 554 \; \$0_notes_voice\$1 const 0 \; \$0_vel_voice\$1 const
0 \,;
#X obj 503 697 spigot;
#X obj 587 501 tgl 15 0 empty empty rec 17 7 0 10 #fcfcfc #000000 #000000
0 1;
#X msg 670 480 1 \, 4 30;
#X obj 736 508 step 1 1;
#X obj 739 446 bng 15 250 50 0 empty empty clear 17 7 0 10 #fcfcfc
#000000 #000000;
#X msg 737 477 1 \, 4 100 1;
#X floatatom 803 43 5 0 0 0 #0midi-bars #0midi-bars-r #0midi-bars-s
, f 5;
#X obj 347 146 s \$0midi-bars;
#X text 691 14 resize array for 16 beats?;
#X connect 0 0 3 0;
#X connect 1 0 0 0;
#X connect 2 0 0 0;
#X connect 3 0 4 0;
#X connect 3 0 5 0;
#X connect 4 0 3 1;
#X connect 5 0 27 0;
#X connect 5 0 50 0;
#X connect 6 0 5 1;
#X connect 7 0 51 1;
#X connect 8 0 9 0;
#X connect 9 0 10 0;
#X connect 10 0 6 0;
#X connect 11 0 12 0;
#X connect 12 0 13 0;
#X connect 13 0 14 0;
#X connect 14 0 15 0;
#X connect 15 0 17 0;
#X connect 16 0 18 0;
#X connect 17 0 0 1;
#X connect 18 0 17 1;
#X connect 18 1 9 1;
#X connect 22 0 32 0;
#X connect 22 1 35 0;
#X connect 24 0 60 0;
#X connect 25 0 24 1;
#X connect 26 0 7 0;
#X connect 27 0 24 0;
#X connect 27 1 63 0;
#X connect 27 1 81 0;
#X connect 28 0 30 0;
#X connect 29 0 28 1;
#X connect 29 0 49 1;
#X connect 29 0 56 1;
#X connect 32 0 28 0;
#X connect 33 0 51 2;
#X connect 34 0 33 0;
#X connect 35 0 49 0;
#X connect 37 0 46 0;
#X connect 37 1 46 1;
#X connect 38 0 37 0;
#X connect 39 0 40 0;
#X connect 40 0 38 0;
#X connect 41 0 37 0;
#X connect 42 0 41 1;
#X connect 43 0 44 0;
#X connect 43 0 47 0;
#X connect 43 1 44 1;
#X connect 43 2 44 2;
#X connect 44 0 45 0;
#X connect 48 0 37 0;
#X connect 49 0 31 0;
#X connect 51 0 37 0;
#X connect 52 0 53 0;
#X connect 52 1 53 1;
#X connect 53 0 54 0;
#X connect 54 0 37 0;
#X connect 55 0 64 1;
#X connect 56 0 57 0;
#X connect 58 0 59 0;
#X connect 60 0 51 0;
#X connect 60 1 26 0;
#X connect 60 2 34 0;
#X connect 60 3 61 0;
#X connect 61 0 62 0;
#X connect 62 0 37 0;
#X connect 63 0 30 1;
#X connect 63 1 31 1;
#X connect 63 2 64 0;
#X connect 64 0 67 0;
#X connect 67 0 56 0;
#X connect 68 0 69 0;
#X connect 68 0 75 0;
#X connect 68 1 70 0;
#X connect 68 1 75 1;
#X connect 68 1 83 0;
#X connect 68 2 71 0;
#X connect 68 2 75 2;
#X connect 68 2 83 1;
#X connect 75 0 106 0;
#X connect 76 0 77 0;
#X connect 76 1 78 0;
#X connect 76 2 79 0;
#X connect 76 3 80 0;
#X connect 81 0 86 1;
#X connect 81 0 90 0;
#X connect 82 0 68 0;
#X connect 82 1 68 1;
#X connect 83 0 84 0;
#X connect 84 0 41 0;
#X connect 85 0 86 0;
#X connect 87 0 102 0;
#X connect 87 1 88 0;
#X connect 87 2 101 0;
#X connect 87 3 85 0;
#X connect 88 0 86 0;
#X connect 89 0 81 0;
#X connect 90 0 93 0;
#X connect 91 0 90 1;
#X connect 92 0 99 1;
#X connect 93 0 94 0;
#X connect 93 1 94 0;
#X connect 93 2 94 0;
#X connect 93 3 94 0;
#X connect 93 4 94 1;
#X connect 94 0 96 0;
#X connect 95 0 98 0;
#X connect 96 0 95 0;
#X connect 96 1 97 0;
#X connect 97 0 92 0;
#X connect 98 0 99 0;
#X connect 99 0 100 0;
#X connect 100 0 37 0;
#X connect 101 0 86 0;
#X connect 102 0 86 0;
#X connect 104 0 105 0;
#X connect 106 0 87 0;
#X connect 107 0 106 1;
#X connect 108 0 103 0;
#X connect 109 0 104 0;
#X connect 110 0 111 0;
#X connect 111 0 109 0;
