#N canvas 537 409 589 300 10;
#X msg 107 126 \$1-playstatus;
#X obj 107 151 tools/receiver;
#X floatatom 107 176 5 0 0 0 - - -, f 5;
#X obj 107 200 select 0 1;
#X obj 107 39 loadbang;
#X obj 107 64 \$1;
#X text 57 18 Scene to follow \, argument = scene number (82 to 89)
;
#X obj 21 65 hsl 50 16 0 127 0 0 empty \$0-scslider-r empty -2 -8 0
10 #fcfcfc #000000 #000000 0 1;
#X obj 116 238 s \$0-scslider-r;
#X obj 221 148 bng 15 250 50 0 empty empty empty 17 7 0 10 #fcfcfc
#000000 #000000;
#X obj 221 171 s;
#X obj 107 95 t f f f f, f 40;
#X obj 221 123 t b f;
#X msg 266 173 \$1-thumb-maxbars-s;
#X obj 266 198 tools/receiver;
#X floatatom 266 223 5 0 0 0 - - -, f 5;
#X msg 239 146 symbol \$1-thumb-maxbars-r;
#X text 247 257 build slider progression from this + metronome, f
25;
#X connect 0 0 1 0;
#X connect 1 0 2 0;
#X connect 2 0 3 0;
#X connect 4 0 5 0;
#X connect 5 0 11 0;
#X connect 9 0 10 0;
#X connect 11 0 0 0;
#X connect 11 1 12 0;
#X connect 11 2 13 0;
#X connect 12 0 9 0;
#X connect 12 1 16 0;
#X connect 13 0 14 0;
#X connect 14 0 15 0;
#X connect 16 0 10 1;
#X coords 0 -1 1 1 60 39 1 19 46;
