#N canvas 59 347 450 300 10;
#N canvas 210 191 450 325 get_scenecnv 0;
#X obj 96 49 inlet;
#X text 142 50 scene number;
#X obj 96 74 s getscenecnv;
#X obj 92 140 tosymbol;
#X symbolatom 92 165 18 0 0 0 - - -, f 18;
#X obj 92 115 r returnscenecnv;
#X obj 93 235 s pd-scearr-cnv;
#N canvas 0 0 450 300 scearr-cnv 0;
#X coords 0 -1 1 1 85 60 1 100 100;
#X restore 284 152 pd scearr-cnv;
#X msg 92 189 obj 100 100 \$1;
#X connect 0 0 2 0;
#X connect 3 0 4 0;
#X connect 4 0 8 0;
#X connect 5 0 3 0;
#X restore 114 54 pd get_scenecnv;
#X msg 121 110 82;
#X msg 121 135 \$1-playstatus;
#X obj 121 160 tools/receiver;
#X floatatom 121 185 5 0 0 0 - - -, f 5;
#X obj 121 209 select 0 1;
#X obj 287 147 sc2f 82;
#X connect 1 0 2 0;
#X connect 2 0 3 0;
#X connect 3 0 4 0;
#X connect 4 0 5 0;
