#N canvas 581 78 570 666 10;
#X obj 41 24 cnv 15 110 58 empty empty empty 20 12 0 14 -66577 -66577
0;
#X obj 45 28 tgl 48 0 \$0-sidebutton-s \$0-sidebutton-r b\$0 11 4 0
10 -137314 -4036 -1 0 1;
#X obj 95 28 tgl 25 0 \$0-shiftsidebutton-s \$0-sidebutton-r b\$0 1
11 0 10 -137314 -12225 -1 0 1;
#X floatatom 74 88 5 0 0 0 - - -, f 5;
#X floatatom 122 90 5 0 0 0 - - -, f 5;
#X obj 74 109 select 1;
#X msg 74 134 0;
#X obj 122 111 select 1;
#X msg 123 133 0;
#X obj 323 326 tgl 15 0 empty empty empty 17 7 0 10 -262144 -1 -1 0
1;
#X obj 322 351 select 0 1;
#X floatatom 328 417 9 0 0 0 - - -, f 9;
#X obj 380 386 f 5;
#X obj 324 386 f 12;
#X msg 325 443 color \$1 \$1;
#X obj 473 342 t b f;
#X obj 325 468 s;
#X msg 445 447 symbol \$1-r;
#X floatatom 469 295 5 0 63 0 - - -, f 5;
#X obj 242 341 metro 10;
#X obj 242 366 f 0;
#X obj 275 367 + 1;
#X floatatom 242 411 5 0 0 0 - - -, f 5;
#X msg 243 474 0;
#X obj 241 439 select 64;
#X msg 204 317 stop;
#X obj 242 277 bng 15 250 50 0 empty empty clear 17 7 0 10 -262144
-1 -1;
#X msg 267 319 0;
#X obj 241 297 t b b;
#X obj 53 40 groupimage;
#X msg 447 227 34 0;
#X msg 460 248 34 1;
#X msg 435 274 clear;
#N canvas 766 230 517 476 initialize 0;
#X obj 66 336 s;
#X obj 199 38 bng 15 250 50 0 sidebutton-initbang-s sidebutton-initbang-r
sidebutton-initbang 17 7 0 10 -262144 -1 -1;
#X obj 199 71 \$1;
#X msg 275 116 receive \$1-sidebutton-initbang-r;
#X msg 89 259 symbol \$1-sidebutton-r;
#X floatatom 156 97 5 0 0 0 - - -, f 5;
#X msg 69 304 label b\$1;
#X obj 190 240 s \$0-sidebutton-r;
#X msg 159 216 receive \$1-sidebutton-r;
#X msg 59 279 receive \$1-sidebutton-r;
#X obj 326 228 s \$0-shiftsidebutton-r;
#X msg 326 205 receive \$1-sidebutton-r;
#X obj 325 186 + 8;
#X obj 200 96 t f f f f f f f;
#X obj 306 383 outlet;
#X obj 275 141 s sidebutton-initbang-r;
#X msg 33 407 \; \$0-groupimagearray rename sb\$1-groupimagearray;
#X connect 1 0 2 0;
#X connect 2 0 5 0;
#X connect 2 0 13 0;
#X connect 3 0 15 0;
#X connect 4 0 0 1;
#X connect 6 0 0 0;
#X connect 8 0 7 0;
#X connect 9 0 0 0;
#X connect 11 0 10 0;
#X connect 12 0 11 0;
#X connect 13 0 9 0;
#X connect 13 1 6 0;
#X connect 13 2 4 0;
#X connect 13 3 8 0;
#X connect 13 4 12 0;
#X connect 13 5 3 0;
#X connect 13 6 16 0;
#X restore 273 27 pd initialize;
#X obj 402 95 tools/receiver;
#X msg 341 67 sb\$1-groupimagearray;
#X msg 414 163 \$0;
#X floatatom 414 188 5 0 0 0 - - -, f 5;
#X obj 401 133 print rece;
#X connect 1 0 3 0;
#X connect 2 0 4 0;
#X connect 3 0 5 0;
#X connect 4 0 7 0;
#X connect 5 0 6 0;
#X connect 6 0 2 0;
#X connect 7 0 8 0;
#X connect 8 0 1 0;
#X connect 9 0 10 0;
#X connect 10 0 13 0;
#X connect 10 1 12 0;
#X connect 11 0 14 0;
#X connect 12 0 11 0;
#X connect 13 0 11 0;
#X connect 14 0 16 0;
#X connect 15 1 17 0;
#X connect 17 0 16 1;
#X connect 18 0 15 0;
#X connect 19 0 20 0;
#X connect 20 0 21 0;
#X connect 20 0 22 0;
#X connect 21 0 20 1;
#X connect 22 0 15 0;
#X connect 22 0 24 0;
#X connect 23 0 9 0;
#X connect 24 0 25 0;
#X connect 24 1 23 0;
#X connect 25 0 19 0;
#X connect 26 0 28 0;
#X connect 27 0 20 1;
#X connect 28 0 19 0;
#X connect 28 1 27 0;
#X connect 30 0 29 0;
#X connect 31 0 29 0;
#X connect 32 0 29 0;
#X connect 33 0 35 0;
#X connect 34 0 38 0;
#X connect 34 0 29 0;
#X connect 35 0 34 0;
#X connect 36 0 37 0;
#X coords 0 -1 1 1 110 58 2 41 24;
