#N canvas 88 101 1201 666 10;
#X obj 41 24 cnv 15 116 58 empty empty empty 20 12 0 14 -66577 -66577
0;
#X obj 74 29 tgl 48 0 \$0-sidebutton-s \$0-sidebutton-r b\$0 11 21
0 10 -137314 -1 -1 0 1;
#X obj 315 279 s;
#X obj 213 10 bng 15 250 50 0 empty sidebutton-initbang-r empty 17
7 0 10 -262144 -1 -1;
#X obj 213 43 \$1;
#X msg 341 93 receive \$1-sidebutton-initbang-r;
#X msg 338 196 symbol \$1-sidebutton-r;
#X floatatom 170 69 5 0 0 0 - - -, f 5;
#X msg 316 243 label b\$1;
#X obj 338 170 s \$0-sidebutton-r;
#X msg 338 146 receive \$1-sidebutton-r;
#X obj 124 29 tgl 25 0 \$0-shiftsidebutton-s \$0-shiftsidebutton-r
b\$0 1 11 0 10 -137314 -1 -1 0 1;
#X obj 615 134 s \$0-shiftsidebutton-r;
#X obj 614 92 + 8;
#X floatatom 74 88 5 0 0 0 - - -, f 5;
#X floatatom 122 90 5 0 0 0 - - -, f 5;
#X obj 74 109 select 1;
#X msg 74 134 0;
#X obj 122 111 select 1;
#X msg 123 133 0;
#X obj 341 118 s sidebutton-initbang-r;
#X obj 628 403 s;
#X msg 314 218 send \$1-sidebutton-s;
#X obj 214 68 t f f f f f f f f f;
#X msg 607 377 label b\$1;
#X msg 615 111 receive \$1-sidebutton-r;
#X msg 640 317 symbol \$1-sidebutton-r;
#X msg 605 352 send \$1-sidebutton-s;
#X connect 1 0 14 0;
#X connect 3 0 4 0;
#X connect 4 0 7 0;
#X connect 4 0 23 0;
#X connect 5 0 20 0;
#X connect 6 0 2 1;
#X connect 8 0 2 0;
#X connect 10 0 9 0;
#X connect 11 0 15 0;
#X connect 13 0 25 0;
#X connect 14 0 16 0;
#X connect 15 0 18 0;
#X connect 16 0 17 0;
#X connect 17 0 11 0;
#X connect 18 0 19 0;
#X connect 19 0 1 0;
#X connect 22 0 2 0;
#X connect 23 0 24 0;
#X connect 23 1 27 0;
#X connect 23 2 26 0;
#X connect 23 3 8 0;
#X connect 23 4 22 0;
#X connect 23 5 6 0;
#X connect 23 6 10 0;
#X connect 23 7 13 0;
#X connect 23 8 5 0;
#X connect 24 0 21 0;
#X connect 25 0 12 0;
#X connect 26 0 21 1;
#X connect 27 0 21 0;
#X coords 0 -1 1 1 116 58 1 41 24;
