#N canvas 87 86 1201 620 10;
#X obj 41 24 cnv 15 116 58 empty empty empty 20 12 0 14 -66577 -66577
0;
#X obj 45 28 tgl 48 0 \$0-sidebutton-s \$0-sidebutton-r b\$0 11 21
0 10 -137314 -4036 -1 0 1;
#X obj 80 308 s;
#X obj 213 10 bng 15 250 50 0 empty sidebutton-initbang-r empty 17
7 0 10 -262144 -1 -1;
#X obj 213 43 \$1;
#X obj 289 113 s sidebutton-initbang2-r;
#X msg 289 88 receive \$1-sidebutton-initbang-r;
#X msg 103 231 symbol \$1-sidebutton-r;
#X floatatom 170 69 5 0 0 0 - - -, f 5;
#X msg 83 276 label b\$1;
#X obj 204 212 s \$0-sidebutton-r;
#X msg 173 188 receive \$1-sidebutton-r;
#X msg 73 251 receive \$1-sidebutton-r;
#X obj 95 28 tgl 25 0 \$0-shiftsidebutton-s \$0-shiftsidebutton-r b\$0
1 11 0 10 -137314 -12225 -1 0 1;
#X obj 340 200 s \$0-shiftsidebutton-r;
#X msg 340 177 receive \$1-sidebutton-r;
#X obj 339 158 + 8;
#X obj 214 68 t f f f f f f;
#X floatatom 74 88 5 0 0 0 - - -, f 5;
#X floatatom 122 90 5 0 0 0 - - -, f 5;
#X obj 74 109 select 1;
#X msg 74 134 0;
#X obj 122 111 select 1;
#X msg 123 133 0;
#N canvas 457 229 833 388 groupimage 0;
#N canvas 182 107 450 323 groupimagecnv 0;
#X obj 0 28 cnv 4 4 4 0-s 0-r empty 0 0 0 12 -33289 -33289 0;
#X obj 4 28 cnv 4 4 4 1-s 1-r empty 0 0 0 12 -33289 -33289 0;
#X obj 8 28 cnv 4 4 4 2-s 2-r empty 0 0 0 12 -33289 -33289 0;
#X obj 12 28 cnv 4 4 4 3-s 3-r empty 0 0 0 12 -33289 -33289 0;
#X obj 16 28 cnv 4 4 4 4-s 4-r empty 0 0 0 12 -33289 -33289 0;
#X obj 20 28 cnv 4 4 4 5-s 5-r empty 0 0 0 12 -33289 -33289 0;
#X obj 24 28 cnv 4 4 4 6-s 6-r empty 0 0 0 12 -33289 -33289 0;
#X obj 28 28 cnv 4 4 4 7-s 7-r empty 0 0 0 12 -33289 -33289 0;
#X obj 0 24 cnv 4 4 4 8-s 8-r empty 0 0 0 12 -33289 -33289 0;
#X obj 4 24 cnv 4 4 4 9-s 9-r empty 0 0 0 12 -33289 -33289 0;
#X obj 8 24 cnv 4 4 4 10-s 10-r empty 0 0 0 12 -33289 -33289 0;
#X obj 12 24 cnv 4 4 4 11-s 11-r empty 0 0 0 12 -33289 -33289 0;
#X obj 16 24 cnv 4 4 4 12-s 12-r empty 0 0 0 12 -33289 -33289 0;
#X obj 20 24 cnv 4 4 4 13-s 13-r empty 0 0 0 12 -33289 -33289 0;
#X obj 24 24 cnv 4 4 4 14-s 14-r empty 0 0 0 12 -33289 -33289 0;
#X obj 28 24 cnv 4 4 4 15-s 15-r empty 0 0 0 12 -33289 -33289 0;
#X obj 0 20 cnv 4 4 4 16-s 16-r empty 0 0 0 12 -33289 -33289 0;
#X obj 4 20 cnv 4 4 4 17-s 17-r empty 0 0 0 12 -33289 -33289 0;
#X obj 8 20 cnv 4 4 4 18-s 18-r empty 0 0 0 12 -33289 -33289 0;
#X obj 12 20 cnv 4 4 4 19-s 19-r empty 0 0 0 12 -33289 -33289 0;
#X obj 16 20 cnv 4 4 4 20-s 20-r empty 0 0 0 12 -33289 -33289 0;
#X obj 20 20 cnv 4 4 4 21-s 21-r empty 0 0 0 12 -33289 -33289 0;
#X obj 24 20 cnv 4 4 4 22-s 22-r empty 0 0 0 12 -33289 -33289 0;
#X obj 28 20 cnv 4 4 4 23-s 23-r empty 0 0 0 12 -33289 -33289 0;
#X obj 0 16 cnv 4 4 4 24-s 24-r empty 0 0 0 12 -33289 -33289 0;
#X obj 4 16 cnv 4 4 4 25-s 25-r empty 0 0 0 12 -33289 -33289 0;
#X obj 8 16 cnv 4 4 4 26-s 26-r empty 0 0 0 12 -33289 -33289 0;
#X obj 12 16 cnv 4 4 4 27-s 27-r empty 0 0 0 12 -33289 -33289 0;
#X obj 16 16 cnv 4 4 4 28-s 28-r empty 0 0 0 12 -33289 -33289 0;
#X obj 20 16 cnv 4 4 4 29-s 29-r empty 0 0 0 12 -33289 -33289 0;
#X obj 24 16 cnv 4 4 4 30-s 30-r empty 0 0 0 12 -33289 -33289 0;
#X obj 28 16 cnv 4 4 4 31-s 31-r empty 0 0 0 12 -33289 -33289 0;
#X obj 0 12 cnv 4 4 4 32-s 32-r empty 0 0 0 12 -33289 -33289 0;
#X obj 4 12 cnv 4 4 4 33-s 33-r empty 0 0 0 12 -33289 -33289 0;
#X obj 8 12 cnv 4 4 4 34-s 34-r empty 0 0 0 12 -33289 -33289 0;
#X obj 12 12 cnv 4 4 4 35-s 35-r empty 0 0 0 12 -33289 -33289 0;
#X obj 16 12 cnv 4 4 4 36-s 36-r empty 0 0 0 12 -33289 -33289 0;
#X obj 20 12 cnv 4 4 4 37-s 37-r empty 0 0 0 12 -33289 -33289 0;
#X obj 24 12 cnv 4 4 4 38-s 38-r empty 0 0 0 12 -33289 -33289 0;
#X obj 28 12 cnv 4 4 4 39-s 39-r empty 0 0 0 12 -33289 -33289 0;
#X obj 0 8 cnv 4 4 4 40-s 40-r empty 0 0 0 12 -33289 -33289 0;
#X obj 4 8 cnv 4 4 4 41-s 41-r empty 0 0 0 12 -33289 -33289 0;
#X obj 8 8 cnv 4 4 4 42-s 42-r empty 0 0 0 12 -33289 -33289 0;
#X obj 12 8 cnv 4 4 4 43-s 43-r empty 0 0 0 12 -33289 -33289 0;
#X obj 16 8 cnv 4 4 4 44-s 44-r empty 0 0 0 12 -33289 -33289 0;
#X obj 20 8 cnv 4 4 4 45-s 45-r empty 0 0 0 12 -33289 -33289 0;
#X obj 24 8 cnv 4 4 4 46-s 46-r empty 0 0 0 12 -33289 -33289 0;
#X obj 28 8 cnv 4 4 4 47-s 47-r empty 0 0 0 12 -33289 -33289 0;
#X obj 0 4 cnv 4 4 4 48-s 48-r empty 0 0 0 12 -33289 -33289 0;
#X obj 4 4 cnv 4 4 4 49-s 49-r empty 0 0 0 12 -33289 -33289 0;
#X obj 8 4 cnv 4 4 4 50-s 50-r empty 0 0 0 12 -33289 -33289 0;
#X obj 12 4 cnv 4 4 4 51-s 51-r empty 0 0 0 12 -33289 -33289 0;
#X obj 16 4 cnv 4 4 4 52-s 52-r empty 0 0 0 12 -33289 -33289 0;
#X obj 20 4 cnv 4 4 4 53-s 53-r empty 0 0 0 12 -33289 -33289 0;
#X obj 24 4 cnv 4 4 4 54-s 54-r empty 0 0 0 12 -33289 -33289 0;
#X obj 28 4 cnv 4 4 4 55-s 55-r empty 0 0 0 12 -33289 -33289 0;
#X obj 0 0 cnv 4 4 4 56-s 56-r empty 0 0 0 12 -33289 -33289 0;
#X obj 4 0 cnv 4 4 4 57-s 57-r empty 0 0 0 12 -33289 -33289 0;
#X obj 8 0 cnv 4 4 4 58-s 58-r empty 0 0 0 12 -33289 -33289 0;
#X obj 12 0 cnv 4 4 4 59-s 59-r empty 0 0 0 12 -33289 -33289 0;
#X obj 16 0 cnv 4 4 4 60-s 60-r empty 0 0 0 12 -33289 -33289 0;
#X obj 20 0 cnv 4 4 4 61-s 61-r empty 0 0 0 12 -33289 -33289 0;
#X obj 24 0 cnv 4 4 4 62-s 62-r empty 0 0 0 12 -33289 -33289 0;
#X obj 28 0 cnv 4 4 4 63-s 63-r empty 0 0 0 12 -33289 -33289 0;
#X coords 0 -1 1 1 32 32 2 0 0;
#X restore 123 44 pd groupimagecnv;
#X text 563 3 \$1 = X top left \; \$2 = Y top left \; \$3 = label
\; \$4 = receive \; \$5 = send;
#X obj 241 11 bng 15 250 50 0 empty empty empty 17 7 0 10 -262144 -1
-1;
#X msg 333 24 stop;
#X floatatom 322 90 5 0 0 0 col - -, f 5;
#X floatatom 379 90 5 0 0 0 row - -, f 5;
#X floatatom 262 90 5 0 0 0 - - -, f 5;
#N canvas 139 366 450 323 iterate 1;
#X obj 162 62 + 1;
#X obj 128 62 f 0;
#X obj 85 85 - 1;
#X obj 129 130 mod 8;
#X floatatom 129 155 5 0 0 0 col - -, f 5;
#X obj 186 130 div 8;
#X floatatom 186 155 5 0 0 0 row - -, f 5;
#X obj 124 109 t f f f;
#X floatatom 69 155 5 0 0 0 - - -, f 5;
#X obj 124 -9 inlet;
#X obj 63 193 outlet;
#X obj 196 191 outlet;
#X obj 128 195 outlet;
#X obj 219 -3 inlet;
#X text 265 -1 stop;
#X msg 174 15 stop;
#X obj 128 14 t b 0;
#X obj 294 191 select 63;
#X obj 128 37 metro 10;
#X connect 0 0 1 1;
#X connect 1 0 0 0;
#X connect 1 0 7 0;
#X connect 3 0 4 0;
#X connect 4 0 12 0;
#X connect 5 0 6 0;
#X connect 6 0 11 0;
#X connect 7 0 8 0;
#X connect 7 1 3 0;
#X connect 7 2 5 0;
#X connect 8 0 10 0;
#X connect 8 0 17 0;
#X connect 9 0 16 0;
#X connect 13 0 15 0;
#X connect 15 0 18 0;
#X connect 16 0 18 0;
#X connect 16 1 1 1;
#X connect 17 0 15 0;
#X connect 18 0 1 0;
#X restore 304 52 pd iterate;
#N canvas 199 255 450 346 coord 1;
#X obj 130 11 inlet;
#X obj 188 38 inlet;
#X obj 130 67 * 4;
#X obj 129 100 +;
#X obj 258 30 bng 15 250 50 0 empty empty empty 17 7 0 10 -262144 -1
-1;
#X floatatom 127 129 5 0 0 0 X - -, f 5;
#X floatatom 186 168 5 0 0 0 Y - -, f 5;
#X obj 187 100 -;
#X obj 120 199 outlet;
#X obj 190 205 outlet;
#X obj 130 33 t f b;
#X obj 188 67 * -4;
#X obj 258 59 t 0 -32;
#X obj 188 128 - 4;
#X connect 0 0 10 0;
#X connect 1 0 11 0;
#X connect 2 0 3 0;
#X connect 3 0 5 0;
#X connect 4 0 12 0;
#X connect 5 0 8 0;
#X connect 6 0 9 0;
#X connect 7 0 13 0;
#X connect 10 0 2 0;
#X connect 10 1 4 0;
#X connect 11 0 7 0;
#X connect 12 0 3 1;
#X connect 12 1 7 1;
#X connect 13 0 6 0;
#X restore 323 126 pd coord;
#X floatatom 323 157 5 0 0 0 X - -, f 5;
#X floatatom 367 156 5 0 0 0 Y - -, f 5;
#X msg 204 207 clear;
#X obj 288 210 pack f f f;
#X obj 275 259 s pd-groupimagecnv;
#X obj 280 19 t b b;
#X msg 245 52 set 0;
#X obj 75 151 tgl 15 0 empty empty empty 17 7 0 10 -262144 -1 -1 0
1;
#X obj 77 293 s 23-r;
#X obj 74 176 select 0 1;
#X floatatom 80 242 9 0 0 0 - - -, f 9;
#X obj 132 211 f 5;
#X msg 287 233 obj \$2 \$3 cnv 4 4 4 \$1-s \$1-r empty 0 0 14 12 -66577
0;
#X obj 76 211 f 12;
#X msg 77 268 color \$1 \$1;
#X obj 178 28 t b b;
#X connect 2 0 14 0;
#X connect 3 0 7 1;
#X connect 4 0 8 0;
#X connect 5 0 8 1;
#X connect 6 0 12 0;
#X connect 7 0 6 0;
#X connect 7 1 4 0;
#X connect 7 2 5 0;
#X connect 8 0 9 0;
#X connect 8 1 10 0;
#X connect 9 0 12 1;
#X connect 10 0 12 2;
#X connect 11 0 13 0;
#X connect 12 0 21 0;
#X connect 14 0 7 0;
#X connect 14 1 15 0;
#X connect 15 0 6 0;
#X connect 16 0 18 0;
#X connect 18 0 22 0;
#X connect 18 1 20 0;
#X connect 19 0 23 0;
#X connect 20 0 19 0;
#X connect 21 0 13 0;
#X connect 22 0 19 0;
#X connect 23 0 17 0;
#X connect 24 0 2 0;
#X connect 24 1 11 0;
#X coords 0 -1 1 1 34 34 2 122 43;
#X restore 122 43 pd groupimage;
#X obj 323 326 tgl 15 0 empty empty empty 17 7 0 10 -262144 -1 -1 0
1;
#X obj 322 351 select 0 1;
#X floatatom 328 417 9 0 0 0 - - -, f 9;
#X obj 380 386 f 5;
#X obj 324 386 f 12;
#X msg 325 443 color \$1 \$1;
#X obj 473 342 t b f;
#X obj 325 468 s;
#X msg 445 447 symbol \$1-r;
#X floatatom 469 295 5 0 63 0 - - -, f 5;
#X obj 242 341 metro 10;
#X obj 242 366 f 0;
#X obj 275 367 + 1;
#X floatatom 242 411 5 0 0 0 - - -, f 5;
#X msg 243 474 0;
#X obj 241 439 select 64;
#X msg 204 317 stop;
#X obj 242 277 bng 15 250 50 0 empty empty clear 17 7 0 10 -262144
-1 -1;
#X msg 267 319 0;
#X obj 241 297 t b b;
#X connect 1 0 18 0;
#X connect 3 0 4 0;
#X connect 4 0 8 0;
#X connect 4 0 17 0;
#X connect 6 0 5 0;
#X connect 7 0 2 1;
#X connect 9 0 2 0;
#X connect 11 0 10 0;
#X connect 12 0 2 0;
#X connect 13 0 19 0;
#X connect 15 0 14 0;
#X connect 16 0 15 0;
#X connect 17 0 12 0;
#X connect 17 1 9 0;
#X connect 17 2 7 0;
#X connect 17 3 11 0;
#X connect 17 4 16 0;
#X connect 17 5 6 0;
#X connect 18 0 20 0;
#X connect 19 0 22 0;
#X connect 20 0 21 0;
#X connect 21 0 13 0;
#X connect 22 0 23 0;
#X connect 23 0 1 0;
#X connect 25 0 26 0;
#X connect 26 0 29 0;
#X connect 26 1 28 0;
#X connect 27 0 30 0;
#X connect 28 0 27 0;
#X connect 29 0 27 0;
#X connect 30 0 32 0;
#X connect 31 1 33 0;
#X connect 33 0 32 1;
#X connect 34 0 31 0;
#X connect 35 0 36 0;
#X connect 36 0 37 0;
#X connect 36 0 38 0;
#X connect 37 0 36 1;
#X connect 38 0 31 0;
#X connect 38 0 40 0;
#X connect 39 0 25 0;
#X connect 40 0 41 0;
#X connect 40 1 39 0;
#X connect 41 0 35 0;
#X connect 42 0 44 0;
#X connect 43 0 36 1;
#X connect 44 0 35 0;
#X connect 44 1 43 0;
#X coords 0 -1 1 1 116 58 1 41 24;
