#N canvas 660 119 594 506 10;
#X obj 444 24 cnv 15 71 37 empty \$0-tr2f-r t56 33 6 0 14 -233017 -66577
0;
#X obj 91 414 outlet;
#X msg 89 131 \$1-trackstart;
#X obj 89 156 tools/receiver;
#X obj 89 206 bng 15 250 50 0 empty empty empty 17 7 0 10 -262144 -1
-1;
#X msg 178 263 set \$1;
#X floatatom 178 288 5 0 0 0 - - -, f 5;
#X obj 178 312 select 1;
#X msg 250 264 set 0;
#X obj 86 6 inlet;
#X obj 499 7 bng 15 250 50 0 empty empty empty 17 7 0 10 -262144 -1
-1;
#X obj 369 412 s;
#X msg 288 183 1;
#X obj 479 198 tools/receiver;
#X floatatom 493 43 3 0 0 0 - - -, f 3;
#X msg 479 173 \$1-status;
#X text 445 25 Track;
#X text 445 42 Status:;
#X obj 459 246 s \$0-tr2f-r;
#X msg 459 221 label t\$1;
#X obj 89 54 \$1;
#X obj 413 74 initbang;
#X obj 440 145 t f f f;
#X obj 288 149 t f f;
#X obj 89 287 delay 1000;
#X obj 89 312 \$1;
#X obj 89 229 t b 1 b;
#X msg 116 368 0;
#X text 138 417 play 1 for the next track;
#X obj 89 344 t b b;
#X obj 178 337 bng 15 250 50 0 empty empty empty 17 7 0 10 -262144
-1 -1;
#X text 211 339 bang at the end of the current track, f 17;
#X text 133 445 send play 0 to this track after 1s and play 1 to the
next track;
#X obj 413 99 \$1;
#X obj 413 124 t f f;
#X obj 370 87 bng 15 250 50 0 empty empty empty 17 7 0 10 -262144 -1
-1;
#X obj 89 83 t f f f;
#X msg 397 389 symbol \$1-playchange-r;
#X floatatom 357 390 5 0 0 0 - - -, f 5;
#X obj 117 392 bng 15 250 50 0 empty empty empty 17 7 0 10 -262144
-1 -1;
#X obj 89 182 spigot;
#X text 139 183 process the trackstart bang only if play=1, f 15;
#X msg 441 274 \$1;
#X obj 441 299 s rndflw-list;
#X floatatom 43 77 5 0 0 0 - - -, f 5;
#X msg 364 178 \$1-trackstart;
#X obj 364 203 tools/receiver;
#X connect 2 0 3 0;
#X connect 3 0 40 0;
#X connect 4 0 26 0;
#X connect 5 0 6 0;
#X connect 6 0 7 0;
#X connect 7 0 30 0;
#X connect 7 1 8 0;
#X connect 8 0 6 0;
#X connect 9 0 10 0;
#X connect 10 0 20 0;
#X connect 12 0 38 0;
#X connect 13 0 14 0;
#X connect 15 0 13 0;
#X connect 19 0 18 0;
#X connect 20 0 36 0;
#X connect 20 0 44 0;
#X connect 21 0 33 0;
#X connect 22 0 42 0;
#X connect 22 1 19 0;
#X connect 22 2 15 0;
#X connect 23 0 12 0;
#X connect 23 1 37 0;
#X connect 24 0 25 0;
#X connect 25 0 29 0;
#X connect 26 0 24 0;
#X connect 26 1 5 0;
#X connect 26 2 6 0;
#X connect 27 0 38 0;
#X connect 27 0 39 0;
#X connect 29 0 1 0;
#X connect 29 1 27 0;
#X connect 33 0 34 0;
#X connect 34 0 45 0;
#X connect 34 1 22 0;
#X connect 35 0 33 0;
#X connect 36 0 2 0;
#X connect 36 1 8 0;
#X connect 36 2 23 0;
#X connect 37 0 11 1;
#X connect 38 0 11 0;
#X connect 38 0 40 1;
#X connect 40 0 4 0;
#X connect 42 0 43 0;
#X connect 45 0 46 0;
#X connect 46 0 10 0;
#X coords 0 -1 1 1 74 57 1 442 5;
