#N canvas 267 100 812 743 10;
#X obj 529 258 cnv 15 105 55 empty button_color-0 empty 0 0 0 10 -191407
-33289 0;
#X obj 268 -303 cnv 15 163 151 empty empty empty 20 12 0 14 -233017
-66577 0;
#X floatatom 293 -221 4 0 0 0 Num - -, f 4;
#X floatatom 708 264 4 1 127 0 - #0-barrec-r #0-barrec-s, f 4;
#X floatatom 85 52 5 0 0 0 - - -, f 5;
#X text 87 153 0 off \; 1 for play \; 2 for play queue \; 3 for
rec \; 4 for rec queue \; 5 for stop \; 6 for stop queue;
#X floatatom 297 11 5 0 0 0 - - -, f 5;
#N canvas 720 31 591 719 rec_sample_queue 0;
#X obj 73 51 inlet;
#X text 109 52 beat number;
#X obj 224 49 inlet;
#X text 266 51 rec toggle;
#X obj 356 46 inlet;
#X text 397 45 duration;
#X obj 59 554 outlet;
#X text 101 555 status number;
#X obj 261 554 outlet;
#X text 308 556 start;
#X obj 384 552 outlet;
#X text 432 552 stop;
#X obj 128 222 spigot;
#X obj 128 153 select 0;
#X obj 128 178 bng 15 250 50 0 empty empty empty 17 7 0 10 -262144
-1 -1;
#X obj 195 413 bng 15 250 50 0 empty empty empty 17 7 0 10 -262144
-1 -1;
#X obj 264 149 == 0;
#X obj 319 243 spigot;
#X obj 128 198 t b b;
#X obj 296 409 bng 15 250 50 0 empty empty empty 17 7 0 10 -262144
-1 -1;
#X floatatom 118 316 5 0 0 0 - - -, f 5;
#X obj 144 286 + 1;
#X obj 118 286 f 1;
#X obj 118 366 <;
#X obj 117 390 select 0;
#X obj 118 342 t f f;
#X obj 272 435 f 0;
#X obj 161 343 - 0.5;
#X obj 277 356 change;
#X obj 128 244 t b b b 3;
#X floatatom 235 315 5 0 0 0 - - -, f 5;
#X floatatom 380 405 5 0 0 0 - - -, f 5;
#X obj 230 349 bng 15 250 50 0 empty empty empty 17 7 0 10 -262144
-1 -1;
#X obj 111 245 bng 15 250 50 0 empty empty empty 17 7 0 10 -262144
-1 -1;
#X msg 79 250 0;
#X obj 197 156 t f f;
#X obj 214 189 select 1;
#X obj 289 189 select 1;
#X obj 290 169 t f f;
#X obj 196 278 bng 15 250 50 0 empty empty empty 17 7 0 10 -262144
-1 -1;
#X obj 199 218 bng 15 250 50 0 empty empty empty 17 7 0 10 -262144
-1 -1;
#X obj 266 244 bng 15 250 50 0 empty empty empty 17 7 0 10 -262144
-1 -1;
#X obj 325 299 bng 15 250 50 0 empty empty empty 17 7 0 10 -262144
-1 -1;
#X msg 297 298 \$1;
#X msg 282 243 \$1;
#X msg 215 245 4;
#X msg 211 278 \$1;
#X obj 280 379 select 3 4 5 6;
#X obj 225 397 t b b;
#X obj 289 213 t 1 6;
#X text 326 208 stop queue is not used when recording, f 19;
#X obj 215 217 t b b;
#X obj 318 268 t b b 5;
#X obj 193 556 outlet;
#X text 194 576 rec queue;
#X obj 193 525 bng 15 250 50 0 empty empty empty 17 7 0 10 -262144
-1 -1;
#X connect 0 0 13 0;
#X connect 2 0 35 0;
#X connect 2 0 16 0;
#X connect 4 0 27 0;
#X connect 12 0 29 0;
#X connect 12 0 33 0;
#X connect 13 0 14 0;
#X connect 14 0 18 0;
#X connect 15 0 8 0;
#X connect 16 0 38 0;
#X connect 17 0 52 0;
#X connect 18 0 12 0;
#X connect 18 1 17 0;
#X connect 19 0 26 0;
#X connect 19 0 10 0;
#X connect 20 0 25 0;
#X connect 21 0 22 1;
#X connect 22 0 21 0;
#X connect 22 0 20 0;
#X connect 23 0 24 0;
#X connect 24 0 52 0;
#X connect 25 0 23 0;
#X connect 27 0 23 1;
#X connect 28 0 47 0;
#X connect 29 2 22 0;
#X connect 29 3 46 0;
#X connect 29 3 39 0;
#X connect 30 0 32 0;
#X connect 30 0 28 0;
#X connect 30 0 6 0;
#X connect 34 0 22 1;
#X connect 35 0 12 1;
#X connect 35 1 36 0;
#X connect 36 0 40 0;
#X connect 36 0 51 0;
#X connect 38 0 37 0;
#X connect 38 1 17 1;
#X connect 43 0 30 0;
#X connect 44 0 30 0;
#X connect 45 0 30 0;
#X connect 46 0 30 0;
#X connect 47 0 48 0;
#X connect 47 1 55 0;
#X connect 47 2 19 0;
#X connect 47 4 31 0;
#X connect 48 0 15 0;
#X connect 48 1 34 0;
#X connect 49 0 17 1;
#X connect 49 1 44 0;
#X connect 49 1 41 0;
#X connect 51 0 45 0;
#X connect 52 2 43 0;
#X connect 52 2 42 0;
#X connect 55 0 53 0;
#X restore 48 -39 pd rec_sample_queue;
#X msg 141 44 start;
#X msg 252 54 stop;
#X obj 111 3 t b b;
#X floatatom 392 -32 5 0 0 0 status - -, f 5;
#X obj 297 -18 r tempo_ms;
#N canvas 110 36 865 711 rec_samples 0;
#X obj 245 29 inlet;
#X obj 96 29 inlet;
#X text 137 31 start;
#X obj 177 28 inlet;
#X text 207 30 stop;
#X obj 224 517 outlet;
#X obj 190 89 bng 15 250 50 0 empty empty empty 17 7 0 10 -262144 -1
-1;
#X obj 231 401 * 127;
#X obj 231 426 /;
#X text 271 517 % of number of samples elapsed out of 127;
#X text 29 371 update progress bar as per metro;
#X msg 165 313 0;
#X msg 143 188 stop;
#X text 287 31 array to write;
#X obj 420 33 inlet;
#X text 459 32 duration;
#X obj 530 33 inlet;
#X text 571 34 tempo_ms;
#X obj 449 200 array size \$1;
#X obj 455 161 f \$1;
#X obj 678 203 print resizing array;
#N canvas 673 359 579 372 expected_samples 0;
#X obj 239 228 outlet;
#X text 287 228 duration in samples of the expected recording;
#X obj 316 94 samplerate~;
#X obj 263 125 * 4;
#X obj 265 156 *;
#X obj 263 181 / 1000;
#X text 315 186 expected duration in s;
#X obj 262 205 *;
#X floatatom 220 208 6 0 0 0 - - -, f 6;
#X floatatom 457 187 6 0 0 0 - - -, f 6;
#X obj 315 73 bng 15 250 50 0 empty empty empty 17 7 0 10 -262144 -1
-1;
#X floatatom 198 149 5 0 0 0 - - -, f 5;
#X floatatom 198 173 5 0 0 0 - - -, f 5;
#X text 323 25 tempo in ms as inlet;
#X obj 244 26 inlet;
#X obj 137 25 inlet;
#X text 173 25 duration;
#X text 290 123 hardcoded number of beats per bar!;
#X obj 478 23 inlet;
#X text 516 27 beats per bar;
#X obj 450 213 outlet;
#X text 492 209 duration in s;
#X obj 316 50 r \$0-loadnum;
#X connect 2 0 7 1;
#X connect 3 0 4 0;
#X connect 3 0 11 0;
#X connect 4 0 5 0;
#X connect 4 0 12 0;
#X connect 5 0 7 0;
#X connect 5 0 9 0;
#X connect 7 0 8 0;
#X connect 8 0 0 0;
#X connect 9 0 20 0;
#X connect 10 0 2 0;
#X connect 14 0 4 1;
#X connect 15 0 3 0;
#X connect 18 0 3 1;
#X connect 22 0 10 0;
#X restore 479 108 pd expected_samples;
#X text 596 92 beats per bar;
#X obj 689 459 tabwrite~;
#X obj 350 64 t s s s;
#X obj 102 60 t b b b;
#X msg 204 136 start;
#X msg 402 136 set \$1;
#X obj 270 321 + 1;
#X obj 226 321 f 1;
#X obj 228 347 * 0.1;
#X floatatom 228 372 5 0 0 0 - - -, f 5;
#X text 267 372 seconds elapsed;
#X obj 235 245 bng 15 250 50 0 empty empty empty 17 7 0 10 -262144
-1 -1;
#X floatatom 371 377 5 0 0 0 - - -, f 5;
#X floatatom 302 420 5 0 0 0 - - -, f 5;
#X floatatom 535 68 5 0 0 0 - - -, f 5;
#X floatatom 451 77 5 0 0 0 - - -, f 5;
#X obj 665 34 inlet~;
#X obj 738 32 inlet~;
#X obj 224 290 metro 100;
#X obj 307 321 / 1000;
#X msg 296 257 100;
#X text 522 366 adjust graduations sur array;
#X obj 476 132 t f f;
#X obj 522 234 /;
#X obj 420 56 t f f;
#X floatatom 596 265 5 0 0 0 - - -, f 5;
#X obj 431 382 print arrpack;
#X msg 341 169 0;
#X text 322 255 <-- define slider update freq, f 13;
#X msg 520 332 \; \$2 xticks 0 \$1 1;
#X msg 575 199 96000;
#X obj 485 291 pack f s;
#X obj 485 264 change;
#X msg 583 230 symbol voice0;
#X obj 277 129 r \$0-loadnum;
#X obj 277 154 bng 15 250 50 0 empty empty empty 17 7 0 10 -262144
-1 -1;
#X obj 293 239 bng 15 250 50 0 empty empty empty 17 7 0 10 -262144
-1 -1;
#X obj 293 214 r \$0-loadnum;
#X obj 11 28 inlet;
#X text 46 28 rec queue bang, f 5;
#X obj 22 84 bng 15 250 50 0 empty empty empty 17 7 0 10 -262144 -1
-1;
#X obj 27 167 \$1;
#X obj 27 192 s \$1-recstart;
#X connect 0 0 24 0;
#X connect 1 0 25 0;
#X connect 3 0 12 0;
#X connect 7 0 8 0;
#X connect 7 0 35 0;
#X connect 8 0 5 0;
#X connect 11 0 5 0;
#X connect 11 0 29 0;
#X connect 11 0 31 0;
#X connect 12 0 11 0;
#X connect 12 0 23 0;
#X connect 12 0 40 0;
#X connect 14 0 46 0;
#X connect 16 0 36 0;
#X connect 18 0 23 0;
#X connect 19 0 18 0;
#X connect 19 0 20 0;
#X connect 21 0 44 0;
#X connect 21 1 34 0;
#X connect 24 0 53 1;
#X connect 24 1 27 0;
#X connect 24 2 18 1;
#X connect 25 0 6 0;
#X connect 25 1 63 0;
#X connect 25 2 26 0;
#X connect 26 0 23 0;
#X connect 26 0 33 0;
#X connect 27 0 23 0;
#X connect 28 0 29 1;
#X connect 29 0 28 0;
#X connect 29 0 30 0;
#X connect 30 0 31 0;
#X connect 31 0 7 0;
#X connect 33 0 40 0;
#X connect 34 0 8 1;
#X connect 36 0 21 1;
#X connect 37 0 21 0;
#X connect 38 0 23 0;
#X connect 39 0 23 0;
#X connect 40 0 29 0;
#X connect 41 0 30 1;
#X connect 42 0 40 1;
#X connect 42 0 41 0;
#X connect 44 0 45 0;
#X connect 44 1 19 1;
#X connect 45 0 47 0;
#X connect 45 0 54 0;
#X connect 46 0 45 1;
#X connect 46 1 37 0;
#X connect 49 0 54 0;
#X connect 52 0 54 0;
#X connect 53 0 48 0;
#X connect 53 0 51 0;
#X connect 54 0 53 0;
#X connect 55 0 53 1;
#X connect 56 0 57 0;
#X connect 57 0 49 0;
#X connect 58 0 42 0;
#X connect 59 0 58 0;
#X connect 60 0 62 0;
#X connect 62 0 19 0;
#X connect 63 0 64 0;
#X restore 244 84 pd rec_samples;
#X msg 174 -264 2;
#X obj 161 -18 t 1 0 b;
#X obj 85 76 change;
#X obj 392 -8 change;
#X text 75 -261 default duration;
#X text 362 -271 button number \; first arg;
#X obj 333 -245 \$1;
#N canvas 78 24 863 743 init_button_num 0;
#X text 174 6 button number \; first arg of button.pd, f 24;
#X obj 127 8 inlet;
#X obj 431 567 outlet;
#X text 475 566 array name;
#X obj 89 567 outlet;
#X text 131 567 button name;
#X obj 85 23 bng 15 250 50 0 empty empty empty 17 7 0 10 -262144 -1
-1;
#X floatatom 167 53 5 0 0 0 - - -, f 5;
#X text -123 508 send to button_color-\$1;
#X obj -46 488 s;
#X msg -27 402 symbol button_color-\$1;
#X floatatom 41 316 5 0 0 0 - - -, f 5;
#X text 76 288 number;
#X msg -16 381 receive button_color-\$1;
#X floatatom 2 357 5 0 0 0 - - -, f 5;
#X obj -83 356 t f b f f f;
#X msg 15 287 1;
#X obj 196 489 s;
#X text 185 509 send to slider;
#X text 554 470 send to array;
#X msg 232 380 receive slider_voice\$1;
#X msg 224 404 symbol slider_voice\$1;
#X obj -104 488 print b;
#X obj 136 489 print s;
#X floatatom 240 351 5 0 0 0 - - -, f 5;
#X obj 155 350 t f b f f f;
#X floatatom 178 316 5 0 0 0 - - -, f 5;
#X msg 152 287 1;
#X obj 562 449 print a;
#X obj 465 424 pack s s;
#X msg 465 449 \; \$2 rename \$1;
#X obj 431 348 t f b f f;
#X floatatom 431 316 5 0 0 0 - - -, f 5;
#X msg 465 397 symbol voice\$1;
#X msg 62 546 symbol button_color-\$1;
#X floatatom 150 126 5 0 0 0 - - -, f 5;
#X obj -64 126 print;
#X text -79 72 initbaang renamed;
#X obj 364 244 s;
#X msg 389 196 receive midibutton-\$1;
#X msg 379 218 symbol midibutton-\$1;
#X obj 328 170 t f b f f;
#X obj 147 248 t f f f f;
#X floatatom 393 170 5 0 0 0 - - -, f 5;
#X msg -38 424 label;
#X msg -48 447 label_pos 0 0;
#X msg 213 427 label;
#X msg 431 490 symbol voice\$1;
#X msg -22 99 receive \$1-button-initbang-r;
#X obj -24 122 s button-initbang-r;
#X msg 528 98 names 1_2 3_4 5_6 7_8 9_10 11_12;
#X msg 543 119 set 1_2;
#X obj 594 568 outlet;
#X obj 130 31 t b b f;
#X msg 624 170 \$0;
#X obj 487 63 s loopstatus-r;
#X obj 110 73 t f f \$0 f f;
#X msg 511 44 receive \$1-loopstatus-r;
#X msg 487 25 send \$1-loopstatus-s;
#X msg 616 194 receive \$1-trackname-r;
#X obj 615 220 s \$0-trackname-r;
#X msg 482 373 symbol voice\$0;
#X connect 1 0 6 0;
#X connect 1 0 53 0;
#X connect 7 0 56 0;
#X connect 10 0 9 1;
#X connect 10 0 22 0;
#X connect 11 0 15 0;
#X connect 13 0 9 0;
#X connect 13 0 22 0;
#X connect 14 0 10 0;
#X connect 14 0 34 0;
#X connect 15 0 14 0;
#X connect 15 1 45 0;
#X connect 15 2 44 0;
#X connect 15 3 10 0;
#X connect 15 4 13 0;
#X connect 16 0 11 0;
#X connect 20 0 17 0;
#X connect 21 0 17 1;
#X connect 24 0 21 0;
#X connect 25 0 24 0;
#X connect 25 2 46 0;
#X connect 25 3 21 0;
#X connect 25 4 20 0;
#X connect 26 0 25 0;
#X connect 27 0 26 0;
#X connect 29 0 30 0;
#X connect 29 0 28 0;
#X connect 31 0 47 0;
#X connect 31 2 33 0;
#X connect 31 3 61 0;
#X connect 32 0 31 0;
#X connect 33 0 29 0;
#X connect 34 0 4 0;
#X connect 35 0 42 0;
#X connect 39 0 38 0;
#X connect 40 0 38 1;
#X connect 41 0 43 0;
#X connect 41 2 40 0;
#X connect 41 3 39 0;
#X connect 42 0 11 0;
#X connect 42 2 32 0;
#X connect 42 3 41 0;
#X connect 43 0 40 0;
#X connect 44 0 9 0;
#X connect 44 0 22 0;
#X connect 45 0 9 0;
#X connect 45 0 22 0;
#X connect 46 0 17 0;
#X connect 47 0 2 0;
#X connect 48 0 36 0;
#X connect 48 0 49 0;
#X connect 50 0 52 0;
#X connect 51 0 52 0;
#X connect 53 2 7 0;
#X connect 54 0 59 0;
#X connect 56 0 48 0;
#X connect 56 1 42 0;
#X connect 56 2 35 0;
#X connect 56 4 58 0;
#X connect 56 4 57 0;
#X connect 57 0 55 0;
#X connect 58 0 55 0;
#X connect 59 0 60 0;
#X connect 61 0 29 1;
#X restore 282 -178 pd init_button_num;
#X msg 292 -269 0;
#X msg 293 -293 1;
#X obj 110 -87 t f b b;
#N canvas 819 192 450 401 button_change_color 0;
#X obj 119 43 inlet;
#X text 161 43 status number;
#X obj 118 69 change;
#X floatatom 316 154 5 0 0 0 - - -, f 5;
#X text 423 188 0 off \; 1 for play \; 2 for play queue \; 3 for
rec \; 4 for rec queue \; 5 for stop \; 6 for stop queue;
#X obj 179 199 print Rec;
#X obj 204 225 print Rec Queue;
#X obj 233 252 print Stop;
#X obj 256 277 print Stop Queue;
#X obj 164 178 print Play Queue;
#X obj 140 156 print Play;
#X msg 211 156 color 16 12;
#X msg 313 253 color 14 12;
#X msg 244 199 color 13 0;
#X obj 123 129 select 0 1 2 3 4 5 6;
#X obj 114 340 s;
#X msg 53 311 color 0 12;
#X obj 303 68 inlet;
#X text 346 70 button name;
#X msg 15 132 stop;
#X obj 54 149 bng 15 250 50 0 empty empty empty 17 7 0 10 -262144 -1
-1;
#N canvas 192 248 450 323 blink 0;
#X obj 115 93 f 1;
#X obj 146 93 + 1;
#X obj 115 118 mod 2;
#X obj 115 185 select 0 1;
#X floatatom 116 147 5 0 0 0 - - -, f 5;
#X obj 113 17 inlet;
#X obj 114 64 metro 250;
#X obj 173 27 bng 15 250 50 0 empty empty empty 17 7 0 10 -262144 -1
-1;
#X msg 209 26 stop;
#X obj 110 225 outlet;
#X obj 170 225 outlet;
#X connect 0 0 1 0;
#X connect 0 0 2 0;
#X connect 1 0 0 1;
#X connect 2 0 4 0;
#X connect 3 0 9 0;
#X connect 3 1 10 0;
#X connect 4 0 3 0;
#X connect 5 0 6 0;
#X connect 6 0 0 0;
#X connect 7 0 6 0;
#X connect 8 0 6 0;
#X restore 98 177 pd blink;
#N canvas 192 248 450 323 blink 0;
#X obj 115 93 f 1;
#X obj 146 93 + 1;
#X obj 115 118 mod 2;
#X obj 115 185 select 0 1;
#X floatatom 116 147 5 0 0 0 - - -, f 5;
#X obj 113 17 inlet;
#X obj 114 64 metro 250;
#X obj 173 27 bng 15 250 50 0 empty empty empty 17 7 0 10 -262144 -1
-1;
#X msg 209 26 stop;
#X obj 110 225 outlet;
#X obj 170 225 outlet;
#X connect 0 0 1 0;
#X connect 0 0 2 0;
#X connect 1 0 0 1;
#X connect 2 0 4 0;
#X connect 3 0 9 0;
#X connect 3 1 10 0;
#X connect 4 0 3 0;
#X connect 5 0 6 0;
#X connect 6 0 0 0;
#X connect 7 0 6 0;
#X connect 8 0 6 0;
#X restore 124 226 pd blink;
#N canvas 192 248 450 323 blink 0;
#X obj 115 93 f 1;
#X obj 146 93 + 1;
#X obj 115 118 mod 2;
#X obj 115 185 select 0 1;
#X floatatom 116 147 5 0 0 0 - - -, f 5;
#X obj 113 17 inlet;
#X obj 114 64 metro 250;
#X obj 173 27 bng 15 250 50 0 empty empty empty 17 7 0 10 -262144 -1
-1;
#X msg 209 26 stop;
#X obj 110 225 outlet;
#X obj 170 225 outlet;
#X connect 0 0 1 0;
#X connect 0 0 2 0;
#X connect 1 0 0 1;
#X connect 2 0 4 0;
#X connect 3 0 9 0;
#X connect 3 1 10 0;
#X connect 4 0 3 0;
#X connect 5 0 6 0;
#X connect 6 0 0 0;
#X connect 7 0 6 0;
#X connect 8 0 6 0;
#X restore 189 278 pd blink;
#X obj 116 96 t f b;
#X connect 0 0 2 0;
#X connect 2 0 24 0;
#X connect 11 0 15 0;
#X connect 12 0 15 0;
#X connect 13 0 15 0;
#X connect 14 0 16 0;
#X connect 14 1 10 0;
#X connect 14 1 11 0;
#X connect 14 2 9 0;
#X connect 14 2 21 0;
#X connect 14 3 5 0;
#X connect 14 3 13 0;
#X connect 14 4 6 0;
#X connect 14 4 22 0;
#X connect 14 5 7 0;
#X connect 14 5 12 0;
#X connect 14 6 8 0;
#X connect 14 6 23 0;
#X connect 14 7 3 0;
#X connect 16 0 15 0;
#X connect 17 0 15 1;
#X connect 19 0 21 0;
#X connect 19 0 22 0;
#X connect 19 0 23 0;
#X connect 20 0 21 0;
#X connect 21 0 16 0;
#X connect 21 1 11 0;
#X connect 22 0 16 0;
#X connect 22 1 13 0;
#X connect 23 0 16 0;
#X connect 23 1 12 0;
#X connect 24 0 14 0;
#X connect 24 1 19 0;
#X restore 85 132 pd button_change_color;
#X obj 296 -94 t 0 0 b b;
#X text 360 -97 stop all;
#X obj 351 -293 bng 15 250 50 0 button-initbang-s button-initbang-r
button-initbang 17 7 0 10 -262144 -1 -1;
#X obj 114 338 bng 15 250 50 0 empty midibutton-0 midi\ receiver 15
5 0 10 -262144 -1 -1;
#X obj 209 248 s \$0-stop-r;
#X obj 210 185 r \$0-clear-s;
#X obj 207 275 s \$0-clear-r;
#X floatatom 452 -117 5 0 0 0 - - -, f 5;
#X floatatom 110 -114 5 0 0 0 - - -, f 5;
#X obj 296 -114 bng 15 250 50 0 empty empty empty 17 7 0 10 -262144
-1 -1;
#X obj 210 210 bng 15 250 50 0 empty empty empty 17 7 0 10 -262144
-1 -1;
#X obj 71 -61 s \$0-barrec-r;
#X floatatom 183 -114 5 0 0 0 - - -, f 5;
#X obj 183 -87 t f f;
#X obj 209 -296 loadbang;
#X text 388 -205 CLICK HERE before saving;
#X msg 296 234 0;
#X msg 6 -284 0;
#X obj 5 -206 s tempo_ms;
#X msg 5 -231 500;
#X obj 335 239 \$1;
#X msg 335 270 symbol \$1-initbang;
#X obj 296 210 t b b b;
#X obj 315 297 s;
#X msg 363 -202 /\$0;
#X obj 331 51 adc~;
#X obj 550 -145 t s s s s s s;
#X dropdown 737 263 3 0 0 0 - #0-dd-r #0-dd-s, f 3;
#X obj 640 -144 s \$0-dd-r;
#N canvas 242 271 543 472 midictrl 0;
#X obj 37 32 bng 15 250 50 0 empty empty midi\ receiver 17 7 0 10 -262144
-1 -1;
#X floatatom 60 227 7 0 0 0 - - -, f 7;
#X obj 143 29 inlet;
#X text 181 29 voice number;
#X obj 60 251 > 100;
#X msg 60 334 1;
#X obj 59 312 t b b, f 9;
#X msg 110 334 0;
#X obj 148 313 t b b, f 9;
#X msg 149 335 0;
#X msg 199 335 1;
#X obj 37 11 inlet;
#X obj 60 202 array size \$1;
#X text 104 412 play;
#X text 204 413 rec;
#X obj 160 415 outlet;
#X obj 61 412 outlet;
#X obj 39 57 t b b b b;
#X obj 436 7 r \$0-loadnum;
#X obj 435 35 t 0 0;
#X obj 413 4 bng 15 250 50 0 empty empty empty 17 7 0 10 -262144 -1
-1;
#X text 310 33 status number;
#X obj 278 32 inlet;
#X obj 176 134 select 0 1 2 3 4 5 6;
#X obj 183 188 t 0 0;
#X obj 229 188 t 0 0;
#X obj 275 188 t 1 0;
#X floatatom 61 369 5 0 0 0 - - -, f 5;
#X obj 79 391 change;
#X floatatom 158 366 5 0 0 0 - - -, f 5;
#X obj 186 386 change;
#X floatatom 321 158 5 0 0 0 - - -, f 5;
#X obj 152 162 bng 15 250 50 0 empty empty empty 17 7 0 10 -262144
-1 -1;
#X obj 187 159 bng 15 250 50 0 empty empty empty 17 7 0 10 -262144
-1 -1;
#X obj 209 159 bng 15 250 50 0 empty empty empty 17 7 0 10 -262144
-1 -1;
#X obj 229 159 bng 15 250 50 0 empty empty empty 17 7 0 10 -262144
-1 -1;
#X obj 247 158 bng 15 250 50 0 empty empty empty 17 7 0 10 -262144
-1 -1;
#X obj 266 157 bng 15 250 50 0 empty empty empty 17 7 0 10 -262144
-1 -1;
#X obj 285 157 bng 15 250 50 0 empty empty empty 17 7 0 10 -262144
-1 -1;
#X obj 333 182 bng 15 250 50 0 empty empty empty 17 7 0 10 -262144
-1 -1;
#X floatatom 176 110 5 0 0 0 - - -, f 5;
#X msg 176 83 set \$1;
#X obj 61 294 bng 15 250 50 0 empty empty empty 17 7 0 10 -262144 -1
-1;
#X obj 135 296 bng 15 250 50 0 empty empty empty 17 7 0 10 -262144
-1 -1;
#X msg 94 116 symbol \$1;
#X obj 20 250 bng 15 250 50 0 empty empty empty 17 7 0 10 -262144 -1
-1;
#X msg 136 4 symbol voice\$0;
#X obj 60 275 select 1 0, f 22;
#X text 208 276 if the voice array is smaller than 100 samples \, record
\; otherwise play, f 32;
#X text 312 123 check the status of the button \; if off of stopped
\, check array size;
#X obj 301 325 r \$0-play-r;
#X msg 301 347 set \$1;
#X msg 427 351 set \$1;
#X obj 427 326 r \$0-rec-r;
#X connect 0 0 17 0;
#X connect 1 0 4 0;
#X connect 2 0 44 0;
#X connect 4 0 47 0;
#X connect 5 0 27 0;
#X connect 6 0 5 0;
#X connect 6 1 7 0;
#X connect 7 0 29 0;
#X connect 8 0 9 0;
#X connect 8 1 10 0;
#X connect 9 0 27 0;
#X connect 10 0 29 0;
#X connect 11 0 0 0;
#X connect 12 0 1 0;
#X connect 12 0 45 0;
#X connect 17 3 40 0;
#X connect 18 0 19 0;
#X connect 19 1 41 0;
#X connect 20 0 19 0;
#X connect 22 0 41 0;
#X connect 23 0 32 0;
#X connect 23 1 33 0;
#X connect 23 2 34 0;
#X connect 23 3 35 0;
#X connect 23 4 36 0;
#X connect 23 5 37 0;
#X connect 23 6 38 0;
#X connect 23 7 31 0;
#X connect 24 0 27 0;
#X connect 24 1 29 0;
#X connect 25 0 27 0;
#X connect 25 1 29 0;
#X connect 26 0 27 0;
#X connect 26 1 29 0;
#X connect 27 0 28 0;
#X connect 27 0 16 0;
#X connect 29 0 30 0;
#X connect 29 0 15 0;
#X connect 31 0 39 0;
#X connect 32 0 12 0;
#X connect 33 0 24 0;
#X connect 34 0 24 0;
#X connect 35 0 25 0;
#X connect 36 0 25 0;
#X connect 37 0 12 0;
#X connect 38 0 12 0;
#X connect 40 0 23 0;
#X connect 41 0 40 0;
#X connect 42 0 6 0;
#X connect 43 0 8 0;
#X connect 44 0 12 1;
#X connect 46 0 12 1;
#X connect 47 0 42 0;
#X connect 47 1 43 0;
#X connect 50 0 51 0;
#X connect 51 0 27 0;
#X connect 52 0 29 0;
#X connect 53 0 52 0;
#X restore 114 363 pd midictrl;
#X obj 221 341 r \$0-rec-s;
#N canvas 72 188 450 346 output_sel~ 0;
#X obj 133 292 throw~;
#X obj 185 292 throw~;
#X floatatom 162 105 5 0 0 0 - - -, f 5;
#X obj 160 150 t f f;
#X obj 158 177 + 1;
#X obj 190 177 + 2;
#X obj 161 126 * 2;
#X floatatom 158 202 5 0 0 0 - - -, f 5;
#X floatatom 190 202 5 0 0 0 - - -, f 5;
#X msg 142 253 set signal_\$1;
#X msg 206 227 set signal_\$1;
#X text 159 41 receive from drop-down;
#X obj 56 21 inlet~;
#X obj 107 22 inlet~;
#X obj 267 326 outlet;
#X obj 267 282 pack f f;
#X msg 268 305 symbol signal_\$1+signal_\$2;
#X obj 179 22 inlet;
#X connect 2 0 6 0;
#X connect 3 0 4 0;
#X connect 3 1 5 0;
#X connect 4 0 7 0;
#X connect 5 0 8 0;
#X connect 6 0 3 0;
#X connect 7 0 9 0;
#X connect 7 0 15 0;
#X connect 8 0 10 0;
#X connect 8 0 15 1;
#X connect 9 0 0 0;
#X connect 10 0 1 0;
#X connect 12 0 0 0;
#X connect 13 0 1 0;
#X connect 15 0 16 0;
#X connect 16 0 14 0;
#X connect 17 0 2 0;
#X restore 646 115 pd output_sel~;
#X symbolatom 646 142 22 0 0 0 - - -, f 22;
#X obj 333 -222 s \$0-loadnum;
#X obj 276 -201 r \$0-loadnum;
#N canvas 602 259 450 323 midiout 0;
#X obj 107 80 inlet;
#X text 144 80 button;
#X obj 218 80 inlet;
#X text 259 80 velocity;
#X obj 110 242 noteout 1;
#X obj 177 138 \$1;
#X obj 218 105 t b b f;
#X floatatom 136 186 5 0 0 0 - - -, f 5;
#X floatatom 202 201 5 0 0 0 - - -, f 5;
#X msg 321 104 2;
#X connect 2 0 6 0;
#X connect 5 0 7 0;
#X connect 6 1 5 0;
#X connect 6 2 8 0;
#X connect 7 0 4 0;
#X connect 8 0 4 1;
#X connect 9 0 6 0;
#X restore 13 151 pd midiout;
#X obj 580 -221 table voice\$0;
#N canvas 724 394 570 373 gradarray-init 0;
#X msg 289 28 32;
#X obj 289 55 array size gradarray;
#X obj 205 125 int;
#X floatatom 205 144 5 0 0 0 - - -, f 5;
#X obj 222 57 pack f f;
#X obj 204 95 expr $f2 / $f1;
#X msg 219 3 4;
#X obj 167 4 inlet;
#X text 27 4 number of bars to show;
#X obj 285 -17 r \$0-loadnum;
#X msg 348 119 \; \$2 const \$1;
#X obj 287 6 t f b f f;
#X obj 208 170 pack f f;
#X msg 205 195 \; grad\$2 xticks 0 \$1 1;
#X msg 433 47 \; grad\$0 rename grad\$1;
#X msg 348 90 -1 grad\$1;
#X text 399 0 deactivated since gradarray is in buttonGUI now;
#X connect 0 0 4 1;
#X connect 2 0 3 0;
#X connect 3 0 12 0;
#X connect 4 0 5 0;
#X connect 5 0 2 0;
#X connect 6 0 4 0;
#X connect 7 0 4 0;
#X connect 11 0 12 1;
#X connect 11 1 0 0;
#X connect 11 2 15 0;
#X connect 11 3 14 0;
#X connect 12 0 13 0;
#X connect 15 0 10 0;
#X restore 518 -247 pd gradarray-init;
#X obj 518 -270 r \$0-barrec-s;
#X obj 149 66 \$1;
#X obj 149 91 s \$1recstart;
#N canvas 607 26 478 741 play_sample_queue 0;
#X obj 243 15 inlet;
#X text 243 40 Play toggle;
#X obj 53 17 inlet;
#X text 53 42 beat number;
#X obj 68 521 outlet;
#X text 117 522 status number;
#X obj 269 518 outlet;
#X text 269 543 play;
#X obj 340 523 outlet;
#X text 340 548 stop;
#X floatatom 51 78 5 0 0 0 - - -, f 5;
#X obj 65 108 select 0;
#X obj 124 143 spigot;
#X obj 166 199 spigot;
#X text -7 107 first beat;
#X text 6 141 end of the sample;
#X text 82 200 Play activé;
#X text 265 199 sinon;
#X obj 218 199 spigot;
#X obj 252 154 == 0;
#X obj 168 177 t b b;
#X msg 171 255 \$1;
#X obj 120 281 select 1;
#X obj 122 305 t b 2;
#X obj 218 119 t f b f f;
#X msg 156 335 \$1;
#X obj 139 335 bng 15 250 50 0 empty empty empty 17 7 0 10 -262144
-1 -1;
#X floatatom 202 365 5 0 0 0 - - -, f 5;
#X obj 314 204 select 1;
#X obj 314 229 t b 6;
#X obj 252 176 t f f;
#X obj 318 258 bng 15 250 50 0 empty empty empty 17 7 0 10 -262144
-1 -1;
#X msg 334 258 \$1;
#X obj 296 310 t 5 b;
#X obj 283 334 bng 15 250 50 0 empty empty empty 17 7 0 10 -262144
-1 -1;
#X msg 299 334 \$1;
#X obj 354 15 inlet;
#X text 352 36 end or start of the sample \; 1 at end or start;
#X obj 198 254 bng 15 250 50 0 empty empty empty 17 7 0 10 -262144
-1 -1;
#X obj 110 174 bng 15 250 50 0 empty empty empty 17 7 0 10 -262144
-1 -1;
#X floatatom 178 99 5 0 0 0 - - -, f 5;
#X obj 208 520 outlet;
#X text 198 539 play queue;
#X obj 166 222 t 1 b;
#X obj 159 19 inlet;
#X text 156 41 play after rec, f 10;
#X msg 145 72 1;
#X connect 0 0 24 0;
#X connect 2 0 10 0;
#X connect 10 0 11 0;
#X connect 11 0 12 0;
#X connect 12 0 20 0;
#X connect 12 0 39 0;
#X connect 13 0 43 0;
#X connect 18 0 33 0;
#X connect 19 0 30 0;
#X connect 20 0 13 0;
#X connect 20 1 18 0;
#X connect 21 0 27 0;
#X connect 22 0 23 0;
#X connect 23 0 41 0;
#X connect 23 1 26 0;
#X connect 23 1 25 0;
#X connect 24 0 22 0;
#X connect 24 2 19 0;
#X connect 24 3 13 1;
#X connect 25 0 27 0;
#X connect 27 0 4 0;
#X connect 28 0 29 0;
#X connect 29 1 31 0;
#X connect 29 1 32 0;
#X connect 30 0 18 1;
#X connect 30 1 28 0;
#X connect 32 0 27 0;
#X connect 33 0 34 0;
#X connect 33 0 35 0;
#X connect 33 1 8 0;
#X connect 35 0 27 0;
#X connect 36 0 40 0;
#X connect 38 0 6 0;
#X connect 40 0 12 1;
#X connect 43 0 21 0;
#X connect 43 1 38 0;
#X connect 44 0 46 0;
#X restore 421 -59 pd play_sample_queue;
#X text 436 -40 play queue;
#N canvas 777 24 588 718 play_full_sample 0;
#X obj 313 38 inlet;
#X text 355 40 array to read;
#X obj 51 37 inlet;
#X text 92 39 start;
#X obj 132 36 inlet;
#X text 162 38 stop;
#X obj 184 469 outlet;
#X floatatom 273 145 7 0 0 0 - - -, f 7;
#X obj 270 117 array size \$1;
#X obj 268 91 bng 15 250 50 0 empty empty empty 17 7 0 10 -262144 -1
-1;
#X obj 173 145 samplerate~;
#X obj 275 178 /;
#X floatatom 319 206 5 0 0 0 - - -, f 5;
#X obj 171 120 bng 15 250 50 0 empty empty empty 17 7 0 10 -262144
-1 -1;
#X obj 268 207 * 1000;
#X obj 288 354 line~;
#X msg 366 278 0 \, 245000 5112;
#X floatatom 272 237 5 0 0 0 - - -, f 5;
#X text 345 303 arguments: start sample \, end sample \, duration ms
;
#X text 332 204 duration in s as per sample rate;
#X obj 290 382 tabread~;
#X msg 367 345 set \$1;
#X obj 304 441 outlet~;
#X obj 195 380 snapshot~;
#X obj 195 410 * 127;
#X obj 195 435 /;
#X text 231 469 % of number of samples elapsed out of 127;
#X floatatom 143 472 5 0 0 0 - - -, f 5;
#X text -7 380 update progress bar as per metro;
#X msg 139 433 0;
#X obj 3 61 t b b;
#X obj 314 73 t s s;
#X msg 107 197 stop;
#X obj 367 163 print lecture;
#X obj 191 348 metro 50;
#X obj 373 441 outlet~;
#X obj 172 93 r \$0-loadnum;
#X obj 2 34 inlet;
#X text 3 11 play queue;
#X msg 284 302 0 \, \$2 \$3;
#X obj 57 62 bng 15 250 50 0 empty empty empty 17 7 0 10 -262144 -1
-1;
#X obj 324 335 bng 15 250 50 0 empty empty empty 17 7 0 10 -262144
-1 -1;
#X obj 424 379 \$1;
#X obj 424 404 s \$1-playstart;
#X obj 264 263 pack f f f;
#X connect 0 0 31 0;
#X connect 2 0 40 0;
#X connect 4 0 32 0;
#X connect 7 0 11 0;
#X connect 7 0 25 1;
#X connect 7 0 33 0;
#X connect 7 0 44 1;
#X connect 8 0 7 0;
#X connect 9 0 8 0;
#X connect 9 0 34 0;
#X connect 10 0 11 1;
#X connect 11 0 12 0;
#X connect 11 0 14 0;
#X connect 13 0 10 0;
#X connect 14 0 17 0;
#X connect 15 0 20 0;
#X connect 15 0 23 0;
#X connect 16 0 15 0;
#X connect 17 0 44 2;
#X connect 20 0 22 0;
#X connect 20 0 35 0;
#X connect 21 0 20 0;
#X connect 23 0 24 0;
#X connect 24 0 25 0;
#X connect 25 0 6 0;
#X connect 25 0 27 0;
#X connect 29 0 27 0;
#X connect 29 0 6 0;
#X connect 30 0 13 0;
#X connect 30 1 9 0;
#X connect 31 0 21 0;
#X connect 31 1 8 1;
#X connect 32 0 15 0;
#X connect 32 0 29 0;
#X connect 32 0 34 0;
#X connect 34 0 23 0;
#X connect 36 0 13 0;
#X connect 37 0 30 0;
#X connect 39 0 15 0;
#X connect 39 0 41 0;
#X connect 40 0 44 0;
#X connect 41 0 42 0;
#X connect 42 0 43 0;
#X connect 44 0 39 0;
#X restore 410 16 pd play_full_sample;
#X text 444 -4 play;
#X text 483 -3 stop;
#X text 527 -3 array;
#X text 535 35 audio out;
#X text 421 37 % (127);
#N canvas 305 210 450 323 endstartsample 0;
#X floatatom 45 47 5 0 0 0 - - -, f 5;
#X obj 42 77 select 0 127;
#X floatatom 49 190 5 0 0 0 - - -, f 5;
#X msg 54 158 1;
#X msg 94 157 0;
#X obj 101 109 moses 126.9;
#X msg 164 189 1;
#X obj 156 152 r \$0-loadnum;
#X obj 48 15 inlet;
#X text 97 14 /127 share of samples elapsed;
#X obj 51 230 outlet;
#X text 139 76 end or start of the sample reached?;
#X connect 0 0 1 0;
#X connect 1 0 3 0;
#X connect 1 1 3 0;
#X connect 1 2 5 0;
#X connect 2 0 10 0;
#X connect 3 0 2 0;
#X connect 4 0 2 0;
#X connect 5 0 4 0;
#X connect 5 1 3 0;
#X connect 6 0 2 0;
#X connect 7 0 6 0;
#X connect 8 0 0 0;
#X restore 623 -19 pd endstartsample;
#N canvas 732 276 450 323 slider_update 0;
#X floatatom 130 123 5 0 0 0 - - -, f 5;
#X obj 130 174 send;
#X msg 130 149 set \$1;
#X obj 173 174 print;
#X msg 173 124 symbol slider_\$1;
#X obj 130 93 change;
#X obj 130 18 inlet;
#X obj 222 21 inlet;
#X text 263 20 array name;
#X text 71 18 % (127);
#X connect 0 0 2 0;
#X connect 2 0 1 0;
#X connect 4 0 1 1;
#X connect 4 0 3 0;
#X connect 5 0 0 0;
#X connect 6 0 5 0;
#X connect 7 0 4 0;
#X restore 417 161 pd slider_update;
#X obj 272 119 moses 126;
#X msg 300 145 1;
#N canvas 0 0 450 300 activeloopsout 0;
#X obj 129 148 \$1;
#X obj 128 177 pack f f;
#X obj 130 121 t b f;
#X obj 128 207 s activeloops-r;
#X msg 173 97 0;
#X msg 130 97 1;
#X obj 130 46 inlet;
#X text 173 46 status number;
#X obj 130 76 select 1 6;
#X connect 0 0 1 0;
#X connect 1 0 3 0;
#X connect 2 0 0 0;
#X connect 2 1 1 1;
#X connect 4 0 2 0;
#X connect 5 0 2 0;
#X connect 6 0 8 0;
#X connect 8 0 5 0;
#X connect 8 1 5 0;
#X connect 8 2 4 0;
#X restore 522 234 pd activeloopsout;
#X symbolatom 706 228 11 0 0 0 - #0-trackname-r #0-trackname-s, f
11;
#X obj 75 110 nbx 5 14 -1e+37 1e+37 0 0 0-loopstatus-s 0-loopstatus-r
Loopstatus 0 -8 0 10 -260909 -1 -1 2 256 0;
#N canvas 836 119 450 346 vol_pan 0;
#X obj 69 34 inlet~;
#X obj 196 33 inlet~;
#X obj 275 31 inlet;
#X text 312 35 vol;
#X obj 363 34 inlet;
#X text 399 35 pan;
#X obj 67 292 outlet~;
#X obj 199 293 outlet~;
#X obj 67 217 *~;
#X obj 275 72 / 127;
#X obj 199 216 *~;
#X text 321 166 interpolate from the previous value to avoid clicks?
, f 14;
#X obj 88 145 sqrt;
#X obj 67 182 *~;
#X obj 229 148 sqrt;
#X obj 201 182 *~;
#X obj 363 65 / 127;
#X floatatom 225 123 5 0 0 0 - - -, f 5;
#X obj 121 104 * -1;
#X obj 120 128 + 1;
#X floatatom 229 169 5 0 0 0 - - -, f 5;
#X floatatom 87 165 5 0 0 0 - - -, f 5;
#X floatatom 95 200 5 0 0 0 - - -, f 5;
#X floatatom 238 195 5 0 0 0 - - -, f 5;
#X floatatom 363 90 5 0 0 0 - - -, f 5;
#X obj 67 254 clip~ -1 1;
#X obj 199 255 clip~ -1 1;
#X text 274 255 <-- very basic limiter;
#X connect 0 0 13 0;
#X connect 1 0 15 0;
#X connect 2 0 9 0;
#X connect 4 0 16 0;
#X connect 8 0 25 0;
#X connect 9 0 22 0;
#X connect 9 0 23 0;
#X connect 10 0 26 0;
#X connect 12 0 21 0;
#X connect 13 0 8 0;
#X connect 14 0 20 0;
#X connect 15 0 10 0;
#X connect 16 0 24 0;
#X connect 17 0 14 0;
#X connect 18 0 19 0;
#X connect 19 0 12 0;
#X connect 20 0 15 1;
#X connect 21 0 13 1;
#X connect 22 0 8 1;
#X connect 23 0 10 1;
#X connect 24 0 18 0;
#X connect 24 0 17 0;
#X connect 25 0 6 0;
#X connect 26 0 7 0;
#X restore 640 79 pd vol_pan;
#X msg 213 -205 63;
#N canvas 1082 114 450 700 trackconfig 1;
#N canvas 219 54 551 688 initconfig 0;
#X obj 35 14 bng 15 250 50 0 empty 0-button-initbang-r initbang 17
7 0 10 -262144 -1 -1;
#X obj 35 34 \$1;
#X msg 203 113 receive \$1-trackstatus-r;
#X msg 203 88 send \$1-trackstatus-s;
#X msg 203 268 receive \$1-trackbars-r;
#X msg 203 220 send \$1-trackbars-s;
#X msg 203 241 2;
#X obj 373 142 s trackstatus-r;
#X obj 354 305 s trackbars-r;
#X msg 205 328 send \$1-trackvol-s;
#X msg 205 349 127;
#X msg 205 376 receive \$1-trackvol-r;
#X obj 369 399 s trackvol-r;
#X msg 202 415 send \$1-trackpan-s;
#X msg 203 436 63;
#X msg 203 463 receive \$1-trackpan-r;
#X obj 367 487 s trackpan-r;
#X msg 210 508 send \$1-trackoutput-s;
#X msg 211 556 receive \$1-trackoutput-r;
#X obj 375 580 s trackoutput-r;
#X msg 211 529 0;
#X obj 110 81 t f f;
#X obj 95 113 t f f f;
#X obj 80 188 t f f f;
#X obj 65 294 t f f f;
#X obj 50 395 t f f f;
#X obj 35 485 t f f f;
#X obj 35 57 t f f f f f f f;
#X obj 109 14 r button-initbang-s;
#X obj 369 193 tools/receiver;
#X msg 264 163 \$1-trackname-s;
#X symbolatom 369 218 10 0 0 0 - - -, f 10;
#X obj 369 242 s \$0-trackname-r;
#X msg 134 164 symbol \$1-Unnamed;
#X connect 1 0 27 0;
#X connect 2 0 7 0;
#X connect 3 0 7 0;
#X connect 4 0 8 0;
#X connect 5 0 8 0;
#X connect 6 0 8 0;
#X connect 9 0 12 0;
#X connect 10 0 12 0;
#X connect 11 0 12 0;
#X connect 13 0 16 0;
#X connect 14 0 16 0;
#X connect 15 0 16 0;
#X connect 17 0 19 0;
#X connect 18 0 19 0;
#X connect 20 0 19 0;
#X connect 21 0 2 0;
#X connect 21 1 3 0;
#X connect 22 0 33 0;
#X connect 22 2 30 0;
#X connect 23 0 4 0;
#X connect 23 1 6 0;
#X connect 23 2 5 0;
#X connect 24 0 11 0;
#X connect 24 1 10 0;
#X connect 24 2 9 0;
#X connect 25 0 15 0;
#X connect 25 1 14 0;
#X connect 25 2 13 0;
#X connect 26 0 18 0;
#X connect 26 1 20 0;
#X connect 26 2 17 0;
#X connect 27 0 26 0;
#X connect 27 1 25 0;
#X connect 27 2 24 0;
#X connect 27 3 23 0;
#X connect 27 4 22 0;
#X connect 27 5 21 0;
#X connect 29 0 31 0;
#X connect 30 0 29 0;
#X connect 31 0 32 0;
#X connect 33 0 31 0;
#X restore 264 49 pd initconfig;
#X symbolatom 101 55 10 0 0 0 #0-trackname - -, f 10;
#X obj 104 101 nbx 5 14 -1e+37 1e+37 0 0 \$0-volset-s \$0-volset-r
\$0-volset -75 5 0 10 -262144 -1 -1 64 256 0;
#X obj 105 78 nbx 5 14 -1e+37 1e+37 0 0 \$0-barsset-s \$0-barsset-r
\$0-barsset -84 4 0 10 -262144 -1 -1 0 256 0;
#X obj 105 125 nbx 5 14 -1e+37 1e+37 0 0 \$0-panset-s \$0-panset-r
\$0-panset -72 4 0 10 -262144 -1 -1 0 256 0;
#X obj 107 145 nbx 5 14 -1e+37 1e+37 0 0 \$0-outputset-s \$0-outputset-r
\$0-outputset -90 5 0 10 -262144 -1 -1 1 256 0;
#X obj 102 27 nbx 5 14 -1e+37 1e+37 0 0 \$0-statusset-s \$0-statusset-r
\$0-statusset -87 5 0 10 -262144 -1 -1 2 256 0;
#N canvas 562 28 780 714 outputforbutton 0;
#X obj 18 20 r \$0-loadnum;
#X msg 18 75 \$1 status;
#X msg 88 75 \$1 bars;
#X msg 159 74 \$1 vol;
#X msg 230 75 \$1 pan;
#X msg 301 74 \$1 output;
#X obj 18 172 tools/receiver;
#X obj 18 200 s;
#X msg 18 125 \$1-track\$2-s;
#X obj 88 296 tools/receiver;
#X obj 88 324 s;
#X obj 88 224 t a a;
#X msg 88 249 \$1-track\$2-s;
#X text 103 6 this patch converts all \$1 interfaces to the button's
\$0 sends/receives;
#X msg 372 74 \$1 play;
#X msg 443 74 \$1 rec;
#X msg 514 73 \$1 stop;
#X msg 585 73 \$1 sliderpos;
#X obj 159 412 tools/receiver;
#X obj 159 440 s;
#X obj 159 340 t a a;
#X msg 159 365 \$1-track\$2-s;
#X obj 18 47 t f f f f f f f f f, f 95;
#X obj 230 175 tools/receiver;
#X obj 230 203 s;
#X obj 230 103 t a a;
#X msg 230 128 \$1-track\$2-s;
#X obj 301 284 tools/receiver;
#X obj 301 312 s;
#X obj 301 212 t a a;
#X msg 301 237 \$1-track\$2-s;
#X obj 372 415 tools/receiver;
#X obj 372 443 s;
#X obj 372 343 t a a;
#X msg 372 368 \$1-track\$2-s;
#X obj 443 173 tools/receiver;
#X obj 443 201 s;
#X obj 443 101 t a a;
#X msg 443 126 \$1-track\$2-s;
#X obj 514 302 tools/receiver;
#X obj 514 330 s;
#X obj 514 230 t a a;
#X msg 514 255 \$1-track\$2-s;
#X obj 585 416 tools/receiver;
#X obj 585 444 s;
#X obj 585 344 t a a;
#X msg 585 369 \$1-track\$2-s;
#X obj 42 498 r \$0-trackstatus;
#X obj 42 561 s;
#X obj 18 100 t a a a;
#X msg 37 149 symbol \$0-trackstatus;
#X msg 115 273 symbol \$0-bars;
#X msg 186 389 symbol \$0-vol;
#X msg 257 152 symbol \$0-pan;
#X msg 328 261 symbol \$0-output;
#X msg 399 392 symbol \$0-play;
#X msg 470 150 symbol \$0-rec;
#X msg 541 279 symbol \$0-stop;
#X msg 612 393 symbol \$0-sliderpos;
#X msg 57 527 symbol \$1-track\$2-r;
#X connect 1 0 49 0;
#X connect 2 0 11 0;
#X connect 3 0 20 0;
#X connect 4 0 25 0;
#X connect 5 0 29 0;
#X connect 6 0 7 0;
#X connect 8 0 6 0;
#X connect 9 0 10 0;
#X connect 11 0 12 0;
#X connect 11 1 51 0;
#X connect 12 0 9 0;
#X connect 14 0 33 0;
#X connect 15 0 37 0;
#X connect 16 0 41 0;
#X connect 17 0 45 0;
#X connect 18 0 19 0;
#X connect 20 0 21 0;
#X connect 20 1 52 0;
#X connect 21 0 18 0;
#X connect 22 0 1 0;
#X connect 22 1 2 0;
#X connect 22 2 3 0;
#X connect 22 3 4 0;
#X connect 22 4 5 0;
#X connect 22 5 14 0;
#X connect 22 6 15 0;
#X connect 22 7 16 0;
#X connect 22 8 17 0;
#X connect 23 0 24 0;
#X connect 25 0 26 0;
#X connect 25 1 53 0;
#X connect 26 0 23 0;
#X connect 27 0 28 0;
#X connect 29 0 30 0;
#X connect 29 1 54 0;
#X connect 30 0 27 0;
#X connect 31 0 32 0;
#X connect 33 0 34 0;
#X connect 33 1 55 0;
#X connect 34 0 31 0;
#X connect 35 0 36 0;
#X connect 37 0 38 0;
#X connect 37 1 56 0;
#X connect 38 0 35 0;
#X connect 39 0 40 0;
#X connect 41 0 42 0;
#X connect 41 1 57 0;
#X connect 42 0 39 0;
#X connect 43 0 44 0;
#X connect 45 0 46 0;
#X connect 45 1 58 0;
#X connect 46 0 43 0;
#X connect 47 0 48 0;
#X connect 49 0 8 0;
#X connect 49 1 50 0;
#X connect 49 2 59 0;
#X connect 50 0 7 1;
#X connect 51 0 10 1;
#X connect 52 0 19 1;
#X connect 53 0 24 1;
#X connect 54 0 28 1;
#X connect 55 0 32 1;
#X connect 56 0 36 1;
#X connect 57 0 40 1;
#X connect 58 0 44 1;
#X connect 59 0 48 1;
#X restore 267 77 pd outputforbutton;
#X obj 107 167 nbx 5 14 -1e+37 1e+37 0 0 tracksliderpos-s tracksliderpos-r
tracksliderpos -88 5 0 10 -262144 -1 -1 0 256 0;
#X text 30 201 receive a /getall message from ui and send a bundle
of the config parameters, f 26;
#X obj 49 244 r \$0-getall-s;
#X obj 49 269 bng 15 250 50 0 empty empty empty 17 7 0 10 -262144 -1
-1;
#X obj 49 291 t b b b b b b b b b, f 21;
#X msg 159 338 /status \$1;
#X msg 140 383 /name \$1;
#X msg 113 481 /vol \$1;
#X msg 127 434 /bars \$1;
#X obj 30 642 s \$0-OSCoutput;
#X msg 108 529 /pan \$1;
#X msg 82 579 /output \$1;
#X msg 160 618 /sliderpos \$1;
#X obj 284 244 r \$0-status-s;
#X obj 283 296 r \$0-name-s;
#X msg 211 362 set \$1;
#X obj 287 353 r \$0-bars-s;
#X obj 288 408 r \$0-vol-s;
#X obj 289 459 r \$0-pan-s;
#X obj 290 513 r \$0-output-s;
#X floatatom 165 316 5 0 0 0 - - -, f 5;
#X symbolatom 141 362 10 0 0 0 - - -, f 10;
#X msg 166 409 set \$1;
#X floatatom 127 410 5 0 0 0 - - -, f 5;
#X msg 154 456 set \$1;
#X floatatom 113 457 5 0 0 0 - - -, f 5;
#X msg 152 506 set \$1;
#X floatatom 109 507 5 0 0 0 - - -, f 5;
#X msg 125 556 set \$1;
#X floatatom 83 557 5 0 0 0 - - -, f 5;
#X text 262 22 probably obsolete:;
#X text 282 213 input from UI;
#X obj 284 267 s \$0-statusset-r;
#X connect 1 0 23 0;
#X connect 2 0 32 0;
#X connect 3 0 30 0;
#X connect 4 0 34 0;
#X connect 5 0 36 0;
#X connect 6 0 28 0;
#X connect 10 0 11 0;
#X connect 11 0 12 0;
#X connect 12 2 37 0;
#X connect 12 3 35 0;
#X connect 12 4 33 0;
#X connect 12 5 31 0;
#X connect 12 6 29 0;
#X connect 12 7 28 0;
#X connect 13 0 17 0;
#X connect 14 0 17 0;
#X connect 15 0 17 0;
#X connect 16 0 17 0;
#X connect 18 0 17 0;
#X connect 19 0 17 0;
#X connect 20 0 17 0;
#X connect 21 0 40 0;
#X connect 22 0 1 0;
#X connect 23 0 29 0;
#X connect 24 0 3 0;
#X connect 25 0 2 0;
#X connect 26 0 4 0;
#X connect 27 0 5 0;
#X connect 28 0 13 0;
#X connect 29 0 14 0;
#X connect 30 0 31 0;
#X connect 31 0 16 0;
#X connect 32 0 33 0;
#X connect 33 0 15 0;
#X connect 34 0 35 0;
#X connect 35 0 18 0;
#X connect 36 0 37 0;
#X connect 37 0 19 0;
#X restore 579 -195 pd trackconfig;
#X obj 671 264 bng 16 250 50 0 \$0-stop-s \$0-stop-r S 4 6 0 10 -262144
-1 -1;
#X obj 671 228 tgl 16 0 \$0-play-s \$0-play-r P 4 6 0 10 -262144 -1
-1 0 1;
#X obj 671 246 tgl 16 0 \$0-rec-s \$0-rec-r R 4 6 0 10 -262144 -258049
-176129 0 1;
#X obj 707 228 cnv 10 44 15 empty \$0-voicename-r Unnamed\ 1 1 6 0
10 -233017 -66577 0;
#X obj 483 356 output~;
#X obj 689 228 moonlib/mknob 16 20 0 127 0 0 \$0-trackvol-s \$0-trackvol-r
V 4 7 0 11 -191407 -1 -253822 0 0;
#X obj 689 246 moonlib/mknob 16 128 0 127 0 1 \$0-trackpan-s \$0-trackpan-r
P 4 7 0 11 -191407 -1 -249661 6300 0;
#N canvas 677 128 625 400 buttonUI 0;
#X msg 261 104 clear;
#X obj 216 23 inlet;
#X obj 216 48 select 0 1, f 60;
#X obj 30 65 tgl 15 0 empty empty cfg 0 5 0 10 -262144 -1 -1 0 1;
#X obj 216 73 t b b b, f 8;
#X obj 394 73 t b b b, f 8;
#X msg 439 100 clear;
#X obj 216 183 bng 15 250 50 0 empty empty empty 17 7 0 10 -262144
-1 -1;
#X obj 216 220 s buttonguibang-r;
#X obj 397 185 bng 15 250 50 0 empty empty empty 17 7 0 10 -262144
-1 -1;
#X msg 238 128 obj 30 60 buttonGUI \$1;
#X msg 416 125 obj 30 60 buttoncfg \$1;
#X obj 238 101 \$1;
#X obj 414 100 \$1;
#X obj 238 196 s pd-\$0-buttoncontent;
#N canvas 129 417 450 350 \$0-buttoncontent 0;
#X obj 30 60 buttonGUI 0;
#X coords 0 -1 1 1 104 41 2 30 60;
#X restore 27 24 pd \$0-buttoncontent;
#X obj 397 208 s initbang-buttoncfg-r;
#X obj 279 0 r \$0-loadnum;
#X msg 279 25 0;
#X connect 0 0 14 0;
#X connect 1 0 2 0;
#X connect 2 0 4 0;
#X connect 2 1 5 0;
#X connect 3 0 2 0;
#X connect 4 0 7 0;
#X connect 4 1 12 0;
#X connect 4 2 0 0;
#X connect 5 0 9 0;
#X connect 5 1 13 0;
#X connect 5 2 6 0;
#X connect 6 0 14 0;
#X connect 7 0 8 0;
#X connect 9 0 16 0;
#X connect 10 0 14 0;
#X connect 11 0 14 0;
#X connect 12 0 10 0;
#X connect 13 0 11 0;
#X connect 17 0 18 0;
#X connect 18 0 2 0;
#X coords 0 -1 1 1 104 58 1 27 23;
#X restore 529 258 pd buttonUI;
#X text 461 -293 initbang \, then receive is renamed;
#N canvas 652 476 585 350 receive_from_buttonUI 0;
#X obj 96 93 tools/receiver;
#X floatatom 96 118 5 0 0 0 - - -, f 5;
#X obj 96 147 s \$0-play-r;
#X obj 96 42 t f f f f f f, f 64;
#X obj 254 103 tools/receiver;
#X floatatom 254 128 5 0 0 0 - - -, f 5;
#X obj 254 157 s \$0-rec-r;
#X obj 100 206 r \$0-play-s;
#X obj 100 231 s;
#X msg 96 65 \$1-playUI-s;
#X msg 254 74 \$1-recUI-s;
#X obj 256 232 s;
#X obj 256 207 r \$0-rec-s;
#X obj 401 98 tools/receiver;
#X floatatom 401 123 5 0 0 0 - - -, f 5;
#X obj 403 227 s;
#X msg 401 68 \$1-stopUI-s;
#X obj 401 152 s \$0-stop-r;
#X obj 403 202 r \$0-stop-s;
#X obj 96 14 r \$0-loadnum;
#X msg 172 206 symbol \$1-playUI-r;
#X msg 328 207 symbol \$1-recUI-r;
#X msg 475 203 symbol \$1-stopUI-r;
#X connect 0 0 1 0;
#X connect 1 0 2 0;
#X connect 3 0 9 0;
#X connect 3 1 20 0;
#X connect 3 2 10 0;
#X connect 3 3 21 0;
#X connect 3 4 16 0;
#X connect 3 5 22 0;
#X connect 4 0 5 0;
#X connect 5 0 6 0;
#X connect 7 0 8 0;
#X connect 9 0 0 0;
#X connect 10 0 4 0;
#X connect 12 0 11 0;
#X connect 13 0 14 0;
#X connect 14 0 17 0;
#X connect 16 0 13 0;
#X connect 18 0 15 0;
#X connect 19 0 3 0;
#X connect 20 0 8 1;
#X connect 21 0 11 1;
#X connect 22 0 15 1;
#X restore 673 -220 pd receive_from_buttonUI;
#N canvas 177 410 1060 268 receive_from_buttoncfg 0;
#X obj 96 93 tools/receiver;
#X floatatom 96 118 5 0 0 0 - - -, f 5;
#X obj 96 147 s \$0-play-r;
#X obj 95 185 r \$0-play-s;
#X obj 95 231 s;
#X obj 234 102 tools/receiver;
#X floatatom 234 127 5 0 0 0 - - -, f 5;
#X obj 234 231 s;
#X obj 234 156 s \$0-stop-r;
#X obj 234 188 r \$0-stop-s;
#X obj 96 14 r \$0-loadnum;
#X msg 96 66 \$1-playcfg-s;
#X msg 234 72 \$1-stopcfg-s;
#X msg 363 102 \$1-volcfg-s;
#X obj 363 127 tools/receiver;
#X floatatom 363 152 5 0 0 0 - - -, f 5;
#X obj 363 176 s;
#X obj 491 128 tools/receiver;
#X floatatom 491 153 5 0 0 0 - - -, f 5;
#X obj 491 177 s;
#X msg 491 103 \$1-pancfg-s;
#X obj 96 42 t f f f f f f f f f f f f f f, f 136;
#X obj 620 133 tools/receiver;
#X obj 620 182 s;
#X msg 620 108 \$1-namecfg-s;
#X symbolatom 620 158 10 0 0 0 - - -, f 10;
#X obj 745 136 tools/receiver;
#X floatatom 745 161 5 0 0 0 - - -, f 5;
#X obj 745 185 s;
#X msg 745 111 \$1-outputcfg-s;
#X obj 882 136 tools/receiver;
#X floatatom 882 161 5 0 0 0 - - -, f 5;
#X obj 882 185 s;
#X msg 881 111 \$1-barscfg-s;
#X floatatom 51 39 5 0 0 0 - - -, f 5;
#X msg 110 206 symbol \$1-playcfg-r;
#X msg 249 209 symbol \$1-stopcfg-r;
#X msg 378 73 symbol \$1-trackvol-r;
#X msg 506 74 symbol \$1-trackpan-r;
#X msg 635 78 symbol \$1-trackname-r;
#X msg 760 82 symbol \$1-trackoutput-r;
#X msg 897 82 symbol \$1-trackbars-r;
#X connect 0 0 1 0;
#X connect 1 0 2 0;
#X connect 3 0 4 0;
#X connect 5 0 6 0;
#X connect 6 0 8 0;
#X connect 9 0 7 0;
#X connect 10 0 21 0;
#X connect 10 0 34 0;
#X connect 11 0 0 0;
#X connect 12 0 5 0;
#X connect 13 0 14 0;
#X connect 14 0 15 0;
#X connect 15 0 16 0;
#X connect 17 0 18 0;
#X connect 18 0 19 0;
#X connect 20 0 17 0;
#X connect 21 0 11 0;
#X connect 21 1 35 0;
#X connect 21 2 12 0;
#X connect 21 3 36 0;
#X connect 21 4 13 0;
#X connect 21 5 37 0;
#X connect 21 6 20 0;
#X connect 21 7 38 0;
#X connect 21 8 24 0;
#X connect 21 9 39 0;
#X connect 21 10 29 0;
#X connect 21 11 40 0;
#X connect 21 12 33 0;
#X connect 21 13 41 0;
#X connect 22 0 25 0;
#X connect 24 0 22 0;
#X connect 25 0 23 0;
#X connect 26 0 27 0;
#X connect 27 0 28 0;
#X connect 29 0 26 0;
#X connect 30 0 31 0;
#X connect 31 0 32 0;
#X connect 33 0 30 0;
#X connect 35 0 4 1;
#X connect 36 0 7 1;
#X connect 37 0 16 1;
#X connect 38 0 19 1;
#X connect 39 0 23 1;
#X connect 40 0 28 1;
#X connect 41 0 32 1;
#X restore 673 -196 pd receive_from_buttoncfg;
#X text 632 -258 deactivated since gradarray is in buttonGUI now;
#X obj 183 -139 r \$0-bars;
#X obj 6 -163 r \$0-trackstatus;
#X obj 90 388 s \$0-play;
#X obj 179 390 s \$0-rec;
#X obj 296 -139 r \$0-stop;
#X obj 185 28 s \$0-rec;
#X obj 163 4 s \$0-play;
#X obj 301 -41 s \$0-rec;
#X obj 279 -65 s \$0-play;
#X obj 213 -182 s \$0-pan;
#X obj 173 -241 s \$0-bars;
#X obj 567 293 hsl 58 16 0 127 0 0 empty slider_track-r empty -2 -9
0 10 -262144 -1 -1 0 0;
#N canvas 0 0 450 300 (subpatch) 0;
#X array grad0 32 float 2 black black;
#X coords 0 1 32 -1 57 14 1;
#X restore 570 294 graph;
#N canvas 137 96 823 350 OSCinput 1;
#X obj 72 25 r fromui;
#X obj 72 50 routeOSC /track;
#X obj 98 96 f \$1;
#X obj 72 72 t a b;
#X obj 72 143 routeOSC /\$0;
#X msg 98 118 set /\$1;
#X obj 60 267 outlet;
#X obj 81 201 tgl 15 0 empty empty empty 17 7 0 10 -262144 -1 -1 1
1;
#X obj 81 227 s \$0-play-s;
#X obj 159 201 tgl 15 0 empty empty empty 17 7 0 10 -262144 -1 -1 0
1;
#X obj 159 227 s \$0-rec-s;
#X obj 229 226 s \$0-stop-s;
#X obj 229 201 bng 15 250 50 0 empty empty empty 17 7 0 10 -262144
-1 -1;
#X floatatom 308 202 5 0 0 0 - - -, f 5;
#X obj 308 226 s \$0-bars-s;
#X floatatom 387 201 5 0 0 0 - - -, f 5;
#X obj 387 225 s \$0-vol-s;
#X floatatom 460 200 5 0 0 0 - - -, f 5;
#X obj 460 224 s \$0-pan-s;
#X floatatom 536 199 5 0 0 0 - - -, f 5;
#X obj 536 223 s \$0-output-s;
#X obj 702 200 bng 15 250 50 0 empty empty empty 17 7 0 10 -262144
-1 -1;
#X obj 702 223 s \$0-getall-s;
#X obj 81 177 routeOSC /play /rec /stop /bars /vol /pan /output /name
/getall, f 117;
#X obj 623 250 s \$0-name-s;
#X obj 624 201 tosymbol;
#X symbolatom 624 226 10 0 0 0 - - -, f 10;
#X connect 0 0 1 0;
#X connect 1 0 3 0;
#X connect 2 0 5 0;
#X connect 3 0 4 0;
#X connect 3 1 2 0;
#X connect 4 0 6 0;
#X connect 4 0 23 0;
#X connect 5 0 4 0;
#X connect 7 0 8 0;
#X connect 9 0 10 0;
#X connect 12 0 11 0;
#X connect 13 0 14 0;
#X connect 15 0 16 0;
#X connect 17 0 18 0;
#X connect 19 0 20 0;
#X connect 21 0 22 0;
#X connect 23 0 7 0;
#X connect 23 1 9 0;
#X connect 23 2 12 0;
#X connect 23 3 13 0;
#X connect 23 4 15 0;
#X connect 23 5 17 0;
#X connect 23 6 19 0;
#X connect 23 7 25 0;
#X connect 23 8 21 0;
#X connect 25 0 26 0;
#X connect 26 0 24 0;
#X restore 724 -165 pd OSCinput;
#X msg 706 -95 /playpause 1 45;
#X obj 26 -140 r beatnum;
#X obj 6 -256 s beatnum;
#X obj 381 -142 r beatnum;
#N canvas 569 499 450 325 \$0-OSCoutput 0;
#X text 216 23 receive /playpause 1;
#X obj 123 57 t a b;
#X obj 150 81 \$1;
#X obj 123 145 list split 1;
#X obj 123 176 pack s s;
#X msg 123 201 \$2\$1;
#X msg 149 118 symbol /track/\$1;
#X obj 122 233 list append;
#X obj 122 258 list trim;
#X obj 122 283 s toui;
#X obj 123 23 r \$0-OSCoutput;
#X connect 1 0 3 0;
#X connect 1 1 2 0;
#X connect 2 0 6 0;
#X connect 3 0 4 0;
#X connect 3 1 7 1;
#X connect 4 0 5 0;
#X connect 5 0 7 0;
#X connect 6 0 4 1;
#X connect 7 0 8 0;
#X connect 8 0 9 0;
#X connect 10 0 1 0;
#X restore 724 -133 pd \$0-OSCoutput;
#X floatatom 666 43 5 0 0 0 - - -, f 5;
#X obj 716 36 r \$0-panset-s;
#X floatatom 716 61 5 0 0 0 - - -, f 5;
#X obj 666 13 r \$0-volset-s;
#X floatatom 758 94 5 0 0 0 - - -, f 5;
#X obj 759 66 r \$0-outputset-s;
#X obj 404 200 s \$0-status-s;
#X obj 110 -139 r \$0-rec-s;
#X obj 452 -142 r \$0-play-s;
#X msg 21 64 2;
#X connect 4 0 16 0;
#X connect 6 0 13 5;
#X connect 7 0 4 0;
#X connect 7 1 13 0;
#X connect 7 2 10 0;
#X connect 7 3 15 0;
#X connect 8 0 13 1;
#X connect 8 0 65 0;
#X connect 9 0 13 2;
#X connect 10 1 8 0;
#X connect 11 0 17 0;
#X connect 12 0 6 0;
#X connect 13 0 76 0;
#X connect 13 0 75 0;
#X connect 13 0 77 0;
#X connect 14 0 107 0;
#X connect 15 0 103 0;
#X connect 15 1 102 0;
#X connect 15 2 9 0;
#X connect 16 0 81 0;
#X connect 17 0 81 0;
#X connect 20 0 2 0;
#X connect 20 0 59 0;
#X connect 21 0 25 1;
#X connect 21 1 52 0;
#X connect 21 2 54 0;
#X connect 22 0 20 0;
#X connect 23 0 20 0;
#X connect 24 0 7 1;
#X connect 24 1 37 0;
#X connect 24 2 6 0;
#X connect 26 0 105 0;
#X connect 26 1 104 0;
#X connect 26 2 9 0;
#X connect 26 3 69 2;
#X connect 28 0 20 0;
#X connect 28 0 14 0;
#X connect 28 0 83 0;
#X connect 29 0 55 0;
#X connect 31 0 36 0;
#X connect 33 0 67 2;
#X connect 34 0 24 0;
#X connect 35 0 26 0;
#X connect 38 0 39 0;
#X connect 39 0 7 2;
#X connect 39 1 13 4;
#X connect 42 0 81 0;
#X connect 43 0 113 0;
#X connect 45 0 44 0;
#X connect 46 0 47 0;
#X connect 47 0 49 1;
#X connect 48 0 42 0;
#X connect 48 1 49 0;
#X connect 48 2 46 0;
#X connect 50 0 21 0;
#X connect 51 0 13 6;
#X connect 51 1 13 7;
#X connect 52 0 13 3;
#X connect 52 2 69 3;
#X connect 52 3 76 1;
#X connect 52 4 55 1;
#X connect 55 0 99 0;
#X connect 55 1 100 0;
#X connect 57 0 58 0;
#X connect 60 0 21 0;
#X connect 65 0 66 0;
#X connect 67 0 11 0;
#X connect 67 1 69 0;
#X connect 67 2 69 1;
#X connect 67 3 69 2;
#X connect 69 0 75 0;
#X connect 69 0 76 0;
#X connect 69 1 82 0;
#X connect 69 2 82 1;
#X connect 75 0 67 3;
#X connect 77 1 78 0;
#X connect 78 0 33 0;
#X connect 81 0 25 0;
#X connect 81 0 61 1;
#X connect 81 0 55 2;
#X connect 81 0 122 0;
#X connect 82 0 57 0;
#X connect 82 1 57 1;
#X connect 83 0 106 0;
#X connect 97 0 38 0;
#X connect 98 0 81 0;
#X connect 101 0 35 0;
#X connect 112 0 7 0;
#X connect 114 0 67 0;
#X connect 116 0 82 2;
#X connect 117 0 118 0;
#X connect 118 0 82 3;
#X connect 119 0 116 0;
#X connect 120 0 57 2;
#X connect 121 0 120 0;
#X connect 123 0 34 0;
#X connect 124 0 33 0;
#X connect 125 0 81 0;
#X coords 0 0 1 1 110 58 0;
