#N canvas 552 329 518 417 10;
#X text 87 15 input: track output from all tracks, f 21;
#X text 279 14 outputs: connect to the tracks to randomly follow,
f 25;
#X text 10 69 add tracks with [tr2f <track_num>], f 18;
#N canvas 911 108 557 712 randomfollow 0;
#X obj 29 37 cnv 15 343 15 empty rnd-flw-cnv Random\ follow: 8 6 0
10 -149797 -1 0;
#X obj 323 114 random 3;
#X obj 339 37 bng 15 250 50 0 empty empty empty 17 7 0 10 -262144 -1
-1;
#X floatatom 323 139 5 0 0 0 - - -, f 5;
#X obj 323 173 select 0 1 2 3 4 5 6 7;
#X obj 323 205 outlet;
#X obj 332 231 outlet;
#X obj 352 258 outlet;
#X obj 370 286 outlet;
#X obj 398 312 outlet;
#X obj 420 341 outlet;
#X obj 447 373 outlet;
#X obj 459 404 outlet;
#X obj 487 439 outlet;
#X obj 305 11 inlet;
#X obj 357 37 tgl 15 0 empty empty empty 17 7 0 10 -101786 -1 -1 0
1;
#X obj 323 90 spigot;
#X floatatom 316 37 3 0 0 0 - - -, f 3;
#X obj 357 60 t f b;
#X obj 44 108 r rndflw-list;
#X floatatom 44 133 5 0 0 0 - - -, f 5;
#X obj 44 157 list cat;
#X obj 43 302 s rnd-flw-cnv;
#X obj 44 182 list prepend Random follow:;
#X msg 103 136 clear;
#X obj 120 68 loadbang;
#X obj 267 37 bng 15 250 50 0 empty empty clear 17 7 0 10 -262144 -1
-1;
#X msg 43 267 label \$1;
#X symbolatom 44 232 22 0 0 0 - - -, f 22;
#X obj 43 207 l2s;
#X obj 164 107 t b b;
#X connect 1 0 3 0;
#X connect 2 0 16 0;
#X connect 3 0 4 0;
#X connect 4 0 5 0;
#X connect 4 1 6 0;
#X connect 4 2 7 0;
#X connect 4 3 8 0;
#X connect 4 4 9 0;
#X connect 4 5 10 0;
#X connect 4 6 11 0;
#X connect 4 7 12 0;
#X connect 4 8 13 0;
#X connect 14 0 2 0;
#X connect 15 0 18 0;
#X connect 16 0 1 0;
#X connect 17 0 1 1;
#X connect 18 0 16 1;
#X connect 19 0 20 0;
#X connect 20 0 21 0;
#X connect 21 0 23 0;
#X connect 23 0 29 0;
#X connect 24 0 21 1;
#X connect 25 0 30 0;
#X connect 26 0 30 0;
#X connect 27 0 22 0;
#X connect 28 0 27 0;
#X connect 29 0 28 0;
#X connect 30 0 21 0;
#X connect 30 1 24 0;
#X coords 0 -1 1 1 346 17 1 27 36;
#X restore 122 49 pd randomfollow;
#N canvas 264 148 450 325 Help_examples 0;
#X text 18 81 2 tracks following each other:;
#X obj 104 116 tr2f 1234;
#X obj 186 116 tr2f 1235;
#X text 22 217 2 tracks randomly triggered (but only 1 at a time):
;
#N canvas 910 85 557 712 randomfollow 0;
#X obj 323 114 random 3;
#X obj 339 37 bng 15 250 50 0 empty empty empty 17 7 0 10 -262144 -1
-1;
#X floatatom 323 139 5 0 0 0 - - -, f 5;
#X obj 323 173 select 0 1 2 3 4 5 6 7;
#N canvas 429 406 450 325 WIP-rndf-outlets 0;
#X text 28 27 attempt to dynamically create the [select] and outlets
as per the argument \, but given up.;
#X obj 115 93 \$1;
#X msg 222 146 clear;
#X obj 87 584 s pd-rndf-outlets;
#X msg 135 488 obj 100 50 r rndf-num;
#X msg 162 146 0;
#X floatatom 154 296 5 0 0 0 - - -, f 5;
#X obj 154 320 list cat;
#X msg 273 146 clear;
#X obj 154 365 list length;
#X msg 192 145 \$1;
#X obj 154 345 t l l, f 14;
#X obj 154 436 list store;
#X obj 154 461 list trim;
#X msg 117 513 obj 100 100 select \$@;
#X obj 117 538 print;
#X obj 117 427 bng 15 250 50 0 empty empty empty 17 7 0 10 -262144
-1 -1;
#X floatatom 154 387 5 0 0 0 - - -, f 5;
#X obj 154 409 select 5;
#X obj 154 461 print;
#X msg 218 95 5;
#X obj 154 271 line 0 1;
#X obj 115 118 t f f f f f f, f 30;
#X obj 115 143 t f f;
#X obj 115 197 pack f f;
#X msg 115 222 \$1 \$2;
#X obj 115 247 print;
#X obj 142 171 - 1;
#X connect 1 0 22 0;
#X connect 2 0 7 1;
#X connect 5 0 21 0;
#X connect 6 0 7 0;
#X connect 7 0 11 0;
#X connect 8 0 3 0;
#X connect 9 0 17 0;
#X connect 10 0 18 1;
#X connect 11 0 9 0;
#X connect 11 1 12 1;
#X connect 12 0 13 0;
#X connect 12 0 19 0;
#X connect 13 0 14 0;
#X connect 14 0 15 0;
#X connect 17 0 18 0;
#X connect 18 0 12 0;
#X connect 18 0 16 0;
#X connect 20 0 22 0;
#X connect 21 0 6 0;
#X connect 22 0 23 0;
#X connect 22 1 5 0;
#X connect 22 2 10 0;
#X connect 22 3 2 0;
#X connect 22 4 8 0;
#X connect 23 0 24 0;
#X connect 23 1 27 0;
#X connect 24 0 25 0;
#X connect 25 0 21 0;
#X connect 25 0 26 0;
#X connect 27 0 24 1;
#X restore 128 250 pd WIP-rndf-outlets;
#X obj 323 205 outlet;
#X obj 332 231 outlet;
#X obj 352 258 outlet;
#X obj 370 286 outlet;
#X obj 398 312 outlet;
#X obj 420 341 outlet;
#X obj 447 373 outlet;
#X obj 459 404 outlet;
#X obj 487 439 outlet;
#X obj 305 11 inlet;
#X obj 357 37 tgl 15 0 empty empty empty 17 7 0 10 -101786 -1 -1 0
1;
#X obj 323 90 spigot;
#X floatatom 316 37 3 0 0 0 - - -, f 3;
#X text 226 36 random follow:;
#X obj 357 60 t f b;
#X connect 0 0 2 0;
#X connect 1 0 16 0;
#X connect 2 0 3 0;
#X connect 3 0 5 0;
#X connect 3 1 6 0;
#X connect 3 2 7 0;
#X connect 3 3 8 0;
#X connect 3 4 9 0;
#X connect 3 5 10 0;
#X connect 3 6 11 0;
#X connect 3 7 12 0;
#X connect 3 8 13 0;
#X connect 14 0 1 0;
#X connect 15 0 19 0;
#X connect 16 0 0 0;
#X connect 17 0 0 1;
#X connect 19 0 16 1;
#X coords 0 -1 1 1 346 17 1 27 36;
#X restore 65 247 pd randomfollow;
#X obj 65 292 tr2f 1234;
#X obj 147 292 tr2f 1235;
#X text 19 9 This patch defines a sequence of tracks triggered after
another one. It can be either in a sequence \, i.e. one track after
another one finished \, or randomly triggered (currently up to 8).
;
#X text 274 121 The output of the first track is connected to the input
of the next one., f 26;
#X text 249 275 The output of each track is connected to the "randomizer"
\, which will trigger one of the tracks connected. The number defined
in the right field defines how many tracks to be randomized amongst.
, f 26;
#X connect 1 0 2 0;
#X connect 2 0 1 0;
#X connect 4 0 5 0;
#X connect 4 1 6 0;
#X connect 5 0 4 0;
#X connect 6 0 4 0;
#X restore 10 49 pd Help_examples;
#X coords 0 -1 1 1 347 17 2 122 49;
