#N canvas 98 412 569 524 12;
#X obj 43 60 import mrpeach;
#N canvas 137 96 823 350 OSCinput 0;
#X obj 72 50 routeOSC /track;
#X obj 98 96 f \$1;
#X obj 72 72 t a b;
#X obj 72 143 routeOSC /\$0;
#X msg 98 118 set /\$1;
#X obj 60 267 outlet;
#X obj 81 201 tgl 15 0 empty empty empty 17 7 0 10 -262144 -1 -1 0
1;
#X obj 81 227 s \$0-play-s;
#X obj 159 201 tgl 15 0 empty empty empty 17 7 0 10 -262144 -1 -1 0
1;
#X obj 159 227 s \$0-rec-s;
#X obj 229 226 s \$0-stop-s;
#X obj 229 201 bng 15 250 50 0 empty empty empty 17 7 0 10 -262144
-1 -1;
#X floatatom 308 202 5 0 0 0 - - -, f 5;
#X obj 308 226 s \$0-bars-s;
#X floatatom 387 201 5 0 0 0 - - -, f 5;
#X obj 387 225 s \$0-vol-s;
#X floatatom 460 200 5 0 0 0 - - -, f 5;
#X obj 460 224 s \$0-pan-s;
#X floatatom 536 199 5 0 0 0 - - -, f 5;
#X obj 536 223 s \$0-output-s;
#X obj 623 250 s \$0-name-s;
#X obj 624 201 tosymbol;
#X symbolatom 624 226 10 0 0 0 - - -, f 10;
#X obj 71 25 r fromdsp;
#X obj 81 177 routeOSC /play /rec /stop /bars /vol /pan /output /name
, f 87;
#X connect 0 0 2 0;
#X connect 1 0 4 0;
#X connect 2 0 3 0;
#X connect 2 1 1 0;
#X connect 3 0 5 0;
#X connect 3 0 24 0;
#X connect 4 0 3 0;
#X connect 6 0 7 0;
#X connect 8 0 9 0;
#X connect 11 0 10 0;
#X connect 12 0 13 0;
#X connect 14 0 15 0;
#X connect 16 0 17 0;
#X connect 18 0 19 0;
#X connect 21 0 22 0;
#X connect 22 0 20 0;
#X connect 23 0 0 0;
#X connect 24 0 6 0;
#X connect 24 1 8 0;
#X connect 24 2 11 0;
#X connect 24 3 12 0;
#X connect 24 4 14 0;
#X connect 24 5 16 0;
#X connect 24 6 18 0;
#X connect 24 7 21 0;
#X restore 212 39 pd OSCinput;
#N canvas 746 122 844 482 \$0-OSCoutput 0;
#X text 232 23 receive /playpause 1;
#X obj 123 57 t a b;
#X obj 150 81 \$1;
#X obj 123 145 list split 1;
#X obj 123 176 pack s s;
#X msg 123 201 \$2\$1;
#X msg 149 118 symbol /track/\$1;
#X obj 122 233 list append;
#X obj 122 258 list trim;
#X obj 123 23 r \$0-OSCoutput;
#X obj 114 352 s \$0-play-s;
#X obj 192 352 s \$0-rec-s;
#X obj 262 351 s \$0-stop-s;
#X obj 341 351 s \$0-bars-s;
#X obj 420 350 s \$0-vol-s;
#X obj 493 349 s \$0-pan-s;
#X obj 569 348 s \$0-output-s;
#X obj 656 375 s \$0-name-s;
#X obj 122 283 s todsp;
#X connect 1 0 3 0;
#X connect 1 1 2 0;
#X connect 2 0 6 0;
#X connect 3 0 4 0;
#X connect 3 1 7 1;
#X connect 4 0 5 0;
#X connect 5 0 7 0;
#X connect 6 0 4 1;
#X connect 7 0 8 0;
#X connect 8 0 18 0;
#X connect 9 0 1 0;
#X restore 212 71 pd \$0-OSCoutput;
#X obj 84 223 cnv 15 105 55 empty button_color-0 empty 0 0 0 10 -191407
-33289 0;
#N canvas 677 128 625 400 buttonUI 0;
#X msg 261 104 clear;
#X obj 216 23 inlet;
#X obj 216 48 select 0 1, f 60;
#X obj 30 65 tgl 15 0 empty empty cfg 0 5 0 10 -262144 -1 -1 0 1;
#X obj 216 73 t b b b, f 8;
#X obj 394 73 t b b b, f 8;
#X msg 439 100 clear;
#X obj 216 183 bng 15 250 50 0 empty empty empty 17 7 0 10 -262144
-1 -1;
#X obj 216 220 s buttonguibang-r;
#X obj 397 185 bng 15 250 50 0 empty empty empty 17 7 0 10 -262144
-1 -1;
#X msg 238 128 obj 30 60 buttonGUI \$1;
#X msg 416 125 obj 30 60 buttoncfg \$1;
#X obj 238 101 \$1;
#X obj 414 100 \$1;
#X obj 238 196 s pd-\$0-buttoncontent;
#N canvas 129 417 450 350 \$0-buttoncontent 0;
#X obj 30 60 buttonGUI 0;
#X coords 0 -1 1 1 104 41 2 30 60;
#X restore 27 24 pd \$0-buttoncontent;
#X obj 397 208 s initbang-buttoncfg-r;
#X obj 279 0 r \$0-loadnum;
#X msg 279 25 0;
#X connect 0 0 14 0;
#X connect 1 0 2 0;
#X connect 2 0 4 0;
#X connect 2 1 5 0;
#X connect 3 0 2 0;
#X connect 4 0 7 0;
#X connect 4 1 12 0;
#X connect 4 2 0 0;
#X connect 5 0 9 0;
#X connect 5 1 13 0;
#X connect 5 2 6 0;
#X connect 6 0 14 0;
#X connect 7 0 8 0;
#X connect 9 0 16 0;
#X connect 10 0 14 0;
#X connect 11 0 14 0;
#X connect 12 0 10 0;
#X connect 13 0 11 0;
#X connect 17 0 18 0;
#X connect 18 0 2 0;
#X coords 0 -1 1 1 104 58 1 27 23;
#X restore 84 223 pd buttonUI;
#X obj 122 258 hsl 58 16 0 127 0 0 empty slider_track-r empty -2 -9
0 10 -262144 -1 -1 0 0;
#N canvas 0 0 450 300 (subpatch) 0;
#X array grad0 32 float 2 black black;
#X coords 0 1 32 -1 57 14 1;
#X restore 125 259 graph;
#N canvas 438 112 450 725 trackconfig 0;
#X obj 4 13 cnv 15 164 174 empty empty empty 20 12 0 14 -233017 -66577
0;
#N canvas 219 54 551 688 initconfig 0;
#X obj 35 14 bng 15 250 50 0 empty 0-button-initbang-r initbang 17
7 0 10 -262144 -1 -1;
#X obj 35 34 \$1;
#X msg 203 113 receive \$1-trackstatus-r;
#X msg 203 88 send \$1-trackstatus-s;
#X msg 203 268 receive \$1-trackbars-r;
#X msg 203 220 send \$1-trackbars-s;
#X msg 203 241 2;
#X obj 373 142 s trackstatus-r;
#X obj 354 305 s trackbars-r;
#X msg 205 328 send \$1-trackvol-s;
#X msg 205 349 127;
#X msg 205 376 receive \$1-trackvol-r;
#X obj 369 399 s trackvol-r;
#X msg 202 415 send \$1-trackpan-s;
#X msg 203 436 63;
#X msg 203 463 receive \$1-trackpan-r;
#X obj 367 487 s trackpan-r;
#X msg 210 508 send \$1-trackoutput-s;
#X msg 211 556 receive \$1-trackoutput-r;
#X obj 375 580 s trackoutput-r;
#X msg 211 529 0;
#X obj 110 81 t f f;
#X obj 95 113 t f f f;
#X obj 80 188 t f f f;
#X obj 65 294 t f f f;
#X obj 50 395 t f f f;
#X obj 35 485 t f f f;
#X obj 35 57 t f f f f f f f;
#X obj 109 14 r button-initbang-s;
#X obj 369 193 tools/receiver;
#X msg 264 163 \$1-trackname-s;
#X symbolatom 369 218 10 0 0 0 - - -, f 10;
#X obj 369 242 s \$0-trackname-r;
#X msg 134 164 symbol \$1-Unnamed;
#X connect 1 0 27 0;
#X connect 2 0 7 0;
#X connect 3 0 7 0;
#X connect 4 0 8 0;
#X connect 5 0 8 0;
#X connect 6 0 8 0;
#X connect 9 0 12 0;
#X connect 10 0 12 0;
#X connect 11 0 12 0;
#X connect 13 0 16 0;
#X connect 14 0 16 0;
#X connect 15 0 16 0;
#X connect 17 0 19 0;
#X connect 18 0 19 0;
#X connect 20 0 19 0;
#X connect 21 0 2 0;
#X connect 21 1 3 0;
#X connect 22 0 33 0;
#X connect 22 2 30 0;
#X connect 23 0 4 0;
#X connect 23 1 6 0;
#X connect 23 2 5 0;
#X connect 24 0 11 0;
#X connect 24 1 10 0;
#X connect 24 2 9 0;
#X connect 25 0 15 0;
#X connect 25 1 14 0;
#X connect 25 2 13 0;
#X connect 26 0 18 0;
#X connect 26 1 20 0;
#X connect 26 2 17 0;
#X connect 27 0 26 0;
#X connect 27 1 25 0;
#X connect 27 2 24 0;
#X connect 27 3 23 0;
#X connect 27 4 22 0;
#X connect 27 5 21 0;
#X connect 29 0 31 0;
#X connect 30 0 29 0;
#X connect 31 0 32 0;
#X connect 33 0 31 0;
#X restore 264 49 pd initconfig;
#X symbolatom 101 55 10 0 0 0 #0-trackname - -, f 10;
#X obj 104 101 nbx 5 14 -1e+37 1e+37 0 0 \$0-volset-s \$0-volset-r
\$0-volset -75 5 0 10 -262144 -1 -1 127 256 0;
#X obj 105 78 nbx 5 14 -1e+37 1e+37 0 0 \$0-barsset-s \$0-barsset-r
\$0-barsset -84 4 0 10 -262144 -1 -1 2 256 0;
#X obj 105 125 nbx 5 14 -1e+37 1e+37 0 0 \$0-panset-s \$0-panset-r
\$0-panset -72 4 0 10 -262144 -1 -1 64 256 0;
#X obj 107 145 nbx 5 14 -1e+37 1e+37 0 0 \$0-outputset-s \$0-outputset-r
\$0-outputset -90 5 0 10 -262144 -1 -1 1 256 0;
#X obj 102 27 nbx 5 14 -1e+37 1e+37 0 0 \$0-statusset-s \$0-statusset-r
\$0-statusset -87 5 0 10 -262144 -1 -1 0 256 0;
#N canvas 562 28 780 714 outputforbutton 0;
#X obj 18 20 r \$0-loadnum;
#X msg 18 75 \$1 status;
#X msg 88 75 \$1 bars;
#X msg 159 74 \$1 vol;
#X msg 230 75 \$1 pan;
#X msg 301 74 \$1 output;
#X obj 18 172 tools/receiver;
#X obj 18 200 s;
#X msg 18 125 \$1-track\$2-s;
#X obj 88 296 tools/receiver;
#X obj 88 324 s;
#X obj 88 224 t a a;
#X msg 88 249 \$1-track\$2-s;
#X text 103 6 this patch converts all \$1 interfaces to the button's
\$0 sends/receives;
#X msg 372 74 \$1 play;
#X msg 443 74 \$1 rec;
#X msg 514 73 \$1 stop;
#X msg 585 73 \$1 sliderpos;
#X obj 159 412 tools/receiver;
#X obj 159 440 s;
#X obj 159 340 t a a;
#X msg 159 365 \$1-track\$2-s;
#X obj 18 47 t f f f f f f f f f, f 95;
#X obj 230 175 tools/receiver;
#X obj 230 203 s;
#X obj 230 103 t a a;
#X msg 230 128 \$1-track\$2-s;
#X obj 301 284 tools/receiver;
#X obj 301 312 s;
#X obj 301 212 t a a;
#X msg 301 237 \$1-track\$2-s;
#X obj 372 415 tools/receiver;
#X obj 372 443 s;
#X obj 372 343 t a a;
#X msg 372 368 \$1-track\$2-s;
#X obj 443 173 tools/receiver;
#X obj 443 201 s;
#X obj 443 101 t a a;
#X msg 443 126 \$1-track\$2-s;
#X obj 514 302 tools/receiver;
#X obj 514 330 s;
#X obj 514 230 t a a;
#X msg 514 255 \$1-track\$2-s;
#X obj 585 416 tools/receiver;
#X obj 585 444 s;
#X obj 585 344 t a a;
#X msg 585 369 \$1-track\$2-s;
#X obj 42 498 r \$0-trackstatus;
#X obj 42 561 s;
#X obj 18 100 t a a a;
#X msg 37 149 symbol \$0-trackstatus;
#X msg 115 273 symbol \$0-bars;
#X msg 186 389 symbol \$0-vol;
#X msg 257 152 symbol \$0-pan;
#X msg 328 261 symbol \$0-output;
#X msg 399 392 symbol \$0-play;
#X msg 470 150 symbol \$0-rec;
#X msg 541 279 symbol \$0-stop;
#X msg 612 393 symbol \$0-sliderpos;
#X msg 57 527 symbol \$1-track\$2-r;
#X connect 1 0 49 0;
#X connect 2 0 11 0;
#X connect 3 0 20 0;
#X connect 4 0 25 0;
#X connect 5 0 29 0;
#X connect 6 0 7 0;
#X connect 8 0 6 0;
#X connect 9 0 10 0;
#X connect 11 0 12 0;
#X connect 11 1 51 0;
#X connect 12 0 9 0;
#X connect 14 0 33 0;
#X connect 15 0 37 0;
#X connect 16 0 41 0;
#X connect 17 0 45 0;
#X connect 18 0 19 0;
#X connect 20 0 21 0;
#X connect 20 1 52 0;
#X connect 21 0 18 0;
#X connect 22 0 1 0;
#X connect 22 1 2 0;
#X connect 22 2 3 0;
#X connect 22 3 4 0;
#X connect 22 4 5 0;
#X connect 22 5 14 0;
#X connect 22 6 15 0;
#X connect 22 7 16 0;
#X connect 22 8 17 0;
#X connect 23 0 24 0;
#X connect 25 0 26 0;
#X connect 25 1 53 0;
#X connect 26 0 23 0;
#X connect 27 0 28 0;
#X connect 29 0 30 0;
#X connect 29 1 54 0;
#X connect 30 0 27 0;
#X connect 31 0 32 0;
#X connect 33 0 34 0;
#X connect 33 1 55 0;
#X connect 34 0 31 0;
#X connect 35 0 36 0;
#X connect 37 0 38 0;
#X connect 37 1 56 0;
#X connect 38 0 35 0;
#X connect 39 0 40 0;
#X connect 41 0 42 0;
#X connect 41 1 57 0;
#X connect 42 0 39 0;
#X connect 43 0 44 0;
#X connect 45 0 46 0;
#X connect 45 1 58 0;
#X connect 46 0 43 0;
#X connect 47 0 48 0;
#X connect 49 0 8 0;
#X connect 49 1 50 0;
#X connect 49 2 59 0;
#X connect 50 0 7 1;
#X connect 51 0 10 1;
#X connect 52 0 19 1;
#X connect 53 0 24 1;
#X connect 54 0 28 1;
#X connect 55 0 32 1;
#X connect 56 0 36 1;
#X connect 57 0 40 1;
#X connect 58 0 44 1;
#X connect 59 0 48 1;
#X restore 267 77 pd outputforbutton;
#X obj 107 167 nbx 5 14 -1e+37 1e+37 0 0 tracksliderpos-s tracksliderpos-r
tracksliderpos -88 5 0 10 -262144 -1 -1 0 256 0;
#X text 30 201 receive a /getall message from ui and send a bundle
of the config parameters, f 26;
#X obj 49 244 r \$0-getall-s;
#X obj 49 269 bng 15 250 50 0 empty empty empty 17 7 0 10 -262144 -1
-1;
#X obj 49 291 t b b b b b b b b b, f 21;
#X msg 159 338 /status \$1;
#X msg 140 383 /name \$1;
#X msg 113 481 /vol \$1;
#X msg 127 434 /bars \$1;
#X obj 30 642 s \$0-OSCoutput;
#X msg 108 529 /pan \$1;
#X msg 82 579 /output \$1;
#X msg 160 618 /sliderpos \$1;
#X obj 284 244 r \$0-status-s;
#X obj 283 296 r \$0-name-s;
#X msg 211 362 set \$1;
#X obj 287 353 r \$0-bars-s;
#X obj 288 408 r \$0-vol-s;
#X obj 289 459 r \$0-pan-s;
#X obj 290 513 r \$0-output-s;
#X floatatom 165 316 5 0 0 0 - - -, f 5;
#X symbolatom 141 362 10 0 0 0 - - -, f 10;
#X msg 166 409 set \$1;
#X floatatom 127 410 5 0 0 0 - - -, f 5;
#X msg 154 456 set \$1;
#X floatatom 113 457 5 0 0 0 - - -, f 5;
#X msg 152 506 set \$1;
#X floatatom 109 507 5 0 0 0 - - -, f 5;
#X msg 125 556 set \$1;
#X floatatom 83 557 5 0 0 0 - - -, f 5;
#X text 262 22 probably obsolete:;
#X obj 284 267 s \$0-statusset-r;
#N canvas 843 308 630 511 initvalues 0;
#X obj 118 22 bng 15 250 50 0 empty empty empty 17 7 0 10 -262144 -1
-1;
#X obj 119 1 r \$0-loadnum;
#X msg 118 46 /getall;
#X obj 118 75 s \$0-OSCoutput;
#X connect 0 0 2 0;
#X connect 1 0 0 0;
#X connect 2 0 3 0;
#X restore 267 165 pd initvalues;
#X text 268 138 valid:;
#X text 282 213 input from DSP;
#X connect 2 0 24 0;
#X connect 3 0 33 0;
#X connect 4 0 31 0;
#X connect 5 0 35 0;
#X connect 6 0 37 0;
#X connect 7 0 29 0;
#X connect 11 0 12 0;
#X connect 12 0 13 0;
#X connect 13 2 38 0;
#X connect 13 3 36 0;
#X connect 13 4 34 0;
#X connect 13 5 32 0;
#X connect 13 6 30 0;
#X connect 13 7 29 0;
#X connect 14 0 18 0;
#X connect 15 0 18 0;
#X connect 16 0 18 0;
#X connect 17 0 18 0;
#X connect 19 0 18 0;
#X connect 20 0 18 0;
#X connect 21 0 18 0;
#X connect 22 0 40 0;
#X connect 23 0 2 0;
#X connect 24 0 30 0;
#X connect 25 0 4 0;
#X connect 26 0 3 0;
#X connect 27 0 5 0;
#X connect 28 0 6 0;
#X connect 29 0 14 0;
#X connect 30 0 15 0;
#X connect 31 0 32 0;
#X connect 32 0 17 0;
#X connect 33 0 34 0;
#X connect 34 0 16 0;
#X connect 35 0 36 0;
#X connect 36 0 19 0;
#X connect 37 0 38 0;
#X connect 38 0 20 0;
#X restore 79 145 pd trackconfig;
#N canvas 675 444 450 325 initialize 0;
#X obj 147 14 bng 15 250 50 0 \$0-trackui-initbang-s \$0-trackui-initbang-r
\$0-trackui-initbang 17 7 0 10 -262144 -1 -1;
#X obj 147 38 \$1;
#X obj 147 209 s \$0-loadnum;
#X obj 147 72 t f f f f f;
#X msg 165 148 receive \$1-trackui-initbang;
#X msg 184 120 label \$1-trackui-initbang;
#X obj 164 180 s \$0-trackui-initbang;
#X connect 0 0 1 0;
#X connect 1 0 3 0;
#X connect 3 0 2 0;
#X connect 3 1 4 0;
#X connect 3 2 5 0;
#X connect 4 0 6 0;
#X connect 5 0 6 0;
#X restore 336 38 pd initialize;
