#N canvas 23 46 960 850 12;
#X obj 99 19 import mrpeach;
#N canvas 62 339 844 507 \$0-OSCoutput 0;
#X text 232 23 receive /playpause 1;
#X obj 123 57 t a b;
#X obj 150 81 \$1;
#X obj 123 145 list split 1;
#X obj 123 176 pack s s;
#X msg 123 201 \$2\$1;
#X msg 149 118 symbol /track/\$1;
#X obj 122 233 list append;
#X obj 122 258 list trim;
#X obj 123 23 r \$0-OSCoutput;
#X obj 122 283 s todsp;
#X connect 1 0 3 0;
#X connect 1 1 2 0;
#X connect 2 0 6 0;
#X connect 3 0 4 0;
#X connect 3 1 7 1;
#X connect 4 0 5 0;
#X connect 5 0 7 0;
#X connect 6 0 4 1;
#X connect 7 0 8 0;
#X connect 8 0 10 0;
#X connect 9 0 1 0;
#X restore 99 77 pd \$0-OSCoutput;
#X obj 84 223 cnv 15 105 55 empty button_color-0 empty 0 0 0 10 -191407
-33289 0;
#X obj 124 245 hsl 58 16 0 127 0 0 \$0-slider-s \$0-slider-r empty
-2 -9 0 10 -262144 -1 -1 0 0;
#N canvas 0 0 450 300 (subpatch) 0;
#X array grad0 32 float 2 black black;
#X coords 0 1 32 -1 57 14 1;
#X restore 127 243 graph;
#N canvas 474 84 1088 812 trackconfig 0;
#X obj 220 210 cnv 15 181 246 empty empty empty 20 12 0 14 -233017
-66577 0;
#X symbolatom 323 260 10 0 0 0 #0-nameset #0-nameset-r #0-nameset-s
, f 10;
#X obj 323 302 nbx 5 14 -1e+37 1e+37 0 0 \$0-volset-s \$0-volset-r
\$0-volset -75 5 0 10 -262144 -1 -1 0 256 0;
#X obj 323 284 nbx 5 14 -1e+37 1e+37 0 0 \$0-barsset-s \$0-barsset-r
\$0-barsset -84 4 0 10 -262144 -1 -1 0 256 0;
#X obj 323 321 nbx 5 14 -1e+37 1e+37 0 0 \$0-panset-s \$0-panset-r
\$0-panset -72 4 0 10 -262144 -1 -1 0 256 0;
#X obj 323 340 nbx 5 14 -1e+37 1e+37 0 0 \$0-outputset-s \$0-outputset-r
\$0-outputset -90 5 0 10 -262144 -1 -1 0 256 0;
#X obj 323 240 nbx 5 14 -1e+37 1e+37 0 0 \$0-statusset-s \$0-statusset-r
\$0-statusset -87 5 0 10 -262144 -1 -1 0 256 0;
#X obj 323 358 nbx 5 14 -1e+37 1e+37 0 0 tracksliderpos-s tracksliderpos-r
tracksliderpos -88 5 0 10 -262144 -1 -1 0 256 0;
#N canvas 772 314 630 561 initvalues 0;
#X obj 118 22 bng 15 250 50 0 empty empty empty 17 7 0 10 -262144 -1
-1;
#X obj 119 1 r \$0-loadnum;
#X msg 118 46 /getall;
#X obj 118 75 s \$0-OSCoutput;
#X connect 0 0 2 0;
#X connect 1 0 0 0;
#X connect 2 0 3 0;
#X restore 480 7 pd initvalues;
#X text 481 -20 valid:;
#X text 214 86 input from DSP;
#X obj 419 210 cnv 15 222 195 empty empty empty 20 12 0 14 -233017
-66577 0;
#X symbolatom 565 232 10 0 0 0 #0-namechange #0-namechange-r #0-namechange-s
, f 10;
#X obj 565 278 nbx 5 14 -1e+37 1e+37 0 0 \$0-volchange-s \$0-volchange-r
\$0-volchange -88 4 0 10 -262144 -1 -1 0 256 0;
#X obj 565 255 nbx 5 14 -1e+37 1e+37 0 0 \$0-barschange-s \$0-barschange-r
\$0-barschange -95 4 0 10 -262144 -1 -1 0 256 0;
#X obj 565 302 nbx 5 14 -1e+37 1e+37 0 0 \$0-panchange-s \$0-panchange-r
\$0-panchange -88 3 0 10 -262144 -1 -1 0 256 0;
#X obj 565 322 nbx 5 14 -1e+37 1e+37 0 0 \$0-outputchange-s \$0-outputchange-r
\$0-outputchange -107 3 0 10 -262144 -1 -1 0 256 0;
#X msg 329 511 set \$1;
#X msg 325 558 set \$1;
#X msg 325 587 set \$1;
#X msg 325 616 set \$1;
#X msg 325 647 set \$1;
#X obj 72 -8 routeOSC /track;
#X obj 98 38 f \$1;
#X obj 72 14 t a b;
#X obj 72 85 routeOSC /\$0;
#X msg 98 60 set /\$1;
#X obj 60 209 outlet;
#X obj 205 143 bng 15 250 50 0 empty empty empty 17 7 0 10 -262144
-1 -1;
#X floatatom 266 144 5 0 0 0 - - -, f 5;
#X floatatom 327 143 5 0 0 0 - - -, f 5;
#X floatatom 390 142 5 0 0 0 - - -, f 5;
#X floatatom 452 141 5 0 0 0 - - -, f 5;
#X obj 514 143 tosymbol;
#X obj 71 -33 r fromdsp;
#X floatatom 576 144 5 0 0 0 - - -, f 5;
#X text 813 245 GUI envoie play/rec and receives status, f 22;
#X obj 565 384 bng 15 250 50 0 \$0-stopchange-s \$0-stopchange-r \$0-stopchange
-95 3 0 10 -262144 -1 -1;
#X msg 669 486 /output \$1;
#X msg 669 459 /pan \$1;
#X msg 669 435 /vol \$1;
#X msg 669 411 /bars \$1;
#X msg 669 383 /name \$1;
#X msg 669 513 /play \$1;
#X msg 669 542 /rec \$1;
#X obj 669 616 s \$0-OSCoutput;
#X text 473 210 Values changed in UI;
#X text 246 211 Values set in DSP;
#X obj 323 414 bng 15 250 50 0 \$0-stopset-s \$0-stopset-r \$0-stopset
-95 3 0 10 -262144 -1 -1;
#X obj 514 185 s \$0-nameset-r;
#X obj 328 489 r \$0-nameset-s;
#X floatatom 81 146 5 0 0 0 - - -, f 5;
#X floatatom 142 146 5 0 0 0 - - -, f 5;
#X obj 323 377 nbx 5 14 -1e+37 1e+37 0 0 \$0-playset-s \$0-playset-r
\$0-playset -78 5 0 10 -262144 -1 -1 0 256 0;
#X obj 321 396 nbx 5 14 -1e+37 1e+37 0 0 \$0-recset-s \$0-recset-r
\$0-recset -78 5 0 10 -262144 -1 -1 0 256 0;
#X obj 564 341 nbx 5 14 -1e+37 1e+37 0 0 \$0-playchange-s \$0-playchange-r
\$0-playchange -94 3 0 10 -262144 -1 -1 0 256 0;
#X obj 563 361 nbx 5 14 -1e+37 1e+37 0 0 \$0-recchange-s \$0-recchange-r
\$0-recchange -90 3 0 10 -262144 -1 -1 0 256 0;
#X msg 669 571 /stop;
#X obj 669 356 r \$0-namechange-s;
#X obj 325 535 s \$0-namechange-r;
#N canvas 1139 455 450 325 \$0-getall 0;
#X obj 86 24 r \$0-getall;
#X msg 86 53 /getall;
#X obj 86 82 s \$0-OSCoutput;
#X connect 0 0 1 0;
#X connect 1 0 2 0;
#X restore 480 36 pd \$0-getall;
#X msg 514 167 set \$1;
#X msg 267 169 set \$1;
#X msg 392 165 set \$1;
#X msg 450 165 set \$1;
#X msg 136 349 set \$1;
#X msg 325 170 set \$1;
#X obj 81 119 routeOSC /play /rec /stop /bars /vol /pan /output /name
/status /phasorfreq, f 89;
#X floatatom 638 144 5 0 0 0 - - -, f 5;
#X obj 322 436 nbx 5 14 -1e+37 1e+37 0 0 \$0-phasorfreqset-s \$0-phasorfreqset-r
\$0-phasorfreqset -102 5 0 10 -262144 -1 -1 0 256 0;
#X connect 2 0 19 0;
#X connect 3 0 18 0;
#X connect 4 0 20 0;
#X connect 5 0 21 0;
#X connect 13 0 40 0;
#X connect 14 0 41 0;
#X connect 15 0 39 0;
#X connect 16 0 38 0;
#X connect 17 0 59 0;
#X connect 18 0 14 0;
#X connect 19 0 13 0;
#X connect 20 0 15 0;
#X connect 21 0 16 0;
#X connect 22 0 24 0;
#X connect 23 0 26 0;
#X connect 24 0 25 0;
#X connect 24 1 23 0;
#X connect 25 0 27 0;
#X connect 25 0 67 0;
#X connect 26 0 25 0;
#X connect 28 0 48 0;
#X connect 29 0 62 0;
#X connect 30 0 66 0;
#X connect 31 0 63 0;
#X connect 32 0 64 0;
#X connect 33 0 61 0;
#X connect 34 0 22 0;
#X connect 35 0 6 0;
#X connect 37 0 57 0;
#X connect 38 0 45 0;
#X connect 39 0 45 0;
#X connect 40 0 45 0;
#X connect 41 0 45 0;
#X connect 42 0 45 0;
#X connect 43 0 45 0;
#X connect 44 0 45 0;
#X connect 50 0 17 0;
#X connect 51 0 53 0;
#X connect 52 0 54 0;
#X connect 55 0 43 0;
#X connect 56 0 44 0;
#X connect 57 0 45 0;
#X connect 58 0 42 0;
#X connect 61 0 49 0;
#X connect 62 0 3 0;
#X connect 63 0 4 0;
#X connect 64 0 5 0;
#X connect 66 0 2 0;
#X connect 67 0 51 0;
#X connect 67 1 52 0;
#X connect 67 2 28 0;
#X connect 67 3 29 0;
#X connect 67 4 30 0;
#X connect 67 5 31 0;
#X connect 67 6 32 0;
#X connect 67 7 33 0;
#X connect 67 8 35 0;
#X connect 67 9 68 0;
#X connect 68 0 69 0;
#X coords 0 -1 1 1 427 250 2 218 209;
#X restore 513 20 pd trackconfig;
#N canvas 439 460 450 350 initialize 0;
#X obj 147 14 bng 15 250 50 0 trackui-initbang-s trackui-initbang-r
trackui-initbang 17 7 0 10 -262144 -1 -1;
#X obj 147 38 \$1;
#X obj 184 179 s \$0-loadnum;
#X obj 147 72 t f f f f f;
#X msg 221 102 label \$1-trackui-initbang;
#X obj 201 154 s trackui-initbang-r;
#X msg 202 127 receive \$1-trackui-initbang-r;
#X connect 0 0 1 0;
#X connect 1 0 3 0;
#X connect 3 2 2 0;
#X connect 3 3 6 0;
#X connect 3 4 4 0;
#X connect 4 0 5 0;
#X connect 6 0 5 0;
#X restore 99 48 pd initialize;
#X obj 85 245 tgl 15 0 empty empty cfg 0 5 0 10 -262144 -1 -1 0 1;
#X msg 417 311 0;
#N canvas 143 204 450 475 \$0-buttoncontent 0;
#X obj 30 60 buttonGUI 0;
#X coords 0 -1 1 1 86 41 2 30 60;
#X restore 102 225 pd \$0-buttoncontent;
#X text 292 20 buttonGUI only to send changes to trackconfig \, not
directly to DSP, f 29;
#X obj 416 275 r \$0-loadnum;
#N canvas 5 24 689 897 set_buttoncontent 1;
#X obj 42 30 inlet;
#X text 93 31 cfg or UI;
#X obj 42 64 select 0 1, f 87;
#X obj 391 121 t b b b, f 8;
#X msg 443 148 clear;
#X obj 394 233 bng 15 250 50 0 empty empty empty 17 7 0 10 -262144
-1 -1;
#X msg 413 173 obj 30 60 buttoncfg \$1;
#X obj 411 148 \$1;
#X obj 394 256 s initbang-buttoncfg-r;
#X msg 150 155 clear;
#X obj 73 207 bng 15 250 50 0 empty empty empty 17 7 0 10 -262144 -1
-1;
#X obj 73 244 s buttonguibang-r;
#X msg 107 183 obj 30 60 buttonGUI \$1;
#X obj 114 156 \$1;
#X obj 107 215 s pd-\$0-buttoncontent;
#X obj 73 128 t b b b b, f 11;
#X obj 413 206 s pd-\$0-buttoncontent;
#N canvas 1111 136 450 673 from\$0toUI 0;
#X obj 29 49 t b b b b b;
#X obj 100 138 s \$0-playset-r;
#X obj 99 164 r \$0-playset-s;
#X obj 99 214 s;
#X obj 77 320 s;
#X obj 78 244 s \$0-recset-r;
#X obj 77 270 r \$0-recset-s;
#X obj 103 76 \$1;
#X obj 45 432 s;
#X obj 28 17 inlet;
#X msg 117 189 symbol \$1-playUI-r;
#X msg 95 295 symbol \$1-recUI-r;
#X obj 28 571 s;
#X obj 29 465 s \$0-nameset-r;
#X obj 28 491 r \$0-nameset-s;
#X obj 103 101 t f f f f;
#X msg 28 519 label \$1;
#X obj 46 356 s \$0-stopset-r;
#X obj 45 382 r \$0-stopset-s;
#X msg 63 407 symbol \$1-stopUI-r;
#X text 186 376 import stop status from GUI?;
#X obj 184 506 print labelnew;
#X msg 46 546 symbol \$1-nameUI-r;
#X connect 0 0 13 0;
#X connect 0 2 5 0;
#X connect 0 3 1 0;
#X connect 0 4 7 0;
#X connect 2 0 3 0;
#X connect 6 0 4 0;
#X connect 7 0 15 0;
#X connect 9 0 0 0;
#X connect 10 0 3 1;
#X connect 11 0 4 1;
#X connect 14 0 16 0;
#X connect 15 1 11 0;
#X connect 15 2 10 0;
#X connect 15 3 22 0;
#X connect 16 0 12 0;
#X connect 16 0 21 0;
#X connect 18 0 8 0;
#X connect 19 0 8 1;
#X connect 22 0 12 1;
#X restore 48 288 pd from\$0toUI;
#N canvas 596 49 450 598 fromUIto\$0 0;
#X obj 103 76 \$1;
#X obj 103 101 t f f f;
#X obj 28 17 inlet;
#X obj 151 181 tools/receiver;
#X msg 149 138 \$1-playUI-s;
#X obj 151 210 s \$0-playchange-r;
#X obj 135 286 tools/receiver;
#X msg 133 243 \$1-recUI-s;
#X obj 135 315 s \$0-recchange-r;
#X obj 109 384 tools/receiver;
#X msg 107 350 \$1-stopUI-s;
#X obj 109 413 s \$0-stopchange-r;
#X connect 0 0 1 0;
#X connect 1 0 10 0;
#X connect 1 1 7 0;
#X connect 2 0 0 0;
#X connect 4 0 3 0;
#X connect 6 0 8 0;
#X connect 7 0 6 0;
#X connect 9 0 11 0;
#X connect 10 0 9 0;
#X restore 40 334 pd fromUIto\$0;
#X obj 42 97 t b b b;
#N canvas 507 165 450 723 from\$0tocfg 1;
#X obj 99 214 s;
#X obj 77 320 s;
#X obj 118 76 \$1;
#X obj 45 636 s;
#X obj 28 17 inlet;
#X obj 28 775 s;
#X obj 29 669 s \$0-nameset-r;
#X obj 28 695 r \$0-nameset-s;
#X obj 29 49 t b b b b b b;
#X obj 100 138 s \$0-volset-r;
#X obj 99 164 r \$0-volset-s;
#X msg 117 189 symbol \$1-volcfg-r;
#X obj 78 243 s \$0-panset-r;
#X obj 77 270 r \$0-panset-s;
#X msg 95 295 symbol \$1-pancfg-r;
#X msg 46 750 symbol \$1-namecfg-r;
#X obj 46 530 s \$0-outputset-r;
#X obj 45 556 r \$0-outputset-s;
#X msg 63 611 symbol \$1-outputcfg-r;
#X obj 61 451 s;
#X obj 62 375 s \$0-barsset-r;
#X obj 61 401 r \$0-barsset-s;
#X msg 79 426 symbol \$1-barscfg-r;
#X obj 103 19 bng 15 250 50 0 empty empty empty 17 7 0 10 -262144 -1
-1;
#X obj 118 101 t f f f f f;
#X msg 28 723 symbol \$1;
#X msg 45 584 \$1;
#X msg 198 569 3;
#X connect 2 0 24 0;
#X connect 4 0 8 0;
#X connect 7 0 25 0;
#X connect 8 0 9 0;
#X connect 8 1 16 0;
#X connect 8 2 20 0;
#X connect 8 3 12 0;
#X connect 8 4 6 0;
#X connect 8 5 2 0;
#X connect 10 0 0 0;
#X connect 11 0 0 1;
#X connect 13 0 1 0;
#X connect 14 0 1 1;
#X connect 15 0 5 1;
#X connect 17 0 26 0;
#X connect 18 0 3 1;
#X connect 21 0 19 0;
#X connect 22 0 19 1;
#X connect 23 0 8 0;
#X connect 24 0 11 0;
#X connect 24 1 14 0;
#X connect 24 2 22 0;
#X connect 24 3 18 0;
#X connect 24 4 15 0;
#X connect 25 0 5 0;
#X connect 26 0 3 0;
#X connect 27 0 3 0;
#X restore 370 290 pd from\$0tocfg;
#X obj 345 93 t b b b;
#N canvas 118 202 450 648 fromcfgto\$0 0;
#X obj 103 76 \$1;
#X obj 28 17 inlet;
#X obj 141 331 tools/receiver;
#X obj 125 456 tools/receiver;
#X obj 99 554 tools/receiver;
#X obj 103 101 t f f f f f;
#X obj 174 161 tools/receiver;
#X msg 174 135 \$1-volcfg-s;
#X obj 174 188 s \$0-volchange-r;
#X obj 161 242 tools/receiver;
#X msg 161 216 \$1-pancfg-s;
#X obj 161 269 s \$0-panchange-r;
#X msg 141 303 \$1-namecfg-s;
#X obj 140 386 s \$0-namechange-r;
#X msg 123 426 \$1-outputcfg-s;
#X obj 125 485 s \$0-outputchange-r;
#X msg 97 520 \$1-barscfg-s;
#X obj 99 583 s \$0-barschange-r;
#X msg 141 360 symbol \$1;
#X obj 79 582 bng 15 250 50 0 empty empty empty 17 7 0 10 -262144 -1
-1;
#X connect 0 0 5 0;
#X connect 1 0 0 0;
#X connect 2 0 18 0;
#X connect 3 0 15 0;
#X connect 4 0 17 0;
#X connect 4 0 19 0;
#X connect 5 0 16 0;
#X connect 5 1 14 0;
#X connect 5 2 12 0;
#X connect 5 3 10 0;
#X connect 5 4 7 0;
#X connect 6 0 8 0;
#X connect 7 0 6 0;
#X connect 9 0 11 0;
#X connect 10 0 9 0;
#X connect 12 0 2 0;
#X connect 14 0 3 0;
#X connect 16 0 4 0;
#X connect 18 0 13 0;
#X restore 349 337 pd fromcfgto\$0;
#X connect 0 0 2 0;
#X connect 2 0 19 0;
#X connect 2 1 21 0;
#X connect 3 0 5 0;
#X connect 3 1 7 0;
#X connect 3 2 4 0;
#X connect 4 0 16 0;
#X connect 5 0 8 0;
#X connect 6 0 16 0;
#X connect 7 0 6 0;
#X connect 9 0 14 0;
#X connect 10 0 11 0;
#X connect 12 0 14 0;
#X connect 13 0 12 0;
#X connect 15 1 10 0;
#X connect 15 2 13 0;
#X connect 15 3 9 0;
#X connect 19 0 18 0;
#X connect 19 1 17 0;
#X connect 19 2 15 0;
#X connect 21 0 22 0;
#X connect 21 1 20 0;
#X connect 21 2 3 0;
#X restore 393 354 pd set_buttoncontent;
#X obj 84 226 tgl 16 0 \$0-playUI-s \$0-playUI-r P 4 6 0 10 -262144
-1 -1 0 1;
#X obj 624 330 r \$0-playUI-s;
#X obj 767 405 s \$0-playUI-r;
#X msg 624 355 \$1;
#X floatatom 624 381 5 0 0 0 - - -, f 5;
#X msg 767 356 \$1;
#X floatatom 767 380 5 0 0 0 - - -, f 5;
#X obj 624 405 s \$0-playchange-r;
#X obj 767 330 r \$0-playset-s;
#N canvas 321 188 450 466 slider 0;
#X floatatom 131 365 5 0 0 0 - - -, f 5;
#X obj 37 73 select 0, f 14;
#X obj 132 98 t b b f, f 12;
#X msg 99 127 stop;
#X obj 37 4 r \$0-phasorfreqset-s;
#X floatatom 37 33 5 0 0 0 - - -, f 5;
#X floatatom 213 124 5 0 0 0 - - -, f 5;
#X obj 132 272 metro;
#X obj 213 152 pow -1;
#X text 269 153 duration_s;
#X obj 213 181 * 1000;
#X obj 213 210 / 127;
#X floatatom 213 239 5 0 0 0 - - -, f 5;
#X obj 132 301 f 0;
#X obj 163 302 + 1;
#X obj 132 330 mod 127;
#X obj 37 99 t 0 0 b, f 11;
#X obj 131 393 s \$0-slider-r;
#X connect 0 0 17 0;
#X connect 1 0 16 0;
#X connect 1 1 2 0;
#X connect 2 0 7 0;
#X connect 2 2 6 0;
#X connect 3 0 7 0;
#X connect 4 0 5 0;
#X connect 5 0 1 0;
#X connect 6 0 8 0;
#X connect 7 0 13 0;
#X connect 8 0 10 0;
#X connect 10 0 11 0;
#X connect 11 0 12 0;
#X connect 12 0 7 1;
#X connect 13 0 14 0;
#X connect 13 0 15 0;
#X connect 14 0 13 1;
#X connect 15 0 0 0;
#X connect 16 0 0 0;
#X connect 16 1 13 0;
#X connect 16 2 3 0;
#X restore 99 108 pd slider;
#X msg 574 495 0.142;
#X obj 574 524 s \$0-phasorfreqset-r;
#X msg 622 489 0;
#X connect 7 0 12 0;
#X connect 8 0 12 0;
#X connect 11 0 8 0;
#X connect 14 0 16 0;
#X connect 16 0 17 0;
#X connect 17 0 20 0;
#X connect 18 0 19 0;
#X connect 19 0 15 0;
#X connect 21 0 18 0;
#X connect 23 0 24 0;
#X connect 25 0 24 0;
#X coords 0 -1 1 1 110 58 2 81 223;
