#N canvas 256 24 960 718 12;
#X obj 99 19 import mrpeach;
#N canvas 62 339 844 507 \$0-OSCoutput 0;
#X text 232 23 receive /playpause 1;
#X obj 123 57 t a b;
#X obj 150 81 \$1;
#X obj 123 145 list split 1;
#X obj 123 176 pack s s;
#X msg 123 201 \$2\$1;
#X msg 149 118 symbol /track/\$1;
#X obj 122 233 list append;
#X obj 122 258 list trim;
#X obj 123 23 r \$0-OSCoutput;
#X obj 122 283 s todsp;
#X connect 1 0 3 0;
#X connect 1 1 2 0;
#X connect 2 0 6 0;
#X connect 3 0 4 0;
#X connect 3 1 7 1;
#X connect 4 0 5 0;
#X connect 5 0 7 0;
#X connect 6 0 4 1;
#X connect 7 0 8 0;
#X connect 8 0 10 0;
#X connect 9 0 1 0;
#X restore 99 77 pd \$0-OSCoutput;
#X obj 81 223 cnv 15 110 58 empty \$0-trackbackgd-r empty 0 0 0 10
-260818 -33289 0;
#X obj 124 245 hsl 58 16 0 127 0 0 \$0-slider-s \$0-slider-r empty
-2 -9 0 10 -262144 -1 -1 0 0;
#N canvas 0 0 450 300 (subpatch) 0;
#X array grad\$0 32 float 2 black black;
#X coords 0 1 32 0 57 20 1;
#X restore 127 244 graph;
#N canvas 474 84 1088 812 trackconfig 0;
#X obj 220 210 cnv 15 181 246 empty empty empty 20 12 0 14 -233017
-66577 0;
#X symbolatom 323 260 10 0 0 0 #0-nameset #0-nameset-r #0-nameset-s
, f 10;
#X obj 323 302 nbx 5 14 -1e+37 1e+37 0 0 \$0-volset-s \$0-volset-r
\$0-volset -75 5 0 10 -262144 -1 -1 0 256 0;
#X obj 323 284 nbx 5 14 -1e+37 1e+37 0 0 \$0-barsset-s \$0-barsset-r
\$0-barsset -84 4 0 10 -262144 -1 -1 0 256 0;
#X obj 323 321 nbx 5 14 -1e+37 1e+37 0 0 \$0-panset-s \$0-panset-r
\$0-panset -72 4 0 10 -262144 -1 -1 0 256 0;
#X obj 323 340 nbx 5 14 -1e+37 1e+37 0 0 \$0-outputset-s \$0-outputset-r
\$0-outputset -90 5 0 10 -262144 -1 -1 0 256 0;
#X obj 323 240 nbx 5 14 -1e+37 1e+37 0 0 \$0-statusset-s \$0-statusset-r
\$0-statusset -87 5 0 10 -262144 -1 -1 0 256 0;
#X obj 323 358 nbx 5 14 -1e+37 1e+37 0 0 tracksliderpos-s tracksliderpos-r
tracksliderpos -88 5 0 10 -262144 -1 -1 0 256 0;
#X text 481 -20 valid:;
#X text 214 86 input from DSP;
#X obj 419 210 cnv 15 222 195 empty empty empty 20 12 0 14 -233017
-66577 0;
#X symbolatom 565 232 10 0 0 0 #0-namechange #0-namechange-r #0-namechange-s
, f 10;
#X obj 565 278 nbx 5 14 -1e+37 1e+37 0 0 \$0-volchange-s \$0-volchange-r
\$0-volchange -88 4 0 10 -262144 -1 -1 0 256 0;
#X obj 565 255 nbx 5 14 -1e+37 1e+37 0 0 \$0-barschange-s \$0-barschange-r
\$0-barschange -95 4 0 10 -262144 -1 -1 0 256 0;
#X obj 565 302 nbx 5 14 -1e+37 1e+37 0 0 \$0-panchange-s \$0-panchange-r
\$0-panchange -88 3 0 10 -262144 -1 -1 0 256 0;
#X obj 565 322 nbx 5 14 -1e+37 1e+37 0 0 \$0-outputchange-s \$0-outputchange-r
\$0-outputchange -107 3 0 10 -262144 -1 -1 0 256 0;
#X msg 329 511 set \$1;
#X msg 325 558 set \$1;
#X msg 325 587 set \$1;
#X msg 325 616 set \$1;
#X msg 325 647 set \$1;
#X obj 72 -8 routeOSC /track;
#X obj 98 38 f \$1;
#X obj 72 14 t a b;
#X obj 72 85 routeOSC /\$0;
#X msg 98 60 set /\$1;
#X obj 60 209 outlet;
#X obj 205 143 bng 15 250 50 0 empty empty empty 17 7 0 10 -262144
-1 -1;
#X floatatom 266 144 5 0 0 0 - - -, f 5;
#X floatatom 327 143 5 0 0 0 - - -, f 5;
#X floatatom 390 142 5 0 0 0 - - -, f 5;
#X floatatom 452 141 5 0 0 0 - - -, f 5;
#X obj 514 143 tosymbol;
#X obj 71 -33 r fromdsp;
#X floatatom 576 144 5 0 0 0 - - -, f 5;
#X text 813 245 GUI envoie play/rec and receives status, f 22;
#X obj 565 384 bng 15 250 50 0 \$0-stopchange-s \$0-stopchange-r \$0-stopchange
-95 3 0 10 -262144 -1 -1;
#X msg 669 486 /output \$1;
#X msg 669 459 /pan \$1;
#X msg 669 435 /vol \$1;
#X msg 669 411 /bars \$1;
#X msg 669 383 /name \$1;
#X msg 669 513 /play \$1;
#X msg 669 542 /rec \$1;
#X obj 669 616 s \$0-OSCoutput;
#X text 473 210 Values changed in UI;
#X text 246 211 Values set in DSP;
#X obj 323 414 bng 15 250 50 0 \$0-stopset-s \$0-stopset-r \$0-stopset
-95 3 0 10 -262144 -1 -1;
#X obj 514 185 s \$0-nameset-r;
#X obj 328 489 r \$0-nameset-s;
#X floatatom 81 146 5 0 0 0 - - -, f 5;
#X floatatom 142 146 5 0 0 0 - - -, f 5;
#X obj 323 377 nbx 5 14 -1e+37 1e+37 0 0 \$0-playset-s \$0-playset-r
\$0-playset -78 5 0 10 -262144 -1 -1 0 256 0;
#X obj 321 396 nbx 5 14 -1e+37 1e+37 0 0 \$0-recset-s \$0-recset-r
\$0-recset -78 5 0 10 -262144 -1 -1 0 256 0;
#X obj 564 341 nbx 5 14 -1e+37 1e+37 0 0 \$0-playchange-s \$0-playchange-r
\$0-playchange -94 3 0 10 -262144 -1 -1 0 256 0;
#X obj 563 361 nbx 5 14 -1e+37 1e+37 0 0 \$0-recchange-s \$0-recchange-r
\$0-recchange -90 3 0 10 -262144 -1 -1 0 256 0;
#X msg 669 571 /stop;
#X obj 669 356 r \$0-namechange-s;
#X obj 325 535 s \$0-namechange-r;
#N canvas 1139 455 450 325 \$0-getall 0;
#X obj 86 24 r \$0-getall;
#X msg 86 53 /getall;
#X obj 86 82 s \$0-OSCoutput;
#X obj 60 -1 r \$0-loadnum;
#X text 161 1 initialize the track;
#X connect 0 0 1 0;
#X connect 1 0 2 0;
#X connect 3 0 1 0;
#X restore 480 10 pd \$0-getall;
#X msg 514 167 set \$1;
#X msg 267 169 set \$1;
#X msg 392 165 set \$1;
#X msg 450 165 set \$1;
#X msg 136 349 set \$1;
#X msg 325 170 set \$1;
#X floatatom 638 144 5 0 0 0 - - -, f 5;
#X obj 322 436 nbx 5 14 -1e+37 1e+37 0 0 \$0-sliderfreqset-s \$0-sliderfreqset-r
\$0-sliderfreqset -102 5 0 10 -262144 -1 -1 0 256 0;
#X obj 81 119 routeOSC /play /rec /stop /bars /vol /pan /output /name
/status /sliderfreq, f 89;
#X connect 2 0 18 0;
#X connect 3 0 17 0;
#X connect 4 0 19 0;
#X connect 5 0 20 0;
#X connect 12 0 39 0;
#X connect 13 0 40 0;
#X connect 14 0 38 0;
#X connect 15 0 37 0;
#X connect 16 0 58 0;
#X connect 17 0 13 0;
#X connect 18 0 12 0;
#X connect 19 0 14 0;
#X connect 20 0 15 0;
#X connect 21 0 23 0;
#X connect 22 0 25 0;
#X connect 23 0 24 0;
#X connect 23 1 22 0;
#X connect 24 0 26 0;
#X connect 24 0 68 0;
#X connect 25 0 24 0;
#X connect 27 0 47 0;
#X connect 28 0 61 0;
#X connect 29 0 65 0;
#X connect 30 0 62 0;
#X connect 31 0 63 0;
#X connect 32 0 60 0;
#X connect 33 0 21 0;
#X connect 34 0 6 0;
#X connect 36 0 56 0;
#X connect 37 0 44 0;
#X connect 38 0 44 0;
#X connect 39 0 44 0;
#X connect 40 0 44 0;
#X connect 41 0 44 0;
#X connect 42 0 44 0;
#X connect 43 0 44 0;
#X connect 49 0 16 0;
#X connect 50 0 52 0;
#X connect 51 0 53 0;
#X connect 54 0 42 0;
#X connect 55 0 43 0;
#X connect 56 0 44 0;
#X connect 57 0 41 0;
#X connect 60 0 48 0;
#X connect 61 0 3 0;
#X connect 62 0 4 0;
#X connect 63 0 5 0;
#X connect 65 0 2 0;
#X connect 66 0 67 0;
#X connect 68 0 50 0;
#X connect 68 1 51 0;
#X connect 68 2 27 0;
#X connect 68 3 28 0;
#X connect 68 4 29 0;
#X connect 68 5 30 0;
#X connect 68 6 31 0;
#X connect 68 7 32 0;
#X connect 68 8 34 0;
#X connect 68 9 66 0;
#X coords 0 -1 1 1 427 250 2 218 209;
#X restore 456 9 pd trackconfig;
#N canvas 439 460 450 350 initialize 0;
#X obj 147 14 bng 15 250 50 0 trackui-initbang-s trackui-initbang-r
trackui-initbang 17 7 0 10 -262144 -1 -1;
#X obj 147 38 \$1;
#X obj 184 179 s \$0-loadnum;
#X obj 147 72 t f f f f f;
#X msg 221 102 label \$1-trackui-initbang;
#X obj 201 154 s trackui-initbang-r;
#X msg 202 127 receive \$1-trackui-initbang-r;
#X connect 0 0 1 0;
#X connect 1 0 3 0;
#X connect 3 2 2 0;
#X connect 3 3 6 0;
#X connect 3 4 4 0;
#X connect 4 0 5 0;
#X connect 6 0 5 0;
#X restore 99 48 pd initialize;
#X obj 85 245 tgl 15 0 empty empty cfg 0 5 0 10 -262144 -1 -1 0 1;
#X msg 283 243 0;
#X text 243 17 buttonGUI only to send changes to trackconfig \, not
directly to DSP, f 29;
#X obj 282 207 r \$0-loadnum;
#N canvas 5 24 689 897 set_buttoncontent 0;
#X obj 42 30 inlet;
#X text 93 31 cfg or UI;
#X obj 42 64 select 0 1, f 87;
#X obj 391 121 t b b b, f 8;
#X msg 443 148 clear;
#X obj 394 233 bng 15 250 50 0 empty empty empty 17 7 0 10 -262144
-1 -1;
#X msg 413 173 obj 30 60 buttoncfg \$1;
#X obj 411 148 \$1;
#X obj 394 256 s initbang-buttoncfg-r;
#X msg 150 155 clear;
#X obj 73 207 bng 15 250 50 0 empty empty empty 17 7 0 10 -262144 -1
-1;
#X obj 73 244 s buttonguibang-r;
#X msg 107 183 obj 30 60 buttonGUI \$1;
#X obj 114 156 \$1;
#X obj 107 215 s pd-\$0-buttoncontent;
#X obj 73 128 t b b b b, f 11;
#X obj 413 206 s pd-\$0-buttoncontent;
#N canvas 1111 136 450 673 from\$0toUI 0;
#X obj 29 49 t b b b b b;
#X obj 100 138 s \$0-playset-r;
#X obj 99 164 r \$0-playset-s;
#X obj 99 214 s;
#X obj 77 320 s;
#X obj 78 244 s \$0-recset-r;
#X obj 77 270 r \$0-recset-s;
#X obj 103 76 \$1;
#X obj 45 432 s;
#X obj 28 17 inlet;
#X msg 117 189 symbol \$1-playUI-r;
#X msg 95 295 symbol \$1-recUI-r;
#X obj 28 571 s;
#X obj 29 465 s \$0-nameset-r;
#X obj 28 491 r \$0-nameset-s;
#X obj 103 101 t f f f f;
#X msg 28 519 label \$1;
#X obj 46 356 s \$0-stopset-r;
#X obj 45 382 r \$0-stopset-s;
#X msg 63 407 symbol \$1-stopUI-r;
#X text 186 376 import stop status from GUI?;
#X obj 184 506 print labelnew;
#X msg 46 546 symbol \$1-nameUI-r;
#X connect 0 0 13 0;
#X connect 0 2 5 0;
#X connect 0 3 1 0;
#X connect 0 4 7 0;
#X connect 2 0 3 0;
#X connect 6 0 4 0;
#X connect 7 0 15 0;
#X connect 9 0 0 0;
#X connect 10 0 3 1;
#X connect 11 0 4 1;
#X connect 14 0 16 0;
#X connect 15 1 11 0;
#X connect 15 2 10 0;
#X connect 15 3 22 0;
#X connect 16 0 12 0;
#X connect 16 0 21 0;
#X connect 18 0 8 0;
#X connect 19 0 8 1;
#X connect 22 0 12 1;
#X restore 48 288 pd from\$0toUI;
#N canvas 596 49 450 598 fromUIto\$0 0;
#X obj 103 76 \$1;
#X obj 103 101 t f f f;
#X obj 28 17 inlet;
#X obj 151 181 tools/receiver;
#X msg 149 138 \$1-playUI-s;
#X obj 151 210 s \$0-playchange-r;
#X obj 135 286 tools/receiver;
#X msg 133 243 \$1-recUI-s;
#X obj 135 315 s \$0-recchange-r;
#X obj 109 384 tools/receiver;
#X msg 107 350 \$1-stopUI-s;
#X obj 109 413 s \$0-stopchange-r;
#X connect 0 0 1 0;
#X connect 1 0 10 0;
#X connect 1 1 7 0;
#X connect 2 0 0 0;
#X connect 4 0 3 0;
#X connect 6 0 8 0;
#X connect 7 0 6 0;
#X connect 9 0 11 0;
#X connect 10 0 9 0;
#X restore 40 334 pd fromUIto\$0;
#X obj 42 97 t b b b;
#N canvas 507 165 450 723 from\$0tocfg 0;
#X obj 99 214 s;
#X obj 77 320 s;
#X obj 118 76 \$1;
#X obj 45 636 s;
#X obj 28 17 inlet;
#X obj 28 775 s;
#X obj 29 669 s \$0-nameset-r;
#X obj 28 695 r \$0-nameset-s;
#X obj 29 49 t b b b b b b;
#X obj 100 138 s \$0-volset-r;
#X obj 99 164 r \$0-volset-s;
#X msg 117 189 symbol \$1-volcfg-r;
#X obj 78 243 s \$0-panset-r;
#X obj 77 270 r \$0-panset-s;
#X msg 95 295 symbol \$1-pancfg-r;
#X msg 46 750 symbol \$1-namecfg-r;
#X obj 46 530 s \$0-outputset-r;
#X obj 45 556 r \$0-outputset-s;
#X msg 63 611 symbol \$1-outputcfg-r;
#X obj 61 451 s;
#X obj 62 375 s \$0-barsset-r;
#X obj 61 401 r \$0-barsset-s;
#X msg 79 426 symbol \$1-barscfg-r;
#X obj 103 19 bng 15 250 50 0 empty empty empty 17 7 0 10 -262144 -1
-1;
#X obj 118 101 t f f f f f;
#X msg 28 723 symbol \$1;
#X msg 45 584 \$1;
#X msg 198 569 3;
#X connect 2 0 24 0;
#X connect 4 0 8 0;
#X connect 7 0 25 0;
#X connect 8 0 9 0;
#X connect 8 1 16 0;
#X connect 8 2 20 0;
#X connect 8 3 12 0;
#X connect 8 4 6 0;
#X connect 8 5 2 0;
#X connect 10 0 0 0;
#X connect 11 0 0 1;
#X connect 13 0 1 0;
#X connect 14 0 1 1;
#X connect 15 0 5 1;
#X connect 17 0 26 0;
#X connect 18 0 3 1;
#X connect 21 0 19 0;
#X connect 22 0 19 1;
#X connect 23 0 8 0;
#X connect 24 0 11 0;
#X connect 24 1 14 0;
#X connect 24 2 22 0;
#X connect 24 3 18 0;
#X connect 24 4 15 0;
#X connect 25 0 5 0;
#X connect 26 0 3 0;
#X connect 27 0 3 0;
#X restore 370 290 pd from\$0tocfg;
#X obj 345 93 t b b b;
#N canvas 118 202 450 648 fromcfgto\$0 0;
#X obj 103 76 \$1;
#X obj 28 17 inlet;
#X obj 141 331 tools/receiver;
#X obj 125 456 tools/receiver;
#X obj 99 554 tools/receiver;
#X obj 103 101 t f f f f f;
#X obj 174 161 tools/receiver;
#X msg 174 135 \$1-volcfg-s;
#X obj 174 188 s \$0-volchange-r;
#X obj 161 242 tools/receiver;
#X msg 161 216 \$1-pancfg-s;
#X obj 161 269 s \$0-panchange-r;
#X msg 141 303 \$1-namecfg-s;
#X obj 140 386 s \$0-namechange-r;
#X msg 123 426 \$1-outputcfg-s;
#X obj 125 485 s \$0-outputchange-r;
#X msg 97 520 \$1-barscfg-s;
#X obj 99 583 s \$0-barschange-r;
#X msg 141 360 symbol \$1;
#X obj 79 582 bng 15 250 50 0 empty empty empty 17 7 0 10 -262144 -1
-1;
#X connect 0 0 5 0;
#X connect 1 0 0 0;
#X connect 2 0 18 0;
#X connect 3 0 15 0;
#X connect 4 0 17 0;
#X connect 4 0 19 0;
#X connect 5 0 16 0;
#X connect 5 1 14 0;
#X connect 5 2 12 0;
#X connect 5 3 10 0;
#X connect 5 4 7 0;
#X connect 6 0 8 0;
#X connect 7 0 6 0;
#X connect 9 0 11 0;
#X connect 10 0 9 0;
#X connect 12 0 2 0;
#X connect 14 0 3 0;
#X connect 16 0 4 0;
#X connect 18 0 13 0;
#X restore 349 337 pd fromcfgto\$0;
#X connect 0 0 2 0;
#X connect 2 0 19 0;
#X connect 2 1 21 0;
#X connect 3 0 5 0;
#X connect 3 1 7 0;
#X connect 3 2 4 0;
#X connect 4 0 16 0;
#X connect 5 0 8 0;
#X connect 6 0 16 0;
#X connect 7 0 6 0;
#X connect 9 0 14 0;
#X connect 10 0 11 0;
#X connect 12 0 14 0;
#X connect 13 0 12 0;
#X connect 15 1 10 0;
#X connect 15 2 13 0;
#X connect 15 3 9 0;
#X connect 19 0 18 0;
#X connect 19 1 17 0;
#X connect 19 2 15 0;
#X connect 21 0 22 0;
#X connect 21 1 20 0;
#X connect 21 2 3 0;
#X restore 259 286 pd set_buttoncontent;
#X obj 84 226 tgl 16 0 \$0-playUI-s \$0-playUI-r P 4 6 0 10 -262144
-1 -1 0 1;
#X obj 542 330 r \$0-playUI-s;
#X obj 685 405 s \$0-playUI-r;
#X msg 542 355 \$1;
#X floatatom 542 381 5 0 0 0 - - -, f 5;
#X msg 685 356 \$1;
#X floatatom 685 380 5 0 0 0 - - -, f 5;
#X obj 542 405 s \$0-playchange-r;
#X obj 685 330 r \$0-playset-s;
#N canvas 120 79 584 622 slider 0;
#X floatatom 131 455 5 0 0 0 - - -, f 5;
#X obj 37 163 select 0, f 14;
#X obj 132 188 t b b f, f 12;
#X msg 99 217 stop;
#X floatatom 213 214 5 0 0 0 - - -, f 5;
#X obj 132 362 metro;
#X obj 213 242 pow -1;
#X text 269 243 duration_s;
#X obj 213 271 * 1000;
#X obj 213 300 / 127;
#X floatatom 213 329 5 0 0 0 - - -, f 5;
#X obj 132 391 f 0;
#X obj 163 392 + 1;
#X obj 132 420 mod 127;
#X obj 37 189 t 0 0 b, f 11;
#X obj 131 483 s \$0-slider-r;
#X obj 37 4 r \$0-sliderfreqset-s;
#X obj 37 34 select 0;
#X floatatom 90 84 5 0 0 0 - - -, f 5;
#X msg 37 63 0;
#X obj 241 6 r \$0-statusset-s;
#X obj 241 63 select 3;
#X floatatom 241 35 5 0 0 0 - - -, f 5;
#X floatatom 375 31 5 0 0 0 - - -, f 5;
#X obj 397 58 r tempo_ms;
#X floatatom 397 84 5 0 0 0 - - -, f 5;
#X obj 397 111 / 1000;
#X obj 481 7 r beatsperbar;
#X floatatom 481 34 5 0 0 0 - - -, f 5;
#X obj 397 142 *;
#X obj 375 166 *;
#X obj 375 193 pow -1;
#X floatatom 375 222 5 0 0 0 - - -, f 5;
#X obj 90 112 select 0;
#X floatatom 90 141 5 0 0 0 - - -, f 5;
#X msg 375 250 set \$1;
#X obj 375 7 r \$0-barsset-s;
#X connect 0 0 15 0;
#X connect 1 0 14 0;
#X connect 1 1 2 0;
#X connect 2 0 5 0;
#X connect 2 2 4 0;
#X connect 3 0 5 0;
#X connect 4 0 6 0;
#X connect 5 0 11 0;
#X connect 6 0 8 0;
#X connect 8 0 9 0;
#X connect 9 0 10 0;
#X connect 10 0 5 1;
#X connect 11 0 12 0;
#X connect 11 0 13 0;
#X connect 12 0 11 1;
#X connect 13 0 0 0;
#X connect 14 0 0 0;
#X connect 14 1 11 0;
#X connect 14 2 3 0;
#X connect 16 0 17 0;
#X connect 17 0 19 0;
#X connect 17 1 18 0;
#X connect 18 0 33 0;
#X connect 19 0 1 0;
#X connect 20 0 22 0;
#X connect 21 0 18 0;
#X connect 22 0 21 0;
#X connect 23 0 30 0;
#X connect 24 0 25 0;
#X connect 25 0 26 0;
#X connect 26 0 29 0;
#X connect 27 0 28 0;
#X connect 28 0 29 1;
#X connect 29 0 30 1;
#X connect 30 0 31 0;
#X connect 31 0 32 0;
#X connect 32 0 35 0;
#X connect 33 0 34 0;
#X connect 33 1 1 0;
#X connect 34 0 1 0;
#X connect 35 0 34 0;
#X connect 36 0 23 0;
#X restore 99 108 pd slider;
#X obj 128 316 bng 15 250 50 0 empty midibutton-0 midi\ receiver 15
5 0 10 -262144 -1 -1;
#N canvas 242 271 543 472 midictrl 0;
#X obj 37 32 bng 15 250 50 0 empty empty midi\ receiver 17 7 0 10 -262144
-1 -1;
#X floatatom 60 227 7 0 0 0 - - -, f 7;
#X obj 143 29 inlet;
#X text 181 29 voice number;
#X obj 60 251 > 100;
#X msg 60 334 1;
#X obj 59 312 t b b, f 9;
#X msg 110 334 0;
#X obj 148 313 t b b, f 9;
#X msg 149 335 0;
#X msg 199 335 1;
#X obj 37 11 inlet;
#X obj 60 202 array size \$1;
#X text 104 412 play;
#X text 204 413 rec;
#X obj 160 415 outlet;
#X obj 61 412 outlet;
#X obj 39 57 t b b b b;
#X obj 436 7 r \$0-loadnum;
#X obj 435 35 t 0 0;
#X obj 413 4 bng 15 250 50 0 empty empty empty 17 7 0 10 -262144 -1
-1;
#X text 310 33 status number;
#X obj 278 32 inlet;
#X obj 176 134 select 0 1 2 3 4 5 6;
#X obj 183 188 t 0 0;
#X obj 229 188 t 0 0;
#X obj 275 188 t 1 0;
#X floatatom 61 369 5 0 0 0 - - -, f 5;
#X obj 79 391 change;
#X floatatom 158 366 5 0 0 0 - - -, f 5;
#X obj 186 386 change;
#X floatatom 321 158 5 0 0 0 - - -, f 5;
#X obj 152 162 bng 15 250 50 0 empty empty empty 17 7 0 10 -262144
-1 -1;
#X obj 187 159 bng 15 250 50 0 empty empty empty 17 7 0 10 -262144
-1 -1;
#X obj 209 159 bng 15 250 50 0 empty empty empty 17 7 0 10 -262144
-1 -1;
#X obj 229 159 bng 15 250 50 0 empty empty empty 17 7 0 10 -262144
-1 -1;
#X obj 247 158 bng 15 250 50 0 empty empty empty 17 7 0 10 -262144
-1 -1;
#X obj 266 157 bng 15 250 50 0 empty empty empty 17 7 0 10 -262144
-1 -1;
#X obj 285 157 bng 15 250 50 0 empty empty empty 17 7 0 10 -262144
-1 -1;
#X obj 333 182 bng 15 250 50 0 empty empty empty 17 7 0 10 -262144
-1 -1;
#X floatatom 176 110 5 0 0 0 - - -, f 5;
#X msg 176 83 set \$1;
#X obj 61 294 bng 15 250 50 0 empty empty empty 17 7 0 10 -262144 -1
-1;
#X obj 135 296 bng 15 250 50 0 empty empty empty 17 7 0 10 -262144
-1 -1;
#X msg 94 116 symbol \$1;
#X obj 20 250 bng 15 250 50 0 empty empty empty 17 7 0 10 -262144 -1
-1;
#X msg 136 4 symbol voice\$0;
#X obj 60 275 select 1 0, f 22;
#X text 208 276 if the voice array is smaller than 100 samples \, record
\; otherwise play, f 32;
#X text 312 123 check the status of the button \; if off of stopped
\, check array size;
#X obj 301 325 r \$0-play-r;
#X msg 301 347 set \$1;
#X msg 427 351 set \$1;
#X obj 427 326 r \$0-rec-r;
#X connect 0 0 17 0;
#X connect 1 0 4 0;
#X connect 2 0 44 0;
#X connect 4 0 47 0;
#X connect 5 0 27 0;
#X connect 6 0 5 0;
#X connect 6 1 7 0;
#X connect 7 0 29 0;
#X connect 8 0 9 0;
#X connect 8 1 10 0;
#X connect 9 0 27 0;
#X connect 10 0 29 0;
#X connect 11 0 0 0;
#X connect 12 0 1 0;
#X connect 12 0 45 0;
#X connect 17 3 40 0;
#X connect 18 0 19 0;
#X connect 19 1 41 0;
#X connect 20 0 19 0;
#X connect 22 0 41 0;
#X connect 23 0 32 0;
#X connect 23 1 33 0;
#X connect 23 2 34 0;
#X connect 23 3 35 0;
#X connect 23 4 36 0;
#X connect 23 5 37 0;
#X connect 23 6 38 0;
#X connect 23 7 31 0;
#X connect 24 0 27 0;
#X connect 24 1 29 0;
#X connect 25 0 27 0;
#X connect 25 1 29 0;
#X connect 26 0 27 0;
#X connect 26 1 29 0;
#X connect 27 0 28 0;
#X connect 27 0 16 0;
#X connect 29 0 30 0;
#X connect 29 0 15 0;
#X connect 31 0 39 0;
#X connect 32 0 12 0;
#X connect 33 0 24 0;
#X connect 34 0 24 0;
#X connect 35 0 25 0;
#X connect 36 0 25 0;
#X connect 37 0 12 0;
#X connect 38 0 12 0;
#X connect 40 0 23 0;
#X connect 41 0 40 0;
#X connect 42 0 6 0;
#X connect 43 0 8 0;
#X connect 44 0 12 1;
#X connect 46 0 12 1;
#X connect 47 0 42 0;
#X connect 47 1 43 0;
#X connect 50 0 51 0;
#X connect 51 0 27 0;
#X connect 52 0 29 0;
#X connect 53 0 52 0;
#X restore 128 341 pd midictrl;
#N canvas 602 259 450 323 midiout 0;
#X obj 107 80 inlet;
#X text 144 80 button;
#X obj 218 80 inlet;
#X text 259 80 velocity;
#X obj 110 242 noteout 1;
#X obj 177 138 \$1;
#X obj 218 105 t b b f;
#X floatatom 136 186 5 0 0 0 - - -, f 5;
#X floatatom 202 201 5 0 0 0 - - -, f 5;
#X msg 321 104 2;
#X connect 2 0 6 0;
#X connect 5 0 7 0;
#X connect 6 1 5 0;
#X connect 6 2 8 0;
#X connect 7 0 4 0;
#X connect 8 0 4 1;
#X connect 9 0 6 0;
#X restore 43 327 pd midiout;
#N canvas 0 0 450 300 backgdcolor 0;
#N canvas 655 47 745 645 button_change_color 0;
#X text 201 24 status number;
#X obj 118 69 change;
#X floatatom 395 154 5 0 0 0 - - -, f 5;
#X text 573 188 0 off \; 1 for play \; 2 for play queue \; 3 for
rec \; 4 for rec queue \; 5 for stop \; 6 for stop queue;
#X obj 319 338 print Rec;
#X obj 347 302 print Rec Queue;
#X obj 408 269 print Stop;
#X obj 420 220 print Stop Queue;
#X obj 263 377 print Play Queue;
#X obj 249 412 print Play;
#X msg 157 412 color 16 12;
#X msg 315 269 color 14 12;
#X msg 236 337 color 13 0;
#X obj 118 129 select 0 1 2 3 4 5 6, f 40;
#X msg 126 477 color 0 12;
#X msg 437 182 stop;
#X obj 54 149 bng 15 250 50 0 empty empty empty 17 7 0 10 -262144 -1
-1;
#N canvas 192 248 450 323 blink 0;
#X obj 115 93 f 1;
#X obj 146 93 + 1;
#X obj 115 118 mod 2;
#X obj 115 185 select 0 1;
#X floatatom 116 147 5 0 0 0 - - -, f 5;
#X obj 113 17 inlet;
#X obj 114 64 metro 250;
#X obj 173 27 bng 15 250 50 0 empty empty empty 17 7 0 10 -262144 -1
-1;
#X msg 209 26 stop;
#X obj 110 225 outlet;
#X obj 170 225 outlet;
#X connect 0 0 1 0;
#X connect 0 0 2 0;
#X connect 1 0 0 1;
#X connect 2 0 4 0;
#X connect 3 0 9 0;
#X connect 3 1 10 0;
#X connect 4 0 3 0;
#X connect 5 0 6 0;
#X connect 6 0 0 0;
#X connect 7 0 6 0;
#X connect 8 0 6 0;
#X restore 197 376 pd blink;
#N canvas 192 248 450 323 blink 0;
#X obj 115 93 f 1;
#X obj 146 93 + 1;
#X obj 115 118 mod 2;
#X obj 115 185 select 0 1;
#X floatatom 116 147 5 0 0 0 - - -, f 5;
#X obj 113 17 inlet;
#X obj 114 64 metro 250;
#X obj 173 27 bng 15 250 50 0 empty empty empty 17 7 0 10 -262144 -1
-1;
#X msg 209 26 stop;
#X obj 110 225 outlet;
#X obj 170 225 outlet;
#X connect 0 0 1 0;
#X connect 0 0 2 0;
#X connect 1 0 0 1;
#X connect 2 0 4 0;
#X connect 3 0 9 0;
#X connect 3 1 10 0;
#X connect 4 0 3 0;
#X connect 5 0 6 0;
#X connect 6 0 0 0;
#X connect 7 0 6 0;
#X connect 8 0 6 0;
#X restore 276 303 pd blink;
#N canvas 192 248 450 323 blink 0;
#X obj 115 93 f 1;
#X obj 146 93 + 1;
#X obj 115 118 mod 2;
#X obj 115 185 select 0 1;
#X floatatom 116 147 5 0 0 0 - - -, f 5;
#X obj 113 17 inlet;
#X obj 114 64 metro 250;
#X obj 173 27 bng 15 250 50 0 empty empty empty 17 7 0 10 -262144 -1
-1;
#X msg 209 26 stop;
#X obj 110 225 outlet;
#X obj 170 225 outlet;
#X connect 0 0 1 0;
#X connect 0 0 2 0;
#X connect 1 0 0 1;
#X connect 2 0 4 0;
#X connect 3 0 9 0;
#X connect 3 1 10 0;
#X connect 4 0 3 0;
#X connect 5 0 6 0;
#X connect 6 0 0 0;
#X connect 7 0 6 0;
#X connect 8 0 6 0;
#X restore 355 220 pd blink;
#X obj 118 96 t f b, f 46;
#X obj 118 43 r \$0-statusset-s;
#X obj 125 522 outlet;
#X connect 1 0 20 0;
#X connect 10 0 22 0;
#X connect 11 0 22 0;
#X connect 12 0 22 0;
#X connect 13 0 14 0;
#X connect 13 1 9 0;
#X connect 13 1 10 0;
#X connect 13 2 8 0;
#X connect 13 2 17 0;
#X connect 13 3 4 0;
#X connect 13 3 12 0;
#X connect 13 4 5 0;
#X connect 13 4 18 0;
#X connect 13 5 6 0;
#X connect 13 5 11 0;
#X connect 13 6 7 0;
#X connect 13 6 19 0;
#X connect 13 7 2 0;
#X connect 14 0 22 0;
#X connect 15 0 17 0;
#X connect 15 0 18 0;
#X connect 15 0 19 0;
#X connect 16 0 17 0;
#X connect 17 0 14 0;
#X connect 17 1 10 0;
#X connect 18 0 14 0;
#X connect 18 1 12 0;
#X connect 19 0 14 0;
#X connect 19 1 11 0;
#X connect 20 0 13 0;
#X connect 20 1 15 0;
#X connect 21 0 1 0;
#X restore 28 32 pd button_change_color;
#X msg 261 139 symbol \$1-cfgbackgd-r;
#X obj 203 22 r \$0-loadnum;
#X obj 129 59 t a a a;
#X obj 243 169 s;
#X obj 185 236 s;
#X obj 301 111 s;
#X msg 203 202 symbol \$0-trackbackgd-r;
#X msg 319 84 symbol \$1-UIbackgd-r;
#X obj 203 51 t f f f, f 17;
#X connect 0 0 3 0;
#X connect 1 0 4 1;
#X connect 2 0 9 0;
#X connect 3 0 5 0;
#X connect 3 1 6 0;
#X connect 3 2 4 0;
#X connect 7 0 5 1;
#X connect 8 0 6 1;
#X connect 9 0 7 0;
#X connect 9 1 1 0;
#X connect 9 2 8 0;
#X restore 100 147 pd backgdcolor;
#N canvas 620 241 679 317 slidergrad 0;
#X obj 34 17 r \$0-loadnum;
#X obj 342 19 r beatsperbar;
#X obj 230 74 / 32;
#X obj 230 103 pow -1;
#X floatatom 230 160 5 0 0 0 - - -, f 5;
#X floatatom 342 45 5 0 0 0 - - -, f 5;
#X obj 230 15 r \$0-barsset-s;
#X obj 230 131 /;
#X obj 342 73 t b f f;
#X floatatom 230 44 5 0 0 0 - - -, f 5;
#X text 405 74 if beatsperbar changes \, retrigger the calculation
, f 14;
#X msg 34 181 const -0.6;
#X msg 80 240 \; grad\$0 rename t\$1;
#X obj 34 210 s;
#X msg 57 119 symbol t\$1;
#X obj 34 49 t f f f f, f 11;
#X obj 230 187 pack f f f;
#X msg 230 214 \; t\$3 xticks 0 \$1 \$2;
#X obj 473 242 s \$0-slider-r;
#X msg 471 200 127;
#X msg 505 201 0;
#X connect 0 0 15 0;
#X connect 1 0 5 0;
#X connect 2 0 3 0;
#X connect 3 0 7 0;
#X connect 4 0 16 0;
#X connect 5 0 8 0;
#X connect 6 0 9 0;
#X connect 7 0 4 0;
#X connect 8 0 9 0;
#X connect 8 1 16 1;
#X connect 8 2 7 1;
#X connect 9 0 2 0;
#X connect 11 0 13 0;
#X connect 14 0 13 1;
#X connect 15 0 11 0;
#X connect 15 1 14 0;
#X connect 15 2 16 2;
#X connect 15 3 12 0;
#X connect 16 0 17 0;
#X connect 19 0 18 0;
#X connect 20 0 18 0;
#X restore 265 125 pd slidergrad;
#N canvas 656 301 450 325 \$0-buttoncontent 0;
#X obj 30 60 buttonGUI 0;
#X coords 0 -1 1 1 86 41 2 30 60;
#X restore 105 223 pd \$0-buttoncontent;
#X connect 7 0 11 0;
#X connect 8 0 11 0;
#X connect 10 0 8 0;
#X connect 13 0 15 0;
#X connect 15 0 16 0;
#X connect 16 0 19 0;
#X connect 17 0 18 0;
#X connect 18 0 14 0;
#X connect 20 0 17 0;
#X connect 22 0 23 0;
#X coords 0 -1 1 1 110 58 2 81 223;
