#N canvas 755 151 523 475 10;
#N canvas 489 168 384 482 \$0-buttonframe 0;
#X dropdown 64 74 1 1 0 0 - #0main-actiondd-r #0main-actiondd-s, f
1;
#X dropdown 44 124 1 0 0 0 - #0cfg-outputdd-r #0cfg-outputdd-s, f
1;
#X obj 0 0 bng 44 250 50 0 \$0-bng-s \$0-bng-r ADD 5 26 0 10 #7c7c7c
#000000 #000000;
#X obj 40 0 bng 44 250 50 0 \$0-bng-s \$0-bng-r ADD 5 26 0 10 #7c7c7c
#000000 #000000;
#X obj 0 50 cnv 15 19 44 empty empty empty 0 0 0 10 #a0a0a0 #202020
0;
#X obj 3 54 bng 16 250 50 0 \$0-playrecbang-s \$0-playrecbang-r empty
17 7 0 10 #fcfcfc #000000 #000000;
#X obj 3 74 tgl 16 0 \$0main-cfg-s \$0main-cfg-r cfg 0 6 0 9 #fcfcfc
#000000 #404040 0 1;
#X obj 20 71 cnv 15 64 23 empty empty empty 20 12 0 14 #a0a0a0 #404040
0;
#X obj 20 54 hsl 59 16 0 63 0 0 \$0main-sliderUI-s \$0main-sliderUI-r
56-Unnamed 5 7 0 9 #fcfcfc #000000 #202020 0 0;
#X obj 24 74 bng 16 250 50 0 \$0main-stopUI-s \$0main-stopUI-r ◼
3 4 0 14 #fcfcfc #000000 #000000;
#X obj 44 74 tgl 16 0 \$0main-recarmUI-s \$0main-recarmUI-r A 4 7 0
10 #ffffff #000000 #000000 0 1;
#X obj 23 54 cnv 1 1 16 empty empty empty 20 12 0 14 #000000 #404040
0;
#X obj 80 54 cnv 1 1 16 empty empty empty 20 12 0 14 #000000 #404040
0;
#X obj 81 50 cnv 3 3 22 empty empty empty 20 12 0 14 #a0a0a0 #404040
0;
#X obj 20 54 cnv 3 3 20 empty empty empty 20 12 0 14 #a0a0a0 #404040
0;
#X obj 64 74 cnv 1 1 16 empty empty empty 20 12 0 14 #000000 #404040
0;
#X obj 79 74 cnv 1 1 16 empty empty empty 20 12 0 14 #000000 #404040
0;
#X obj 64 74 cnv 1 16 1 empty empty empty 20 12 0 14 #000000 #404040
0;
#X obj 64 89 cnv 1 16 1 empty empty empty 20 12 0 14 #000000 #404040
0;
#X obj 81 74 cnv 2 3 16 empty empty empty 20 12 0 14 #989898 #404040
0;
#X obj 20 50 cnv 3 64 3 empty empty empty 20 12 0 14 #a0a0a0 #404040
0;
#X obj 20 100 cnv 15 64 44 empty empty empty 20 12 0 14 #a0a0a0 #202020
0;
#X symbolatom 44 104 6 0 0 0 - #0cfg-name-r #0cfg-name-s, f 6;
#X obj 61 124 cnv 1 1 16 empty empty empty 20 12 0 14 #989898 #404040
0;
#X obj 82 123 cnv 2 2 20 empty empty empty 20 12 0 14 #989898 #404040
0;
#X obj 24 124 hsl 11 16 0 127 0 0 \$0cfg-pancfg-s \$0cfg-pancfg-r P
5 7 0 10 #fcfcfc #000000 #000000 0 1;
#X obj 24 104 vsl 16 11 0 127 0 0 \$0cfg-volcfg-s \$0cfg-volcfg-r V
4 5 0 10 #fcfcfc #000000 #000000 0 1;
#X obj 0 100 cnv 15 19 44 empty empty empty 0 0 0 10 #a0a0a0 #202020
0;
#X obj 3 104 bng 16 250 50 0 1038-recUIbang-s \$0-playrecbang-r empty
17 7 0 10 #fcfcfc #000000 #000000;
#X obj 3 104 cnv 16 16 16 empty empty empty 20 12 0 14 #000000 #404040
0;
#X obj 3 124 tgl 16 0 \$0cfg-cfg-s \$0cfg-cfg-r cfg 0 6 0 9 #fcfcfc
#000000 #404040 0 1;
#X obj 4 105 cnv 14 14 14 empty \$0-playrecbutton-r ● 1 3 0 17 #fcfcfc
#202020 0;
#X obj 0 0 cnv 15 84 44 empty empty Empty 27 18 0 10 #7c7c7c #404040
0;
#X text 4 209 + interface for midi tracks?;
#X msg 4 156 \$0;
#X floatatom 4 181 5 0 0 0 - - -, f 5;
#X obj 44 124 cnv 15 16 16 empty empty empty 20 12 0 14 #000000 #404040
0;
#X obj 45 125 cnv 14 14 14 empty empty ≣ 1 3 1 14 #e8e8e8 #404040
0;
#X floatatom 63 124 3 1 127 0 - #0cfg-bars-r #0cfg-bars-s, f 3;
#N canvas 787 129 450 325 create_onetime 0;
#X obj 63 49 bng 15 250 50 0 empty empty empty 17 7 0 10 #fcfcfc #000000
#000000;
#X msg 63 141 names copy cut clear;
#X obj 63 72 t b b;
#X obj 63 114 t b b b;
#X text 32 115 main;
#X obj 262 112 t b b b;
#X text 215 112 config;
#X msg 262 139 names 1 2 3 4 5 6 7 8;
#X obj 262 164 s \$0cfg-outputdd-r;
#X obj 63 166 s \$0main-actiondd-r;
#X text 28 14 run only once to not end up with the drop-downs above
the canvas;
#X obj 118 43 loadbang;
#X connect 0 0 2 0;
#X connect 1 0 9 0;
#X connect 2 0 3 0;
#X connect 2 1 5 0;
#X connect 3 0 1 0;
#X connect 5 0 7 0;
#X connect 7 0 8 0;
#X connect 11 0 0 0;
#X restore 156 6 pd create_onetime;
#X obj 3 54 cnv 16 16 16 empty empty empty 20 12 0 14 #000000 #404040
0;
#X obj 4 55 cnv 14 14 14 empty \$0-playrecbutton-r ● 1 3 0 17 #fcfcfc
#202020 0;
#N canvas 112 103 450 613 uitweaks 0;
#X obj 27 37 r \$0main-cfg-s;
#X msg 27 62 \; \$0cfg-cfg-r set \$1;
#X obj 160 38 r \$0cfg-cfg-s;
#X msg 160 62 \; \$0main-cfg-r set \$1;
#X text 26 16 Make sure that the Cfg button is in sync on both views:
;
#X floatatom 29 350 5 0 0 0 - - -, f 5;
#X obj 29 325 r \$0-select_function;
#X text 28 302 Color Cfg when the track is selected;
#X obj 254 298 loadbang;
#X obj 62 350 \$1;
#X obj 29 374 select;
#X msg 29 450 \; \$0cfg-cfg-r color \$1 \$2 \; \$0main-cfg-r color
\$1 \$2;
#X obj 29 425 t a;
#X msg 29 396 17 2;
#X msg 62 396 0 2;
#X obj 254 323 t b b;
#X connect 0 0 1 0;
#X connect 2 0 3 0;
#X connect 5 0 10 0;
#X connect 6 0 5 0;
#X connect 8 0 15 0;
#X connect 9 0 10 1;
#X connect 10 0 13 0;
#X connect 10 1 14 0;
#X connect 12 0 11 0;
#X connect 13 0 12 0;
#X connect 14 0 12 0;
#X connect 15 0 9 0;
#X connect 15 1 14 0;
#X restore 153 89 pd uitweaks;
#X obj 65 75 cnv 14 14 14 empty empty ≣ 1 4 1 14 #e8e8e8 #404040
0;
#X connect 34 0 35 0;
#X coords 0 -1 1 1 84 44 2 0 0;
#X restore 11 12 pd \$0-buttonframe;
#N canvas 299 103 450 572 clear_track 0;
#X obj 69 238 s todsp;
#X obj 17 142 delay 51;
#X floatatom 69 178 5 0 0 0 - - -, f 5;
#X msg 69 207 /track/\$1/clear;
#X obj 17 65 \$1;
#X msg 69 116 set \$1;
#X msg 122 115 /track/\$1/stop;
#X msg 171 150 -1 \$1;
#X obj 171 175 s thumb_array_output-val;
#X obj 17 15 r \$0-clear_function;
#X msg 224 119 \; \$0-recarm_function 0;
#X obj 17 40 bng 15 250 50 0 empty empty empty 17 7 0 10 #fcfcfc #000000
#000000;
#X obj 17 91 t f f f f b b, f 44;
#X msg 323 94 \; \$0-metrostop 0;
#X connect 1 0 2 0;
#X connect 2 0 3 0;
#X connect 3 0 0 0;
#X connect 4 0 12 0;
#X connect 5 0 2 0;
#X connect 6 0 0 0;
#X connect 7 0 8 0;
#X connect 9 0 11 0;
#X connect 11 0 4 0;
#X connect 12 0 1 0;
#X connect 12 1 5 0;
#X connect 12 2 6 0;
#X connect 12 3 7 0;
#X connect 12 4 10 0;
#X connect 12 5 13 0;
#X restore 209 37 pd clear_track;
#X msg 133 14 \$0;
#X floatatom 133 38 5 0 0 0 - - -, f 5;
#N canvas 62 339 844 507 \$0-OSCoutput 0;
#X text 134 37 receive /playpause 1;
#X obj 25 71 t a b;
#X obj 52 95 \$1;
#X obj 25 159 list split 1;
#X obj 25 190 pack s s;
#X msg 25 215 \$2\$1;
#X msg 51 132 symbol /track/\$1;
#X obj 24 247 list append;
#X obj 24 272 list trim;
#X obj 25 37 r \$0-OSCoutput;
#X obj 24 297 s todsp;
#X obj 28 9 import mrpeach;
#X connect 1 0 3 0;
#X connect 1 1 2 0;
#X connect 2 0 6 0;
#X connect 3 0 4 0;
#X connect 3 1 7 1;
#X connect 4 0 5 0;
#X connect 5 0 7 0;
#X connect 6 0 4 1;
#X connect 7 0 8 0;
#X connect 8 0 10 0;
#X connect 9 0 1 0;
#X restore 209 14 pd \$0-OSCoutput;
#N canvas 582 97 642 563 \$0-fromdsptoUI 1;
#X obj 13 47 routeOSC /track;
#X obj 45 93 f \$1;
#X obj 13 69 t a b;
#X obj 13 140 routeOSC /\$0;
#X msg 45 115 set /\$1;
#X obj 145 195 bng 15 250 50 0 empty empty empty 17 7 0 10 #fcfcfc
#000000 #000000;
#X floatatom 198 192 5 0 0 0 - - -, f 5;
#X floatatom 251 192 5 0 0 0 - - -, f 5;
#X floatatom 304 192 5 0 0 0 - - -, f 5;
#X floatatom 357 191 5 0 0 0 - - -, f 5;
#X obj 13 22 r fromdsp;
#X floatatom 463 192 5 0 0 0 - - -, f 5;
#X floatatom 39 196 5 0 0 0 - - -, f 5;
#X floatatom 92 195 5 0 0 0 - - -, f 5;
#X text 114 140 input from DSP for this track;
#X obj 264 318 nbx 5 14 -1e+37 1e+37 0 0 \$0dsp-bars-s \$0dsp-bars-r
\$0dsp-bars -75 5 0 10 #fcfcfc #000000 #000000 2 256 0;
#X msg 26 342 \; \$0dsp-\$1-r set \$2;
#X msg 46 245 /bars 1;
#X msg 47 293 /name bonjour;
#X symbolatom 264 299 10 0 0 0 #0dsp-name #0dsp-name-r #0dsp-name-s
, f 10;
#X obj 264 388 bng 15 250 50 0 \$0dsp-stop-s \$0dsp-stop-r \$0dsp-stop
-76 4 0 10 #fcfcfc #000000 #000000;
#X msg 46 268 /stop;
#X obj 264 335 nbx 5 14 -1e+37 1e+37 0 0 \$0dsp-vol-s \$0dsp-vol-r
\$0dsp-vol -75 5 0 10 #fcfcfc #000000 #000000 110 256 0;
#X obj 264 371 nbx 5 14 -1e+37 1e+37 0 0 \$0dsp-output-s \$0dsp-output-r
\$0dsp-output -87 5 0 10 #fcfcfc #000000 #000000 0 256 0;
#X obj 264 282 nbx 5 14 -1e+37 1e+37 0 0 \$0dsp-status-s \$0dsp-status-r
\$0dsp-status -87 5 0 10 #fcfcfc #000000 #000000 0 256 0;
#X obj 264 353 nbx 5 14 -1e+37 1e+37 0 0 \$0dsp-pan-s \$0dsp-pan-r
\$0dsp-pan -75 5 0 10 #fcfcfc #000000 #000000 64 256 0;
#N canvas 97 207 450 325 removeslash 0;
#X obj 91 40 symbol;
#X obj 91 65 list fromsymbol;
#X obj 91 90 list split 1;
#X obj 125 112 list tosymbol;
#X obj 91 18 list2symbol;
#X obj 125 134 symbol2list;
#X obj 91 -3 inlet;
#X obj 125 159 outlet;
#X obj 215 161 outlet;
#X connect 0 0 1 0;
#X connect 1 0 2 0;
#X connect 2 1 3 0;
#X connect 3 0 5 0;
#X connect 3 0 8 0;
#X connect 4 0 0 0;
#X connect 5 0 7 0;
#X connect 6 0 4 0;
#X restore 26 317 pd removeslash;
#X obj 13 416 outlet;
#X obj 13 392 list2symbol;
#X obj 144 42 loadbang;
#X obj 39 169 routeOSC /play /rec /stop /bars /vol /pan /output /name
/status, f 80;
#X obj 463 216 s \$0dsp-status-r;
#X obj 474 286 nbx 5 14 -1e+37 1e+37 0 0 \$0dsp-sliderfreq-s \$0dsp-sliderfreq-r
\$0dsp-sliderfreq -87 5 0 10 #fcfcfc #000000 #000000 0 256 0;
#X connect 0 0 2 0;
#X connect 1 0 4 0;
#X connect 2 0 3 0;
#X connect 2 1 1 0;
#X connect 3 0 26 0;
#X connect 3 0 28 0;
#X connect 3 0 30 0;
#X connect 4 0 3 0;
#X connect 10 0 0 0;
#X connect 11 0 31 0;
#X connect 17 0 26 0;
#X connect 18 0 26 0;
#X connect 21 0 26 0;
#X connect 26 0 16 0;
#X connect 28 0 27 0;
#X connect 30 0 12 0;
#X connect 30 1 13 0;
#X connect 30 2 5 0;
#X connect 30 3 6 0;
#X connect 30 4 7 0;
#X connect 30 5 8 0;
#X connect 30 6 9 0;
#X connect 30 8 11 0;
#X coords 0 -1 1 1 160 151 1 168 256;
#X restore 13 71 pd \$0-fromdsptoUI;
#X symbolatom 13 228 26 0 0 1 #0dsp-incoming - -, f 26;
#N canvas 921 138 254 491 \$0-fromcfgtodsp 0;
#X floatatom 29 49 5 0 0 0 - - -, f 5;
#X floatatom 49 122 5 0 0 0 - - -, f 5;
#X floatatom 82 269 5 0 0 0 - - -, f 5;
#X symbolatom 104 345 10 0 0 0 - - -, f 10;
#X floatatom 66 196 5 0 0 0 - - -, f 5;
#X msg 29 73 /vol \$1;
#X obj 30 419 s \$0-OSCoutput;
#X msg 82 293 /output \$1;
#X msg 49 146 /pan \$1;
#X msg 66 220 /bars \$1;
#X msg 104 369 /name \$1;
#X obj 104 320 r \$0-name_function;
#X obj 82 244 r \$0-output_function;
#X obj 29 24 r \$0-vol_function;
#X obj 49 97 r \$0-pan_function;
#X obj 66 171 r \$0-bars_function;
#X connect 0 0 5 0;
#X connect 1 0 8 0;
#X connect 2 0 7 0;
#X connect 3 0 10 0;
#X connect 4 0 9 0;
#X connect 5 0 6 0;
#X connect 7 0 6 0;
#X connect 8 0 6 0;
#X connect 9 0 6 0;
#X connect 10 0 6 0;
#X connect 11 0 3 0;
#X connect 12 0 2 0;
#X connect 13 0 0 0;
#X connect 14 0 1 0;
#X connect 15 0 4 0;
#X restore 209 96 pd \$0-fromcfgtodsp;
#N canvas 126 142 374 429 \$0-fromUItodsp 0;
#X obj 216 54 bng 15 250 50 0 empty empty empty 17 7 0 10 #fcfcfc #000000
#000000;
#X obj 28 70 bng 15 250 50 0 empty empty empty 17 7 0 10 #fcfcfc #000000
#000000;
#X obj 28 96 symbol;
#X symbolatom 28 123 10 0 0 0 - - -, f 10;
#X symbolatom 61 74 10 0 0 0 - - -, f 10;
#X msg 28 204 /play \$1;
#X msg 55 227 /rec \$1;
#X msg 216 77 /stop;
#X obj 216 102 s \$0-OSCoutput;
#X obj 28 172 t 1 0;
#X obj 28 147 select play rec pause;
#X obj 69 171 t 0 1;
#X obj 110 171 t 0 0;
#X obj 28 250 s \$0-OSCoutput;
#X obj 61 49 r \$0-playrecbangsymbol;
#X obj 28 25 r \$0-playrec_function;
#X obj 216 29 r \$0-stop_function;
#X connect 0 0 7 0;
#X connect 1 0 2 0;
#X connect 2 0 3 0;
#X connect 3 0 10 0;
#X connect 4 0 2 1;
#X connect 5 0 13 0;
#X connect 6 0 13 0;
#X connect 7 0 8 0;
#X connect 9 0 5 0;
#X connect 9 1 6 0;
#X connect 10 0 9 0;
#X connect 10 1 11 0;
#X connect 10 2 12 0;
#X connect 11 0 5 0;
#X connect 11 1 6 0;
#X connect 12 0 5 0;
#X connect 12 1 6 0;
#X connect 14 0 4 0;
#X connect 15 0 1 0;
#X connect 16 0 0 0;
#X restore 209 74 pd \$0-fromUItodsp;
#N canvas 429 38 560 735 \$0-updateUIvalues 0;
#X obj 194 71 tgl 15 0 empty empty empty 17 7 0 10 #fcfcfc #000000
#000000 0 1;
#X floatatom 77 70 5 0 0 0 - - -, f 5;
#X obj 77 179 s \$0-playrecbutton-r;
#X obj 77 208 s \$0-playrecbang-r;
#X text 201 179 canvas for the button;
#X text 190 208 bang behind the canvas;
#N canvas 649 29 658 684 playrecbutton 0;
#X obj 166 41 tgl 15 0 empty empty empty 17 7 0 10 #fcfcfc #000000
#000000 0 1;
#X floatatom 49 40 5 0 0 0 - - -, f 5;
#X obj 166 64 t b f;
#X obj 49 94 pack f f;
#X msg 139 470 label ❚❚ \, label_font 0 12 \, label_pos -1 4;
#X msg 49 391 label ● \, label_font 0 17 \, label_pos 1 3;
#X msg 299 393 label ▶ \, label_font 0 17 \, label_pos 1 3;
#X obj 299 364 t b b;
#X obj 139 362 t b b;
#X obj 49 363 t b b;
#X obj 49 119 route 0 1 2 3 4 5 6, f 59;
#X floatatom 49 142 5 0 0 0 - - -, f 5;
#X obj 99 144 select 0 1;
#X text 167 144 playing with rec arm OFF or ON;
#X obj 149 169 select 0 1;
#X text 215 169 play queued with rec arm OFF or ON;
#X obj 199 196 select 0 1;
#X text 264 196 rec with rec arm OFF or ON;
#X obj 249 224 select 0 1;
#X text 313 224 rec queued with rec arm OFF or ON;
#X obj 299 249 select 0 1;
#X text 363 249 stopped with rec arm OFF or ON;
#X obj 349 277 select 0 1;
#X text 414 277 stop queued with rec arm OFF or ON;
#X text 137 550 canvas for the button;
#X msg 76 415 symbol rec;
#X msg 166 495 symbol pause;
#X msg 326 417 symbol play;
#X obj 49 13 inlet status;
#X obj 166 14 inlet recarm;
#X obj 49 551 outlet canvas;
#X obj 284 549 outlet playrecsymbol;
#X connect 0 0 2 0;
#X connect 1 0 3 0;
#X connect 2 0 3 0;
#X connect 2 1 3 1;
#X connect 3 0 10 0;
#X connect 4 0 30 0;
#X connect 5 0 30 0;
#X connect 6 0 30 0;
#X connect 7 0 6 0;
#X connect 7 1 27 0;
#X connect 8 0 4 0;
#X connect 8 1 26 0;
#X connect 9 0 5 0;
#X connect 9 1 25 0;
#X connect 10 0 11 0;
#X connect 10 1 12 0;
#X connect 10 2 14 0;
#X connect 10 3 16 0;
#X connect 10 4 18 0;
#X connect 10 5 20 0;
#X connect 10 6 22 0;
#X connect 11 0 9 0;
#X connect 12 0 8 0;
#X connect 12 1 9 0;
#X connect 14 0 8 0;
#X connect 14 1 8 0;
#X connect 16 0 8 0;
#X connect 16 1 8 0;
#X connect 18 0 8 0;
#X connect 18 1 8 0;
#X connect 20 0 7 0;
#X connect 20 1 9 0;
#X connect 22 0 7 0;
#X connect 22 1 9 0;
#X connect 25 0 31 0;
#X connect 26 0 31 0;
#X connect 27 0 31 0;
#X connect 28 0 1 0;
#X connect 29 0 0 0;
#X restore 77 119 pd playrecbutton;
#X obj 77 44 r \$0dsp-status-s;
#X floatatom 72 276 5 0 0 0 - - -, f 5;
#X msg 72 300 \; \$0cfg-volcfg-r set \$1;
#X floatatom 72 366 5 0 0 0 - - -, f 5;
#X msg 72 390 \; \$0cfg-pancfg-r set \$1;
#X floatatom 72 454 5 0 0 0 - - -, f 5;
#X msg 72 478 \; \$0cfg-bars-r set \$1;
#X floatatom 236 277 5 0 0 0 - - -, f 5;
#X msg 236 300 \; \$0cfg-outputdd-r set \$1;
#X symbolatom 237 376 10 0 0 0 - - -, f 10;
#X obj 237 351 r \$0dsp-name-s;
#X obj 236 252 r \$0dsp-output-s;
#X obj 72 251 r \$0dsp-vol-s;
#X obj 72 341 r \$0dsp-pan-s;
#X obj 72 430 r \$0dsp-bars-s;
#X msg 237 399 \; \$0cfg-name-r set \$1 \; \$0main-sliderUI-r label
\$1;
#X obj 194 157 s \$0-playrecbangsymbol;
#X obj 194 46 r \$0-recarm_function;
#X msg 213 118 \; \$0main-recarmUI-r set \$1;
#X obj 194 94 t f f f;
#X obj 400 116 select 0 1;
#X obj 400 188 s \$0main-recarmUI-r;
#X msg 400 161 color #ffffff;
#X msg 428 140 color #f33737;
#X text 276 90 Change the color of track arm when armed:;
#N canvas 802 135 450 407 move_gop 0;
#X obj 32 16 r \$0-bng-s;
#X obj 33 83 r \$0main-cfg-s;
#X obj 34 163 r \$0cfg-cfg-s;
#X obj 140 163 r \$0-cfg_function;
#X obj 241 252 loadbang;
#X obj 33 241 r \$0-clear_function;
#X msg 287 72 \; \$0-slider-visible 1;
#X msg 134 358 \$0;
#X floatatom 134 383 5 0 0 0 - - -, f 5;
#X obj 213 367 s pd-\$0-buttonframe;
#X msg 213 342 coords 0 -1 1 1 84 44 2 0 350;
#X msg 32 36 \; pd-\$0-buttonframe coords 0 -1 1 1 84 44 2 0 50 \;
\$0-slider-visible 1;
#X msg 34 188 \; pd-\$0-buttonframe coords 0 -1 1 1 84 44 2 0 50 \;
\$0-slider-visible 1;
#X msg 33 287 \; pd-\$0-buttonframe coords 0 -1 1 1 84 44 2 0 0 \;
\$0-slider-visible 0;
#X msg 33 108 \; pd-\$0-buttonframe coords 0 -1 1 1 84 44 2 0 100 \;
\$0-slider-visible 0;
#X connect 0 0 11 0;
#X connect 1 0 14 0;
#X connect 2 0 12 0;
#X connect 4 0 13 0;
#X connect 5 0 13 0;
#X connect 7 0 8 0;
#X connect 10 0 9 0;
#X restore 430 252 pd move_gop;
#X connect 0 0 26 0;
#X connect 1 0 6 0;
#X connect 6 0 2 0;
#X connect 6 1 23 0;
#X connect 7 0 1 0;
#X connect 8 0 9 0;
#X connect 10 0 11 0;
#X connect 12 0 13 0;
#X connect 14 0 15 0;
#X connect 16 0 22 0;
#X connect 17 0 16 0;
#X connect 18 0 14 0;
#X connect 19 0 8 0;
#X connect 20 0 10 0;
#X connect 21 0 12 0;
#X connect 24 0 0 0;
#X connect 26 0 6 1;
#X connect 26 1 25 0;
#X connect 26 2 27 0;
#X connect 27 0 29 0;
#X connect 27 1 30 0;
#X connect 29 0 28 0;
#X connect 30 0 28 0;
#X restore 210 123 pd \$0-updateUIvalues;
#N canvas 884 67 473 686 backgdcolor 0;
#X obj 35 620 s \$0-playrecbutton-r;
#X obj 34 36 r \$0dsp-status-s;
#X floatatom 34 61 5 0 0 0 - - -, f 5;
#X obj 34 85 change;
#X obj 176 39 loadbang;
#X msg 176 64 0;
#X floatatom 272 245 5 0 0 0 - - -, f 5;
#X obj 222 401 print Rec;
#X obj 241 375 print Rec Queue;
#X obj 288 323 print Stop;
#X obj 303 295 print Stop Queue;
#X obj 168 460 print Play Queue;
#X obj 160 491 print Play;
#X msg 68 491 color 16 12;
#X msg 204 323 color 14 12;
#X obj 35 219 select 0 1 2 3 4 5 6, f 40;
#X msg 35 525 color 0 12;
#X msg 248 272 stop;
#N canvas 192 248 450 323 blink 0;
#X obj 115 93 f 1;
#X obj 146 93 + 1;
#X obj 115 118 mod 2;
#X obj 115 185 select 0 1;
#X floatatom 116 147 5 0 0 0 - - -, f 5;
#X obj 113 17 inlet;
#X obj 114 64 metro 250;
#X obj 173 27 bng 15 250 50 0 empty empty empty 17 7 0 10 #fcfcfc #000000
#000000;
#X msg 209 26 stop;
#X obj 110 225 outlet;
#X obj 170 225 outlet;
#X connect 0 0 1 0;
#X connect 0 0 2 0;
#X connect 1 0 0 1;
#X connect 2 0 4 0;
#X connect 3 0 9 0;
#X connect 3 1 10 0;
#X connect 4 0 3 0;
#X connect 5 0 6 0;
#X connect 6 0 0 0;
#X connect 7 0 6 0;
#X connect 8 0 6 0;
#X restore 102 459 pd blink;
#N canvas 46 115 450 373 blink 0;
#X obj 115 93 f 1;
#X obj 146 93 + 1;
#X obj 115 118 mod 2;
#X obj 115 185 select 0 1;
#X floatatom 116 147 5 0 0 0 - - -, f 5;
#X obj 113 17 inlet;
#X obj 114 64 metro 250;
#X obj 173 27 bng 15 250 50 0 empty empty empty 17 7 0 10 #fcfcfc #000000
#000000;
#X msg 209 26 stop;
#X obj 110 225 outlet;
#X obj 170 225 outlet;
#X connect 0 0 1 0;
#X connect 0 0 2 0;
#X connect 1 0 0 1;
#X connect 2 0 4 0;
#X connect 3 0 9 0;
#X connect 3 1 10 0;
#X connect 4 0 3 0;
#X connect 5 0 6 0;
#X connect 6 0 0 0;
#X connect 7 0 6 0;
#X connect 8 0 6 0;
#X restore 170 376 pd blink;
#N canvas 192 248 450 323 blink 0;
#X obj 115 93 f 1;
#X obj 146 93 + 1;
#X obj 115 118 mod 2;
#X obj 115 185 select 0 1;
#X floatatom 116 147 5 0 0 0 - - -, f 5;
#X obj 113 17 inlet;
#X obj 114 64 metro 250;
#X obj 173 27 bng 15 250 50 0 empty empty empty 17 7 0 10 #fcfcfc #000000
#000000;
#X msg 209 26 stop;
#X obj 110 225 outlet;
#X obj 170 225 outlet;
#X connect 0 0 1 0;
#X connect 0 0 2 0;
#X connect 1 0 0 1;
#X connect 2 0 4 0;
#X connect 3 0 9 0;
#X connect 3 1 10 0;
#X connect 4 0 3 0;
#X connect 5 0 6 0;
#X connect 6 0 0 0;
#X connect 7 0 6 0;
#X connect 8 0 6 0;
#X restore 238 295 pd blink;
#X msg 136 402 color 13 12;
#X msg 125 434 stop;
#X msg 194 349 stop;
#X msg 88 168 set \$1;
#X floatatom 35 192 5 0 0 0 - - -, f 5;
#X obj 35 117 t b f b b b, f 36;
#X obj 35 147 delay 21;
#X text 141 147 <-- wait for the blinking metro to actually stop,
f 25;
#X obj 35 570 t a a;
#X text 314 42 0 off \; 1 for play \; 2 for play queue \; 3 for
rec \; 4 for rec queue \; 5 for stop \; 6 for stop queue;
#X obj 62 596 s \$0main-sliderUI-r;
#X connect 1 0 2 0;
#X connect 2 0 3 0;
#X connect 3 0 26 0;
#X connect 4 0 5 0;
#X connect 5 0 26 0;
#X connect 13 0 29 0;
#X connect 14 0 29 0;
#X connect 15 0 16 0;
#X connect 15 1 13 0;
#X connect 15 2 18 0;
#X connect 15 3 21 0;
#X connect 15 4 19 0;
#X connect 15 5 14 0;
#X connect 15 6 20 0;
#X connect 15 7 6 0;
#X connect 16 0 29 0;
#X connect 17 0 20 0;
#X connect 18 0 16 0;
#X connect 18 1 13 0;
#X connect 19 0 16 0;
#X connect 19 1 21 0;
#X connect 20 0 16 0;
#X connect 20 1 14 0;
#X connect 21 0 29 0;
#X connect 22 0 18 0;
#X connect 23 0 19 0;
#X connect 24 0 25 0;
#X connect 25 0 15 0;
#X connect 26 0 27 0;
#X connect 26 1 24 0;
#X connect 26 2 22 0;
#X connect 26 3 23 0;
#X connect 26 4 17 0;
#X connect 27 0 25 0;
#X connect 29 0 0 0;
#X connect 29 1 31 0;
#X restore 210 149 pd backgdcolor;
#N canvas 825 134 450 575 \$0-functionsinputs 0;
#X obj 232 18 r \$0main-stopUI-s;
#X obj 232 43 bng 15 250 50 0 empty empty empty 17 7 0 10 #fcfcfc #000000
#000000;
#X obj 44 14 r \$0-playrecbang-s;
#X obj 44 39 bng 15 250 50 0 empty empty empty 17 7 0 10 #fcfcfc #000000
#000000;
#X obj 44 62 s \$0-playrec_function;
#X obj 232 66 s \$0-stop_function;
#X obj 42 106 r \$0main-recarmUI-s;
#X obj 202 247 r \$0dsp-name-s;
#X obj 203 176 r \$0dsp-output-s;
#X obj 40 171 r \$0dsp-vol-s;
#X obj 39 248 r \$0dsp-pan-s;
#X obj 37 339 r \$0dsp-bars-s;
#X obj 40 219 s \$0-vol_function;
#X obj 203 220 s \$0-output_function;
#X obj 39 313 s \$0-pan_function;
#X obj 202 294 s \$0-name_function;
#X obj 37 380 s \$0-bars_function;
#X obj 229 119 select clear;
#X obj 229 144 s \$0-clear_function;
#X obj 204 325 r \$0-bng-s;
#X obj 204 350 s \$0-bng_function;
#X obj 229 98 r \$0main-actiondd-s;
#X obj 211 145 bng 15 250 50 0 empty empty empty 17 7 0 10 #fcfcfc
#000000 #000000;
#X obj 342 123 bng 15 250 50 0 empty empty empty 17 7 0 10 #fcfcfc
#000000 #000000;
#X obj 48 359 r \$0cfg-bars-s;
#X obj 219 271 r \$0cfg-name-s;
#X obj 57 282 r \$0cfg-pan-s;
#X obj 59 194 r \$0cfg-vol-s;
#X obj 42 131 s \$0-recarm_btnin_function;
#X obj 330 198 bng 15 250 50 0 empty empty empty 17 7 0 10 #fcfcfc
#000000 #000000;
#X obj 215 197 r \$0cfg-outputdd-s;
#X connect 0 0 1 0;
#X connect 1 0 5 0;
#X connect 2 0 3 0;
#X connect 3 0 4 0;
#X connect 6 0 28 0;
#X connect 7 0 15 0;
#X connect 8 0 13 0;
#X connect 9 0 12 0;
#X connect 10 0 14 0;
#X connect 11 0 16 0;
#X connect 17 0 18 0;
#X connect 17 0 22 0;
#X connect 17 1 23 0;
#X connect 19 0 20 0;
#X connect 21 0 17 0;
#X connect 24 0 16 0;
#X connect 25 0 15 0;
#X connect 26 0 14 0;
#X connect 27 0 12 0;
#X connect 30 0 13 0;
#X connect 30 0 29 0;
#X restore 351 194 pd \$0-functionsinputs;
#N canvas 745 153 494 292 thumb_array_send 0;
#X obj 26 39 r \$0-output_function;
#X floatatom 26 64 5 0 0 0 - - -, f 5;
#X obj 26 118 pack f f;
#X obj 26 143 s thumb_array_output-val;
#X obj 172 40 loadbang;
#X obj 172 65 \$1;
#X obj 172 90 t f f;
#X obj 302 72 r \$0dsp-status-s;
#X floatatom 302 97 5 0 0 0 - - -, f 5;
#X obj 302 121 select 1 6;
#X obj 302 146 bng 15 250 50 0 empty empty empty 17 7 0 10 #fcfcfc
#000000 #000000;
#X obj 359 145 bng 15 250 50 0 empty empty empty 17 7 0 10 #fcfcfc
#000000 #000000;
#X obj 301 236 s thumb_array_act-val;
#X obj 301 207 pack f f;
#X msg 359 168 0;
#X obj 239 39 r \$0-bars_function;
#X floatatom 301 170 5 0 0 0 - - -, f 5;
#X msg 239 64 set \$1;
#X connect 0 0 1 0;
#X connect 1 0 2 0;
#X connect 2 0 3 0;
#X connect 4 0 5 0;
#X connect 5 0 6 0;
#X connect 6 0 2 1;
#X connect 6 1 13 1;
#X connect 7 0 8 0;
#X connect 8 0 9 0;
#X connect 9 0 10 0;
#X connect 9 2 11 0;
#X connect 10 0 16 0;
#X connect 11 0 14 0;
#X connect 13 0 12 0;
#X connect 14 0 13 0;
#X connect 15 0 17 0;
#X connect 16 0 13 0;
#X connect 17 0 16 0;
#X restore 351 171 pd thumb_array_send;
#N canvas 298 235 450 325 midi_out 0;
#X text 14 115 button;
#X text 128 111 velocity;
#X obj 63 185 noteout 1;
#X obj 63 109 \$1;
#X floatatom 63 138 5 0 0 0 - - -, f 5;
#X floatatom 90 110 5 0 0 0 - - -, f 5;
#X floatatom 63 54 5 0 0 0 - - -, f 5;
#X obj 63 21 r \$0dsp-status-s;
#X obj 63 83 t b f;
#X floatatom 231 50 5 0 0 0 - - -, f 5;
#X obj 231 25 r \$0-select_function;
#X obj 231 74 select 1;
#X msg 276 97 stop;
#N canvas 192 248 450 323 blink 0;
#X obj 115 93 f 1;
#X obj 146 93 + 1;
#X obj 115 118 mod 2;
#X obj 115 185 select 0 1;
#X floatatom 116 147 5 0 0 0 - - -, f 5;
#X obj 113 17 inlet;
#X obj 114 64 metro 250;
#X obj 173 27 bng 15 250 50 0 empty empty empty 17 7 0 10 #fcfcfc #000000
#000000;
#X msg 209 26 stop;
#X obj 110 225 outlet;
#X obj 170 225 outlet;
#X connect 0 0 1 0;
#X connect 0 0 2 0;
#X connect 1 0 0 1;
#X connect 2 0 4 0;
#X connect 3 0 9 0;
#X connect 3 1 10 0;
#X connect 4 0 3 0;
#X connect 5 0 6 0;
#X connect 6 0 0 0;
#X connect 7 0 6 0;
#X connect 8 0 6 0;
#X restore 231 124 pd blink;
#X msg 276 146 3;
#X text 201 179 blink current color + red when selected, f 20;
#X connect 3 0 4 0;
#X connect 4 0 2 0;
#X connect 5 0 2 1;
#X connect 6 0 8 0;
#X connect 7 0 6 0;
#X connect 8 0 3 0;
#X connect 8 1 5 0;
#X connect 9 0 11 0;
#X connect 10 0 9 0;
#X connect 11 0 13 0;
#X connect 11 1 12 0;
#X connect 12 0 13 0;
#X connect 13 0 5 0;
#X connect 13 1 14 0;
#X connect 14 0 2 1;
#X restore 315 233 pd midi_out;
#N canvas 61 132 808 577 midi_in_cfg 0;
#X obj 76 42 r \$0-selected-s;
#X floatatom 76 71 5 0 0 0 - - -, f 5;
#X obj 43 100 spigot;
#X obj 43 18 r midictl;
#X obj 43 130 unpack f f;
#X floatatom 43 155 5 0 0 0 value - -, f 5;
#X floatatom 100 154 5 0 0 0 cc# - -, f 5;
#X obj 43 183 pack f f;
#X obj 43 209 list-rev;
#X obj 43 235 route 1 5, f 13;
#X floatatom 43 261 5 0 0 0 - - -, f 5;
#X floatatom 80 261 5 0 0 0 - - -, f 5;
#X obj 43 289 s \$0-vol_function;
#X obj 80 322 s \$0-pan_function;
#X floatatom 240 73 5 0 0 0 - - -, f 5;
#X obj 201 101 spigot;
#X obj 201 19 r midibutton;
#X floatatom 216 281 5 0 0 0 - - -, f 5;
#X obj 201 307 +;
#X floatatom 201 48 5 0 0 0 - - -, f 5;
#X msg 201 159 1;
#X msg 263 158 -1;
#X obj 201 189 t f b;
#X floatatom 201 336 5 0 0 0 - - -, f 5;
#X floatatom 341 281 5 0 0 0 - - -, f 5;
#X obj 326 307 +;
#X obj 326 189 t f b;
#X floatatom 326 361 5 0 0 0 - - -, f 5;
#X obj 341 219 s \$0-outputset-r;
#X obj 326 333 clip 0 8;
#X msg 451 160 bang;
#X obj 201 130 select 86 87 88 89 82 83 84 85, f 84;
#X text 269 105 86/87:bars \, 88/89:output \, 82:cfg \, 83:clear \,
84: recArm \, 85:stop, f 64;
#X msg 326 159 1;
#X msg 388 159 -1;
#X obj 240 44 r \$0-select_function;
#X obj 216 219 s \$0dsp-bars-r;
#X obj 216 252 r \$0dsp-bars-s;
#X obj 201 367 s \$0-bars_function;
#X obj 326 393 s \$0-output_function;
#X obj 451 287 s \$0-cfg_function;
#X obj 341 252 r \$0dsp-outputset-s;
#X obj 514 237 s \$0-clear_function;
#X obj 514 159 t b;
#X obj 576 210 s recarm_btnin_function;
#X obj 639 184 s \$0-stop_function;
#X obj 639 157 t b;
#X obj 576 158 t b;
#X connect 0 0 1 0;
#X connect 1 0 2 1;
#X connect 2 0 4 0;
#X connect 3 0 2 0;
#X connect 4 0 5 0;
#X connect 4 1 6 0;
#X connect 5 0 7 0;
#X connect 6 0 7 1;
#X connect 7 0 8 0;
#X connect 8 0 9 0;
#X connect 9 0 10 0;
#X connect 9 1 11 0;
#X connect 10 0 12 0;
#X connect 11 0 13 0;
#X connect 14 0 15 1;
#X connect 15 0 31 0;
#X connect 16 0 15 0;
#X connect 16 0 19 0;
#X connect 17 0 18 1;
#X connect 18 0 23 0;
#X connect 20 0 22 0;
#X connect 21 0 22 0;
#X connect 22 0 18 0;
#X connect 23 0 38 0;
#X connect 24 0 25 1;
#X connect 25 0 29 0;
#X connect 26 0 25 0;
#X connect 27 0 39 0;
#X connect 29 0 27 0;
#X connect 30 0 40 0;
#X connect 31 0 20 0;
#X connect 31 1 21 0;
#X connect 31 2 33 0;
#X connect 31 3 34 0;
#X connect 31 4 30 0;
#X connect 31 5 43 0;
#X connect 31 6 47 0;
#X connect 31 7 46 0;
#X connect 33 0 26 0;
#X connect 34 0 26 0;
#X connect 35 0 14 0;
#X connect 37 0 17 0;
#X connect 41 0 24 0;
#X connect 43 0 42 0;
#X connect 46 0 45 0;
#X connect 47 0 44 0;
#X restore 313 258 pd midi_in_cfg;
#N canvas 750 252 325 432 create_track 0;
#X obj 64 42 bng 15 250 50 0 empty empty empty 17 7 0 10 #fcfcfc #000000
#000000;
#X obj 121 61 r \$0-getall;
#X msg 91 87 /getall;
#X obj 91 116 s \$0-OSCoutput;
#X obj 64 17 r \$0-bng_function;
#X obj 64 61 t b b;
#X obj 62 139 delay 100;
#X obj 62 164 t b b b b b b;
#X obj 122 212 s \$0dsp-name-r;
#X obj 137 188 s \$0dsp-status-r;
#X obj 107 236 s \$0dsp-bars-r;
#X obj 92 262 s \$0dsp-vol-r;
#X obj 77 289 s \$0dsp-pan-r;
#X obj 62 311 s \$0dsp-output-r;
#X connect 0 0 5 0;
#X connect 1 0 2 0;
#X connect 2 0 3 0;
#X connect 4 0 0 0;
#X connect 5 0 6 0;
#X connect 5 1 2 0;
#X connect 6 0 7 0;
#X connect 7 0 13 0;
#X connect 7 1 12 0;
#X connect 7 2 11 0;
#X connect 7 3 10 0;
#X connect 7 4 8 0;
#X connect 7 5 9 0;
#X restore 193 266 pd create_track;
#N canvas 188 23 593 744 slider2 0;
#X floatatom 338 110 5 0 0 0 - - -, f 5;
#X obj 425 25 r tempo_ms;
#X floatatom 425 54 5 0 0 0 - - -, f 5;
#X obj 500 27 r beatsperbar;
#X floatatom 500 49 5 0 0 0 - - -, f 5;
#X obj 452 115 *;
#X floatatom 338 230 5 0 0 1 duration_bar_ms - -, f 5;
#X floatatom 338 339 5 0 0 0 - - -, f 5;
#X msg 18 264 stop;
#X obj 18 24 r metrostop;
#X obj 200 23 r beatnum;
#X obj 200 53 unpack f f, f 12;
#X obj 200 560 s \$0main-sliderUI-r;
#X obj 364 465 s \$0-trackstart;
#X obj 311 49 t f f;
#X obj 500 73 t b f;
#X obj 425 78 t b f;
#X obj 311 24 r \$0-bars_function;
#X obj 200 78 bng 15 250 50 0 empty empty empty 17 7 0 10 #fcfcfc #000000
#000000;
#X floatatom 269 76 5 0 0 0 - - -, f 5;
#X obj 200 381 metro 100;
#X obj 200 406 f 0;
#X obj 232 406 + 1;
#X obj 269 195 mod;
#X floatatom 269 220 5 0 0 0 - - -, f 5;
#X obj 269 172 - 1;
#X obj 269 244 * 16;
#X floatatom 269 269 5 0 0 0 - - -, f 5;
#X obj 200 469 +;
#X floatatom 200 497 5 0 0 0 - - -, f 5;
#X obj 338 156 pow -1;
#X floatatom 338 181 5 0 0 1 values_per_bar - -, f 5;
#X obj 338 258 /;
#X floatatom 338 283 5 0 0 1 ms_per_value - -, f 5;
#X obj 338 311 * 1;
#X obj 338 205 t b f f;
#X text 367 134 64 per points in the hslider;
#X obj 364 436 select 0;
#X obj 269 293 t f f;
#X obj 200 521 spigot;
#X obj 241 473 r \$0-slider-visible;
#X floatatom 241 498 5 0 0 0 - - -, f 5;
#X obj 26 105 loadbang;
#X obj 34 141 r \$0-clear_function;
#X obj 200 328 spigot;
#X obj 19 199 t b 0;
#X floatatom 231 303 2 0 0 0 - - -, f 2;
#X obj 69 52 r \$0-bng_function;
#X msg 69 176 1;
#X obj 200 101 t b 0;
#X obj 338 134 / 64;
#X connect 0 0 50 0;
#X connect 1 0 2 0;
#X connect 2 0 16 0;
#X connect 3 0 4 0;
#X connect 4 0 15 0;
#X connect 5 0 6 0;
#X connect 6 0 32 0;
#X connect 7 0 20 1;
#X connect 8 0 20 0;
#X connect 9 0 45 0;
#X connect 10 0 11 0;
#X connect 11 0 18 0;
#X connect 11 1 19 0;
#X connect 14 0 23 1;
#X connect 14 1 0 0;
#X connect 15 0 2 0;
#X connect 15 1 5 1;
#X connect 16 0 0 0;
#X connect 16 1 5 0;
#X connect 17 0 14 0;
#X connect 18 0 49 0;
#X connect 19 0 25 0;
#X connect 20 0 21 0;
#X connect 21 0 22 0;
#X connect 21 0 28 0;
#X connect 22 0 21 1;
#X connect 23 0 24 0;
#X connect 24 0 26 0;
#X connect 25 0 23 0;
#X connect 26 0 27 0;
#X connect 27 0 38 0;
#X connect 28 0 29 0;
#X connect 29 0 39 0;
#X connect 30 0 31 0;
#X connect 31 0 35 0;
#X connect 32 0 33 0;
#X connect 33 0 34 0;
#X connect 34 0 7 0;
#X connect 35 0 6 0;
#X connect 35 1 26 1;
#X connect 35 2 32 1;
#X connect 37 0 13 0;
#X connect 38 0 37 0;
#X connect 38 1 28 1;
#X connect 39 0 12 0;
#X connect 40 0 41 0;
#X connect 41 0 39 1;
#X connect 42 0 45 0;
#X connect 43 0 45 0;
#X connect 44 0 20 0;
#X connect 45 0 8 0;
#X connect 45 1 46 0;
#X connect 46 0 44 1;
#X connect 47 0 48 0;
#X connect 48 0 46 0;
#X connect 49 0 44 0;
#X connect 49 1 21 1;
#X connect 50 0 30 0;
#X restore 204 304 pd slider2;
#N canvas 49 171 475 347 recarm 0;
#X obj 35 150 s recarm-global-r;
#X obj 35 75 t f b;
#X obj 62 98 \$1;
#X obj 35 125 pack f f;
#X obj 209 28 r global-armed-s;
#X obj 209 108 select;
#X msg 209 134 1;
#X floatatom 209 57 5 0 0 0 - - -, f 5;
#X msg 242 134 0;
#X obj 258 57 loadbang;
#X obj 258 82 \$1;
#X text 208 186 update the button as per global;
#X obj 209 163 t f f;
#X obj 209 210 s \$0-recarm_function;
#X obj 35 27 r \$0-recarm_btnin_function;
#X obj 35 52 tgl 15 0 empty empty empty 17 7 0 10 #fcfcfc #000000 #000000
0 1;
#X connect 1 0 3 0;
#X connect 1 1 2 0;
#X connect 2 0 3 1;
#X connect 3 0 0 0;
#X connect 4 0 7 0;
#X connect 5 0 6 0;
#X connect 5 1 8 0;
#X connect 6 0 12 0;
#X connect 7 0 5 0;
#X connect 8 0 12 0;
#X connect 9 0 10 0;
#X connect 10 0 5 1;
#X connect 12 0 13 0;
#X connect 14 0 15 0;
#X connect 15 0 1 0;
#X restore 350 125 pd recarm;
#N canvas 895 438 445 291 select 0;
#X floatatom 16 36 5 0 0 0 - - -, f 5;
#X obj 16 59 t f b;
#X obj 43 82 \$1;
#X obj 16 109 pack f f;
#X obj 190 92 select;
#X msg 190 118 1;
#X floatatom 190 41 5 0 0 0 - - -, f 5;
#X msg 223 118 0;
#X obj 239 41 loadbang;
#X obj 239 66 \$1;
#X text 189 170 update the button as per global;
#X obj 190 147 t f f;
#X obj 16 134 s selected-global-r;
#X obj 190 12 r global-selected-s;
#X obj 190 194 s \$0-select_function;
#X obj 16 11 r \$0-select_btnin_function;
#X connect 0 0 1 0;
#X connect 1 0 3 0;
#X connect 1 1 2 0;
#X connect 2 0 3 1;
#X connect 3 0 12 0;
#X connect 4 0 5 0;
#X connect 4 1 7 0;
#X connect 5 0 11 0;
#X connect 6 0 4 0;
#X connect 7 0 11 0;
#X connect 8 0 9 0;
#X connect 9 0 4 1;
#X connect 11 0 14 0;
#X connect 13 0 6 0;
#X connect 15 0 0 0;
#X restore 350 148 pd select;
#X obj 361 12 loadbang;
#N canvas 459 160 450 400 initialize 0;
#X obj 107 45 inlet;
#X obj 107 70 bng 15 250 50 0 empty empty empty 17 7 0 10 #fcfcfc #000000
#000000;
#X obj 107 93 t b b;
#X obj 107 135 t b b b;
#X obj 309 98 t b b b;
#X obj 107 279 s \$0main-sliderUI-r;
#X obj 107 160 \$1;
#X obj 134 237 s \$0cfg-name-r;
#X msg 107 187 symbol \$1-Unnamed;
#X obj 107 212 t s s;
#X msg 107 257 label \$1;
#X msg 356 263 /getall;
#X obj 356 292 s \$0-OSCoutput;
#X obj 328 205 delay;
#X obj 370 134 \$1;
#X obj 370 159 * 10;
#X obj 328 317 delay;
#X obj 328 230 t b b;
#X obj 370 184 t f f;
#X obj 328 342 t b;
#X obj 328 367 s \$0dsp-bars-r;
#X connect 0 0 1 0;
#X connect 1 0 2 0;
#X connect 2 0 3 0;
#X connect 2 1 4 0;
#X connect 3 0 6 0;
#X connect 4 1 13 0;
#X connect 4 2 14 0;
#X connect 6 0 8 0;
#X connect 8 0 9 0;
#X connect 9 0 10 0;
#X connect 9 1 7 0;
#X connect 10 0 5 0;
#X connect 11 0 12 0;
#X connect 13 0 17 0;
#X connect 14 0 15 0;
#X connect 15 0 18 0;
#X connect 16 0 19 0;
#X connect 17 0 16 0;
#X connect 17 1 11 0;
#X connect 18 0 16 1;
#X connect 18 1 13 1;
#X connect 19 0 20 0;
#X restore 361 37 pd initialize;
#X connect 2 0 3 0;
#X connect 5 0 6 0;
#X connect 19 0 20 0;
#X coords 0 -1 1 1 84 44 2 11 12;
