#N canvas 781 78 648 818 10;
#N canvas 199 81 703 818 trackconfig 0;
#X obj 6 14 cnv 15 201 233 empty empty empty 20 12 0 14 -233017 -66577
0;
#N canvas 219 54 551 688 initconfig 0;
#X obj 35 14 bng 15 250 50 0 empty 0-button-initbang-r initbang 17
7 0 10 -262144 -1 -1;
#X obj 35 34 \$1;
#X msg 203 113 receive \$1-trackstatus-r;
#X msg 203 88 send \$1-trackstatus-s;
#X msg 203 268 receive \$1-trackbars-r;
#X msg 203 220 send \$1-trackbars-s;
#X msg 203 241 2;
#X obj 373 142 s trackstatus-r;
#X obj 354 305 s trackbars-r;
#X msg 205 328 send \$1-trackvol-s;
#X msg 205 349 127;
#X msg 205 376 receive \$1-trackvol-r;
#X obj 369 399 s trackvol-r;
#X msg 202 415 send \$1-trackpan-s;
#X msg 203 436 63;
#X msg 203 463 receive \$1-trackpan-r;
#X obj 367 487 s trackpan-r;
#X msg 210 508 send \$1-trackoutput-s;
#X msg 211 556 receive \$1-trackoutput-r;
#X obj 375 580 s trackoutput-r;
#X msg 211 529 0;
#X obj 110 81 t f f;
#X obj 95 113 t f f f;
#X obj 80 188 t f f f;
#X obj 65 294 t f f f;
#X obj 50 395 t f f f;
#X obj 35 485 t f f f;
#X obj 35 57 t f f f f f f f;
#X obj 109 14 r button-initbang-s;
#X obj 369 193 tools/receiver;
#X msg 264 163 \$1-trackname-s;
#X symbolatom 369 218 10 0 0 0 - - -, f 10;
#X obj 369 242 s \$0-trackname-r;
#X msg 134 164 symbol \$1-Unnamed;
#X connect 1 0 27 0;
#X connect 2 0 7 0;
#X connect 3 0 7 0;
#X connect 4 0 8 0;
#X connect 5 0 8 0;
#X connect 6 0 8 0;
#X connect 9 0 12 0;
#X connect 10 0 12 0;
#X connect 11 0 12 0;
#X connect 13 0 16 0;
#X connect 14 0 16 0;
#X connect 15 0 16 0;
#X connect 17 0 19 0;
#X connect 18 0 19 0;
#X connect 20 0 19 0;
#X connect 21 0 2 0;
#X connect 21 1 3 0;
#X connect 22 0 33 0;
#X connect 22 2 30 0;
#X connect 23 0 4 0;
#X connect 23 1 6 0;
#X connect 23 2 5 0;
#X connect 24 0 11 0;
#X connect 24 1 10 0;
#X connect 24 2 9 0;
#X connect 25 0 15 0;
#X connect 25 1 14 0;
#X connect 25 2 13 0;
#X connect 26 0 18 0;
#X connect 26 1 20 0;
#X connect 26 2 17 0;
#X connect 27 0 26 0;
#X connect 27 1 25 0;
#X connect 27 2 24 0;
#X connect 27 3 23 0;
#X connect 27 4 22 0;
#X connect 27 5 21 0;
#X connect 29 0 31 0;
#X connect 30 0 29 0;
#X connect 31 0 32 0;
#X connect 33 0 31 0;
#X restore 264 49 pd initconfig;
#X symbolatom 132 55 10 0 0 0 #0-trackname - -, f 10;
#X obj 135 101 nbx 5 14 -1e+37 1e+37 0 0 \$0-volset-s \$0-volset-r
\$0-volset -75 5 0 10 -262144 -1 -1 127 256 0;
#X obj 136 78 nbx 5 14 -1e+37 1e+37 0 0 \$0-barsset-s \$0-barsset-r
\$0-barsset -84 4 0 10 -262144 -1 -1 2 256 0;
#X obj 136 125 nbx 5 14 -1e+37 1e+37 0 0 \$0-panset-s \$0-panset-r
\$0-panset -72 4 0 10 -262144 -1 -1 63 256 0;
#X obj 138 145 nbx 5 14 -1e+37 1e+37 0 0 \$0-outputset-s \$0-outputset-r
\$0-outputset -90 5 0 10 -262144 -1 -1 0 256 0;
#X obj 133 27 nbx 5 14 -1e+37 1e+37 0 0 \$0-statusset-s \$0-statusset-r
\$0-statusset -87 5 0 10 -262144 -1 -1 5 256 0;
#N canvas 562 28 780 714 outputforbutton 0;
#X obj 18 20 r \$0-loadnum;
#X msg 18 75 \$1 status;
#X msg 88 75 \$1 bars;
#X msg 159 74 \$1 vol;
#X msg 230 75 \$1 pan;
#X msg 301 74 \$1 output;
#X obj 18 172 tools/receiver;
#X obj 18 200 s;
#X msg 18 125 \$1-track\$2-s;
#X obj 88 296 tools/receiver;
#X obj 88 324 s;
#X obj 88 224 t a a;
#X msg 88 249 \$1-track\$2-s;
#X text 103 6 this patch converts all \$1 interfaces to the button's
\$0 sends/receives;
#X msg 372 74 \$1 play;
#X msg 443 74 \$1 rec;
#X msg 514 73 \$1 stop;
#X msg 585 73 \$1 sliderpos;
#X obj 159 412 tools/receiver;
#X obj 159 440 s;
#X obj 159 340 t a a;
#X msg 159 365 \$1-track\$2-s;
#X obj 18 47 t f f f f f f f f f, f 95;
#X obj 230 175 tools/receiver;
#X obj 230 203 s;
#X obj 230 103 t a a;
#X msg 230 128 \$1-track\$2-s;
#X obj 301 284 tools/receiver;
#X obj 301 312 s;
#X obj 301 212 t a a;
#X msg 301 237 \$1-track\$2-s;
#X obj 372 415 tools/receiver;
#X obj 372 443 s;
#X obj 372 343 t a a;
#X msg 372 368 \$1-track\$2-s;
#X obj 443 173 tools/receiver;
#X obj 443 201 s;
#X obj 443 101 t a a;
#X msg 443 126 \$1-track\$2-s;
#X obj 514 302 tools/receiver;
#X obj 514 330 s;
#X obj 514 230 t a a;
#X msg 514 255 \$1-track\$2-s;
#X obj 585 416 tools/receiver;
#X obj 585 444 s;
#X obj 585 344 t a a;
#X msg 585 369 \$1-track\$2-s;
#X obj 42 498 r \$0-trackstatus;
#X obj 42 561 s;
#X obj 18 100 t a a a;
#X msg 37 149 symbol \$0-trackstatus;
#X msg 115 273 symbol \$0-bars;
#X msg 186 389 symbol \$0-vol;
#X msg 257 152 symbol \$0-pan;
#X msg 328 261 symbol \$0-output;
#X msg 399 392 symbol \$0-play;
#X msg 470 150 symbol \$0-rec;
#X msg 541 279 symbol \$0-stop;
#X msg 612 393 symbol \$0-sliderpos;
#X msg 57 527 symbol \$1-track\$2-r;
#X connect 1 0 49 0;
#X connect 2 0 11 0;
#X connect 3 0 20 0;
#X connect 4 0 25 0;
#X connect 5 0 29 0;
#X connect 6 0 7 0;
#X connect 8 0 6 0;
#X connect 9 0 10 0;
#X connect 11 0 12 0;
#X connect 11 1 51 0;
#X connect 12 0 9 0;
#X connect 14 0 33 0;
#X connect 15 0 37 0;
#X connect 16 0 41 0;
#X connect 17 0 45 0;
#X connect 18 0 19 0;
#X connect 20 0 21 0;
#X connect 20 1 52 0;
#X connect 21 0 18 0;
#X connect 22 0 1 0;
#X connect 22 1 2 0;
#X connect 22 2 3 0;
#X connect 22 3 4 0;
#X connect 22 4 5 0;
#X connect 22 5 14 0;
#X connect 22 6 15 0;
#X connect 22 7 16 0;
#X connect 22 8 17 0;
#X connect 23 0 24 0;
#X connect 25 0 26 0;
#X connect 25 1 53 0;
#X connect 26 0 23 0;
#X connect 27 0 28 0;
#X connect 29 0 30 0;
#X connect 29 1 54 0;
#X connect 30 0 27 0;
#X connect 31 0 32 0;
#X connect 33 0 34 0;
#X connect 33 1 55 0;
#X connect 34 0 31 0;
#X connect 35 0 36 0;
#X connect 37 0 38 0;
#X connect 37 1 56 0;
#X connect 38 0 35 0;
#X connect 39 0 40 0;
#X connect 41 0 42 0;
#X connect 41 1 57 0;
#X connect 42 0 39 0;
#X connect 43 0 44 0;
#X connect 45 0 46 0;
#X connect 45 1 58 0;
#X connect 46 0 43 0;
#X connect 47 0 48 0;
#X connect 49 0 8 0;
#X connect 49 1 50 0;
#X connect 49 2 59 0;
#X connect 50 0 7 1;
#X connect 51 0 10 1;
#X connect 52 0 19 1;
#X connect 53 0 24 1;
#X connect 54 0 28 1;
#X connect 55 0 32 1;
#X connect 56 0 36 1;
#X connect 57 0 40 1;
#X connect 58 0 44 1;
#X connect 59 0 48 1;
#X restore 267 77 pd outputforbutton;
#X obj 138 167 nbx 5 14 -1e+37 1e+37 0 0 tracksliderpos-s tracksliderpos-r
tracksliderpos -88 5 0 10 -262144 -1 -1 0 256 0;
#X text 67 325 receive a /getall message from ui and send a bundle
of the config parameters, f 26;
#X obj 49 324 r \$0-getall-s;
#X obj 49 349 bng 15 250 50 0 empty empty empty 17 7 0 10 -262144 -1
-1;
#X obj 49 371 t b b b b b b b b b, f 21;
#X msg 159 418 /status \$1;
#X msg 140 463 /name \$1;
#X msg 113 561 /vol \$1;
#X msg 127 514 /bars \$1;
#X obj 30 757 s \$0-OSCoutput;
#X msg 108 609 /pan \$1;
#X msg 82 659 /output \$1;
#X obj 284 244 r \$0-status-s;
#X obj 283 296 r \$0-name-s;
#X obj 287 353 r \$0-bars-s;
#X obj 288 408 r \$0-vol-s;
#X obj 289 459 r \$0-pan-s;
#X obj 290 513 r \$0-output-s;
#X floatatom 165 396 5 0 0 0 - - -, f 5;
#X symbolatom 141 442 10 0 0 0 - - -, f 10;
#X floatatom 127 490 5 0 0 0 - - -, f 5;
#X floatatom 113 537 5 0 0 0 - - -, f 5;
#X floatatom 109 587 5 0 0 0 - - -, f 5;
#X floatatom 83 637 5 0 0 0 - - -, f 5;
#X text 262 22 probably obsolete:;
#X text 282 213 input from UI;
#X obj 284 267 s \$0-statusset-r;
#N canvas 319 313 630 536 initvalues 0;
#X obj 119 1 loadbang;
#X msg 119 67 0;
#X obj 119 92 s \$0-status-s;
#X msg 134 141 symbol \$1-Unnamed;
#X obj 134 116 f \$1;
#X msg 149 198 2;
#X obj 149 223 s \$0-bars-s;
#X obj 134 166 s \$0-name-s;
#X msg 163 260 127;
#X obj 163 285 s \$0-vol-s;
#X msg 186 318 64;
#X obj 186 343 s \$0-pan-s;
#X obj 204 393 s \$0-output-s;
#X obj 118 22 bng 15 250 50 0 empty empty empty 17 7 0 10 -262144 -1
-1;
#X msg 204 368 0;
#X msg 211 430 0;
#X obj 211 455 s \$0-phasorfreq;
#X obj 280 96 samplerate~;
#X obj 280 121 s samplerateval;
#X obj 422 55 bng 15 250 50 0 empty empty empty 17 7 0 10 -262144 -1
-1;
#X obj 119 42 t b b b b b b b b b b, f 24;
#X text 450 107 bars;
#X msg 439 131 4;
#X text 468 131 beatsperbar;
#X msg 473 179 48000;
#X text 514 179 samplerate;
#X text 397 15 max values for the max size of arrays;
#X text 491 154 tempo_ms;
#X obj 421 238 pack f f f f;
#X floatatom 421 288 16 0 0 0 - - -, f 16;
#X obj 421 263 expr ( $f1 * $f2 * $f3 * $f4 / 1000 );
#X obj 422 78 t b b b b;
#X obj 421 312 t f f;
#X obj 421 337 array size track\$0_l;
#X obj 449 360 array size track\$0_r;
#X msg 422 107 8;
#X msg 456 154 700;
#X connect 0 0 13 0;
#X connect 1 0 2 0;
#X connect 3 0 7 0;
#X connect 4 0 3 0;
#X connect 5 0 6 0;
#X connect 8 0 9 0;
#X connect 10 0 11 0;
#X connect 13 0 20 0;
#X connect 14 0 12 0;
#X connect 15 0 16 0;
#X connect 17 0 18 0;
#X connect 19 0 31 0;
#X connect 20 0 1 0;
#X connect 20 1 4 0;
#X connect 20 2 5 0;
#X connect 20 3 8 0;
#X connect 20 4 10 0;
#X connect 20 5 14 0;
#X connect 20 6 15 0;
#X connect 20 9 17 0;
#X connect 22 0 28 1;
#X connect 24 0 28 3;
#X connect 28 0 30 0;
#X connect 29 0 32 0;
#X connect 30 0 29 0;
#X connect 31 0 35 0;
#X connect 31 1 22 0;
#X connect 31 2 36 0;
#X connect 31 3 24 0;
#X connect 32 0 33 0;
#X connect 32 1 34 0;
#X connect 35 0 28 0;
#X connect 36 0 28 2;
#X restore 267 165 pd initvalues;
#X text 268 138 valid:;
#X msg 166 489 \$1;
#X msg 154 536 \$1;
#X msg 152 586 \$1;
#X msg 125 636 \$1;
#X msg 211 442 symbol \$1;
#X obj 137 191 nbx 5 14 -1e+37 1e+37 0 0 \$0-sliderfreqset-s \$0-sliderfreqset-r
\$0-sliderfreqset -115 4 0 10 -262144 -1 -1 0 256 0;
#X floatatom 67 687 5 0 0 0 - - -, f 5;
#X msg 109 687 \$1;
#X obj 294 598 r \$0-duration_samples;
#X obj 137 211 nbx 6 13 -1e+37 1e+37 0 0 \$0-dursamplesset-s \$0-dursamplesset-r
\$0-dursamplesset -114 5 0 10 -262144 -1 -1 192000 256 0;
#X obj 136 230 nbx 5 14 -1e+37 1e+37 0 0 \$0-dursecset-s \$0-dursecset-r
\$0-dursecset -94 5 0 10 -262144 -1 -1 4 256 0;
#X obj 289 627 r \$0-duration_sec;
#X obj 294 563 r \$0-sliderfreq;
#X msg 67 711 /sliderfreq \$1;
#X text 457 170 bang samplerate~ when starting to record;
#X obj 420 309 r \$0-clear-s;
#X obj 420 334 bng 15 250 50 0 empty empty empty 17 7 0 10 -262144
-1 -1;
#X obj 420 357 t b b;
#X msg 420 382 \; track\$0_l const 0;
#X msg 420 420 \; track\$0_r const 0;
#X msg 550 381 0;
#X obj 550 406 s \$0-switch;
#X connect 2 0 42 0;
#X connect 3 0 39 0;
#X connect 4 0 38 0;
#X connect 5 0 40 0;
#X connect 6 0 41 0;
#X connect 7 0 27 0;
#X connect 11 0 12 0;
#X connect 12 0 13 0;
#X connect 13 1 44 0;
#X connect 13 2 32 0;
#X connect 13 3 31 0;
#X connect 13 4 30 0;
#X connect 13 5 29 0;
#X connect 13 6 28 0;
#X connect 13 7 27 0;
#X connect 14 0 18 0;
#X connect 15 0 18 0;
#X connect 16 0 18 0;
#X connect 17 0 18 0;
#X connect 19 0 18 0;
#X connect 20 0 18 0;
#X connect 21 0 35 0;
#X connect 22 0 2 0;
#X connect 23 0 4 0;
#X connect 24 0 3 0;
#X connect 25 0 5 0;
#X connect 26 0 6 0;
#X connect 27 0 14 0;
#X connect 28 0 15 0;
#X connect 29 0 17 0;
#X connect 30 0 16 0;
#X connect 31 0 19 0;
#X connect 32 0 20 0;
#X connect 38 0 29 0;
#X connect 39 0 30 0;
#X connect 40 0 31 0;
#X connect 41 0 32 0;
#X connect 42 0 28 0;
#X connect 43 0 45 0;
#X connect 44 0 51 0;
#X connect 45 0 44 0;
#X connect 46 0 47 0;
#X connect 49 0 48 0;
#X connect 50 0 43 0;
#X connect 51 0 18 0;
#X connect 53 0 54 0;
#X connect 54 0 55 0;
#X connect 55 0 56 0;
#X connect 55 1 58 0;
#X connect 56 0 57 0;
#X connect 58 0 59 0;
#X coords 0 -1 1 1 201 235 1 5 13;
#X restore 433 13 pd trackconfig;
#N canvas 481 224 1050 612 OSCinput 0;
#X obj 72 25 r fromui;
#X obj 72 50 routeOSC /track;
#X obj 98 96 f \$1;
#X obj 72 72 t a b;
#X obj 72 143 routeOSC /\$0;
#X msg 98 118 set /\$1;
#X obj 72 201 tgl 15 0 empty empty empty 17 7 0 10 -262144 -1 -1 0
1;
#X obj 72 227 s \$0-play-s;
#X obj 114 250 tgl 15 0 empty empty empty 17 7 0 10 -262144 -1 -1 0
1;
#X obj 114 276 s \$0-rec-s;
#X obj 157 326 s \$0-stop-s;
#X obj 157 301 bng 15 250 50 0 empty empty empty 17 7 0 10 -262144
-1 -1;
#X floatatom 200 357 5 0 0 0 - - -, f 5;
#X obj 200 381 s \$0-bars-s;
#X floatatom 243 411 5 0 0 0 - - -, f 5;
#X obj 243 435 s \$0-vol-s;
#X floatatom 286 200 5 0 0 0 - - -, f 5;
#X obj 286 224 s \$0-pan-s;
#X floatatom 328 249 5 0 0 0 - - -, f 5;
#X obj 328 273 s \$0-output-s;
#X obj 413 200 bng 15 250 50 0 empty empty empty 17 7 0 10 -262144
-1 -1;
#X obj 440 433 s \$0-getall-s;
#X obj 370 354 s \$0-name-s;
#X obj 371 305 tosymbol;
#X symbolatom 371 330 10 0 0 0 - - -, f 10;
#X floatatom 457 249 5 0 0 0 - - -, f 5;
#X obj 457 273 s \$0-switch;
#X obj 72 177 routeOSC /play /rec /stop /bars /vol /pan /output /name
/getall /switch /clear, f 79;
#X obj 500 299 bng 15 250 50 0 empty empty empty 17 7 0 10 -262144
-1 -1;
#X obj 500 322 s \$0-clear;
#X obj 413 458 s getmetro;
#X obj 413 223 t b b;
#X connect 0 0 1 0;
#X connect 1 0 3 0;
#X connect 2 0 5 0;
#X connect 3 0 4 0;
#X connect 3 1 2 0;
#X connect 4 0 27 0;
#X connect 5 0 4 0;
#X connect 6 0 7 0;
#X connect 8 0 9 0;
#X connect 11 0 10 0;
#X connect 12 0 13 0;
#X connect 14 0 15 0;
#X connect 16 0 17 0;
#X connect 18 0 19 0;
#X connect 20 0 31 0;
#X connect 23 0 24 0;
#X connect 24 0 22 0;
#X connect 25 0 26 0;
#X connect 27 0 6 0;
#X connect 27 1 8 0;
#X connect 27 2 11 0;
#X connect 27 3 12 0;
#X connect 27 4 14 0;
#X connect 27 5 16 0;
#X connect 27 6 18 0;
#X connect 27 7 23 0;
#X connect 27 8 20 0;
#X connect 27 9 25 0;
#X connect 27 10 28 0;
#X connect 28 0 29 0;
#X connect 31 0 30 0;
#X connect 31 1 21 0;
#X restore 145 26 pd OSCinput;
#N canvas 1 480 895 350 \$0-OSCoutput 0;
#X text 216 23 receive /playpause 1;
#X obj 123 57 t a b;
#X obj 150 81 \$1;
#X obj 123 145 list split 1;
#X obj 123 176 pack s s;
#X msg 123 201 \$2\$1;
#X msg 149 118 symbol /track/\$1;
#X obj 122 233 list append;
#X obj 122 258 list trim;
#X obj 122 283 s toui;
#X obj 123 23 r \$0-OSCoutput;
#X obj 400 32 r \$0-play-r;
#X obj 478 32 r \$0-rec-r;
#X obj 548 31 r \$0-stop-r;
#X msg 400 57 1;
#X obj 400 82 s \$0-OSCoutput;
#X msg 479 55 0;
#X msg 548 57 /stop \$1;
#X connect 1 0 3 0;
#X connect 1 1 2 0;
#X connect 2 0 6 0;
#X connect 3 0 4 0;
#X connect 3 1 7 1;
#X connect 4 0 5 0;
#X connect 5 0 7 0;
#X connect 6 0 4 1;
#X connect 7 0 8 0;
#X connect 8 0 9 0;
#X connect 10 0 1 0;
#X connect 11 0 14 0;
#X connect 12 0 16 0;
#X connect 13 0 17 0;
#X connect 14 0 15 0;
#X connect 16 0 15 0;
#X connect 17 0 15 0;
#X restore 143 54 pd \$0-OSCoutput;
#X symbolatom 42 288 22 0 0 0 - - -, f 22;
#X obj 34 53 table track\$0_r;
#X obj 35 28 table track\$0_l;
#N canvas 62 47 661 778 rec_samples 0;
#X obj 220 120 bng 15 250 50 0 empty empty empty 17 7 0 10 -262144
-1 -1;
#X msg 312 163 stop;
#X obj 254 383 tabwrite~;
#X text 27 103 rec queue bang, f 15;
#X obj 22 154 bng 15 250 50 0 empty empty empty 17 7 0 10 -262144 -1
-1;
#X obj 376 383 tabwrite~;
#X msg 546 138 set \$1_l;
#X msg 561 160 set \$1_r;
#X msg 546 81 track\$0;
#X obj 546 59 loadbang;
#X obj 375 270 receive~ sigin_1;
#X obj 255 270 receive~ sigin_1;
#X floatatom 43 178 9 0 0 0 - - -, f 9;
#X obj 43 148 r \$0-duration_samples;
#X obj 563 275 dsp_switch;
#X obj 563 324 switch~;
#X obj 255 325 *~;
#X obj 376 322 *~;
#X obj 22 122 t b 1;
#X obj 293 122 t 0 b b;
#X obj 546 103 t s s s s s s;
#X obj 22 3 r \$0-status-s;
#X floatatom 22 28 5 0 0 0 - - -, f 5;
#X obj 22 52 select 4 3 5 1 0, f 18;
#X text 199 101 recording;
#N canvas 0 0 450 300 resize_arrays 0;
#X msg 245 7 track\$0;
#X obj 245 -15 loadbang;
#X msg 140 130 symbol \$1_l;
#X obj 45 72 f, f 4;
#X msg 159 185 symbol \$1_r;
#X obj 83 155 array size;
#X obj 102 209 array size;
#X obj 45 103 t f f b b, f 10;
#X floatatom 83 180 5 0 0 0 - - -, f 5;
#X floatatom 102 234 5 0 0 0 - - -, f 5;
#X obj 64 203 -;
#X floatatom 64 249 5 0 0 0 - - -, f 5;
#X obj 64 228 > 0;
#X obj 45 273 spigot;
#X obj 45 298 t f f;
#X msg 102 319 symbol \$1_l;
#X msg 130 365 symbol \$1_r;
#X obj 45 342 array size;
#X obj 72 387 array size;
#X obj 245 29 t s s s s s s;
#X text 93 273 resize the arrays only if the expected size is bigger
than the current one, f 27;
#X text 116 105 get the arrays' current size;
#X obj 68 -4 inlet;
#X text 110 -3 expected size in samples, f 9;
#X obj 23 6 inlet;
#X text 22 26 bang;
#X connect 0 0 19 0;
#X connect 1 0 0 0;
#X connect 2 0 5 1;
#X connect 3 0 7 0;
#X connect 4 0 6 1;
#X connect 5 0 8 0;
#X connect 6 0 9 0;
#X connect 7 0 13 0;
#X connect 7 1 10 0;
#X connect 7 2 5 0;
#X connect 7 3 6 0;
#X connect 8 0 10 1;
#X connect 10 0 12 0;
#X connect 11 0 13 1;
#X connect 12 0 11 0;
#X connect 13 0 14 0;
#X connect 14 0 17 0;
#X connect 14 1 18 0;
#X connect 15 0 17 1;
#X connect 16 0 18 1;
#X connect 19 2 2 0;
#X connect 19 3 4 0;
#X connect 19 4 15 0;
#X connect 19 5 16 0;
#X connect 22 0 3 1;
#X connect 24 0 3 0;
#X restore 22 243 pd resize_arrays;
#X msg 220 142 bang;
#X text 287 101 stopped \, playing \, empty;
#X connect 0 0 26 0;
#X connect 1 0 2 0;
#X connect 1 0 5 0;
#X connect 4 0 25 0;
#X connect 6 0 2 0;
#X connect 7 0 5 0;
#X connect 8 0 20 0;
#X connect 9 0 8 0;
#X connect 10 0 17 0;
#X connect 11 0 16 0;
#X connect 12 0 25 1;
#X connect 13 0 12 0;
#X connect 14 0 15 0;
#X connect 14 1 16 1;
#X connect 14 1 17 1;
#X connect 16 0 2 0;
#X connect 17 0 5 0;
#X connect 18 0 4 0;
#X connect 18 1 14 0;
#X connect 19 0 14 0;
#X connect 19 1 1 0;
#X connect 20 0 6 0;
#X connect 20 1 7 0;
#X connect 21 0 22 0;
#X connect 22 0 23 0;
#X connect 23 0 18 0;
#X connect 23 1 0 0;
#X connect 23 2 19 0;
#X connect 23 3 19 0;
#X connect 23 4 19 0;
#X connect 26 0 2 0;
#X connect 26 0 5 0;
#X restore 40 209 pd rec_samples;
#N canvas 991 167 579 522 expected_samples 0;
#X text 100 272 duration in samples of the expected recording, f 20
;
#X obj 228 134 * 4;
#X obj 228 163 *;
#X obj 228 191 / 1000;
#X obj 227 221 *;
#X floatatom 227 242 6 0 0 0 - - -, f 6;
#X floatatom 374 265 6 0 0 0 - - -, f 6;
#X floatatom 180 164 5 0 0 0 - - -, f 5;
#X floatatom 168 204 5 0 0 0 - - -, f 5;
#X text 419 275 duration in s;
#X text 112 121 default number of beats per bar = 4, f 18;
#X obj 228 4 r \$0-barsset-s;
#X floatatom 228 99 5 0 0 0 - - -, f 5;
#X obj 278 145 r tempo_ms;
#X obj 278 77 r beatsperbar;
#X obj 374 321 s \$0-duration_sec;
#X obj 225 321 s \$0-duration_samples;
#X obj 361 185 r samplerateval;
#X floatatom 361 210 5 0 0 0 - - -, f 5;
#X floatatom 278 170 5 0 0 0 - - -, f 5;
#X floatatom 278 124 5 0 0 0 - - -, f 5;
#X msg 228 29 set \$1;
#X obj 77 7 r \$0-status-s;
#X floatatom 77 32 5 0 0 0 - - -, f 5;
#X obj 77 56 select 4 2;
#X text 143 57 rec queue or play queue;
#X connect 1 0 2 0;
#X connect 1 0 7 0;
#X connect 2 0 3 0;
#X connect 2 0 8 0;
#X connect 3 0 4 0;
#X connect 3 0 6 0;
#X connect 4 0 5 0;
#X connect 5 0 16 0;
#X connect 6 0 15 0;
#X connect 11 0 21 0;
#X connect 12 0 1 0;
#X connect 13 0 19 0;
#X connect 13 0 2 1;
#X connect 14 0 1 1;
#X connect 14 0 20 0;
#X connect 17 0 4 1;
#X connect 17 0 18 0;
#X connect 21 0 12 0;
#X connect 22 0 23 0;
#X connect 23 0 24 0;
#X connect 24 0 12 0;
#X connect 24 1 12 0;
#X restore 40 85 pd expected_samples;
#N canvas 207 176 757 549 play_audio 0;
#X obj 90 498 outlet;
#X text 141 500 output signals;
#N canvas 72 188 450 346 output_sel~ 0;
#X obj 133 292 throw~;
#X obj 185 292 throw~;
#X floatatom 162 105 5 0 0 0 - - -, f 5;
#X obj 160 150 t f f;
#X obj 158 177 + 1;
#X obj 190 177 + 2;
#X obj 161 126 * 2;
#X floatatom 158 202 5 0 0 0 - - -, f 5;
#X floatatom 190 202 5 0 0 0 - - -, f 5;
#X msg 142 253 set signal_\$1;
#X msg 206 227 set signal_\$1;
#X text 159 41 receive from drop-down;
#X obj 56 21 inlet~;
#X obj 107 22 inlet~;
#X obj 267 326 outlet;
#X obj 267 282 pack f f;
#X msg 268 305 symbol signal_\$1+signal_\$2;
#X obj 179 22 inlet;
#X connect 2 0 6 0;
#X connect 3 0 4 0;
#X connect 3 1 5 0;
#X connect 4 0 7 0;
#X connect 5 0 8 0;
#X connect 6 0 3 0;
#X connect 7 0 9 0;
#X connect 7 0 15 0;
#X connect 8 0 10 0;
#X connect 8 0 15 1;
#X connect 9 0 0 0;
#X connect 10 0 1 0;
#X connect 12 0 0 0;
#X connect 13 0 1 0;
#X connect 15 0 16 0;
#X connect 16 0 14 0;
#X connect 17 0 2 0;
#X restore 90 439 pd output_sel~;
#N canvas 814 257 450 599 vol_pan 0;
#X obj 69 34 inlet~;
#X obj 196 33 inlet~;
#X obj 275 31 inlet;
#X text 312 35 vol;
#X obj 363 34 inlet;
#X text 399 35 pan;
#X obj 71 473 outlet~;
#X obj 200 476 outlet~;
#X obj 71 398 *~;
#X obj 275 72 / 127;
#X obj 200 399 *~;
#X obj 95 197 sqrt;
#X obj 71 288 *~;
#X obj 217 192 sqrt;
#X obj 201 289 *~;
#X obj 363 65 / 127;
#X floatatom 217 168 5 0 0 0 - - -, f 5;
#X obj 96 149 * -1;
#X obj 95 173 + 1;
#X floatatom 217 213 5 0 0 0 - - -, f 5;
#X floatatom 94 217 5 0 0 0 - - -, f 5;
#X floatatom 85 322 5 0 0 0 - - -, f 5;
#X floatatom 216 324 5 0 0 0 - - -, f 5;
#X floatatom 363 90 5 0 0 0 - - -, f 5;
#X obj 71 435 clip~ -1 1;
#X obj 200 438 clip~ -1 1;
#X text 282 439 <-- very basic limiter;
#X obj 85 373 line~;
#X msg 85 347 \$1 50;
#X obj 94 265 line~;
#X msg 94 242 \$1 50;
#X obj 215 374 line~;
#X msg 215 348 \$1 50;
#X obj 216 263 line~;
#X msg 216 240 \$1 50;
#X connect 0 0 12 0;
#X connect 1 0 14 0;
#X connect 2 0 9 0;
#X connect 4 0 15 0;
#X connect 8 0 24 0;
#X connect 9 0 21 0;
#X connect 9 0 22 0;
#X connect 10 0 25 0;
#X connect 11 0 20 0;
#X connect 12 0 8 0;
#X connect 13 0 19 0;
#X connect 14 0 10 0;
#X connect 15 0 23 0;
#X connect 16 0 13 0;
#X connect 17 0 18 0;
#X connect 18 0 11 0;
#X connect 19 0 34 0;
#X connect 20 0 30 0;
#X connect 21 0 28 0;
#X connect 22 0 32 0;
#X connect 23 0 17 0;
#X connect 23 0 16 0;
#X connect 24 0 6 0;
#X connect 25 0 7 0;
#X connect 27 0 8 1;
#X connect 28 0 27 0;
#X connect 29 0 12 1;
#X connect 30 0 29 0;
#X connect 31 0 10 1;
#X connect 32 0 31 0;
#X connect 33 0 14 1;
#X connect 34 0 33 0;
#X restore 90 363 pd vol_pan;
#N canvas 121 51 624 889 play_full_sample 0;
#X obj 110 36 inlet;
#X text 151 38 start;
#X obj 197 39 inlet;
#X text 267 41 stop;
#X floatatom 353 60 7 0 0 0 - - -, f 7;
#X obj 489 89 samplerate~;
#X obj 380 141 /;
#X floatatom 380 163 5 0 0 1 duration_s - -, f 5;
#X obj 300 685 outlet~;
#X obj 427 684 outlet~;
#X obj 110 60 bng 15 250 50 0 empty empty empty 17 7 0 10 -262144 -1
-1;
#X obj 110 296 select 0 1, f 13;
#X obj 110 250 change;
#X obj 489 36 loadbang;
#X floatatom 489 117 5 0 0 0 - - -, f 5;
#X obj 489 61 bng 15 250 50 0 empty empty empty 17 7 0 10 -262144 -1
-1;
#X msg 197 219 0;
#X msg 110 220 1;
#X floatatom 110 275 5 0 0 0 - - -, f 5;
#X obj 353 114 t f f;
#X obj 197 64 bng 15 250 50 0 empty empty empty 17 7 0 10 -262144 -1
-1;
#X obj 353 36 r \$0-duration_samples;
#X obj 300 551 tabplay~ track\$0_l;
#X obj 427 551 tabplay~ track\$0_r;
#X floatatom 300 458 5 0 0 0 - - -, f 5;
#N canvas 0 0 450 300 floor 0;
#X obj 119 50 inlet;
#X obj 198 52 inlet;
#X obj 119 89 div;
#X floatatom 119 114 5 0 0 0 - - -, f 5;
#X obj 119 138 *;
#X obj 198 77 t f f;
#X obj 119 163 outlet;
#X connect 0 0 2 0;
#X connect 1 0 5 0;
#X connect 2 0 3 0;
#X connect 3 0 4 0;
#X connect 4 0 6 0;
#X connect 5 0 2 1;
#X connect 5 1 4 1;
#X restore 353 257 pd floor;
#X msg 399 232 64;
#X obj 399 206 loadbang;
#X obj 405 574 bng 14 250 50 0 empty empty empty 17 7 0 10 -262144
-1 -1;
#X msg 300 482 0 \$1;
#X obj 300 507 t a a;
#X obj 300 656 *~;
#X obj 427 656 *~;
#X obj 195 613 line~;
#X msg 196 551 0 10;
#X msg 240 551 1 10;
#X obj 240 613 line~;
#X obj 196 576 t a a;
#X obj 240 576 t a a;
#X msg 353 324 set \$1;
#X text 467 222 length in sample rounded down to the nearest block
(64 samples per block), f 15;
#X text 355 361 ramp up before playing \, inverser plutot?;
#X msg 110 504 stop;
#X msg 153 504 stop;
#X obj 406 420 spigot;
#X obj 301 361 t b b 1;
#X floatatom 439 398 5 0 0 0 - - -, f 5;
#X obj 110 362 t b b b 0, f 22;
#X obj 297 37 inlet;
#X obj 297 62 bng 15 250 50 0 empty empty empty 17 7 0 10 -262144 -1
-1;
#X text 297 15 stop queue;
#X msg 300 324 0;
#X text 484 395 restart playing when reaching the end \, unless stopped
or stop queued, f 18;
#X text 62 742 the progress display in the UI patch can use only the
duration in bars and the tempo to calculate the length/progression.
;
#X text 8 358 ramp down before stop \; inverse?, f 17;
#X obj 110 387 del 15;
#X obj 152 387 del 15;
#X connect 0 0 10 0;
#X connect 2 0 20 0;
#X connect 4 0 19 0;
#X connect 5 0 14 0;
#X connect 6 0 7 0;
#X connect 10 0 17 0;
#X connect 11 0 47 0;
#X connect 11 1 45 0;
#X connect 12 0 18 0;
#X connect 13 0 15 0;
#X connect 14 0 6 1;
#X connect 15 0 5 0;
#X connect 16 0 12 0;
#X connect 17 0 12 0;
#X connect 18 0 11 0;
#X connect 19 0 25 0;
#X connect 19 1 6 0;
#X connect 20 0 16 0;
#X connect 21 0 4 0;
#X connect 22 0 31 0;
#X connect 22 1 28 0;
#X connect 23 0 32 0;
#X connect 24 0 29 0;
#X connect 25 0 39 0;
#X connect 26 0 25 1;
#X connect 27 0 26 0;
#X connect 28 0 44 0;
#X connect 29 0 30 0;
#X connect 30 0 22 0;
#X connect 30 1 23 0;
#X connect 31 0 8 0;
#X connect 32 0 9 0;
#X connect 33 0 31 1;
#X connect 34 0 37 0;
#X connect 35 0 38 0;
#X connect 36 0 32 1;
#X connect 37 0 33 0;
#X connect 37 1 36 0;
#X connect 38 0 33 0;
#X connect 38 1 36 0;
#X connect 39 0 24 0;
#X connect 42 0 22 0;
#X connect 43 0 23 0;
#X connect 44 0 24 0;
#X connect 45 0 24 0;
#X connect 45 1 35 0;
#X connect 45 2 46 0;
#X connect 46 0 44 1;
#X connect 47 0 55 0;
#X connect 47 1 56 0;
#X connect 47 2 34 0;
#X connect 47 3 46 0;
#X connect 48 0 49 0;
#X connect 49 0 51 0;
#X connect 51 0 46 0;
#X connect 55 0 42 0;
#X connect 56 0 43 0;
#X restore 35 258 pd play_full_sample;
#X text 44 239 play;
#X text 115 237 stop;
#X text 22 279 % (127);
#X text 107 461 throw audio signal to the selected outputs;
#X text 75 278 _l audio out _r;
#X obj 464 237 dsp_switch;
#X obj 464 306 switch~;
#X obj 90 407 *~;
#X obj 261 406 *~;
#X obj 544 337 snapshot~;
#X floatatom 544 362 5 0 0 0 - - -, f 5;
#X obj 544 310 bng 15 250 50 0 empty empty empty 17 7 0 10 -262144
-1 -1;
#X obj 35 119 t b 1;
#X obj 108 120 t 0 b b;
#X obj 35 0 r \$0-status-s;
#X floatatom 35 25 5 0 0 0 - - -, f 5;
#X text 40 100 play, f 5;
#X text 120 98 stop \, recording \, empty;
#X obj 35 49 select 1 5 3 0, f 18;
#X floatatom 204 40 5 0 0 0 - - -, f 5;
#X obj 262 37 r \$0-panset-s;
#X floatatom 261 58 5 0 0 0 - - -, f 5;
#X obj 204 12 r \$0-volset-s;
#X text 268 77 adjust volume and panning as per trackconfig, f 22
;
#X floatatom 429 48 5 0 0 0 - - -, f 5;
#X obj 429 23 r \$0-outputset-s;
#X connect 2 0 0 0;
#X connect 3 0 12 0;
#X connect 3 1 13 0;
#X connect 4 0 3 0;
#X connect 4 1 3 1;
#X connect 10 0 11 0;
#X connect 10 1 12 1;
#X connect 10 1 13 1;
#X connect 10 1 14 0;
#X connect 12 0 2 0;
#X connect 13 0 2 1;
#X connect 14 0 15 0;
#X connect 16 0 14 0;
#X connect 17 0 4 0;
#X connect 17 1 10 0;
#X connect 18 0 10 0;
#X connect 18 2 4 1;
#X connect 19 0 20 0;
#X connect 20 0 23 0;
#X connect 23 0 17 0;
#X connect 23 1 18 0;
#X connect 23 2 18 0;
#X connect 23 3 18 0;
#X connect 24 0 3 2;
#X connect 25 0 26 0;
#X connect 26 0 3 3;
#X connect 27 0 24 0;
#X connect 29 0 2 2;
#X connect 30 0 29 0;
#X restore 42 241 pd play_audio;
#X text 302 15 0 empty \; 1 playing \; 2 play queued \; 3 recording
\; 4 rec queued \; 5 stopped \; 6 stop queued;
#N canvas 570 125 886 796 playrecstatus2 0;
#X obj 21 49 s \$0-barsset-r;
#X obj 21 21 bng 15 250 50 0 empty empty empty 17 7 0 10 -262144 -1
-1;
#N canvas 606 326 483 442 trackstart 0;
#X floatatom 141 39 5 0 0 0 - - -, f 5;
#X obj 141 13 r \$0-barsset-s;
#X obj 59 21 r beatnum;
#X floatatom 59 46 5 0 0 0 - - -, f 5;
#X obj 59 70 select 0;
#X obj 59 95 bng 15 250 50 0 empty empty empty 17 7 0 10 -262144 -1
-1;
#X obj 59 118 t b b;
#X obj 48 -39 r metrostart;
#X obj 59 143 f 0;
#X obj 93 144 + 1;
#X floatatom 59 168 5 0 0 0 - - -, f 5;
#X obj 59 192 mod;
#X floatatom 59 217 5 0 0 0 - - -, f 5;
#X obj 59 241 select 0;
#X obj 48 -14 t -1 0;
#X obj 59 276 outlet;
#X connect 0 0 11 1;
#X connect 1 0 0 0;
#X connect 2 0 3 0;
#X connect 3 0 4 0;
#X connect 4 0 5 0;
#X connect 5 0 6 0;
#X connect 6 0 8 0;
#X connect 7 0 14 0;
#X connect 8 0 9 0;
#X connect 8 0 10 0;
#X connect 9 0 8 1;
#X connect 10 0 11 0;
#X connect 11 0 12 0;
#X connect 12 0 13 0;
#X connect 13 0 15 0;
#X connect 14 0 8 0;
#X restore 19 85 pd trackstart;
#X obj 19 110 bng 15 250 50 0 empty empty empty 17 7 0 10 -262144 -1
-1;
#X obj 198 92 tgl 15 0 empty empty empty 17 7 0 10 -262144 -1 -1 0
1;
#X floatatom 198 115 5 0 0 0 - - -, f 5;
#X obj 198 139 pack;
#X msg 198 164 \$2 \$1;
#X obj 263 255 t 1 2;
#X msg 263 280 set \$1;
#X floatatom 247 340 5 0 0 0 - - -, f 5;
#X floatatom 247 364 5 0 0 0 - - -, f 5;
#X obj 198 68 r \$0-play-s;
#X obj 198 212 select 0;
#X obj 198 235 t 5 6;
#X msg 321 302 set \$1;
#X obj 262 232 select 1;
#X obj 464 94 tgl 15 0 empty empty empty 17 7 0 10 -262144 -1 -1 0
1;
#X floatatom 464 117 5 0 0 0 - - -, f 5;
#X obj 464 141 pack;
#X msg 464 166 \$2 \$1;
#X msg 516 287 set \$1;
#X obj 455 214 select 0;
#X obj 455 237 t 5 6;
#X obj 515 239 select 1;
#X obj 464 70 r \$0-rec-s;
#X obj 280 95 t f f;
#X obj 464 191 route 3 4;
#X floatatom 281 73 5 0 0 0 - - -, f 5;
#X msg 261 212 \$2;
#X msg 515 214 \$2;
#X obj 198 189 route 1 2 3;
#X obj 247 458 select 3;
#X obj 247 483 f 0;
#X obj 281 484 + 1;
#X obj 247 508 mod;
#X obj 281 528 - 1;
#X msg 313 606 set 1;
#X obj 516 262 t 3 4 -1;
#X floatatom 346 481 5 0 0 0 - - -, f 5;
#X obj 247 555 select;
#X obj 346 505 t f f;
#X obj 247 580 t b b b;
#X text 350 606 next start after rec will play;
#X obj 266 676 s \$0-rec-r;
#X msg 266 606 set 0;
#X msg 223 607 set 1;
#X obj 169 671 s \$0-play-r;
#X obj 247 388 t f f;
#X text 54 303 0 empty \; 1 playing \; 2 play queued \; 3 recording
\; 4 rec queued \; 5 stopped \; 6 stop queued;
#X obj 222 631 t a a;
#X obj 78 668 s \$0-play-s;
#X obj 268 631 t a a;
#X obj 344 676 s \$0-rec-s;
#X obj 434 112 bng 13 250 50 0 empty empty empty 17 7 0 10 -262144
-1 -1;
#X obj 274 432 s \$0-status-s;
#X obj 282 51 r \$0-status-s;
#X obj 577 73 r \$0-stop-s;
#X obj 577 104 t b 5;
#X obj 577 214 s \$0-rec-r;
#X msg 577 144 set 0;
#X obj 579 169 t a a;
#X obj 655 214 s \$0-rec-s;
#X obj 274 410 change;
#N canvas 1096 306 435 325 stopped_or_empty 0;
#X obj 108 152 array max track\$0_l;
#X obj 135 200 array min track\$0_l;
#X floatatom 108 177 5 0 0 0 - - -, f 5;
#X floatatom 135 224 5 0 0 0 - - -, f 5;
#X obj 108 244 -;
#X obj 108 116 t b b;
#X floatatom 108 269 5 0 0 0 - - -, f 5;
#X obj 108 89 bng 15 250 50 0 empty empty empty 17 7 0 10 -262144 -1
-1;
#X obj 108 293 select 0;
#X msg 108 318 0;
#X msg 152 318 5;
#X obj 109 60 select 0 5;
#X obj 109 24 inlet;
#X obj 108 356 outlet;
#X connect 0 0 2 0;
#X connect 1 0 3 0;
#X connect 2 0 4 0;
#X connect 3 0 4 1;
#X connect 4 0 6 0;
#X connect 5 0 0 0;
#X connect 5 1 1 0;
#X connect 6 0 8 0;
#X connect 7 0 5 0;
#X connect 8 0 9 0;
#X connect 8 1 10 0;
#X connect 9 0 13 0;
#X connect 10 0 13 0;
#X connect 11 0 7 0;
#X connect 11 1 7 0;
#X connect 12 0 11 0;
#X restore 321 279 pd stopped_or_empty;
#N canvas 1096 306 435 325 stopped_or_empty 0;
#X obj 108 152 array max track\$0_l;
#X obj 135 200 array min track\$0_l;
#X floatatom 108 177 5 0 0 0 - - -, f 5;
#X floatatom 135 224 5 0 0 0 - - -, f 5;
#X obj 108 244 -;
#X obj 108 116 t b b;
#X floatatom 108 269 5 0 0 0 - - -, f 5;
#X obj 108 89 bng 15 250 50 0 empty empty empty 17 7 0 10 -262144 -1
-1;
#X obj 108 293 select 0;
#X msg 108 318 0;
#X msg 152 318 5;
#X obj 109 60 select 0 5;
#X obj 109 24 inlet;
#X obj 108 356 outlet;
#X connect 0 0 2 0;
#X connect 1 0 3 0;
#X connect 2 0 4 0;
#X connect 3 0 4 1;
#X connect 4 0 6 0;
#X connect 5 0 0 0;
#X connect 5 1 1 0;
#X connect 6 0 8 0;
#X connect 7 0 5 0;
#X connect 8 0 9 0;
#X connect 8 1 10 0;
#X connect 9 0 13 0;
#X connect 10 0 13 0;
#X connect 11 0 7 0;
#X connect 11 1 7 0;
#X connect 12 0 11 0;
#X restore 639 130 pd stopped_or_empty;
#X connect 1 0 0 0;
#X connect 2 0 3 0;
#X connect 3 0 10 0;
#X connect 4 0 5 0;
#X connect 5 0 6 0;
#X connect 6 0 7 0;
#X connect 7 0 31 0;
#X connect 8 0 9 0;
#X connect 8 1 10 0;
#X connect 9 0 10 0;
#X connect 10 0 11 0;
#X connect 11 0 48 0;
#X connect 12 0 4 0;
#X connect 13 0 14 0;
#X connect 14 0 64 0;
#X connect 14 1 10 0;
#X connect 15 0 10 0;
#X connect 16 0 8 0;
#X connect 17 0 18 0;
#X connect 17 0 54 0;
#X connect 18 0 19 0;
#X connect 19 0 20 0;
#X connect 20 0 27 0;
#X connect 21 0 10 0;
#X connect 22 0 23 0;
#X connect 23 0 64 0;
#X connect 23 1 10 0;
#X connect 24 0 38 0;
#X connect 25 0 17 0;
#X connect 26 0 6 1;
#X connect 26 1 19 1;
#X connect 27 0 22 0;
#X connect 27 1 22 0;
#X connect 27 2 30 0;
#X connect 28 0 26 0;
#X connect 29 0 16 0;
#X connect 30 0 24 0;
#X connect 31 0 13 0;
#X connect 31 1 13 0;
#X connect 31 3 29 0;
#X connect 32 0 33 0;
#X connect 33 0 34 0;
#X connect 33 0 35 0;
#X connect 34 0 33 1;
#X connect 35 0 40 0;
#X connect 36 0 40 1;
#X connect 37 0 10 0;
#X connect 38 0 21 0;
#X connect 38 1 10 0;
#X connect 38 2 33 1;
#X connect 39 0 41 0;
#X connect 40 0 42 0;
#X connect 41 0 36 1;
#X connect 41 1 35 1;
#X connect 42 0 46 0;
#X connect 42 1 45 0;
#X connect 42 2 37 0;
#X connect 45 0 52 0;
#X connect 46 0 50 0;
#X connect 48 0 32 0;
#X connect 48 1 63 0;
#X connect 50 0 51 0;
#X connect 50 1 47 0;
#X connect 52 0 44 0;
#X connect 52 1 53 0;
#X connect 56 0 28 0;
#X connect 57 0 58 0;
#X connect 58 0 60 0;
#X connect 58 1 65 0;
#X connect 60 0 61 0;
#X connect 61 0 59 0;
#X connect 61 1 62 0;
#X connect 63 0 55 0;
#X connect 64 0 15 0;
#X connect 65 0 10 0;
#X restore 39 184 pd playrecstatus2;
#X connect 8 0 3 0;
