#N canvas 460 39 834 703 12;
#X obj 99 19 import mrpeach;
#N canvas 62 339 844 507 \$0-OSCoutput 0;
#X text 232 23 receive /playpause 1;
#X obj 123 57 t a b;
#X obj 150 81 \$1;
#X obj 123 145 list split 1;
#X obj 123 176 pack s s;
#X msg 123 201 \$2\$1;
#X msg 149 118 symbol /track/\$1;
#X obj 122 233 list append;
#X obj 122 258 list trim;
#X obj 123 23 r \$0-OSCoutput;
#X obj 122 283 s todsp;
#X connect 1 0 3 0;
#X connect 1 1 2 0;
#X connect 2 0 6 0;
#X connect 3 0 4 0;
#X connect 3 1 7 1;
#X connect 4 0 5 0;
#X connect 5 0 7 0;
#X connect 6 0 4 1;
#X connect 7 0 8 0;
#X connect 8 0 10 0;
#X connect 9 0 1 0;
#X restore 99 77 pd \$0-OSCoutput;
#X obj 81 223 cnv 15 110 58 empty \$0-trackbackgd-r empty 0 0 0 10
#fcfcfc #202020 0;
#N canvas 140 24 1088 718 trackconfig 0;
#X obj 220 210 cnv 15 181 246 empty empty empty 20 12 0 14 #e0e0e0
#404040 0;
#X symbolatom 323 260 10 0 0 0 #0-nameset #0-nameset-r #0-nameset-s
, f 10;
#X obj 323 302 nbx 5 14 -1e+37 1e+37 0 0 \$0-volset-s \$0-volset-r
\$0-volset -75 5 0 10 #fcfcfc #000000 #000000 0 256 0;
#X obj 323 284 nbx 5 14 -1e+37 1e+37 0 0 \$0-barsset-s \$0-barsset-r
\$0-barsset -84 4 0 10 #fcfcfc #000000 #000000 0 256 0;
#X obj 323 321 nbx 5 14 -1e+37 1e+37 0 0 \$0-panset-s \$0-panset-r
\$0-panset -72 4 0 10 #fcfcfc #000000 #000000 0 256 0;
#X obj 323 340 nbx 5 14 -1e+37 1e+37 0 0 \$0-outputset-s \$0-outputset-r
\$0-outputset -90 5 0 10 #fcfcfc #000000 #000000 0 256 0;
#X obj 323 240 nbx 5 14 -1e+37 1e+37 0 0 \$0-statusset-s \$0-statusset-r
\$0-statusset -87 5 0 10 #fcfcfc #000000 #000000 0 256 0;
#X obj 323 358 nbx 5 14 -1e+37 1e+37 0 0 tracksliderpos-s tracksliderpos-r
tracksliderpos -88 5 0 10 #fcfcfc #000000 #000000 0 256 0;
#X text 481 -20 valid:;
#X text 214 86 input from DSP;
#X obj 419 210 cnv 15 222 195 empty empty empty 20 12 0 14 #e0e0e0
#404040 0;
#X symbolatom 565 232 10 0 0 0 #0-namechange #0-namechange-r #0-namechange-s
, f 10;
#X obj 565 278 nbx 5 14 -1e+37 1e+37 0 0 \$0-volchange-s \$0-volchange-r
\$0-volchange -88 4 0 10 #fcfcfc #000000 #000000 0 256 0;
#X obj 565 255 nbx 5 14 -1e+37 1e+37 0 0 \$0-barschange-s \$0-barschange-r
\$0-barschange -95 4 0 10 #fcfcfc #000000 #000000 0 256 0;
#X obj 565 302 nbx 5 14 -1e+37 1e+37 0 0 \$0-panchange-s \$0-panchange-r
\$0-panchange -88 3 0 10 #fcfcfc #000000 #000000 0 256 0;
#X obj 565 322 nbx 5 14 -1e+37 1e+37 0 0 \$0-outputchange-s \$0-outputchange-r
\$0-outputchange -107 3 0 10 #fcfcfc #000000 #000000 0 256 0;
#X msg 329 511 set \$1;
#X msg 325 558 set \$1;
#X msg 325 587 set \$1;
#X msg 325 616 set \$1;
#X msg 325 647 set \$1;
#X obj 72 -8 routeOSC /track;
#X obj 98 38 f \$1;
#X obj 72 14 t a b;
#X obj 72 85 routeOSC /\$0;
#X msg 98 60 set /\$1;
#X obj 60 209 outlet;
#X obj 205 143 bng 15 250 50 0 empty empty empty 17 7 0 10 #fcfcfc
#000000 #000000;
#X floatatom 266 144 5 0 0 0 - - -, f 5;
#X floatatom 327 143 5 0 0 0 - - -, f 5;
#X floatatom 390 142 5 0 0 0 - - -, f 5;
#X floatatom 452 141 5 0 0 0 - - -, f 5;
#X obj 514 143 tosymbol;
#X obj 71 -33 r fromdsp;
#X floatatom 576 144 5 0 0 0 - - -, f 5;
#X text 813 245 GUI envoie play/rec and receives status, f 22;
#X obj 565 384 bng 15 250 50 0 \$0-stopchange-s \$0-stopchange-r \$0-stopchange
-95 3 0 10 #fcfcfc #000000 #000000;
#X msg 669 486 /output \$1;
#X msg 669 459 /pan \$1;
#X msg 669 435 /vol \$1;
#X msg 669 411 /bars \$1;
#X msg 669 383 /name \$1;
#X msg 669 513 /play \$1;
#X msg 669 542 /rec \$1;
#X obj 669 616 s \$0-OSCoutput;
#X text 473 210 Values changed in UI;
#X text 246 211 Values set in DSP;
#X obj 323 414 bng 15 250 50 0 \$0-stopset-s \$0-stopset-r \$0-stopset
-95 3 0 10 #fcfcfc #000000 #000000;
#X obj 514 185 s \$0-nameset-r;
#X obj 328 489 r \$0-nameset-s;
#X floatatom 81 146 5 0 0 0 - - -, f 5;
#X floatatom 142 146 5 0 0 0 - - -, f 5;
#X obj 323 377 nbx 5 14 -1e+37 1e+37 0 0 \$0-playset-s \$0-playset-r
\$0-playset -78 5 0 10 #fcfcfc #000000 #000000 0 256 0;
#X obj 321 396 nbx 5 14 -1e+37 1e+37 0 0 \$0-recset-s \$0-recset-r
\$0-recset -78 5 0 10 #fcfcfc #000000 #000000 0 256 0;
#X obj 564 341 nbx 5 14 -1e+37 1e+37 0 0 \$0-playchange-s \$0-playchange-r
\$0-playchange -94 3 0 10 #fcfcfc #000000 #000000 0 256 0;
#X obj 563 361 nbx 5 14 -1e+37 1e+37 0 0 \$0-recchange-s \$0-recchange-r
\$0-recchange -90 3 0 10 #fcfcfc #000000 #000000 0 256 0;
#X msg 669 571 /stop;
#X obj 669 356 r \$0-namechange-s;
#X obj 325 535 s \$0-namechange-r;
#N canvas 1139 455 450 325 \$0-getall 0;
#X obj 86 24 r \$0-getall;
#X msg 86 53 /getall;
#X obj 86 82 s \$0-OSCoutput;
#X obj 60 -1 r \$0-loadnum;
#X text 161 1 initialize the track;
#X connect 0 0 1 0;
#X connect 1 0 2 0;
#X connect 3 0 1 0;
#X restore 480 10 pd \$0-getall;
#X msg 514 167 set \$1;
#X msg 267 169 set \$1;
#X msg 392 165 set \$1;
#X msg 450 165 set \$1;
#X msg 136 349 set \$1;
#X msg 325 170 set \$1;
#X floatatom 638 144 5 0 0 0 - - -, f 5;
#X obj 81 119 routeOSC /play /rec /stop /bars /vol /pan /output /name
/status /sliderfreq, f 89;
#N canvas 33 24 1016 718 receive 0;
#X floatatom 28 75 5 0 0 0 - - -, f 5;
#X obj 28 46 r \$0-loadnum;
#X obj 28 245 tools/receiver;
#X msg 28 134 \$1 play;
#X msg 28 216 \$1-\$2change-r;
#X obj 28 274 s;
#X msg 60 189 symbol \$0-\$2change-r;
#X obj 28 163 t a a;
#X obj 116 427 tools/receiver;
#X msg 116 398 \$1-\$2change-r;
#X obj 116 456 s;
#X msg 148 371 symbol \$0-\$2change-r;
#X obj 116 345 t a a;
#X msg 116 316 \$1 rec;
#X obj 201 596 tools/receiver;
#X msg 201 567 \$1-\$2change-r;
#X obj 201 625 s;
#X msg 233 540 symbol \$0-\$2change-r;
#X obj 201 514 t a a;
#X msg 201 485 \$1 stop;
#X obj 289 287 s;
#X obj 289 176 t a a;
#X msg 289 147 \$1 trackstart;
#X obj 28 103 t f f f f f f f, f 75;
#X obj 289 230 r \$0-trackstart;
#X msg 321 202 symbol \$1-\$2;
#X text 260 25 receive \$0-trackstart and send it to \$1-trackstart
, f 15;
#X obj 383 411 s;
#X obj 383 300 t a a;
#X msg 415 326 symbol \$1-\$2;
#X msg 383 271 \$1 status;
#X obj 383 354 r \$0-statusset-s;
#X obj 510 284 tools/receiver;
#X obj 510 313 s;
#X obj 510 202 t a a;
#X msg 510 173 \$1 status;
#X msg 542 228 symbol \$0-\$2set-r;
#X msg 510 255 \$1-\$2-r;
#X msg 552 370 \$1 selected;
#X obj 593 564 s;
#X obj 552 399 t a a a a;
#X msg 624 426 symbol \$0-\$2-r;
#X symbolatom 766 509 16 0 0 0 - - -, f 16;
#X obj 758 470 tosymbol;
#X floatatom 627 508 5 0 0 0 - - -, f 5;
#X msg 592 451 \$1-\$2-s;
#X obj 592 480 tools/receiver;
#X obj 289 259 bng 15 250 50 0 empty empty empty 17 7 0 10 #fcfcfc
#000000 #000000;
#X obj 627 536 print;
#X obj 535 548 bng 15 250 50 0 empty empty empty 17 7 0 10 #fcfcfc
#000000 #000000;
#X obj 627 536 bng 15 250 50 0 empty empty empty 17 7 0 10 #fcfcfc
#000000 #000000;
#X msg 535 519 0;
#X connect 0 0 23 0;
#X connect 1 0 0 0;
#X connect 2 0 5 0;
#X connect 3 0 7 0;
#X connect 4 0 2 0;
#X connect 6 0 5 1;
#X connect 7 0 4 0;
#X connect 7 1 6 0;
#X connect 8 0 10 0;
#X connect 9 0 8 0;
#X connect 11 0 10 1;
#X connect 12 0 9 0;
#X connect 12 1 11 0;
#X connect 13 0 12 0;
#X connect 14 0 16 0;
#X connect 15 0 14 0;
#X connect 17 0 16 1;
#X connect 18 0 15 0;
#X connect 18 1 17 0;
#X connect 19 0 18 0;
#X connect 21 1 25 0;
#X connect 22 0 21 0;
#X connect 23 0 3 0;
#X connect 23 1 13 0;
#X connect 23 2 19 0;
#X connect 23 3 22 0;
#X connect 23 4 30 0;
#X connect 23 5 35 0;
#X connect 23 6 38 0;
#X connect 24 0 20 0;
#X connect 24 0 47 0;
#X connect 25 0 20 1;
#X connect 28 1 29 0;
#X connect 29 0 27 1;
#X connect 30 0 28 0;
#X connect 31 0 27 0;
#X connect 32 0 33 0;
#X connect 34 0 37 0;
#X connect 34 1 36 0;
#X connect 35 0 34 0;
#X connect 36 0 33 1;
#X connect 37 0 32 0;
#X connect 38 0 40 0;
#X connect 40 1 51 0;
#X connect 40 2 45 0;
#X connect 40 3 41 0;
#X connect 41 0 39 1;
#X connect 43 0 42 0;
#X connect 44 0 48 0;
#X connect 44 0 50 0;
#X connect 45 0 43 0;
#X connect 45 0 46 0;
#X connect 46 0 44 0;
#X connect 46 0 39 0;
#X connect 51 0 39 0;
#X connect 51 0 49 0;
#X restore 632 38 pd receive;
#X floatatom 545 417 5 0 0 0 selected: #0-selected-r #0-selected-s
, f 5;
#X connect 2 0 18 0;
#X connect 3 0 17 0;
#X connect 4 0 19 0;
#X connect 5 0 20 0;
#X connect 12 0 39 0;
#X connect 13 0 40 0;
#X connect 14 0 38 0;
#X connect 15 0 37 0;
#X connect 16 0 58 0;
#X connect 17 0 13 0;
#X connect 18 0 12 0;
#X connect 19 0 14 0;
#X connect 20 0 15 0;
#X connect 21 0 23 0;
#X connect 22 0 25 0;
#X connect 23 0 24 0;
#X connect 23 1 22 0;
#X connect 24 0 26 0;
#X connect 24 0 67 0;
#X connect 25 0 24 0;
#X connect 27 0 47 0;
#X connect 28 0 61 0;
#X connect 29 0 65 0;
#X connect 30 0 62 0;
#X connect 31 0 63 0;
#X connect 32 0 60 0;
#X connect 33 0 21 0;
#X connect 34 0 6 0;
#X connect 36 0 56 0;
#X connect 37 0 44 0;
#X connect 38 0 44 0;
#X connect 39 0 44 0;
#X connect 40 0 44 0;
#X connect 41 0 44 0;
#X connect 42 0 44 0;
#X connect 43 0 44 0;
#X connect 49 0 16 0;
#X connect 50 0 52 0;
#X connect 51 0 53 0;
#X connect 54 0 42 0;
#X connect 55 0 43 0;
#X connect 56 0 44 0;
#X connect 57 0 41 0;
#X connect 60 0 48 0;
#X connect 61 0 3 0;
#X connect 62 0 4 0;
#X connect 63 0 5 0;
#X connect 65 0 2 0;
#X connect 67 0 50 0;
#X connect 67 1 51 0;
#X connect 67 2 27 0;
#X connect 67 3 28 0;
#X connect 67 4 29 0;
#X connect 67 5 30 0;
#X connect 67 6 31 0;
#X connect 67 7 32 0;
#X connect 67 8 34 0;
#X connect 67 9 66 0;
#X coords 0 -1 1 1 427 250 2 218 209;
#X restore 456 9 pd trackconfig;
#N canvas 442 392 450 350 initialize 1;
#X obj 147 14 bng 15 250 50 0 trackui-initbang-s trackui-initbang-r
trackui-initbang 17 7 0 10 #fcfcfc #000000 #000000;
#X obj 147 38 \$1;
#X obj 184 179 s \$0-loadnum;
#X obj 147 72 t f f f f f;
#X msg 221 102 label \$1-trackui-initbang;
#X obj 201 154 s trackui-initbang-r;
#X msg 202 127 receive \$1-trackui-initbang-r;
#X connect 0 0 1 0;
#X connect 1 0 3 0;
#X connect 3 2 2 0;
#X connect 3 3 6 0;
#X connect 3 4 4 0;
#X connect 4 0 5 0;
#X connect 6 0 5 0;
#X restore 99 48 pd initialize;
#X obj 84 244 tgl 16 0 empty \$0-cfg-r cfg 0 5 0 10 #fcfcfc #000000
#404040 0 1;
#X text 243 17 buttonGUI only to send changes to trackconfig \, not
directly to DSP, f 29;
#N canvas 490 47 682 392 set_buttoncontent 0;
#X obj 42 30 inlet;
#X text 93 31 cfg or UI;
#X obj 42 64 select 0 1, f 87;
#X obj 391 121 t b b b, f 8;
#X msg 443 148 clear;
#X obj 394 233 bng 15 250 50 0 empty empty empty 17 7 0 10 #fcfcfc
#000000 #000000;
#X msg 413 173 obj 30 60 buttoncfg \$1;
#X obj 411 148 \$1;
#X obj 394 256 s initbang-buttoncfg-r;
#X msg 150 155 clear;
#X obj 73 207 bng 15 250 50 0 empty empty empty 17 7 0 10 #fcfcfc #000000
#000000;
#X obj 73 244 s buttonguibang-r;
#X msg 107 183 obj 30 60 buttonGUI \$1;
#X obj 114 156 \$1;
#X obj 107 215 s pd-\$0-buttoncontent;
#X obj 73 128 t b b b b, f 11;
#X obj 413 206 s pd-\$0-buttoncontent;
#N canvas 1112 159 450 673 from\$0toUI 0;
#X obj 29 49 t b b b b b;
#X obj 100 138 s \$0-playset-r;
#X obj 99 164 r \$0-playset-s;
#X obj 99 214 s;
#X obj 77 320 s;
#X obj 78 244 s \$0-recset-r;
#X obj 77 270 r \$0-recset-s;
#X obj 103 76 \$1;
#X obj 45 432 s;
#X obj 28 17 inlet;
#X msg 153 193 symbol \$1-playUI-r;
#X msg 128 300 symbol \$1-recUI-r;
#X obj 28 571 s;
#X obj 29 465 s \$0-nameset-r;
#X obj 28 491 r \$0-nameset-s;
#X obj 103 101 t f f f f;
#X msg 28 519 label \$1;
#X obj 46 356 s \$0-stopset-r;
#X obj 45 382 r \$0-stopset-s;
#X msg 70 407 symbol \$1-stopUI-r;
#X text 186 376 import stop status from GUI?;
#X msg 46 546 symbol \$1-nameUI-r;
#X msg 99 193 set \$1;
#X msg 77 299 set \$1;
#X msg 188 545 symbol \$1-sliderUI-r;
#X obj 171 581 s;
#X connect 0 0 13 0;
#X connect 0 2 5 0;
#X connect 0 3 1 0;
#X connect 0 4 7 0;
#X connect 2 0 22 0;
#X connect 6 0 23 0;
#X connect 7 0 15 0;
#X connect 9 0 0 0;
#X connect 10 0 3 1;
#X connect 11 0 4 1;
#X connect 14 0 16 0;
#X connect 15 0 24 0;
#X connect 15 1 11 0;
#X connect 15 2 10 0;
#X connect 15 3 21 0;
#X connect 16 0 12 0;
#X connect 16 0 25 0;
#X connect 18 0 8 0;
#X connect 19 0 8 1;
#X connect 21 0 12 1;
#X connect 22 0 3 0;
#X connect 23 0 4 0;
#X connect 24 0 25 1;
#X restore 48 288 pd from\$0toUI;
#N canvas 596 49 450 598 fromUIto\$0 0;
#X obj 103 76 \$1;
#X obj 103 101 t f f f;
#X obj 28 17 inlet;
#X obj 151 181 tools/receiver;
#X msg 149 138 \$1-playUI-s;
#X obj 151 210 s \$0-playchange-r;
#X obj 135 286 tools/receiver;
#X msg 133 243 \$1-recUI-s;
#X obj 135 315 s \$0-recchange-r;
#X obj 109 384 tools/receiver;
#X msg 107 350 \$1-stopUI-s;
#X obj 109 413 s \$0-stopchange-r;
#X connect 0 0 1 0;
#X connect 1 0 10 0;
#X connect 1 1 7 0;
#X connect 2 0 0 0;
#X connect 4 0 3 0;
#X connect 6 0 8 0;
#X connect 7 0 6 0;
#X connect 9 0 11 0;
#X connect 10 0 9 0;
#X restore 40 334 pd fromUIto\$0;
#X obj 42 97 t b b b;
#N canvas 431 283 921 809 from\$0tocfg 0;
#X obj 26 214 s;
#X obj 277 209 s;
#X obj 47 50 \$1;
#X obj 108 474 s;
#X obj 29 -1 inlet;
#X obj 360 378 s;
#X obj 361 272 s \$0-nameset-r;
#X obj 360 298 r \$0-nameset-s;
#X obj 27 101 t b b b b b b, f 60;
#X obj 27 138 s \$0-volset-r;
#X obj 26 164 r \$0-volset-s;
#X msg 44 189 symbol \$1-volcfg-r;
#X obj 278 132 s \$0-panset-r;
#X obj 277 159 r \$0-panset-s;
#X msg 295 184 symbol \$1-pancfg-r;
#X msg 378 353 symbol \$1-namecfg-r;
#X obj 109 368 s \$0-outputset-r;
#X obj 108 394 r \$0-outputset-s;
#X msg 126 449 symbol \$1-outputcfg-r;
#X obj 190 321 s;
#X obj 191 245 s \$0-barsset-r;
#X obj 190 271 r \$0-barsset-s;
#X msg 208 296 symbol \$1-barscfg-r;
#X obj 105 5 bng 15 250 50 0 empty empty empty 17 7 0 10 #fcfcfc #000000
#000000;
#X msg 360 326 symbol \$1;
#X msg 108 422 \$1;
#X msg 261 407 3;
#X obj 28 24 t b b;
#X obj 47 74 t f f f f f f, f 60;
#X text 576 132 bang to force changing the color of cfgbckg;
#X obj 444 129 s \$0-statusset-s;
#X connect 2 0 28 0;
#X connect 4 0 27 0;
#X connect 7 0 24 0;
#X connect 8 0 9 0;
#X connect 8 1 16 0;
#X connect 8 2 20 0;
#X connect 8 3 12 0;
#X connect 8 4 6 0;
#X connect 8 5 30 0;
#X connect 10 0 0 0;
#X connect 11 0 0 1;
#X connect 13 0 1 0;
#X connect 14 0 1 1;
#X connect 15 0 5 1;
#X connect 17 0 25 0;
#X connect 18 0 3 1;
#X connect 21 0 19 0;
#X connect 22 0 19 1;
#X connect 23 0 27 0;
#X connect 24 0 5 0;
#X connect 25 0 3 0;
#X connect 26 0 3 0;
#X connect 27 0 8 0;
#X connect 27 1 2 0;
#X connect 28 0 11 0;
#X connect 28 1 18 0;
#X connect 28 2 22 0;
#X connect 28 3 14 0;
#X connect 28 4 15 0;
#X restore 370 290 pd from\$0tocfg;
#X obj 345 93 t b b b;
#N canvas 118 202 450 648 fromcfgto\$0 0;
#X obj 103 76 \$1;
#X obj 28 17 inlet;
#X obj 141 331 tools/receiver;
#X obj 125 456 tools/receiver;
#X obj 99 554 tools/receiver;
#X obj 103 101 t f f f f f;
#X obj 174 161 tools/receiver;
#X msg 174 135 \$1-volcfg-s;
#X obj 174 188 s \$0-volchange-r;
#X obj 161 242 tools/receiver;
#X msg 161 216 \$1-pancfg-s;
#X obj 161 269 s \$0-panchange-r;
#X msg 141 303 \$1-namecfg-s;
#X obj 140 386 s \$0-namechange-r;
#X msg 123 426 \$1-outputcfg-s;
#X obj 125 485 s \$0-outputchange-r;
#X msg 97 520 \$1-barscfg-s;
#X obj 99 583 s \$0-barschange-r;
#X msg 141 360 symbol \$1;
#X obj 79 582 bng 15 250 50 0 empty empty empty 17 7 0 10 #fcfcfc #000000
#000000;
#X connect 0 0 5 0;
#X connect 1 0 0 0;
#X connect 2 0 18 0;
#X connect 3 0 15 0;
#X connect 4 0 17 0;
#X connect 4 0 19 0;
#X connect 5 0 16 0;
#X connect 5 1 14 0;
#X connect 5 2 12 0;
#X connect 5 3 10 0;
#X connect 5 4 7 0;
#X connect 6 0 8 0;
#X connect 7 0 6 0;
#X connect 9 0 11 0;
#X connect 10 0 9 0;
#X connect 12 0 2 0;
#X connect 14 0 3 0;
#X connect 16 0 4 0;
#X connect 18 0 13 0;
#X restore 349 337 pd fromcfgto\$0;
#X msg 183 38 0;
#X obj 183 13 r \$0-loadnum;
#X connect 0 0 2 0;
#X connect 2 0 19 0;
#X connect 2 1 21 0;
#X connect 3 0 5 0;
#X connect 3 1 7 0;
#X connect 3 2 4 0;
#X connect 4 0 16 0;
#X connect 5 0 8 0;
#X connect 6 0 16 0;
#X connect 7 0 6 0;
#X connect 9 0 14 0;
#X connect 10 0 11 0;
#X connect 12 0 14 0;
#X connect 13 0 12 0;
#X connect 15 1 10 0;
#X connect 15 2 13 0;
#X connect 15 3 9 0;
#X connect 19 0 18 0;
#X connect 19 1 17 0;
#X connect 19 2 15 0;
#X connect 21 0 22 0;
#X connect 21 1 20 0;
#X connect 21 2 3 0;
#X connect 23 0 2 0;
#X connect 24 0 23 0;
#X restore 259 286 pd set_buttoncontent;
#X obj 84 226 tgl 16 0 \$0-playUI-s \$0-playUI-r P 4 6 0 10 #fcfcfc
#000000 #000000 0 1;
#N canvas 113 24 809 743 slider 0;
#X obj 263 453 r \$0-statusset-s;
#X floatatom 263 482 5 0 0 0 - - -, f 5;
#X floatatom 185 227 5 0 0 0 - - -, f 5;
#X obj 228 58 r tempo_ms;
#X floatatom 228 224 5 0 0 0 - - -, f 5;
#X obj 291 7 r beatsperbar;
#X floatatom 291 191 5 0 0 0 - - -, f 5;
#X obj 228 262 *;
#X obj 185 289 *;
#X obj 185 7 r \$0-barsset-s;
#X obj 77 388 bng 15 250 50 0 empty empty empty 17 7 0 10 #fcfcfc #000000
#000000;
#X obj 77 462 metro;
#X obj 77 490 f 0;
#X obj 108 491 + 1;
#X obj 77 546 mod 127;
#X floatatom 77 575 5 0 0 0 - - -, f 5;
#X floatatom 185 318 5 0 0 1 duration_ms - -, f 5;
#X obj 185 346 / 127;
#X floatatom 185 403 5 0 0 0 - - -, f 5;
#X msg 11 398 stop;
#X obj 185 375 * 2;
#X obj 77 519 *;
#X obj 326 257 r \$0-loadnum;
#X msg 326 316 2;
#X obj 13 49 r metrostop;
#X obj 263 540 select 0 5;
#X msg 263 569 color 1;
#X msg 330 570 color 0;
#X text 348 512 grey when not playing (but the slider progresses anyway)
, f 23;
#X obj 77 603 s;
#X msg 358 357 symbol \$1-sliderUI-r;
#X obj 263 618 s;
#X obj 358 386 t s s;
#X obj 326 286 t b f;
#X text 363 312 <-- reducing the update frequency of the slider, f
30;
#X obj 390 424 r \$0-loadnum;
#X msg 390 453 0;
#X obj 185 255 t f f;
#X obj 13 78 t b b;
#X obj 77 81 r \$0-trackstart;
#X obj 77 412 t b 0;
#X obj 389 64 r metrostart;
#X obj 389 102 t b b b b;
#X obj 409 171 s \$0-barsset-r;
#X obj 429 150 s tempo_ms-r;
#X obj 449 129 s beatsperbar-r;
#X obj 77 113 t b b b b;
#X obj 97 182 s \$0-barsset-r;
#X obj 117 161 s tempo_ms-r;
#X obj 137 140 s beatsperbar-r;
#X obj 389 197 s \$0-playset-r;
#X obj 263 510 t f f;
#X connect 0 0 1 0;
#X connect 1 0 51 0;
#X connect 2 0 37 0;
#X connect 3 0 4 0;
#X connect 4 0 7 0;
#X connect 5 0 6 0;
#X connect 6 0 7 1;
#X connect 7 0 8 1;
#X connect 8 0 16 0;
#X connect 9 0 2 0;
#X connect 10 0 40 0;
#X connect 11 0 12 0;
#X connect 12 0 13 0;
#X connect 12 0 21 0;
#X connect 13 0 12 1;
#X connect 14 0 15 0;
#X connect 15 0 29 0;
#X connect 16 0 17 0;
#X connect 17 0 20 0;
#X connect 18 0 11 1;
#X connect 19 0 11 0;
#X connect 20 0 18 0;
#X connect 21 0 14 0;
#X connect 22 0 33 0;
#X connect 23 0 20 1;
#X connect 23 0 21 1;
#X connect 24 0 38 0;
#X connect 25 0 26 0;
#X connect 25 2 27 0;
#X connect 26 0 31 0;
#X connect 27 0 31 0;
#X connect 30 0 32 0;
#X connect 32 0 29 1;
#X connect 32 1 31 1;
#X connect 33 0 23 0;
#X connect 33 1 30 0;
#X connect 35 0 36 0;
#X connect 36 0 1 0;
#X connect 37 0 8 0;
#X connect 38 0 19 0;
#X connect 39 0 46 0;
#X connect 40 0 11 0;
#X connect 40 1 12 1;
#X connect 41 0 42 0;
#X connect 42 0 50 0;
#X connect 42 1 43 0;
#X connect 42 2 44 0;
#X connect 42 3 45 0;
#X connect 46 0 10 0;
#X connect 46 1 47 0;
#X connect 46 2 48 0;
#X connect 46 3 49 0;
#X connect 51 0 25 0;
#X restore 99 108 pd slider;
#N canvas 506 57 643 673 midictrl 1;
#X obj 39 147 t b b b b;
#X obj 100 181 s \$0-statusset-r;
#X obj 152 216 r \$0-statusset-s;
#N canvas 568 162 611 411 midiout 0;
#X text 21 112 button;
#X text 148 117 velocity;
#X obj 78 167 noteout 1;
#X obj 78 111 \$1;
#X obj 62 79 t b b f;
#X floatatom 78 140 5 0 0 0 - - -, f 5;
#X floatatom 108 118 5 0 0 0 - - -, f 5;
#X obj 62 17 r \$0-statusset-s;
#X floatatom 62 50 5 0 0 0 - - -, f 5;
#X connect 3 0 5 0;
#X connect 4 1 3 0;
#X connect 4 2 6 0;
#X connect 5 0 2 0;
#X connect 6 0 2 1;
#X connect 7 0 8 0;
#X connect 8 0 4 0;
#X restore 257 32 pd midiout;
#X obj 39 7 r \$0-loadnum;
#X floatatom 39 36 5 0 0 0 - - -, f 5;
#X msg 39 64 \$1-midibutton;
#X obj 39 93 tools/receiver;
#X obj 39 122 bng 15 250 50 0 empty empty empty 17 7 0 10 #fcfcfc #000000
#000000;
#X obj 303 105 r midipedal;
#X floatatom 303 130 5 0 0 0 - - -, f 5;
#X obj 303 154 t f f;
#N canvas 387 24 801 743 buttons_matrix_pedal 0;
#X obj 167 38 inlet;
#X text 126 18 button_number;
#X obj 402 41 inlet;
#X text 443 41 pedal;
#X msg 291 66 0;
#X floatatom 402 77 2 0 0 0 - - -, f 2;
#X obj 155 153 spigot;
#X text 202 153 if pedal is pressed;
#X floatatom 155 178 5 0 0 0 - - -, f 5;
#X obj 402 153 select 0;
#X msg 306 233 set \$1;
#X floatatom 402 267 5 0 0 0 - - -, f 5;
#X text 462 152 pedal released;
#X obj 155 205 t f f, f 22;
#X obj 402 101 t f f f;
#X obj 420 209 select 1;
#X msg 420 234 set 128;
#X obj 447 435 bng 15 250 50 0 empty empty empty 17 7 0 10 #fcfcfc
#000000 #000000;
#X msg 447 458 1;
#X msg 425 564 128;
#X obj 222 0 inlet;
#X text 261 2 status;
#X floatatom 565 65 5 0 0 0 - - -, f 5;
#X obj 565 89 select 0;
#X msg 565 114 1;
#X msg 609 113 0;
#X obj 447 511 spigot;
#X floatatom 486 485 2 0 0 0 - - -, f 2;
#X text 514 14 record only if the track is empty \, to avoid overwriting
, f 18;
#X obj 167 67 t f f;
#X obj 447 537 s \$0-recchange-r;
#X obj 425 589 s global-selected-r;
#X obj 291 41 r \$0-loadnum;
#X obj 187 555 s \$0-selected-r;
#X text 492 266 was this track selected just now when the pedal was
pressed?, f 25;
#X obj 402 295 select 128;
#X text 488 410 then start rec;
#X obj 100 195 bng 15 250 50 0 empty empty empty 17 7 0 10 #fcfcfc
#000000 #000000;
#X obj 194 316 r \$0-selected-s;
#X floatatom 194 345 5 0 0 0 - - -, f 5;
#X obj 155 467 tgl 15 0 empty empty empty 17 7 0 10 #fcfcfc #000000
#000000 0 1;
#X obj 155 280 bng 15 250 50 0 empty empty empty 17 7 0 10 #fcfcfc
#000000 #000000;
#X msg 194 374 set \$1;
#X obj 155 583 s global-selected-r;
#X obj 642 175 r \$0-selected-s;
#X floatatom 642 204 5 0 0 0 - - -, f 5;
#X obj 402 182 spigot;
#X obj 402 324 bng 15 250 50 0 empty empty empty 17 7 0 10 #fcfcfc
#000000 #000000;
#X obj 402 410 t 0 b b;
#X obj 155 520 \$1;
#X floatatom 110 547 5 0 0 0 - - -, f 5;
#X obj 155 491 t b f;
#X floatatom 83 485 5 0 0 0 - - -, f 5;
#X floatatom 186 520 5 0 0 0 - - -, f 5;
#X floatatom 194 403 5 0 0 0 - - -, f 5;
#X obj 83 513 bng 15 250 50 0 empty empty empty 17 7 0 10 #fcfcfc #000000
#000000;
#X floatatom 155 304 5 0 0 0 - - -, f 5;
#X floatatom 402 348 5 0 0 0 - - -, f 5;
#X obj 215 657 r global-selected-s;
#X floatatom 215 686 5 0 0 0 - - -, f 5;
#X obj 421 447 bng 15 250 50 0 empty empty empty 17 7 0 10 #fcfcfc
#000000 #000000;
#X msg 315 439 set 0;
#X obj 371 482 t b b;
#X msg 387 517 0;
#X connect 0 0 29 0;
#X connect 2 0 5 0;
#X connect 4 0 6 1;
#X connect 5 0 14 0;
#X connect 6 0 8 0;
#X connect 8 0 13 0;
#X connect 8 0 37 0;
#X connect 9 0 46 0;
#X connect 10 0 11 0;
#X connect 11 0 35 0;
#X connect 13 0 41 0;
#X connect 13 1 10 0;
#X connect 14 0 9 0;
#X connect 14 1 6 1;
#X connect 14 2 15 0;
#X connect 15 0 16 0;
#X connect 16 0 11 0;
#X connect 17 0 18 0;
#X connect 18 0 26 0;
#X connect 19 0 31 0;
#X connect 20 0 22 0;
#X connect 22 0 23 0;
#X connect 23 0 24 0;
#X connect 23 1 25 0;
#X connect 24 0 27 0;
#X connect 25 0 27 0;
#X connect 26 0 30 0;
#X connect 27 0 26 1;
#X connect 29 0 6 0;
#X connect 32 0 4 0;
#X connect 35 0 47 0;
#X connect 38 0 39 0;
#X connect 39 0 42 0;
#X connect 40 0 51 0;
#X connect 40 0 52 0;
#X connect 41 0 40 0;
#X connect 41 0 56 0;
#X connect 42 0 40 0;
#X connect 42 0 54 0;
#X connect 44 0 45 0;
#X connect 45 0 46 1;
#X connect 46 0 11 0;
#X connect 47 0 48 0;
#X connect 47 0 57 0;
#X connect 48 0 62 0;
#X connect 48 1 60 0;
#X connect 48 2 17 0;
#X connect 49 0 43 0;
#X connect 49 0 50 0;
#X connect 51 0 49 0;
#X connect 51 1 53 0;
#X connect 52 0 55 0;
#X connect 53 0 33 0;
#X connect 58 0 59 0;
#X connect 60 0 19 0;
#X connect 61 0 40 0;
#X connect 62 0 61 0;
#X connect 62 1 63 0;
#X connect 63 0 53 0;
#X restore 70 350 pd buttons_matrix_pedal;
#N canvas 599 168 450 500 buttons_matrix_nopedal 0;
#X obj 69 23 inlet;
#X text 108 24 button number;
#X obj 289 25 inlet;
#X text 324 24 pedal;
#X obj 143 281 spigot;
#X floatatom 143 232 5 0 0 0 - - -, f 5;
#X text 187 281 if pedal not pressed;
#X obj 143 256 t f f, f 10;
#X floatatom 104 306 5 0 0 0 - - -, f 5;
#X obj 143 200 spigot;
#X obj 140 165 t 0 1 f 0;
#X text 224 207 <-- 1 when button pressed \, 0 right after passing
the status, f 21;
#N canvas 119 320 450 375 change_track_nopedal 0;
#X obj 119 22 inlet;
#X text 23 3 current status when pressing button;
#X obj 119 244 s;
#X text 29 80 if the track is empty or recording \, send a bang to
toggle rec, f 14;
#X obj 119 160 t 1 rec;
#X obj 136 136 t 0 rec;
#X obj 171 105 t 1 play;
#X obj 206 83 t 0 play;
#X obj 119 50 select 0 3 4 5 6 1 2;
#X obj 119 75 bng 15 250 50 0 empty empty empty 17 7 0 10 #fcfcfc #000000
#000000;
#X obj 158 239 bng 15 250 50 0 empty empty empty 17 7 0 10 #fcfcfc
#000000 #000000;
#X msg 158 212 symbol \$0-\$1change-r;
#X connect 0 0 8 0;
#X connect 4 0 2 0;
#X connect 4 1 11 0;
#X connect 5 0 2 0;
#X connect 5 1 11 0;
#X connect 6 0 2 0;
#X connect 6 1 11 0;
#X connect 7 0 2 0;
#X connect 7 1 11 0;
#X connect 8 0 4 0;
#X connect 8 0 9 0;
#X connect 8 1 5 0;
#X connect 8 2 5 0;
#X connect 8 3 6 0;
#X connect 8 4 6 0;
#X connect 8 5 7 0;
#X connect 8 6 7 0;
#X connect 11 0 2 1;
#X connect 11 0 10 0;
#X restore 143 319 pd change_track_nopedal;
#X floatatom 289 50 5 0 0 0 - - -, f 5;
#X obj 289 74 == 0;
#X floatatom 289 99 5 0 0 0 - - -, f 5;
#X obj 69 81 t f f f b f f 1 f, f 26;
#X obj 197 25 inlet;
#X text 228 23 status;
#X floatatom 69 48 5 0 0 0 - - -, f 5;
#X floatatom 139 136 5 0 0 0 - - -, f 5;
#X msg 196 49 set \$1;
#X connect 0 0 19 0;
#X connect 2 0 13 0;
#X connect 4 0 8 0;
#X connect 4 0 12 0;
#X connect 5 0 7 0;
#X connect 7 0 4 0;
#X connect 9 0 5 0;
#X connect 10 0 9 1;
#X connect 10 2 9 0;
#X connect 13 0 14 0;
#X connect 14 0 15 0;
#X connect 15 0 4 1;
#X connect 16 3 20 0;
#X connect 16 6 9 1;
#X connect 17 0 21 0;
#X connect 19 0 16 0;
#X connect 20 0 10 0;
#X connect 21 0 20 0;
#X restore 97 319 pd buttons_matrix_nopedal;
#X obj 70 280 t f f;
#X obj 152 280 t f f;
#X obj 69 181 \$1;
#X floatatom 152 245 5 0 0 0 - - -, f 5;
#X obj 214 251 bng 15 250 50 0 empty empty empty 17 7 0 10 #fcfcfc
#000000 #000000;
#X obj 405 76 r \$0-loadnum;
#X msg 405 105 0;
#N canvas 152 161 961 557 midi_cfg 0;
#X obj 101 35 r \$0-selected-s;
#X floatatom 101 64 5 0 0 0 - - -, f 5;
#X obj 62 92 spigot;
#X obj 62 10 r midictl;
#X obj 62 122 unpack f f;
#X floatatom 62 147 5 0 0 0 value - -, f 5;
#X floatatom 129 146 5 0 0 0 cc# - -, f 5;
#X obj 62 175 pack f f;
#X obj 62 201 list-rev;
#X obj 62 227 route 1 5, f 13;
#X floatatom 62 253 5 0 0 0 - - -, f 5;
#X floatatom 106 253 5 0 0 0 - - -, f 5;
#X obj 62 281 s \$0-volchange-r;
#X obj 106 314 s \$0-panchange-r;
#X obj 319 37 r \$0-selected-s;
#X floatatom 319 66 5 0 0 0 - - -, f 5;
#X obj 280 94 spigot;
#X obj 280 12 r midibutton;
#X obj 312 212 s \$0-barsset-r;
#X obj 312 245 r \$0-barsset-s;
#X floatatom 312 274 5 0 0 0 - - -, f 5;
#X obj 280 300 +;
#X obj 280 360 s \$0-barschange-r;
#X floatatom 280 41 5 0 0 0 - - -, f 5;
#X msg 280 152 1;
#X msg 319 154 -1;
#X obj 280 182 t f b;
#X floatatom 280 329 5 0 0 0 - - -, f 5;
#X floatatom 466 276 5 0 0 0 - - -, f 5;
#X obj 434 302 +;
#X obj 434 184 t f b;
#X floatatom 434 356 5 0 0 0 - - -, f 5;
#X obj 466 214 s \$0-outputset-r;
#X obj 466 247 r \$0-outputset-s;
#X obj 434 388 s \$0-outputchange-r;
#X msg 434 154 -1;
#X msg 472 155 1;
#X obj 434 328 clip 0 8;
#X obj 280 123 select 64 65 66 67 82 83 84 85, f 65;
#X msg 522 150 bang;
#X obj 522 179 s \$0-cfg-r;
#X obj 599 154 t b f;
#X obj 631 182 \$1;
#X obj 600 246 s;
#X msg 626 218 symbol \$1-clear-r;
#X obj 665 178 s \$0-recchange-r;
#X msg 665 149 1;
#X connect 0 0 1 0;
#X connect 1 0 2 1;
#X connect 2 0 4 0;
#X connect 3 0 2 0;
#X connect 4 0 5 0;
#X connect 4 1 6 0;
#X connect 5 0 7 0;
#X connect 6 0 7 1;
#X connect 7 0 8 0;
#X connect 8 0 9 0;
#X connect 9 0 10 0;
#X connect 9 1 11 0;
#X connect 10 0 12 0;
#X connect 11 0 13 0;
#X connect 14 0 15 0;
#X connect 15 0 16 1;
#X connect 16 0 38 0;
#X connect 17 0 16 0;
#X connect 17 0 23 0;
#X connect 19 0 20 0;
#X connect 20 0 21 1;
#X connect 21 0 27 0;
#X connect 24 0 26 0;
#X connect 25 0 26 0;
#X connect 26 0 21 0;
#X connect 26 1 18 0;
#X connect 27 0 22 0;
#X connect 28 0 29 1;
#X connect 29 0 37 0;
#X connect 30 0 29 0;
#X connect 30 1 32 0;
#X connect 31 0 34 0;
#X connect 33 0 28 0;
#X connect 35 0 30 0;
#X connect 36 0 30 0;
#X connect 37 0 31 0;
#X connect 38 0 24 0;
#X connect 38 1 25 0;
#X connect 38 2 35 0;
#X connect 38 3 36 0;
#X connect 38 4 39 0;
#X connect 38 5 41 0;
#X connect 38 6 46 0;
#X connect 39 0 40 0;
#X connect 41 0 43 0;
#X connect 41 1 42 0;
#X connect 42 0 44 0;
#X connect 44 0 43 1;
#X connect 46 0 45 0;
#X restore 417 249 pd midi_cfg;
#X obj 270 80 r midishift;
#X connect 0 2 16 0;
#X connect 0 3 1 0;
#X connect 2 0 17 0;
#X connect 4 0 5 0;
#X connect 5 0 6 0;
#X connect 6 0 7 0;
#X connect 7 0 8 0;
#X connect 8 0 0 0;
#X connect 9 0 10 0;
#X connect 10 0 11 0;
#X connect 11 0 12 2;
#X connect 11 1 13 2;
#X connect 14 0 12 0;
#X connect 14 1 13 0;
#X connect 15 0 12 1;
#X connect 15 1 13 1;
#X connect 16 0 14 0;
#X connect 17 0 18 0;
#X connect 17 0 15 0;
#X connect 19 0 20 0;
#X connect 20 0 10 0;
#X connect 22 0 10 0;
#X restore 99 180 pd midictrl;
#N canvas 679 73 522 585 backgdcolor 0;
#N canvas 655 47 745 645 button_change_color 0;
#X text 201 24 status number;
#X obj 118 69 change;
#X floatatom 395 154 5 0 0 0 - - -, f 5;
#X text 573 188 0 off \; 1 for play \; 2 for play queue \; 3 for
rec \; 4 for rec queue \; 5 for stop \; 6 for stop queue;
#X obj 319 338 print Rec;
#X obj 347 302 print Rec Queue;
#X obj 408 269 print Stop;
#X obj 420 220 print Stop Queue;
#X obj 263 377 print Play Queue;
#X obj 249 412 print Play;
#X msg 157 412 color 16 12;
#X msg 315 269 color 14 12;
#X msg 236 337 color 13 0;
#X obj 118 129 select 0 1 2 3 4 5 6, f 40;
#X msg 126 477 color 0 12;
#X msg 437 182 stop;
#X obj 54 149 bng 15 250 50 0 empty empty empty 17 7 0 10 #fcfcfc #000000
#000000;
#N canvas 192 248 450 323 blink 0;
#X obj 115 93 f 1;
#X obj 146 93 + 1;
#X obj 115 118 mod 2;
#X obj 115 185 select 0 1;
#X floatatom 116 147 5 0 0 0 - - -, f 5;
#X obj 113 17 inlet;
#X obj 114 64 metro 250;
#X obj 173 27 bng 15 250 50 0 empty empty empty 17 7 0 10 #fcfcfc #000000
#000000;
#X msg 209 26 stop;
#X obj 110 225 outlet;
#X obj 170 225 outlet;
#X connect 0 0 1 0;
#X connect 0 0 2 0;
#X connect 1 0 0 1;
#X connect 2 0 4 0;
#X connect 3 0 9 0;
#X connect 3 1 10 0;
#X connect 4 0 3 0;
#X connect 5 0 6 0;
#X connect 6 0 0 0;
#X connect 7 0 6 0;
#X connect 8 0 6 0;
#X restore 197 376 pd blink;
#N canvas 192 248 450 323 blink 0;
#X obj 115 93 f 1;
#X obj 146 93 + 1;
#X obj 115 118 mod 2;
#X obj 115 185 select 0 1;
#X floatatom 116 147 5 0 0 0 - - -, f 5;
#X obj 113 17 inlet;
#X obj 114 64 metro 250;
#X obj 173 27 bng 15 250 50 0 empty empty empty 17 7 0 10 #fcfcfc #000000
#000000;
#X msg 209 26 stop;
#X obj 110 225 outlet;
#X obj 170 225 outlet;
#X connect 0 0 1 0;
#X connect 0 0 2 0;
#X connect 1 0 0 1;
#X connect 2 0 4 0;
#X connect 3 0 9 0;
#X connect 3 1 10 0;
#X connect 4 0 3 0;
#X connect 5 0 6 0;
#X connect 6 0 0 0;
#X connect 7 0 6 0;
#X connect 8 0 6 0;
#X restore 276 303 pd blink;
#N canvas 192 248 450 323 blink 0;
#X obj 115 93 f 1;
#X obj 146 93 + 1;
#X obj 115 118 mod 2;
#X obj 115 185 select 0 1;
#X floatatom 116 147 5 0 0 0 - - -, f 5;
#X obj 113 17 inlet;
#X obj 114 64 metro 250;
#X obj 173 27 bng 15 250 50 0 empty empty empty 17 7 0 10 #fcfcfc #000000
#000000;
#X msg 209 26 stop;
#X obj 110 225 outlet;
#X obj 170 225 outlet;
#X connect 0 0 1 0;
#X connect 0 0 2 0;
#X connect 1 0 0 1;
#X connect 2 0 4 0;
#X connect 3 0 9 0;
#X connect 3 1 10 0;
#X connect 4 0 3 0;
#X connect 5 0 6 0;
#X connect 6 0 0 0;
#X connect 7 0 6 0;
#X connect 8 0 6 0;
#X restore 355 220 pd blink;
#X obj 118 96 t f b, f 46;
#X obj 118 43 r \$0-statusset-s;
#X obj 125 522 outlet;
#X obj 479 12 r \$0-loadnum;
#X msg 479 64 0;
#X obj 479 41 delay 100;
#X connect 1 0 20 0;
#X connect 10 0 22 0;
#X connect 11 0 22 0;
#X connect 12 0 22 0;
#X connect 13 0 14 0;
#X connect 13 1 10 0;
#X connect 13 2 17 0;
#X connect 13 3 12 0;
#X connect 13 4 18 0;
#X connect 13 5 11 0;
#X connect 13 6 19 0;
#X connect 13 7 2 0;
#X connect 14 0 22 0;
#X connect 15 0 17 0;
#X connect 15 0 18 0;
#X connect 15 0 19 0;
#X connect 16 0 17 0;
#X connect 17 0 14 0;
#X connect 17 1 10 0;
#X connect 18 0 14 0;
#X connect 18 1 12 0;
#X connect 19 0 14 0;
#X connect 19 1 11 0;
#X connect 20 0 13 0;
#X connect 20 1 15 0;
#X connect 21 0 1 0;
#X connect 23 0 25 0;
#X connect 24 0 20 0;
#X connect 25 0 24 0;
#X restore 28 32 pd button_change_color;
#X msg 261 179 symbol \$1-cfgbackgd-r;
#X obj 203 22 r \$0-loadnum;
#X obj 243 209 s;
#X obj 185 276 s;
#X obj 301 151 s;
#X msg 203 242 symbol \$0-trackbackgd-r;
#X msg 319 124 symbol \$1-UIbackgd-r;
#X msg 375 78 symbol \$1-nameUI-r;
#X obj 129 59 t a a a a;
#X obj 203 51 t f f f f, f 25;
#X obj 358 101 s;
#X obj 183 366 s;
#X obj 61 333 s;
#X msg 201 332 symbol \$0-playrecbutton-r;
#X msg 135 404 symbol \$1-sliderUI-r;
#X connect 0 0 9 0;
#X connect 1 0 3 1;
#X connect 2 0 10 0;
#X connect 6 0 4 1;
#X connect 7 0 5 1;
#X connect 8 0 11 1;
#X connect 9 0 4 0;
#X connect 9 1 5 0;
#X connect 9 2 3 0;
#X connect 9 3 11 0;
#X connect 10 0 6 0;
#X connect 10 1 1 0;
#X connect 10 2 7 0;
#X connect 10 3 8 0;
#X connect 14 0 12 1;
#X connect 15 0 13 1;
#X restore 100 147 pd backgdcolor;
#N canvas 537 338 679 342 slidergrad 0;
#X obj 34 17 r \$0-loadnum;
#X obj 342 19 r beatsperbar;
#X obj 230 104 / 32;
#X obj 230 133 pow -1;
#X floatatom 230 190 5 0 0 0 - - -, f 5;
#X floatatom 342 75 5 0 0 0 - - -, f 5;
#X obj 230 15 r \$0-barsset-s;
#X obj 230 161 /;
#X obj 342 103 t b f f;
#X floatatom 230 74 5 0 0 0 - - -, f 5;
#X text 405 104 if beatsperbar changes \, retrigger the calculation
, f 14;
#X msg 34 181 const -0.6;
#X msg 80 240 \; grad\$0 rename t\$1;
#X obj 34 210 s;
#X msg 57 119 symbol t\$1;
#X obj 34 49 t f f f f, f 11;
#X obj 230 217 pack f f f;
#X msg 230 244 \; t\$3 xticks 0 \$1 \$2;
#X obj 473 242 s \$0-slider-r;
#X msg 471 200 127;
#X msg 505 201 0;
#X obj 230 44 change;
#X obj 342 48 change;
#X connect 0 0 15 0;
#X connect 1 0 22 0;
#X connect 2 0 3 0;
#X connect 3 0 7 0;
#X connect 4 0 16 0;
#X connect 5 0 8 0;
#X connect 6 0 21 0;
#X connect 7 0 4 0;
#X connect 8 0 9 0;
#X connect 8 1 16 1;
#X connect 8 2 7 1;
#X connect 9 0 2 0;
#X connect 11 0 13 0;
#X connect 14 0 13 1;
#X connect 15 0 11 0;
#X connect 15 1 14 0;
#X connect 15 2 16 2;
#X connect 15 3 12 0;
#X connect 16 0 17 0;
#X connect 19 0 18 0;
#X connect 20 0 18 0;
#X connect 21 0 9 0;
#X connect 22 0 5 0;
#X restore 265 125 pd slidergrad;
#N canvas 795 328 450 375 \$0-buttoncontent 0;
#X obj 30 60 buttonGUI 0;
#X coords 0 -1 1 1 86 41 2 30 60;
#X restore 105 223 pd \$0-buttoncontent;
#N canvas 332 154 450 400 trackstartbang 0;
#X obj 51 45 r metrostart;
#X obj 158 45 r beatnum;
#X obj 158 74 select 0;
#X obj 257 45 r \$0-barsset-s;
#X obj 198 104 + 1;
#X obj 158 103 f 0;
#X floatatom 158 132 5 0 0 0 - - -, f 5;
#X obj 158 160 mod;
#X floatatom 257 74 5 0 0 0 - - -, f 5;
#X obj 51 74 bng 15 250 50 0 empty empty empty 17 7 0 10 #fcfcfc #000000
#000000;
#X obj 158 189 select 0;
#X obj 158 218 bng 15 250 50 0 empty empty empty 17 7 0 10 #fcfcfc
#000000 #000000;
#X obj 158 242 s \$0-trackstart;
#X obj 34 11 r \$0-loadnum;
#X msg 51 98 0;
#X text 132 9 connecting this to metrostart's [0( somehow shifts the
slider;
#X obj 366 47 r \$0-statusset-s;
#X floatatom 366 76 5 0 0 0 - - -, f 5;
#X obj 366 104 change;
#X obj 366 155 bng 15 250 50 0 empty empty empty 17 7 0 10 #fcfcfc
#000000 #000000;
#X text 408 154 <-- this is a dirty workaround that shouldn't be needed
if stuff were initialized properly, f 31;
#X obj 366 133 select 1 3 5;
#X connect 0 0 9 0;
#X connect 1 0 2 0;
#X connect 2 0 5 0;
#X connect 3 0 8 0;
#X connect 4 0 5 1;
#X connect 5 0 4 0;
#X connect 5 0 6 0;
#X connect 6 0 7 0;
#X connect 7 0 10 0;
#X connect 8 0 7 1;
#X connect 9 0 14 0;
#X connect 10 0 11 0;
#X connect 11 0 12 0;
#X connect 14 0 5 1;
#X connect 16 0 17 0;
#X connect 17 0 18 0;
#X connect 18 0 21 0;
#X connect 19 0 14 0;
#X connect 21 0 19 0;
#X connect 21 1 19 0;
#X connect 21 2 19 0;
#X restore 233 99 pd trackstartbang;
#N canvas 977 90 450 538 rec_after_play 0;
#X obj 105 27 r \$0-statusset-s;
#X floatatom 105 56 5 0 0 0 - - -, f 5;
#X obj 208 451 s;
#X msg 100 419 set \$1;
#X obj 267 373 \$1;
#X msg 208 418 set \$1;
#X obj 100 451 s \$0-playUI-r;
#X msg 267 416 symbol \$1-recUI-r;
#X obj 105 113 select 0 1 2 3 4 5 6;
#X obj 105 84 change;
#X obj 282 44 r \$0-loadnum;
#X floatatom 282 73 5 0 0 0 - - -, f 5;
#X obj 200 149 t 0 0;
#X obj 110 155 t 1 0;
#X obj 154 153 t 0 1;
#X connect 0 0 1 0;
#X connect 1 0 9 0;
#X connect 3 0 6 0;
#X connect 4 0 7 0;
#X connect 5 0 2 0;
#X connect 7 0 2 1;
#X connect 8 1 13 0;
#X connect 8 2 13 0;
#X connect 8 3 14 0;
#X connect 8 4 14 0;
#X connect 8 5 12 0;
#X connect 8 6 12 0;
#X connect 9 0 8 0;
#X connect 10 0 11 0;
#X connect 11 0 4 0;
#X connect 12 0 3 0;
#X connect 12 1 5 0;
#X connect 13 0 3 0;
#X connect 13 1 5 0;
#X connect 14 0 3 0;
#X connect 14 1 5 0;
#X restore 246 170 pd rec_after_play;
#N canvas 68 357 450 350 thumb_array_send 0;
#X obj 116 25 r \$0-statusset-s;
#X obj 116 54 select 1 6;
#X obj 115 278 s thumb_array_act-val;
#X obj 183 84 bng 15 250 50 0 empty empty empty 17 7 0 10 #fcfcfc #000000
#000000;
#X obj 115 88 bng 15 250 50 0 empty empty empty 17 7 0 10 #fcfcfc #000000
#000000;
#X msg 264 214 0 56;
#X floatatom 215 150 5 0 0 0 - - -, f 5;
#X obj 290 30 r \$0-loadnum;
#X floatatom 290 59 5 0 0 0 - - -, f 5;
#X floatatom 147 150 5 0 0 0 - - -, f 5;
#X msg 290 87 set \$1;
#X obj 6 25 r \$0-barsset-s;
#X floatatom 6 54 5 0 0 0 - - -, f 5;
#X obj 115 249 pack f f;
#X obj 183 108 t 0 b;
#X floatatom 183 175 5 0 0 0 - - -, f 5;
#X msg 6 82 set \$1;
#X obj 115 112 t b b;
#X floatatom 115 175 5 0 0 0 - - -, f 5;
#X connect 0 0 1 0;
#X connect 1 0 4 0;
#X connect 1 2 3 0;
#X connect 3 0 14 0;
#X connect 4 0 17 0;
#X connect 5 0 13 0;
#X connect 6 0 13 1;
#X connect 7 0 8 0;
#X connect 8 0 10 0;
#X connect 9 0 13 1;
#X connect 10 0 6 0;
#X connect 10 0 9 0;
#X connect 11 0 12 0;
#X connect 12 0 16 0;
#X connect 13 0 2 0;
#X connect 14 0 15 0;
#X connect 14 1 6 0;
#X connect 15 0 13 0;
#X connect 16 0 18 0;
#X connect 17 0 18 0;
#X connect 17 1 9 0;
#X connect 18 0 13 0;
#X restore 260 216 pd thumb_array_send;
#X text 16 13 when editing this file \, make sure that the initbang
is set to trackui-initband-r without track number, f 10;
#N canvas 110 389 1021 352 change<>UI 0;
#X obj 33 23 r \$0-playUI-s;
#X obj 176 98 s \$0-playUI-r;
#X floatatom 33 74 5 0 0 0 - - -, f 5;
#X msg 176 49 \$1;
#X floatatom 176 73 5 0 0 0 - - -, f 5;
#X obj 33 98 s \$0-playchange-r;
#X obj 176 23 r \$0-playset-s;
#X msg 33 48 \$1;
#X obj 749 28 r \$0-playUI-s;
#X obj 749 57 select 1;
#X obj 749 169 s;
#X msg 779 139 symbol \$1-recUI-r;
#X obj 780 112 \$1;
#X obj 749 86 t 0 b;
#X obj 531 143 select 1;
#X obj 531 255 s;
#X obj 531 172 t 0 b;
#X msg 532 59 \$1-recUI-s;
#X obj 531 108 tools/receiver;
#X obj 532 25 r \$0-loadnum;
#X msg 561 225 symbol \$0-playUI-r;
#X obj 293 234 s;
#X obj 293 87 tools/receiver;
#X obj 293 24 r \$0-loadnum;
#X msg 313 205 symbol \$0-playUI-r;
#X msg 293 58 \$1-stopUI-s;
#X obj 293 118 t 0 b 0 b;
#X msg 352 179 symbol \$1-recUI-r;
#X obj 353 146 \$1;
#X msg 724 112 set \$1;
#X msg 531 202 set \$1;
#X symbolatom 779 168 10 0 0 0 - - -, f 10;
#X floatatom 488 131 5 0 0 0 - - -, f 5;
#X obj 38 290 r \$0-volchange-s;
#X obj 98 347 \$1;
#X obj 38 319 t f b, f 9;
#X msg 38 348 set \$1;
#X obj 38 403 s;
#X msg 98 376 symbol \$1-volcfg-r;
#X obj 308 347 \$1;
#X obj 248 319 t f b, f 9;
#X msg 248 348 set \$1;
#X obj 248 403 s;
#X obj 248 289 r \$0-panchange-s;
#X msg 308 376 symbol \$1-pancfg-r;
#X obj 538 350 \$1;
#X obj 478 322 t f b, f 9;
#X msg 478 351 set \$1;
#X obj 478 406 s;
#X msg 538 379 symbol \$1-barscfg-r;
#X obj 766 352 \$1;
#X obj 706 324 t f b, f 9;
#X msg 706 353 set \$1;
#X obj 706 408 s;
#X msg 766 381 symbol \$1-outputcfg-r;
#X obj 478 292 r \$0-barschange-r;
#X obj 706 276 r \$0-outputchange-r;
#X floatatom 706 301 5 0 0 0 - - -, f 5;
#X floatatom 706 382 5 0 0 0 - - -, f 5;
#X msg 838 338 set 1;
#X symbolatom 766 410 16 0 0 0 - - -, f 16;
#X connect 0 0 7 0;
#X connect 2 0 5 0;
#X connect 3 0 4 0;
#X connect 4 0 1 0;
#X connect 6 0 3 0;
#X connect 7 0 2 0;
#X connect 8 0 9 0;
#X connect 9 0 13 0;
#X connect 11 0 10 1;
#X connect 11 0 31 0;
#X connect 12 0 11 0;
#X connect 13 0 29 0;
#X connect 13 1 12 0;
#X connect 14 0 16 0;
#X connect 16 0 30 0;
#X connect 16 1 20 0;
#X connect 17 0 18 0;
#X connect 18 0 14 0;
#X connect 18 0 32 0;
#X connect 19 0 17 0;
#X connect 20 0 15 1;
#X connect 22 0 26 0;
#X connect 23 0 25 0;
#X connect 24 0 21 1;
#X connect 25 0 22 0;
#X connect 26 0 21 0;
#X connect 26 1 24 0;
#X connect 26 2 21 0;
#X connect 26 3 28 0;
#X connect 27 0 21 1;
#X connect 28 0 27 0;
#X connect 29 0 10 0;
#X connect 30 0 15 0;
#X connect 33 0 35 0;
#X connect 34 0 38 0;
#X connect 35 0 36 0;
#X connect 35 1 34 0;
#X connect 36 0 37 0;
#X connect 38 0 37 1;
#X connect 39 0 44 0;
#X connect 40 0 41 0;
#X connect 40 1 39 0;
#X connect 41 0 42 0;
#X connect 43 0 40 0;
#X connect 44 0 42 1;
#X connect 45 0 49 0;
#X connect 46 0 47 0;
#X connect 46 1 45 0;
#X connect 47 0 48 0;
#X connect 49 0 48 1;
#X connect 50 0 54 0;
#X connect 51 0 52 0;
#X connect 51 1 50 0;
#X connect 52 0 53 0;
#X connect 52 0 58 0;
#X connect 54 0 53 1;
#X connect 54 0 60 0;
#X connect 55 0 46 0;
#X connect 56 0 57 0;
#X connect 57 0 51 0;
#X connect 59 0 53 0;
#X restore 79 328 pd change<>UI;
#N canvas 394 266 450 325 track_selected_color 0;
#X obj 125 117 select 0 1;
#X obj 144 25 bng 15 250 50 0 empty empty empty 17 7 0 10 #fcfcfc #000000
#000000;
#X obj 159 144 bng 15 250 50 0 empty empty empty 17 7 0 10 #fcfcfc
#000000 #000000;
#X floatatom 125 90 5 0 0 0 - - -, f 5;
#X obj 125 61 r \$0-selected-r;
#X obj 147 199 s \$0-cfg-r;
#X msg 85 167 color 0 2;
#X msg 147 170 color 17 2;
#X obj 32 35 r \$0-loadnum;
#X connect 0 0 6 0;
#X connect 0 1 7 0;
#X connect 0 1 2 0;
#X connect 4 0 0 0;
#X connect 4 0 1 0;
#X connect 4 0 3 0;
#X connect 6 0 5 0;
#X connect 7 0 5 0;
#X connect 8 0 6 0;
#X restore 260 244 pd track_selected_color;
#X obj 290 459 cnv 15 85 44 empty empty empty 0 0 0 10 #a0a0a0 #202020
0;
#X obj 293 463 bng 16 250 50 0 1188-playUI-s \$0-playrecbang-r empty
17 7 0 10 #fcfcfc #000000 #000000;
#X obj 293 463 cnv 16 16 16 empty empty empty 20 12 0 14 #000000 #404040
0;
#X obj 293 483 tgl 16 0 empty \$0-cfg-r cfg 0 5 0 10 #fcfcfc #000000
#404040 0 1;
#N canvas 659 34 560 634 playrecbutton 0;
#X obj 52 46 r \$0-statusset-s;
#X floatatom 52 75 5 0 0 0 - - -, f 5;
#X obj 104 645 s \$0-playrecbutton-r;
#X msg 183 612 send \$0-recUI-s;
#X obj 104 669 s \$0-playrecbang-r;
#X obj 258 35 r \$0-recUI-s;
#X obj 258 64 bng 15 250 50 0 empty empty empty 17 7 0 10 #fcfcfc #000000
#000000;
#X obj 286 93 bng 15 250 50 0 empty empty empty 17 7 0 10 #fcfcfc #000000
#000000;
#X obj 286 64 r \$0-playUI-s;
#X obj 317 124 bng 15 250 50 0 empty empty empty 17 7 0 10 #fcfcfc
#000000 #000000;
#X obj 317 95 r \$0-pauseUI-s;
#X msg 34 516 send \$0-playUI-s;
#X text 84 12 button shows what the next clic will do;
#X obj 137 78 r \$0-recarm-s;
#X floatatom 137 107 5 0 0 0 - - -, f 5;
#X msg 100 538 label ❚❚ \, label_font 0 12 \, label_pos -1 4;
#X msg 171 590 label ● \, label_font 0 17 \, label_pos 1 3;
#X msg 17 494 label ▶ \, label_font 0 17 \, label_pos 1 3;
#X msg 110 560 send \$0-pauseUI-s;
#X obj 17 439 t b b;
#X obj 97 442 t b b;
#X obj 168 443 t b b;
#X obj 52 103 pack f f;
#X obj 52 145 route 0 1 2 3 4 5 6, f 59;
#X floatatom 52 174 5 0 0 0 - - -, f 5;
#X obj 110 199 select 0 1;
#X text 198 201 playing with rec arm OFF or ON;
#X obj 169 228 select 0 1;
#X text 253 228 play queued with rec arm OFF or ON;
#X obj 227 258 select 0 1;
#X text 311 258 rec with rec arm OFF or ON;
#X obj 286 285 select 0 1;
#X text 370 285 rec queued with rec arm OFF or ON;
#X obj 344 311 select 0 1;
#X text 428 310 stopped with rec arm OFF or ON;
#X obj 403 339 select 0 1;
#X text 486 340 stop queued with rec arm OFF or ON;
#X msg 431 453 1;
#X obj 431 482 s \$0-statusset-s;
#X msg 469 455 2;
#X msg 423 432 0;
#X msg 462 432 5;
#X connect 0 0 1 0;
#X connect 1 0 22 0;
#X connect 3 0 4 0;
#X connect 5 0 6 0;
#X connect 8 0 7 0;
#X connect 10 0 9 0;
#X connect 11 0 4 0;
#X connect 13 0 14 0;
#X connect 14 0 22 1;
#X connect 15 0 2 0;
#X connect 16 0 2 0;
#X connect 17 0 2 0;
#X connect 18 0 4 0;
#X connect 19 0 17 0;
#X connect 19 1 11 0;
#X connect 20 0 15 0;
#X connect 20 1 18 0;
#X connect 21 0 16 0;
#X connect 21 1 3 0;
#X connect 22 0 23 0;
#X connect 23 0 24 0;
#X connect 23 1 25 0;
#X connect 23 2 27 0;
#X connect 23 3 29 0;
#X connect 23 4 31 0;
#X connect 23 5 33 0;
#X connect 23 6 35 0;
#X connect 24 0 21 0;
#X connect 25 0 20 0;
#X connect 25 1 21 0;
#X connect 27 0 20 0;
#X connect 27 1 20 0;
#X connect 29 0 20 0;
#X connect 29 1 20 0;
#X connect 31 0 20 0;
#X connect 31 1 20 0;
#X connect 33 0 19 0;
#X connect 33 1 21 0;
#X connect 35 0 19 0;
#X connect 35 1 21 0;
#X connect 37 0 38 0;
#X connect 39 0 38 0;
#X connect 40 0 38 0;
#X connect 41 0 38 0;
#X restore 251 523 pd playrecbutton;
#X obj 294 464 cnv 14 14 14 1188-recUI-s \$0-playrecbutton-r ▶ 1
3 0 17 #fc2828 #000000 0;
#X connect 5 0 7 0;
#X coords 0 -1 1 1 110 58 2 81 223;
