#N canvas 549 100 648 718 10;
#N canvas 58 47 703 743 trackconfig 0;
#X obj 6 14 cnv 15 201 233 empty empty empty 20 12 0 14 -233017 -66577
0;
#N canvas 219 54 551 688 initconfig 0;
#X obj 35 14 bng 15 250 50 0 empty 0-button-initbang-r initbang 17
7 0 10 -262144 -1 -1;
#X obj 35 34 \$1;
#X msg 203 113 receive \$1-trackstatus-r;
#X msg 203 88 send \$1-trackstatus-s;
#X msg 203 268 receive \$1-trackbars-r;
#X msg 203 220 send \$1-trackbars-s;
#X msg 203 241 2;
#X obj 373 142 s trackstatus-r;
#X obj 354 305 s trackbars-r;
#X msg 205 328 send \$1-trackvol-s;
#X msg 205 349 127;
#X msg 205 376 receive \$1-trackvol-r;
#X obj 369 399 s trackvol-r;
#X msg 202 415 send \$1-trackpan-s;
#X msg 203 436 63;
#X msg 203 463 receive \$1-trackpan-r;
#X obj 367 487 s trackpan-r;
#X msg 210 508 send \$1-trackoutput-s;
#X msg 211 556 receive \$1-trackoutput-r;
#X obj 375 580 s trackoutput-r;
#X msg 211 529 0;
#X obj 110 81 t f f;
#X obj 95 113 t f f f;
#X obj 80 188 t f f f;
#X obj 65 294 t f f f;
#X obj 50 395 t f f f;
#X obj 35 485 t f f f;
#X obj 35 57 t f f f f f f f;
#X obj 109 14 r button-initbang-s;
#X obj 369 193 tools/receiver;
#X msg 264 163 \$1-trackname-s;
#X symbolatom 369 218 10 0 0 0 - - -, f 10;
#X obj 369 242 s \$0-trackname-r;
#X msg 134 164 symbol \$1-Unnamed;
#X connect 1 0 27 0;
#X connect 2 0 7 0;
#X connect 3 0 7 0;
#X connect 4 0 8 0;
#X connect 5 0 8 0;
#X connect 6 0 8 0;
#X connect 9 0 12 0;
#X connect 10 0 12 0;
#X connect 11 0 12 0;
#X connect 13 0 16 0;
#X connect 14 0 16 0;
#X connect 15 0 16 0;
#X connect 17 0 19 0;
#X connect 18 0 19 0;
#X connect 20 0 19 0;
#X connect 21 0 2 0;
#X connect 21 1 3 0;
#X connect 22 0 33 0;
#X connect 22 2 30 0;
#X connect 23 0 4 0;
#X connect 23 1 6 0;
#X connect 23 2 5 0;
#X connect 24 0 11 0;
#X connect 24 1 10 0;
#X connect 24 2 9 0;
#X connect 25 0 15 0;
#X connect 25 1 14 0;
#X connect 25 2 13 0;
#X connect 26 0 18 0;
#X connect 26 1 20 0;
#X connect 26 2 17 0;
#X connect 27 0 26 0;
#X connect 27 1 25 0;
#X connect 27 2 24 0;
#X connect 27 3 23 0;
#X connect 27 4 22 0;
#X connect 27 5 21 0;
#X connect 29 0 31 0;
#X connect 30 0 29 0;
#X connect 31 0 32 0;
#X connect 33 0 31 0;
#X restore 264 49 pd initconfig;
#X symbolatom 132 55 10 0 0 0 #0-trackname - -, f 10;
#X obj 135 101 nbx 5 14 -1e+37 1e+37 0 0 \$0-volset-s \$0-volset-r
\$0-volset -75 5 0 10 -262144 -1 -1 127 256 0;
#X obj 136 78 nbx 5 14 -1e+37 1e+37 0 0 \$0-barsset-s \$0-barsset-r
\$0-barsset -84 4 0 10 -262144 -1 -1 2 256 0;
#X obj 136 125 nbx 5 14 -1e+37 1e+37 0 0 \$0-panset-s \$0-panset-r
\$0-panset -72 4 0 10 -262144 -1 -1 64 256 0;
#X obj 138 145 nbx 5 14 -1e+37 1e+37 0 0 \$0-outputset-s \$0-outputset-r
\$0-outputset -90 5 0 10 -262144 -1 -1 0 256 0;
#X obj 133 27 nbx 5 14 -1e+37 1e+37 0 0 \$0-statusset-s \$0-statusset-r
\$0-statusset -87 5 0 10 -262144 -1 -1 0 256 0;
#N canvas 562 28 780 714 outputforbutton 0;
#X obj 18 20 r \$0-loadnum;
#X msg 18 75 \$1 status;
#X msg 88 75 \$1 bars;
#X msg 159 74 \$1 vol;
#X msg 230 75 \$1 pan;
#X msg 301 74 \$1 output;
#X obj 18 172 tools/receiver;
#X obj 18 200 s;
#X msg 18 125 \$1-track\$2-s;
#X obj 88 296 tools/receiver;
#X obj 88 324 s;
#X obj 88 224 t a a;
#X msg 88 249 \$1-track\$2-s;
#X text 103 6 this patch converts all \$1 interfaces to the button's
\$0 sends/receives;
#X msg 372 74 \$1 play;
#X msg 443 74 \$1 rec;
#X msg 514 73 \$1 stop;
#X msg 585 73 \$1 sliderpos;
#X obj 159 412 tools/receiver;
#X obj 159 440 s;
#X obj 159 340 t a a;
#X msg 159 365 \$1-track\$2-s;
#X obj 18 47 t f f f f f f f f f, f 95;
#X obj 230 175 tools/receiver;
#X obj 230 203 s;
#X obj 230 103 t a a;
#X msg 230 128 \$1-track\$2-s;
#X obj 301 284 tools/receiver;
#X obj 301 312 s;
#X obj 301 212 t a a;
#X msg 301 237 \$1-track\$2-s;
#X obj 372 415 tools/receiver;
#X obj 372 443 s;
#X obj 372 343 t a a;
#X msg 372 368 \$1-track\$2-s;
#X obj 443 173 tools/receiver;
#X obj 443 201 s;
#X obj 443 101 t a a;
#X msg 443 126 \$1-track\$2-s;
#X obj 514 302 tools/receiver;
#X obj 514 330 s;
#X obj 514 230 t a a;
#X msg 514 255 \$1-track\$2-s;
#X obj 585 416 tools/receiver;
#X obj 585 444 s;
#X obj 585 344 t a a;
#X msg 585 369 \$1-track\$2-s;
#X obj 42 498 r \$0-trackstatus;
#X obj 42 561 s;
#X obj 18 100 t a a a;
#X msg 37 149 symbol \$0-trackstatus;
#X msg 115 273 symbol \$0-bars;
#X msg 186 389 symbol \$0-vol;
#X msg 257 152 symbol \$0-pan;
#X msg 328 261 symbol \$0-output;
#X msg 399 392 symbol \$0-play;
#X msg 470 150 symbol \$0-rec;
#X msg 541 279 symbol \$0-stop;
#X msg 612 393 symbol \$0-sliderpos;
#X msg 57 527 symbol \$1-track\$2-r;
#X connect 1 0 49 0;
#X connect 2 0 11 0;
#X connect 3 0 20 0;
#X connect 4 0 25 0;
#X connect 5 0 29 0;
#X connect 6 0 7 0;
#X connect 8 0 6 0;
#X connect 9 0 10 0;
#X connect 11 0 12 0;
#X connect 11 1 51 0;
#X connect 12 0 9 0;
#X connect 14 0 33 0;
#X connect 15 0 37 0;
#X connect 16 0 41 0;
#X connect 17 0 45 0;
#X connect 18 0 19 0;
#X connect 20 0 21 0;
#X connect 20 1 52 0;
#X connect 21 0 18 0;
#X connect 22 0 1 0;
#X connect 22 1 2 0;
#X connect 22 2 3 0;
#X connect 22 3 4 0;
#X connect 22 4 5 0;
#X connect 22 5 14 0;
#X connect 22 6 15 0;
#X connect 22 7 16 0;
#X connect 22 8 17 0;
#X connect 23 0 24 0;
#X connect 25 0 26 0;
#X connect 25 1 53 0;
#X connect 26 0 23 0;
#X connect 27 0 28 0;
#X connect 29 0 30 0;
#X connect 29 1 54 0;
#X connect 30 0 27 0;
#X connect 31 0 32 0;
#X connect 33 0 34 0;
#X connect 33 1 55 0;
#X connect 34 0 31 0;
#X connect 35 0 36 0;
#X connect 37 0 38 0;
#X connect 37 1 56 0;
#X connect 38 0 35 0;
#X connect 39 0 40 0;
#X connect 41 0 42 0;
#X connect 41 1 57 0;
#X connect 42 0 39 0;
#X connect 43 0 44 0;
#X connect 45 0 46 0;
#X connect 45 1 58 0;
#X connect 46 0 43 0;
#X connect 47 0 48 0;
#X connect 49 0 8 0;
#X connect 49 1 50 0;
#X connect 49 2 59 0;
#X connect 50 0 7 1;
#X connect 51 0 10 1;
#X connect 52 0 19 1;
#X connect 53 0 24 1;
#X connect 54 0 28 1;
#X connect 55 0 32 1;
#X connect 56 0 36 1;
#X connect 57 0 40 1;
#X connect 58 0 44 1;
#X connect 59 0 48 1;
#X restore 267 77 pd outputforbutton;
#X obj 138 167 nbx 5 14 -1e+37 1e+37 0 0 tracksliderpos-s tracksliderpos-r
tracksliderpos -88 5 0 10 -262144 -1 -1 0 256 0;
#X text 67 325 receive a /getall message from ui and send a bundle
of the config parameters, f 26;
#X obj 49 324 r \$0-getall-s;
#X obj 49 349 bng 15 250 50 0 empty empty empty 17 7 0 10 -262144 -1
-1;
#X obj 49 371 t b b b b b b b b b, f 21;
#X msg 159 418 /status \$1;
#X msg 140 463 /name \$1;
#X msg 113 561 /vol \$1;
#X msg 127 514 /bars \$1;
#X obj 30 757 s \$0-OSCoutput;
#X msg 108 609 /pan \$1;
#X msg 82 659 /output \$1;
#X obj 284 244 r \$0-status-s;
#X obj 283 296 r \$0-name-s;
#X obj 287 353 r \$0-bars-s;
#X obj 288 408 r \$0-vol-s;
#X obj 289 459 r \$0-pan-s;
#X obj 290 513 r \$0-output-s;
#X floatatom 165 396 5 0 0 0 - - -, f 5;
#X symbolatom 141 442 10 0 0 0 - - -, f 10;
#X floatatom 127 490 5 0 0 0 - - -, f 5;
#X floatatom 113 537 5 0 0 0 - - -, f 5;
#X floatatom 109 587 5 0 0 0 - - -, f 5;
#X floatatom 83 637 5 0 0 0 - - -, f 5;
#X text 262 22 probably obsolete:;
#X text 282 213 input from UI;
#X obj 284 267 s \$0-statusset-r;
#N canvas 512 246 630 511 initvalues 0;
#X obj 119 1 loadbang;
#X msg 119 67 0;
#X obj 119 92 s \$0-status-s;
#X msg 134 141 symbol \$1-Unnamed;
#X obj 134 116 f \$1;
#X msg 149 198 2;
#X obj 149 223 s \$0-bars-s;
#X obj 134 166 s \$0-name-s;
#X msg 163 260 127;
#X obj 163 285 s \$0-vol-s;
#X msg 186 318 64;
#X obj 186 343 s \$0-pan-s;
#X obj 204 393 s \$0-output-s;
#X obj 118 22 bng 15 250 50 0 empty empty empty 17 7 0 10 -262144 -1
-1;
#X msg 204 368 0;
#X msg 211 430 0;
#X obj 211 455 s \$0-phasorfreq;
#X obj 280 96 samplerate~;
#X obj 280 121 s samplerateval;
#X obj 119 42 t b b b b b b b b, f 18;
#X connect 0 0 13 0;
#X connect 1 0 2 0;
#X connect 3 0 7 0;
#X connect 4 0 3 0;
#X connect 5 0 6 0;
#X connect 8 0 9 0;
#X connect 10 0 11 0;
#X connect 13 0 19 0;
#X connect 14 0 12 0;
#X connect 15 0 16 0;
#X connect 17 0 18 0;
#X connect 19 0 1 0;
#X connect 19 1 4 0;
#X connect 19 2 5 0;
#X connect 19 3 8 0;
#X connect 19 4 10 0;
#X connect 19 5 14 0;
#X connect 19 6 15 0;
#X connect 19 7 17 0;
#X restore 267 165 pd initvalues;
#X text 268 138 valid:;
#X msg 166 489 \$1;
#X msg 154 536 \$1;
#X msg 152 586 \$1;
#X msg 125 636 \$1;
#X msg 211 442 symbol \$1;
#X obj 137 191 nbx 5 14 -1e+37 1e+37 0 0 \$0-sliderfreqset-s \$0-sliderfreqset-r
\$0-sliderfreqset -115 4 0 10 -262144 -1 -1 0 256 0;
#X floatatom 67 687 5 0 0 0 - - -, f 5;
#X msg 109 687 \$1;
#X obj 294 598 r \$0-duration_samples;
#X obj 137 211 nbx 6 13 -1e+37 1e+37 0 0 \$0-dursamplesset-s \$0-dursamplesset-r
\$0-dursamplesset -114 5 0 10 -262144 -1 -1 0 256 0;
#X obj 136 230 nbx 5 14 -1e+37 1e+37 0 0 \$0-dursecset-s \$0-dursecset-r
\$0-dursecset -94 5 0 10 -262144 -1 -1 0 256 0;
#X obj 289 627 r \$0-duration_sec;
#X obj 294 563 r \$0-sliderfreq;
#X msg 67 711 /sliderfreq \$1;
#X connect 2 0 42 0;
#X connect 3 0 39 0;
#X connect 4 0 38 0;
#X connect 5 0 40 0;
#X connect 6 0 41 0;
#X connect 7 0 27 0;
#X connect 11 0 12 0;
#X connect 12 0 13 0;
#X connect 13 1 44 0;
#X connect 13 2 32 0;
#X connect 13 3 31 0;
#X connect 13 4 30 0;
#X connect 13 5 29 0;
#X connect 13 6 28 0;
#X connect 13 7 27 0;
#X connect 14 0 18 0;
#X connect 15 0 18 0;
#X connect 16 0 18 0;
#X connect 17 0 18 0;
#X connect 19 0 18 0;
#X connect 20 0 18 0;
#X connect 21 0 35 0;
#X connect 22 0 2 0;
#X connect 23 0 4 0;
#X connect 24 0 3 0;
#X connect 25 0 5 0;
#X connect 26 0 6 0;
#X connect 27 0 14 0;
#X connect 28 0 15 0;
#X connect 29 0 17 0;
#X connect 30 0 16 0;
#X connect 31 0 19 0;
#X connect 32 0 20 0;
#X connect 38 0 29 0;
#X connect 39 0 30 0;
#X connect 40 0 31 0;
#X connect 41 0 32 0;
#X connect 42 0 28 0;
#X connect 43 0 45 0;
#X connect 44 0 51 0;
#X connect 45 0 44 0;
#X connect 46 0 47 0;
#X connect 49 0 48 0;
#X connect 50 0 43 0;
#X connect 51 0 18 0;
#X coords 0 -1 1 1 201 235 1 5 13;
#X restore 433 13 pd trackconfig;
#N canvas 629 133 823 375 OSCinput 0;
#X obj 72 25 r fromui;
#X obj 72 50 routeOSC /track;
#X obj 98 96 f \$1;
#X obj 72 72 t a b;
#X obj 72 143 routeOSC /\$0;
#X msg 98 118 set /\$1;
#X obj 60 267 outlet;
#X obj 81 201 tgl 15 0 empty empty empty 17 7 0 10 -262144 -1 -1 0
1;
#X obj 81 227 s \$0-play-s;
#X obj 159 201 tgl 15 0 empty empty empty 17 7 0 10 -262144 -1 -1 0
1;
#X obj 159 227 s \$0-rec-s;
#X obj 229 226 s \$0-stop-s;
#X obj 229 201 bng 15 250 50 0 empty empty empty 17 7 0 10 -262144
-1 -1;
#X floatatom 308 202 5 0 0 0 - - -, f 5;
#X obj 308 226 s \$0-bars-s;
#X floatatom 387 201 5 0 0 0 - - -, f 5;
#X obj 387 225 s \$0-vol-s;
#X floatatom 460 200 5 0 0 0 - - -, f 5;
#X obj 460 224 s \$0-pan-s;
#X floatatom 536 199 5 0 0 0 - - -, f 5;
#X obj 536 223 s \$0-output-s;
#X obj 702 200 bng 15 250 50 0 empty empty empty 17 7 0 10 -262144
-1 -1;
#X obj 702 223 s \$0-getall-s;
#X obj 81 177 routeOSC /play /rec /stop /bars /vol /pan /output /name
/getall, f 117;
#X obj 623 250 s \$0-name-s;
#X obj 624 201 tosymbol;
#X symbolatom 624 226 10 0 0 0 - - -, f 10;
#X connect 0 0 1 0;
#X connect 1 0 3 0;
#X connect 2 0 5 0;
#X connect 3 0 4 0;
#X connect 3 1 2 0;
#X connect 4 0 6 0;
#X connect 4 0 23 0;
#X connect 5 0 4 0;
#X connect 7 0 8 0;
#X connect 9 0 10 0;
#X connect 12 0 11 0;
#X connect 13 0 14 0;
#X connect 15 0 16 0;
#X connect 17 0 18 0;
#X connect 19 0 20 0;
#X connect 21 0 22 0;
#X connect 23 0 7 0;
#X connect 23 1 9 0;
#X connect 23 2 12 0;
#X connect 23 3 13 0;
#X connect 23 4 15 0;
#X connect 23 5 17 0;
#X connect 23 6 19 0;
#X connect 23 7 25 0;
#X connect 23 8 21 0;
#X connect 25 0 26 0;
#X connect 26 0 24 0;
#X restore 145 26 pd OSCinput;
#N canvas 1 480 895 350 \$0-OSCoutput 0;
#X text 216 23 receive /playpause 1;
#X obj 123 57 t a b;
#X obj 150 81 \$1;
#X obj 123 145 list split 1;
#X obj 123 176 pack s s;
#X msg 123 201 \$2\$1;
#X msg 149 118 symbol /track/\$1;
#X obj 122 233 list append;
#X obj 122 258 list trim;
#X obj 122 283 s toui;
#X obj 123 23 r \$0-OSCoutput;
#X obj 400 32 r \$0-play-r;
#X obj 478 32 r \$0-rec-r;
#X obj 548 31 r \$0-stop-r;
#X msg 400 57 /play \$1;
#X obj 400 82 s \$0-OSCoutput;
#X msg 479 55 /rec \$1;
#X msg 548 57 /stop \$1;
#X connect 1 0 3 0;
#X connect 1 1 2 0;
#X connect 2 0 6 0;
#X connect 3 0 4 0;
#X connect 3 1 7 1;
#X connect 4 0 5 0;
#X connect 5 0 7 0;
#X connect 6 0 4 1;
#X connect 7 0 8 0;
#X connect 8 0 9 0;
#X connect 10 0 1 0;
#X connect 11 0 14 0;
#X connect 12 0 16 0;
#X connect 13 0 17 0;
#X connect 14 0 15 0;
#X connect 16 0 15 0;
#X connect 17 0 15 0;
#X restore 143 54 pd \$0-OSCoutput;
#N canvas 72 188 450 346 output_sel~ 0;
#X obj 133 292 throw~;
#X obj 185 292 throw~;
#X floatatom 162 105 5 0 0 0 - - -, f 5;
#X obj 160 150 t f f;
#X obj 158 177 + 1;
#X obj 190 177 + 2;
#X obj 161 126 * 2;
#X floatatom 158 202 5 0 0 0 - - -, f 5;
#X floatatom 190 202 5 0 0 0 - - -, f 5;
#X msg 142 253 set signal_\$1;
#X msg 206 227 set signal_\$1;
#X text 159 41 receive from drop-down;
#X obj 56 21 inlet~;
#X obj 107 22 inlet~;
#X obj 267 326 outlet;
#X obj 267 282 pack f f;
#X msg 268 305 symbol signal_\$1+signal_\$2;
#X obj 179 22 inlet;
#X connect 2 0 6 0;
#X connect 3 0 4 0;
#X connect 3 1 5 0;
#X connect 4 0 7 0;
#X connect 5 0 8 0;
#X connect 6 0 3 0;
#X connect 7 0 9 0;
#X connect 7 0 15 0;
#X connect 8 0 10 0;
#X connect 8 0 15 1;
#X connect 9 0 0 0;
#X connect 10 0 1 0;
#X connect 12 0 0 0;
#X connect 13 0 1 0;
#X connect 15 0 16 0;
#X connect 16 0 14 0;
#X connect 17 0 2 0;
#X restore 75 605 pd output_sel~;
#X symbolatom 75 629 22 0 0 0 - - -, f 22;
#N canvas 837 142 450 346 vol_pan 0;
#X obj 69 34 inlet~;
#X obj 196 33 inlet~;
#X obj 275 31 inlet;
#X text 312 35 vol;
#X obj 363 34 inlet;
#X text 399 35 pan;
#X obj 67 292 outlet~;
#X obj 199 293 outlet~;
#X obj 67 217 *~;
#X obj 275 72 / 127;
#X obj 199 216 *~;
#X text 321 166 interpolate from the previous value to avoid clicks?
, f 14;
#X obj 88 145 sqrt;
#X obj 67 182 *~;
#X obj 229 148 sqrt;
#X obj 201 182 *~;
#X obj 363 65 / 127;
#X floatatom 225 123 5 0 0 0 - - -, f 5;
#X obj 121 104 * -1;
#X obj 120 128 + 1;
#X floatatom 229 169 5 0 0 0 - - -, f 5;
#X floatatom 87 165 5 0 0 0 - - -, f 5;
#X floatatom 95 200 5 0 0 0 - - -, f 5;
#X floatatom 238 195 5 0 0 0 - - -, f 5;
#X floatatom 363 90 5 0 0 0 - - -, f 5;
#X obj 67 254 clip~ -1 1;
#X obj 199 255 clip~ -1 1;
#X text 274 255 <-- very basic limiter;
#X connect 0 0 13 0;
#X connect 1 0 15 0;
#X connect 2 0 9 0;
#X connect 4 0 16 0;
#X connect 8 0 25 0;
#X connect 9 0 22 0;
#X connect 9 0 23 0;
#X connect 10 0 26 0;
#X connect 12 0 21 0;
#X connect 13 0 8 0;
#X connect 14 0 20 0;
#X connect 15 0 10 0;
#X connect 16 0 24 0;
#X connect 17 0 14 0;
#X connect 18 0 19 0;
#X connect 19 0 12 0;
#X connect 20 0 15 1;
#X connect 21 0 13 1;
#X connect 22 0 8 1;
#X connect 23 0 10 1;
#X connect 24 0 18 0;
#X connect 24 0 17 0;
#X connect 25 0 6 0;
#X connect 26 0 7 0;
#X restore 75 529 pd vol_pan;
#X floatatom 275 511 5 0 0 0 - - -, f 5;
#X obj 372 489 r \$0-panset-s;
#X floatatom 371 510 5 0 0 0 - - -, f 5;
#X obj 276 489 r \$0-volset-s;
#X floatatom 156 585 5 0 0 0 - - -, f 5;
#X obj 156 560 r \$0-outputset-s;
#N canvas 552 103 624 789 play_full_sample 0;
#X obj 58 31 inlet;
#X text 99 33 start;
#X obj 145 34 inlet;
#X text 175 36 stop;
#X obj 160 612 outlet;
#X floatatom 353 60 7 0 0 0 - - -, f 7;
#X obj 489 89 samplerate~;
#X obj 380 141 /;
#X floatatom 380 163 5 0 0 1 duration_s - -, f 5;
#X obj 237 643 outlet~;
#X text 54 584 % of number of samples elapsed out of 127, f 14;
#X msg 110 272 stop;
#X obj 364 642 outlet~;
#X obj 58 55 bng 15 250 50 0 empty empty empty 17 7 0 10 -262144 -1
-1;
#X obj 380 185 pow -1;
#X msg 380 352 set \$1;
#X floatatom 278 384 5 0 0 0 - - -, f 5;
#X obj 235 336 select 0 1, f 15;
#X msg 235 359 0;
#X obj 160 472 snapshot~;
#X obj 160 525 * 127;
#X floatatom 160 579 5 0 0 0 - - -, f 5;
#X obj 274 443 phasor~ 400;
#X floatatom 160 499 7 0 0 0 - - -, f 7;
#X obj 161 437 metro 100;
#X obj 160 549 int;
#X obj 237 615 tabread4~ track\$0_l;
#X obj 364 615 tabread4~ track\$0_r;
#X obj 235 290 change;
#X obj 489 36 loadbang;
#X floatatom 489 117 5 0 0 0 - - -, f 5;
#X obj 57 185 t b b b, f 18;
#X text 426 185 frequency of phasor~;
#X obj 178 185 t b b, f 13;
#X obj 489 61 bng 15 250 50 0 empty empty empty 17 7 0 10 -262144 -1
-1;
#X obj 294 359 bng 15 250 50 0 empty empty empty 17 7 0 10 -262144
-1 -1;
#X msg 212 265 0;
#X msg 255 265 1;
#X floatatom 235 315 5 0 0 0 - - -, f 5;
#X text 19 673 send phasor frequency to UI;
#X obj 235 406 t f f;
#X text 16 457 snapshot may not be needed at all in DSP, f 15;
#X obj 58 271 t 0 0;
#X text 346 426 reset phase;
#X msg 286 732 \$0;
#X floatatom 286 757 5 0 0 0 - - -, f 5;
#X obj 353 114 t f f;
#X obj 274 486 *~;
#X obj 356 453 - 2;
#X obj 145 59 bng 15 250 50 0 empty empty empty 17 7 0 10 -262144 -1
-1;
#X obj 353 36 r \$0-dursamplesset-s;
#X obj 197 674 s \$0-sliderfreq;
#X connect 0 0 13 0;
#X connect 2 0 49 0;
#X connect 5 0 46 0;
#X connect 6 0 30 0;
#X connect 7 0 8 0;
#X connect 8 0 14 0;
#X connect 11 0 24 0;
#X connect 13 0 33 0;
#X connect 14 0 15 0;
#X connect 15 0 16 0;
#X connect 16 0 40 0;
#X connect 17 0 18 0;
#X connect 17 1 16 0;
#X connect 18 0 40 0;
#X connect 19 0 23 0;
#X connect 20 0 25 0;
#X connect 21 0 4 0;
#X connect 22 0 19 0;
#X connect 22 0 47 0;
#X connect 23 0 20 0;
#X connect 24 0 19 0;
#X connect 25 0 21 0;
#X connect 26 0 9 0;
#X connect 27 0 12 0;
#X connect 28 0 38 0;
#X connect 29 0 34 0;
#X connect 30 0 7 1;
#X connect 31 0 42 0;
#X connect 31 1 11 0;
#X connect 31 2 36 0;
#X connect 33 0 24 0;
#X connect 33 1 37 0;
#X connect 34 0 6 0;
#X connect 35 0 16 0;
#X connect 36 0 28 0;
#X connect 37 0 28 0;
#X connect 38 0 17 0;
#X connect 40 0 51 0;
#X connect 40 1 22 0;
#X connect 42 0 21 0;
#X connect 42 1 22 1;
#X connect 44 0 45 0;
#X connect 46 0 48 0;
#X connect 46 1 7 0;
#X connect 47 0 26 0;
#X connect 47 0 27 0;
#X connect 48 0 47 1;
#X connect 49 0 31 0;
#X connect 50 0 5 0;
#X restore 21 417 pd play_full_sample;
#X text 53 398 play;
#X text 96 397 stop;
#X text 181 400 array;
#X text 31 436 % (127);
#X text 175 606 throw audio signal to the selected outputs;
#X text 389 532 adjust volume and panning as per trackconfig, f 22
;
#X msg 174 373 symbol track\$0;
#X obj 34 53 table track\$0_r;
#X obj 35 28 table track\$0_l;
#X text 9 399 queue;
#N canvas 67 122 723 774 play_sample_queue 0;
#X obj 257 18 inlet;
#X text 257 43 Play toggle;
#X text 70 49 beat number;
#X text 256 410 status number;
#X obj 269 518 outlet;
#X text 269 543 play;
#X obj 340 523 outlet;
#X text 340 548 stop;
#X floatatom 65 85 5 0 0 0 - - -, f 5;
#X obj 65 108 select 0;
#X obj 65 172 spigot;
#X obj 65 226 spigot;
#X text -7 107 first beat;
#X text -19 171 Play activé;
#X obj 318 174 spigot;
#X obj 351 149 == 0;
#X obj 65 196 t b b;
#X msg 65 275 \$1;
#X obj 153 222 select 1, f 12;
#X obj 153 263 t b 2;
#X obj 257 90 t f b f f;
#X msg 180 287 \$1;
#X obj 163 287 bng 15 250 50 0 empty empty empty 17 7 0 10 -262144
-1 -1;
#X obj 222 263 t b 6;
#X obj 225 288 bng 15 250 50 0 empty empty empty 17 7 0 10 -262144
-1 -1;
#X msg 249 287 \$1;
#X obj 318 265 t 5 b;
#X obj 302 289 bng 15 250 50 0 empty empty empty 17 7 0 10 -262144
-1 -1;
#X msg 318 289 \$1;
#X obj 92 275 bng 17 250 50 0 empty empty empty 17 7 0 10 -262144 -1
-1;
#X obj 39 199 bng 15 250 50 0 empty empty empty 17 7 0 10 -262144 -1
-1;
#X obj 208 520 outlet;
#X text 198 539 play queue;
#X obj 65 252 t 1 b;
#X obj 159 19 inlet;
#X text 156 41 play after rec, f 10;
#X msg 145 72 1;
#X obj 65 23 r beatnum;
#X obj 499 43 r \$0-phasorfreq;
#X floatatom 499 68 5 0 0 0 - - -, f 5;
#X obj 499 92 == 0;
#X floatatom 499 117 5 0 0 0 - - -, f 5;
#X text 537 69 freq=0 when the track is not playing, f 11;
#X obj 65 133 t b b;
#X text 523 447 0 empty \; 1 playing \; 2 play queued \; 3 recording
\; 4 rec queued \; 5 stopped \; 6 stop queued;
#X obj 256 364 change;
#X text 355 265 stop on beat 0;
#X text 154 243 play queue;
#X text 224 244 stop queued;
#X text 364 240 stop on beat 0;
#X text -31 226 start play on beat 0, f 14;
#X obj 256 389 s \$0-status-s;
#N canvas 565 248 499 509 trackstartstop 0;
#X text 102 59 beat number;
#X floatatom 97 95 5 0 0 0 - - -, f 5;
#X obj 97 118 select 0;
#X text 25 117 first beat;
#X obj 97 33 r beatnum;
#X obj 97 143 t b b;
#X obj 65 330 outlet;
#X text 65 355 track start bang;
#X obj 192 329 outlet;
#X text 192 354 track end bang;
#X obj 276 33 r \$0-barsset-s;
#X obj 219 33 r tempo;
#X floatatom 276 58 5 0 0 0 - - -, f 5;
#X floatatom 219 58 5 0 0 0 - - -, f 5;
#X obj 382 33 r beatsperbar;
#X floatatom 382 58 5 0 0 0 - - -, f 5;
#X obj 122 170 f 1;
#X obj 156 171 + 1;
#X obj 122 195 mod;
#X floatatom 122 220 5 0 0 0 - - -, f 5;
#X obj 122 244 select 0;
#X connect 1 0 2 0;
#X connect 2 0 5 0;
#X connect 4 0 1 0;
#X connect 5 1 16 0;
#X connect 10 0 12 0;
#X connect 11 0 13 0;
#X connect 12 0 18 1;
#X connect 14 0 15 0;
#X connect 16 0 17 0;
#X connect 16 0 18 0;
#X connect 17 0 16 1;
#X connect 18 0 19 0;
#X connect 19 0 20 0;
#X restore 514 323 pd trackstartstop;
#X text 489 324 WIP;
#X connect 0 0 20 0;
#X connect 8 0 9 0;
#X connect 9 0 43 0;
#X connect 10 0 16 0;
#X connect 10 0 30 0;
#X connect 11 0 33 0;
#X connect 14 0 26 0;
#X connect 15 0 14 1;
#X connect 16 0 11 0;
#X connect 17 0 45 0;
#X connect 18 0 19 0;
#X connect 18 1 23 0;
#X connect 19 0 31 0;
#X connect 19 1 22 0;
#X connect 19 1 21 0;
#X connect 20 0 18 0;
#X connect 20 2 15 0;
#X connect 20 3 10 1;
#X connect 21 0 45 0;
#X connect 23 1 24 0;
#X connect 23 1 25 0;
#X connect 25 0 45 0;
#X connect 26 0 27 0;
#X connect 26 0 28 0;
#X connect 26 1 6 0;
#X connect 28 0 45 0;
#X connect 29 0 4 0;
#X connect 33 0 17 0;
#X connect 33 1 29 0;
#X connect 34 0 36 0;
#X connect 37 0 8 0;
#X connect 38 0 39 0;
#X connect 39 0 40 0;
#X connect 40 0 41 0;
#X connect 41 0 11 1;
#X connect 43 0 10 0;
#X connect 43 1 14 0;
#X connect 45 0 51 0;
#X restore 47 195 pd play_sample_queue;
#X text 62 214 play queue;
#X text 103 436 _l audio out _r;
#X obj 132 376 bng 15 250 50 0 empty empty empty 17 7 0 10 -262144
-1 -1;
#X obj 79 372 bng 15 250 50 0 empty empty empty 17 7 0 10 -262144 -1
-1;
#N canvas 772 141 557 559 rec_samples 0;
#X obj 392 30 inlet;
#X text 428 30 start;
#X obj 473 29 inlet;
#X text 508 29 stop;
#X obj 392 59 bng 15 250 50 0 empty empty empty 17 7 0 10 -262144 -1
-1;
#X msg 473 240 stop;
#X obj 22 414 tabwrite~;
#X msg 392 239 start;
#X obj 22 27 inlet;
#X text 57 27 rec queue bang, f 5;
#X obj 22 84 bng 15 250 50 0 empty empty empty 17 7 0 10 -262144 -1
-1;
#X obj 144 414 tabwrite~;
#X msg 294 239 set \$1_l;
#X msg 313 347 set \$1_r;
#X msg 293 52 track\$0;
#X obj 293 30 loadbang;
#X msg 97 211 symbol \$1_l;
#X obj 22 185 t f f, f 21;
#X obj 22 129 f, f 4;
#X obj 143 301 receive~ sigin_1;
#X obj 23 301 receive~ sigin_1;
#X msg 220 211 symbol \$1_r;
#X obj 294 74 t s s s s;
#X obj 22 236 array size;
#X obj 145 236 array size;
#X floatatom 43 108 9 0 0 0 - - -, f 9;
#X obj 43 78 r \$0-duration_samples;
#X connect 0 0 4 0;
#X connect 2 0 5 0;
#X connect 4 0 7 0;
#X connect 5 0 6 0;
#X connect 5 0 11 0;
#X connect 7 0 6 0;
#X connect 7 0 11 0;
#X connect 8 0 10 0;
#X connect 10 0 18 0;
#X connect 12 0 6 0;
#X connect 13 0 11 0;
#X connect 14 0 22 0;
#X connect 15 0 14 0;
#X connect 16 0 23 1;
#X connect 17 0 23 0;
#X connect 17 1 24 0;
#X connect 18 0 17 0;
#X connect 19 0 11 0;
#X connect 20 0 6 0;
#X connect 21 0 24 1;
#X connect 22 0 12 0;
#X connect 22 1 13 0;
#X connect 22 2 16 0;
#X connect 22 3 21 0;
#X connect 25 0 18 1;
#X connect 26 0 25 0;
#X restore 216 251 pd rec_samples;
#N canvas 792 125 591 719 rec_sample_queue 0;
#X obj 224 49 inlet;
#X text 266 51 rec toggle;
#X obj 356 46 inlet;
#X obj 261 554 outlet;
#X text 308 556 start;
#X obj 384 552 outlet;
#X text 432 552 stop;
#X obj 128 222 spigot;
#X obj 128 153 select 0;
#X obj 128 178 bng 15 250 50 0 empty empty empty 17 7 0 10 -262144
-1 -1;
#X obj 225 423 bng 15 250 50 0 empty empty empty 17 7 0 10 -262144
-1 -1;
#X obj 264 149 == 0;
#X obj 319 243 spigot;
#X obj 128 198 t b b;
#X obj 320 410 bng 15 250 50 0 empty empty empty 17 7 0 10 -262144
-1 -1;
#X floatatom 118 316 5 0 0 0 - - -, f 5;
#X obj 144 286 + 1;
#X obj 118 286 f 1;
#X obj 118 366 <;
#X obj 117 390 select 0;
#X obj 118 342 t f f;
#X obj 321 435 f 0;
#X obj 161 343 - 0.5;
#X obj 277 356 change;
#X obj 128 244 t b b b 3;
#X floatatom 277 334 5 0 0 0 - - -, f 5;
#X floatatom 380 405 5 0 0 0 - - -, f 5;
#X obj 253 360 bng 15 250 50 0 empty empty empty 17 7 0 10 -262144
-1 -1;
#X obj 111 245 bng 15 250 50 0 empty empty empty 17 7 0 10 -262144
-1 -1;
#X msg 79 250 0;
#X obj 197 156 t f f;
#X obj 214 189 select 1;
#X obj 289 189 select 1;
#X obj 290 169 t f f;
#X obj 196 278 bng 15 250 50 0 empty empty empty 17 7 0 10 -262144
-1 -1;
#X obj 199 218 bng 15 250 50 0 empty empty empty 17 7 0 10 -262144
-1 -1;
#X obj 266 244 bng 15 250 50 0 empty empty empty 17 7 0 10 -262144
-1 -1;
#X obj 325 299 bng 15 250 50 0 empty empty empty 17 7 0 10 -262144
-1 -1;
#X msg 297 298 \$1;
#X msg 282 243 \$1;
#X msg 215 245 4;
#X msg 211 278 \$1;
#X obj 280 379 select 3 4 5 6;
#X obj 225 397 t b b;
#X obj 289 213 t 1 6;
#X text 326 208 stop queue is not used when recording, f 19;
#X obj 215 217 t b b;
#X obj 318 268 t b b 5;
#X obj 193 556 outlet;
#X text 194 576 rec queue;
#X obj 193 525 bng 15 250 50 0 empty empty empty 17 7 0 10 -262144
-1 -1;
#X obj 53 559 s \$0-status-s;
#X obj 128 52 r beatnum;
#X floatatom 224 74 5 0 0 0 - - -, f 5;
#X obj 224 98 t f f;
#X text 397 45 number of bars;
#X connect 0 0 53 0;
#X connect 2 0 22 0;
#X connect 7 0 24 0;
#X connect 7 0 28 0;
#X connect 8 0 9 0;
#X connect 9 0 13 0;
#X connect 10 0 3 0;
#X connect 11 0 33 0;
#X connect 12 0 47 0;
#X connect 13 0 7 0;
#X connect 13 1 12 0;
#X connect 14 0 21 0;
#X connect 14 0 5 0;
#X connect 15 0 20 0;
#X connect 16 0 17 1;
#X connect 17 0 16 0;
#X connect 17 0 15 0;
#X connect 18 0 19 0;
#X connect 19 0 47 0;
#X connect 20 0 18 0;
#X connect 22 0 18 1;
#X connect 23 0 42 0;
#X connect 23 0 51 0;
#X connect 24 2 17 0;
#X connect 24 3 41 0;
#X connect 24 3 34 0;
#X connect 25 0 27 0;
#X connect 25 0 23 0;
#X connect 29 0 17 1;
#X connect 30 0 7 1;
#X connect 30 1 31 0;
#X connect 31 0 35 0;
#X connect 31 0 46 0;
#X connect 33 0 32 0;
#X connect 33 1 12 1;
#X connect 38 0 25 0;
#X connect 39 0 25 0;
#X connect 40 0 25 0;
#X connect 41 0 25 0;
#X connect 42 0 43 0;
#X connect 42 1 50 0;
#X connect 42 2 14 0;
#X connect 42 4 26 0;
#X connect 43 0 10 0;
#X connect 43 1 29 0;
#X connect 44 0 12 1;
#X connect 44 1 39 0;
#X connect 44 1 36 0;
#X connect 46 0 40 0;
#X connect 47 2 38 0;
#X connect 47 2 37 0;
#X connect 50 0 48 0;
#X connect 52 0 8 0;
#X connect 53 0 54 0;
#X connect 54 0 30 0;
#X connect 54 1 11 0;
#X restore 216 196 pd rec_sample_queue;
#X obj 164 116 r \$0-play-s;
#X floatatom 164 141 5 0 0 0 - - -, f 5;
#X floatatom 263 143 5 0 0 0 - - -, f 5;
#X obj 263 118 r \$0-rec-s;
#X obj 341 125 r \$0-bars-s;
#X floatatom 341 150 5 0 0 0 - - -, f 5;
#X obj 176 343 loadbang;
#N canvas 177 310 579 447 expected_samples 0;
#X text 0 222 duration in samples of the expected recording, f 20
;
#X obj 128 84 * 4;
#X obj 128 113 *;
#X obj 128 141 / 1000;
#X obj 127 171 *;
#X floatatom 127 192 6 0 0 0 - - -, f 6;
#X floatatom 274 215 6 0 0 0 - - -, f 6;
#X floatatom 80 114 5 0 0 0 - - -, f 5;
#X floatatom 68 154 5 0 0 0 - - -, f 5;
#X text 319 225 duration in s;
#X text 12 71 default number of beats per bar = 4, f 18;
#X obj 128 24 r \$0-barsset-s;
#X floatatom 128 49 5 0 0 0 - - -, f 5;
#X obj 178 95 r tempo_ms;
#X obj 178 49 r beatsperbar;
#X obj 274 271 s \$0-duration_sec;
#X obj 125 271 s \$0-duration_samples;
#X obj 261 135 r samplerateval;
#X floatatom 261 160 5 0 0 0 - - -, f 5;
#X floatatom 178 120 5 0 0 0 - - -, f 5;
#X floatatom 178 74 5 0 0 0 - - -, f 5;
#X obj 33 21 r \$0-rec-s;
#X obj 33 46 bng 15 250 50 0 empty empty empty 17 7 0 10 -262144 -1
-1;
#X connect 1 0 2 0;
#X connect 1 0 7 0;
#X connect 2 0 3 0;
#X connect 2 0 8 0;
#X connect 3 0 4 0;
#X connect 3 0 6 0;
#X connect 4 0 5 0;
#X connect 5 0 16 0;
#X connect 6 0 15 0;
#X connect 11 0 12 0;
#X connect 12 0 1 0;
#X connect 13 0 2 1;
#X connect 13 0 19 0;
#X connect 14 0 1 1;
#X connect 14 0 20 0;
#X connect 17 0 4 1;
#X connect 17 0 18 0;
#X connect 21 0 22 0;
#X connect 22 0 12 0;
#X restore 40 85 pd expected_samples;
#X obj 440 285 bng 15 250 50 0 empty empty empty 17 7 0 10 -262144
-1 -1;
#X obj 440 308 \$0;
#X floatatom 440 333 5 0 0 0 - - -, f 5;
#X connect 3 0 4 0;
#X connect 5 0 3 0;
#X connect 5 1 3 1;
#X connect 6 0 5 2;
#X connect 7 0 8 0;
#X connect 8 0 5 3;
#X connect 9 0 6 0;
#X connect 10 0 3 2;
#X connect 11 0 10 0;
#X connect 12 1 5 0;
#X connect 12 2 5 1;
#X connect 23 1 27 0;
#X connect 23 2 26 0;
#X connect 26 0 12 1;
#X connect 27 0 12 0;
#X connect 29 0 28 0;
#X connect 29 1 28 1;
#X connect 29 2 28 2;
#X connect 30 0 31 0;
#X connect 31 0 23 1;
#X connect 32 0 29 0;
#X connect 33 0 32 0;
#X connect 34 0 35 0;
#X connect 35 0 29 1;
#X connect 36 0 19 0;
#X connect 38 0 39 0;
#X connect 39 0 40 0;
