#N canvas 17 140 970 552 10;
#X obj 77 4 cnv 15 881 547 empty empty empty 0 0 0 4 #404040 #fcfcfc
0;
#N canvas 291 96 450 350 test 0;
#X obj 89 235 s todsp;
#X msg 89 210 /track/9/getall;
#X msg 75 84 /track/9/vol 64;
#X msg 53 131 /track/9/output 1;
#X msg 103 179 /track/9/play 1;
#X msg 83 27 /track/9/name hola;
#X connect 1 0 0 0;
#X connect 2 0 0 0;
#X connect 3 0 0 0;
#X connect 4 0 0 0;
#X connect 5 0 0 0;
#X restore 460 13 pd test;
#N canvas 118 95 1210 743 tracks-matrix 0;
#X obj 20 13 cnv 10 84 14 empty empty drums 11 5 0 10 #e80000 #404040
0;
#X obj 108 13 cnv 10 84 14 empty empty percu 11 5 0 10 #fc8000 #404040
0;
#X obj 196 13 cnv 10 84 14 empty empty bass 11 5 0 10 #e8e000 #404040
0;
#X obj 284 13 cnv 10 84 14 empty empty pads 11 5 0 10 #00e404 #404040
0;
#X obj 372 13 cnv 10 84 14 empty empty chords 11 5 0 10 #007ce8 #404040
0;
#X obj 460 13 cnv 10 84 14 empty empty lead 11 5 0 10 #00e8c0 #404040
0;
#X obj 548 13 cnv 10 84 14 empty empty other1 11 5 0 10 #e800e4 #404040
0;
#X obj 636 13 cnv 10 84 14 empty empty other2 11 5 0 10 #b800e8 #404040
0;
#X obj 20 369 empty_button 0;
#X obj 20 369 empty_button 0;
#X obj 108 369 empty_button 1;
#X obj 196 369 empty_button 2;
#X obj 284 369 empty_button 3;
#X obj 372 369 empty_button 4;
#X obj 460 369 empty_button 5;
#X obj 548 369 empty_button 6;
#X obj 636 369 empty_button 7;
#X obj 20 321 empty_button 8;
#X obj 108 321 empty_button 9;
#X obj 196 321 empty_button 10;
#X obj 284 321 empty_button 11;
#X obj 372 321 empty_button 12;
#X obj 460 321 empty_button 13;
#X obj 548 321 empty_button 14;
#X obj 636 321 empty_button 15;
#X obj 20 273 empty_button 16;
#X obj 108 273 empty_button 17;
#X obj 196 273 empty_button 18;
#X obj 284 273 empty_button 19;
#X obj 372 273 empty_button 20;
#X obj 460 273 empty_button 21;
#X obj 548 273 empty_button 22;
#X obj 636 273 empty_button 23;
#X obj 20 225 empty_button 24;
#X obj 108 225 empty_button 25;
#X obj 196 225 empty_button 26;
#X obj 284 225 empty_button 27;
#X obj 372 225 empty_button 28;
#X obj 460 225 empty_button 29;
#X obj 548 225 empty_button 30;
#X obj 636 225 empty_button 31;
#X obj 20 177 empty_button 32;
#X obj 108 177 empty_button 33;
#X obj 196 177 empty_button 34;
#X obj 284 177 empty_button 35;
#X obj 372 177 empty_button 36;
#X obj 460 177 empty_button 37;
#X obj 548 177 empty_button 38;
#X obj 636 177 empty_button 39;
#X obj 20 129 empty_button 40;
#X obj 108 129 empty_button 41;
#X obj 196 129 empty_button 42;
#X obj 284 129 empty_button 43;
#X obj 372 129 empty_button 44;
#X obj 460 129 empty_button 45;
#X obj 548 129 empty_button 46;
#X obj 636 129 empty_button 47;
#X obj 20 81 empty_button 48;
#X obj 108 81 empty_button 49;
#X obj 196 81 empty_button 50;
#X obj 284 81 empty_button 51;
#X obj 372 81 empty_button 52;
#X obj 460 81 empty_button 53;
#X obj 548 81 empty_button 54;
#X obj 636 81 empty_button 55;
#X obj 20 33 empty_button 56;
#X obj 108 33 empty_button 57;
#X obj 196 33 empty_button 58;
#X obj 284 33 empty_button 59;
#X obj 372 33 empty_button 60;
#X obj 460 33 empty_button 61;
#X obj 548 33 empty_button 62;
#X obj 636 33 empty_button 63;
#X coords 0 -1 1 1 714 412 2 14 8;
#X restore 82 85 pd tracks-matrix;
#N canvas 886 192 618 562 tempo 0;
#X obj 90 -432 cnv 15 182 48 empty empty empty 20 12 0 14 #929292 #404040
0;
#X text 33 67 outputs 0 for the first beat;
#X text 113 -37 tempo in ms;
#X floatatom 23 -130 5 0 0 0 - - -, f 5;
#X msg 403 -277 /metro/playpause \$1;
#X msg 420 -306 /metro/click \$1;
#X msg 438 -334 /metro/tap;
#X obj 23 -210 r fromdsp;
#X obj 403 -243 s todsp;
#X obj 421 -145 select 0 1;
#X msg 421 -123 stop;
#X obj 421 -33 f 0;
#X obj 452 -33 + 1;
#X obj 421 17 mod;
#X obj 98 -104 t f f;
#X obj 174 -104 bng 15 250 50 0 empty empty empty 17 7 0 10 #fcfcfc
#000000 #000000;
#X obj 23 -106 bng 15 250 50 0 empty empty empty 17 7 0 10 #fcfcfc
#000000 #000000;
#X floatatom 421 42 5 0 0 0 - - -, f 5;
#X obj 421 66 t f f;
#X obj 244 -106 t f f;
#X floatatom 98 -79 5 0 0 0 - - -, f 5;
#X floatatom 284 -106 5 0 0 0 - - -, f 5;
#X floatatom 190 -105 5 0 0 0 - - -, f 5;
#X obj 421 -58 metro 500;
#X floatatom 231 -406 4 0 0 0 - - -, f 4;
#X obj 138 -411 hradio 20 0 0 4 empty empty empty 0 -8 0 10 #fcfcfc
#000000 #000000 3;
#X obj 107 -411 tgl 20 0 \$0-globalplaypause-s \$0-globalplaypause-r
play/pause -14 -12 0 10 #94a0fc #000000 #000000 0 1;
#X obj 166 -429 tgl 14 0 empty empty metro 17 7 0 10 #fcfcfc #000000
#000000 0 1;
#X obj 230 -428 bng 15 250 50 0 empty empty tap 17 7 0 10 #fcfcfc #000000
#000000;
#X obj 459 -123 t b 0 0;
#X floatatom 421 -166 5 0 0 0 - - -, f 5;
#X obj 98 -55 bng 15 250 50 0 empty empty empty 17 7 0 10 #fcfcfc #000000
#000000;
#X msg 451 -359 /metro/tempo_bpm \$1;
#X obj 421 -33 bng 15 250 50 0 empty empty empty 17 7 0 10 #fcfcfc
#000000 #000000;
#X obj 401 -435 loadbang;
#X msg 401 -391 120;
#X msg 302 -333 /getmetro;
#X obj 401 -410 delay 1000;
#X msg 190 -78 set \$1;
#X obj 107 -373 t f b b b f f b;
#X obj 291 -218 s metrostart;
#X obj 263 -199 s metrostop;
#X obj 263 -244 select 0 1;
#X obj 23 36 s beatnum;
#X obj 303 -217 bng 15 250 50 0 empty empty empty 17 7 0 10 #fcfcfc
#000000 #000000;
#X obj 246 -4 nbx 5 14 -1e+37 1e+37 0 0 beatsperbar beatsperbar-r empty
0 -8 0 10 #fcfcfc #000000 #000000 4 256 0;
#X obj 99 -16 nbx 5 14 -1e+37 1e+37 0 0 tempo_ms tempo_ms-r empty 0
-8 0 10 #fcfcfc #000000 #000000 500 256 0;
#X floatatom 244 -81 5 0 0 0 - - -, f 5;
#X obj 20 -390 cnv 15 62 142 empty empty empty 20 12 0 14 #929292 #404040
0;
#X floatatom 54 -267 4 0 0 0 - - -, f 4;
#X obj 34 -374 tgl 20 0 \$0-globalplaypause-s \$0-globalplaypause-r
play/pause -14 -12 0 10 #94a0fc #000000 #000000 1 1;
#X obj 27 -342 tgl 14 0 empty empty metro -6 -8 0 10 #fcfcfc #000000
#000000 0 1;
#X obj 33 -266 bng 15 250 50 0 empty empty tap -2 -10 0 10 #fcfcfc
#000000 #000000;
#X obj 54 -350 vradio 20 0 0 4 empty empty empty 0 -8 0 10 #fcfcfc
#000000 #000000 3;
#X obj 495 -409 import mrpeach;
#X obj 23 -180 mrpeach/routeOSC /metro;
#X obj 23 -155 mrpeach/routeOSC /beatnum /tempo_ms /tempo_bpm /beatsperbar
;
#X connect 3 0 16 0;
#X connect 3 0 43 0;
#X connect 4 0 8 0;
#X connect 5 0 8 0;
#X connect 6 0 8 0;
#X connect 7 0 55 0;
#X connect 9 0 10 0;
#X connect 9 1 29 0;
#X connect 10 0 23 0;
#X connect 11 0 12 0;
#X connect 11 0 13 0;
#X connect 12 0 11 1;
#X connect 13 0 17 0;
#X connect 14 0 20 0;
#X connect 14 1 23 1;
#X connect 16 0 30 0;
#X connect 17 0 18 0;
#X connect 18 0 25 0;
#X connect 18 0 53 0;
#X connect 19 0 47 0;
#X connect 19 1 13 1;
#X connect 19 1 21 0;
#X connect 20 0 31 0;
#X connect 20 0 46 0;
#X connect 22 0 38 0;
#X connect 22 0 15 0;
#X connect 23 0 11 0;
#X connect 23 0 33 0;
#X connect 24 0 32 0;
#X connect 26 0 39 0;
#X connect 27 0 5 0;
#X connect 28 0 6 0;
#X connect 29 0 23 0;
#X connect 29 1 11 1;
#X connect 30 0 9 0;
#X connect 32 0 8 0;
#X connect 34 0 37 0;
#X connect 35 0 24 0;
#X connect 35 0 49 0;
#X connect 36 0 8 0;
#X connect 37 0 35 0;
#X connect 38 0 24 0;
#X connect 38 0 49 0;
#X connect 39 0 30 0;
#X connect 39 1 20 0;
#X connect 39 2 22 0;
#X connect 39 3 47 0;
#X connect 39 4 4 0;
#X connect 39 5 42 0;
#X connect 39 6 36 0;
#X connect 42 0 41 0;
#X connect 42 1 40 0;
#X connect 42 1 44 0;
#X connect 47 0 45 0;
#X connect 49 0 32 0;
#X connect 50 0 39 0;
#X connect 51 0 5 0;
#X connect 52 0 6 0;
#X connect 55 0 56 0;
#X connect 56 0 3 0;
#X connect 56 0 16 0;
#X connect 56 1 14 0;
#X connect 56 2 22 0;
#X connect 56 3 19 0;
#X coords 0 -1 1 1 64 143 2 19 -391;
#X restore 4 110 pd tempo;
#N canvas 151 79 450 325 midifluid_GUI 0;
#X obj 206 -47 cnv 15 154 61 empty empty Fluidsynth 37 6 0 10 #646464
#404040 0;
#X msg 239 -119 load /home/zig/soundfounts/FluidR3_GM.sf2;
#X msg 239 -94 load /home/zig/soundfounts/Timbres Of Heaven GM_GS_XG_SFX
V 3.4 Final.sf2;
#X floatatom 253 -7 5 0 0 0 channel - -, f 5;
#X floatatom 324 -7 5 0 0 0 value - -, f 5;
#X floatatom 323 -31 5 0 0 0 bank - -, f 5;
#X obj 253 61 pack f f;
#X msg 255 85 prog \$1 \$2;
#X msg 324 20 bank 1 \$1;
#X obj 253 38 bng 15 250 50 0 empty empty empty 17 7 0 10 #fcfcfc #000000
#000000;
#X obj 252 -32 bng 15 250 50 0 empty empty Load -28 5 0 10 #fcfcfc
#000000 #000000;
#X obj 57 143 s todsp;
#X obj 58 114 list trim;
#X obj 58 89 list prepend /fluid;
#X msg 311 134 p 1 0;
#X msg 386 102 bank 2 128;
#X msg 386 129 p 2 8;
#X msg 312 107 bank 1 0;
#X obj 352 72 t b b b b;
#X obj 87 -83 r loadfluid;
#X text 20 -111 coming when fluid selected in audio input: -->, f
21;
#X obj 469 17 ctlin;
#X connect 1 0 13 0;
#X connect 2 0 13 0;
#X connect 3 0 6 0;
#X connect 4 0 6 1;
#X connect 4 0 9 0;
#X connect 5 0 8 0;
#X connect 6 0 7 0;
#X connect 7 0 13 0;
#X connect 8 0 13 0;
#X connect 9 0 3 0;
#X connect 10 0 1 0;
#X connect 10 0 18 0;
#X connect 12 0 11 0;
#X connect 13 0 12 0;
#X connect 14 0 13 0;
#X connect 15 0 13 0;
#X connect 16 0 13 0;
#X connect 17 0 13 0;
#X connect 18 0 16 0;
#X connect 18 1 15 0;
#X connect 18 2 14 0;
#X connect 18 3 17 0;
#X connect 19 0 10 0;
#X coords 0 -1 1 1 154 62 1 206 -47;
#X restore 641 10 pd midifluid_GUI;
#N canvas 556 195 708 556 sound_input 0;
#X obj 49 103 cnv 15 171 51 empty empty Audio\ Input 72 9 0 10 #707070
#404040 0;
#X text 148 13 switch between adc~ and midifluid;
#X dropdown 51 114 6 0 0 0 - - -, f 6;
#X msg 70 58 names adc~ midifluid;
#X obj 51 9 loadbang;
#X obj 51 134 tgl 15 0 empty empty monitor-> 17 7 0 10 #fcfcfc #000000
#000000 1 1;
#X obj 51 34 t b b 1;
#X msg 51 80 set 1;
#X obj 124 398 s todsp;
#X msg 141 315 /input/dd \$1;
#X msg 51 334 /input/monitor \$1;
#X msg 68 217 0;
#X obj 131 128 hsl 66 20 0 1 0 0 \$0-volmonslider \$0-set-volmonslider
volume 19 7 1 13 #dcdcdc #000000 #000000 0 1;
#X obj 200 116 tgl 16 0 \$0-dsp-montoggle \$0-dsp-montoggle-set on
3 6 1 9 #4a4f51 #4a4f51 #fcfcfc 0 1;
#X obj 200 132 bng 16 500 50 0 \$0-monmute-bng \$0-monmute empty 0
9 2 8 #dcdcdc #586064 #bcbcbc;
#X obj 268 209 select 0 1;
#X msg 268 234 on;
#X msg 301 236 off;
#X msg 268 361 /input/volmon mute;
#X obj 68 192 select 0 1;
#X msg 106 269 1;
#N canvas 597 345 450 300 mute 0;
#X obj 121 76 select 0 1;
#N canvas 186 185 358 434 off 0;
#X obj 154 221 +;
#X obj 139 246 +;
#X obj 77 140 * -65536;
#X obj 154 141 * -256;
#X obj 220 141 * -1;
#X obj 139 277 - 1;
#X obj 120 110 unpack f f f;
#X obj 120 47 inlet;
#X obj 139 351 outlet;
#X msg 120 80 220 220 220;
#X msg 139 309 label volume \, color \$1 -1 -1;
#X connect 0 0 1 1;
#X connect 1 0 5 0;
#X connect 2 0 1 0;
#X connect 3 0 0 0;
#X connect 4 0 0 1;
#X connect 5 0 10 0;
#X connect 6 0 2 0;
#X connect 6 1 3 0;
#X connect 6 2 4 0;
#X connect 7 0 9 0;
#X connect 9 0 6 0;
#X connect 10 0 8 0;
#X restore 121 115 pd off;
#N canvas 398 340 311 325 on 0;
#X obj 112 157 +;
#X obj 97 182 +;
#X obj 35 122 * -65536;
#X obj 112 123 * -256;
#X obj 178 123 * -1;
#X obj 97 213 - 1;
#X obj 78 92 unpack f f f;
#X obj 78 32 inlet;
#X obj 97 284 outlet;
#X msg 78 62 89 96 100;
#X msg 97 246 label muted \, color \$1 0 0;
#X connect 0 0 1 1;
#X connect 1 0 5 0;
#X connect 2 0 1 0;
#X connect 3 0 0 0;
#X connect 4 0 0 1;
#X connect 5 0 10 0;
#X connect 6 0 2 0;
#X connect 6 1 3 0;
#X connect 6 2 4 0;
#X connect 7 0 9 0;
#X connect 9 0 6 0;
#X connect 10 0 8 0;
#X restore 181 115 pd on;
#X obj 121 53 tgl 15 0 empty \$0-monmute-bng empty 17 7 0 10 #fcfcfc
#000000 #000000 0 1;
#X obj 113 4 loadbang;
#X obj 122 195 s \$0-set-volmonslider;
#X msg 113 29 0;
#X connect 0 0 1 0;
#X connect 0 1 2 0;
#X connect 1 0 5 0;
#X connect 2 0 5 0;
#X connect 3 0 0 0;
#X connect 4 0 6 0;
#X connect 6 0 3 0;
#X restore 451 205 pd mute;
#X obj 269 282 list trim;
#X obj 269 258 list prepend /input/volmon;
#N canvas 0 50 712 637 off 0;
#X obj 389 164 * -1;
#X obj 323 244 +;
#X obj 308 269 +;
#X obj 246 163 * -65536;
#X obj 323 164 * -256;
#X obj 308 300 - 1;
#X obj 289 133 unpack f f f;
#X obj 124 239 +;
#X obj 109 264 +;
#X obj 47 158 * -65536;
#X obj 124 159 * -256;
#X obj 190 159 * -1;
#X obj 109 295 - 1;
#X obj 90 128 unpack f f f;
#X msg 289 97 124 124 124;
#X msg 90 98 220 220 220;
#X obj 90 25 inlet;
#X obj 287 405 outlet;
#X obj 287 344 pack;
#X obj 90 65 trigger bang bang;
#X msg 287 371 color \$1 \$2 2 \, label off;
#X connect 0 0 1 1;
#X connect 1 0 2 1;
#X connect 2 0 5 0;
#X connect 3 0 2 0;
#X connect 4 0 1 0;
#X connect 5 0 18 1;
#X connect 6 0 3 0;
#X connect 6 1 4 0;
#X connect 6 2 0 0;
#X connect 7 0 8 1;
#X connect 8 0 12 0;
#X connect 9 0 8 0;
#X connect 10 0 7 0;
#X connect 11 0 7 1;
#X connect 12 0 18 0;
#X connect 13 0 9 0;
#X connect 13 1 10 0;
#X connect 13 2 11 0;
#X connect 14 0 6 0;
#X connect 15 0 13 0;
#X connect 16 0 19 0;
#X connect 18 0 20 0;
#X connect 19 0 15 0;
#X connect 19 1 14 0;
#X connect 20 0 17 0;
#X restore 405 121 pd off;
#X msg 454 122 color -4.86997e+06 -4.86997e+06 0 \, label on;
#X obj 454 168 send \$0-dsp-montoggle-set;
#X msg 238 331 /input/volmon \$1;
#X obj 297 53 loadbang;
#X msg 297 78 0;
#X obj 405 91 select 1 0;
#X obj 78 243 t b b;
#X obj 70 166 t f f, f 12;
#X obj 78 296 s loadfluid;
#X connect 2 0 32 0;
#X connect 3 0 2 0;
#X connect 4 0 6 0;
#X connect 5 0 10 0;
#X connect 6 0 7 0;
#X connect 6 1 3 0;
#X connect 6 2 5 0;
#X connect 7 0 2 0;
#X connect 9 0 8 0;
#X connect 10 0 8 0;
#X connect 11 0 5 0;
#X connect 12 0 27 0;
#X connect 13 0 15 0;
#X connect 13 0 30 0;
#X connect 14 0 18 0;
#X connect 15 0 16 0;
#X connect 15 1 17 0;
#X connect 16 0 23 0;
#X connect 17 0 23 0;
#X connect 18 0 8 0;
#X connect 19 0 11 0;
#X connect 19 1 31 0;
#X connect 20 0 5 0;
#X connect 22 0 8 0;
#X connect 23 0 22 0;
#X connect 24 0 26 0;
#X connect 25 0 26 0;
#X connect 27 0 8 0;
#X connect 28 0 29 0;
#X connect 29 0 13 0;
#X connect 30 0 24 0;
#X connect 30 1 25 0;
#X connect 31 0 33 0;
#X connect 31 1 20 0;
#X connect 32 0 19 0;
#X connect 32 1 9 0;
#X coords 0 -1 1 1 171 51 1 49 103;
#X restore 246 11 pd sound_input;
#N canvas 497 330 450 325 vumixer 0;
#X obj 81 54 tgl 15 0 empty empty mon 17 7 0 10 #fcfcfc #000000 #000000
0 1;
#X floatatom 82 80 5 0 0 0 - - -, f 5;
#X obj 82 102 vu 15 80 empty empty -1 -8 0 10 #404040 #000000 1 0;
#X msg 263 93 /monitor \$1;
#X obj 268 38 routeOSC /monitor;
#X obj 263 118 s todsp;
#X obj 268 13 r fromdsp;
#X text 90 66 sigin_1;
#X connect 0 0 3 0;
#X connect 1 0 2 0;
#X connect 3 0 5 0;
#X connect 4 0 1 0;
#X connect 6 0 4 0;
#X coords 0 -1 1 1 57 151 1 79 39;
#X restore 4 346 pd vumixer;
#X obj 245 65 track_follow;
#X obj 84 11 matrix_thumb;
#X obj 802 110 scene 82;
#X obj 802 159 scene 83;
#X obj 802 207 scene 84;
#X obj 802 255 scene 85;
#X obj 802 303 scene 86;
#X obj 802 351 scene 87;
#X obj 802 399 scene 89;
#N canvas 313 241 450 325 saveload 0;
#X obj 90 25 cnv 15 59 69 empty empty empty 20 12 0 14 #a0a0a0 #404040
0;
#N canvas 117 115 450 375 load 0;
#X obj 61 56 inlet;
#X obj 199 45 r fromdsp;
#X floatatom 199 95 5 0 0 0 - - -, f 5;
#X obj 199 119 t b f;
#X obj 199 174 s;
#X msg 222 145 symbol \$1-bng-r;
#X obj 61 81 bng 15 250 50 0 empty empty empty 17 7 0 10 #fcfcfc #000000
#000000;
#X obj 61 104 openpanel;
#X msg 61 129 /load \$1;
#X obj 61 154 s todsp;
#X obj 199 70 routeOSC /create /UIstatus;
#X obj 279 97 tosymbol;
#X obj 280 203 s UIstatus;
#X symbolatom 279 122 10 0 0 0 - - -, f 10;
#X msg 191 203;
#X connect 0 0 6 0;
#X connect 1 0 10 0;
#X connect 2 0 3 0;
#X connect 3 0 4 0;
#X connect 3 1 5 0;
#X connect 5 0 4 1;
#X connect 6 0 7 0;
#X connect 7 0 8 0;
#X connect 8 0 9 0;
#X connect 10 0 2 0;
#X connect 10 1 11 0;
#X connect 11 0 12 0;
#X connect 11 0 13 0;
#X restore 98 150 pd load;
#X obj 93 27 bng 15 250 50 0 empty empty Load 17 7 0 10 #fcfcfc #000000
#000000;
#X obj 93 45 bng 15 250 50 0 empty empty Save 17 7 0 10 #fcfcfc #000000
#000000;
#N canvas 39 401 450 300 save 0;
#X obj 151 65 inlet;
#X obj 151 90 bng 15 250 50 0 empty empty empty 17 7 0 10 #fcfcfc #000000
#000000;
#X obj 151 113 openpanel;
#X msg 151 138 /save \$1;
#X obj 151 163 s todsp;
#X obj 267 68 r fromdsp;
#X obj 267 93 routeOSC /saved;
#X obj 267 118 bng 15 250 50 0 empty empty empty 17 7 0 10 #fcfcfc
#000000 #000000;
#X connect 0 0 1 0;
#X connect 1 0 2 0;
#X connect 2 0 3 0;
#X connect 3 0 4 0;
#X connect 6 0 7 0;
#X restore 171 154 pd save;
#X symbolatom 92 76 9 0 0 2 Status: UIstatus -, f 9;
#X obj 259 74 loadbang;
#X obj 259 123 s UIstatus;
#X msg 259 99 symbol Ready.;
#X connect 2 0 1 0;
#X connect 3 0 4 0;
#X connect 6 0 8 0;
#X connect 8 0 7 0;
#X coords 0 -1 1 1 60 70 2 90 24;
#X restore 6 4 pd saveload;
#X obj 802 447 scene 90;
#N canvas 998 48 387 427 settings 1;
#X obj 14 -701 cnv 15 360 384 empty empty empty 20 12 0 14 #abc4ca
#404040 0;
#X text 454 -574 0 empty \; 1 playing \; 2 play queued \; 3 recording
\; 4 record armed \; 5 not empty \, stopped \; 6 stop queued;
#X text 454 -687 MIDI out colors: \; 0 off \; 1 solid green \; 2
green blink \; 3 red solid \; 4 red blink \; 5 orange solid \; 6
orange blink;
#N canvas 724 40 594 702 button_array 0;
#N canvas 77 136 657 556 matrix_loop 0;
#X floatatom 82 -22 3 0 0 0 - - -, f 3;
#X obj 104 118 f 0;
#X obj 134 117 + 1;
#X msg 18 68 stop;
#X obj 209 12 loadbang;
#X obj 143 193 outlet;
#X obj 101 145 t f f;
#X floatatom 150 173 5 0 0 0 - - -, f 5;
#X obj 65 -21 bng 15 250 50 0 empty empty empty 17 7 0 10 #fcfcfc #000000
#000000;
#X obj 73 214 select 1;
#X obj 203 247 bng 15 250 50 0 empty empty empty 17 7 0 10 #fcfcfc
#000000 #000000;
#X msg 175 82 0;
#X msg 207 43 4;
#X obj 65 -2 bng 15 250 50 0 empty empty S 4 6 0 10 #fcfcfc #000000
#000000;
#X obj 348 197 outlet;
#X obj 84 183 ==;
#X obj 101 50 t b b 0;
#X obj 48 29 t b b;
#X obj 60 -49 inlet;
#X obj 373 36 inlet;
#X obj 118 -48 inlet;
#X obj 99 82 metro 20;
#X connect 0 0 14 0;
#X connect 0 0 15 1;
#X connect 1 0 2 0;
#X connect 1 0 6 0;
#X connect 2 0 1 1;
#X connect 3 0 21 0;
#X connect 4 0 12 0;
#X connect 6 0 15 0;
#X connect 6 1 7 0;
#X connect 7 0 5 0;
#X connect 8 0 16 0;
#X connect 9 0 3 0;
#X connect 9 0 10 0;
#X connect 10 0 11 0;
#X connect 11 0 1 1;
#X connect 12 0 0 0;
#X connect 13 0 17 0;
#X connect 15 0 9 0;
#X connect 16 0 21 0;
#X connect 16 2 7 0;
#X connect 17 0 11 0;
#X connect 17 1 3 0;
#X connect 18 0 8 0;
#X connect 19 0 0 0;
#X connect 20 0 13 0;
#X connect 21 0 1 0;
#X coords 0 -1 1 1 88 42 1 62 -25;
#X restore 52 23 pd matrix_loop;
#X text 66 76 number;
#X msg 253 21 2;
#X text 283 20 columns;
#X floatatom 257 48 4 0 0 0 cols - -, f 4;
#X floatatom 249 120 5 0 0 0 - - -, f 5;
#X text 283 119 rows;
#X floatatom 240 166 5 0 0 0 - - -, f 5;
#X text 276 177 number;
#X msg 415 67 0;
#X msg 414 98 1;
#X msg 418 132 2;
#X msg 420 159 3;
#X floatatom 202 23 4 0 0 0 cols - -, f 4;
#X obj 220 -3 loadbang;
#X obj 246 95 div;
#X text 147 68 max;
#X obj 214 107 + 1;
#X text -31 435 fill from the bottom left;
#X obj 3 207 bng 15 250 50 0 empty empty empty 17 7 0 10 #fcfcfc #000000
#000000;
#N canvas 403 67 697 694 button_cnv 0;
#X text 363 -6 nrow;
#X text 206 14 ncol;
#X floatatom 179 202 5 0 0 0 - - -, f 5;
#X text 93 192 xmax;
#X obj 199 123 *;
#X obj 172 93 t f f;
#X obj 169 122 - 1;
#X obj 168 149 *;
#X obj 180 174 +;
#X floatatom 351 207 5 0 0 0 - - -, f 5;
#X obj 299 101 *;
#X obj 344 98 t f f;
#X obj 341 127 - 1;
#X obj 340 154 *;
#X obj 352 179 +;
#X text 299 205 ymax;
#X obj 84 238 -;
#X obj 398 230 -;
#X floatatom 81 285 5 0 0 0 - - -, f 5;
#X text 58 284 xi;
#X obj 301 44 t f f;
#X obj 81 262 * -1;
#X obj 178 228 +;
#X floatatom 176 277 5 0 0 0 - - -, f 5;
#X obj 378 23 t f f;
#X obj 396 248 * -1;
#X floatatom 396 273 5 0 0 0 - - -, f 5;
#X text 432 273 yi;
#X obj 350 233 +;
#X floatatom 350 301 5 0 0 0 - - -, f 5;
#X obj 37 305 bng 15 250 50 0 empty empty empty 17 7 0 10 #fcfcfc #000000
#000000;
#X obj 178 253 +;
#X text 138 276 width;
#X text 308 300 height;
#X text 507 276 \$1 = X top left \; \$2 = Y top left \; \$3 = width
(X) \; \$4 = height (Y);
#X obj 350 280 +;
#X obj 124 428 pack f f f f f f, f 30;
#X msg 124 455 obj \$2 \$3 cnv 15 \$4 \$5 empty empty empty 0 0 14
-233017 -66577 0;
#X obj 36 -110 inlet;
#X floatatom 173 14 5 0 0 0 - - -, f 5;
#X floatatom 326 -1 5 0 0 0 - - -, f 5;
#X obj 126 606 outlet;
#X floatatom 166 -58 5 0 0 0 - - -, f 5;
#X floatatom 246 4 5 0 0 0 - - -, f 5;
#X floatatom 228 -63 5 0 0 0 - - -, f 5;
#X obj 170 -89 unpack f f f f f f f f, f 35;
#X floatatom 283 -1 5 0 0 0 - - -, f 5;
#X obj 225 -108 inlet;
#X obj 314 598 outlet;
#X obj 313 576 pack f f;
#X obj 326 258 t f f;
#X obj 351 534 -;
#X text 363 597 top left corner of the bottomm left button;
#X obj 355 514 +;
#X obj 351 555 -;
#X text 459 -95 button width \; button height \; horizontal space
\; vert space \; X init \; Y init \; ncol \; nrow;
#N canvas 391 24 974 743 colorcnvs 0;
#X obj 306 162 pack f f f f f f, f 23;
#X obj 156 115 bng 15 250 50 0 empty empty empty 17 7 0 10 #fcfcfc
#000000 #000000;
#X floatatom 266 64 5 0 0 0 - - -, f 5;
#X floatatom 178 86 5 0 0 0 - - -, f 5;
#X floatatom 207 67 5 0 0 0 - - -, f 5;
#X floatatom 236 83 5 0 0 0 - - -, f 5;
#X obj 145 20 inlet;
#X obj 92 13 inlet;
#X obj 828 642 outlet;
#X obj 149 41 unpack f f f f f, f 20;
#X obj 304 218 pack f f f f f f, f 23;
#X obj 147 193 bng 15 250 50 0 empty empty empty 17 7 0 10 #fcfcfc
#000000 #000000;
#X obj 176 171 +;
#X floatatom 203 171 3 0 0 0 - - -, f 3;
#X floatatom 232 171 5 0 0 0 - - -, f 5;
#X floatatom 266 173 5 0 0 0 - - -, f 5;
#X obj 304 280 pack f f f f f f, f 23;
#X obj 147 255 bng 15 250 50 0 empty empty empty 17 7 0 10 #fcfcfc
#000000 #000000;
#X obj 176 233 +;
#X floatatom 203 233 3 0 0 0 - - -, f 3;
#X floatatom 232 233 5 0 0 0 - - -, f 5;
#X floatatom 266 235 5 0 0 0 - - -, f 5;
#X obj 301 343 pack f f f f f f, f 23;
#X obj 144 318 bng 15 250 50 0 empty empty empty 17 7 0 10 #fcfcfc
#000000 #000000;
#X obj 173 296 +;
#X floatatom 200 296 3 0 0 0 - - -, f 3;
#X floatatom 229 296 5 0 0 0 - - -, f 5;
#X floatatom 263 298 5 0 0 0 - - -, f 5;
#X obj 301 405 pack f f f f f f, f 23;
#X obj 144 380 bng 15 250 50 0 empty empty empty 17 7 0 10 #fcfcfc
#000000 #000000;
#X obj 173 358 +;
#X floatatom 200 358 3 0 0 0 - - -, f 3;
#X floatatom 229 358 5 0 0 0 - - -, f 5;
#X floatatom 263 360 5 0 0 0 - - -, f 5;
#X obj 301 469 pack f f f f f f, f 23;
#X obj 144 444 bng 15 250 50 0 empty empty empty 17 7 0 10 #fcfcfc
#000000 #000000;
#X obj 173 422 +;
#X floatatom 200 422 3 0 0 0 - - -, f 3;
#X floatatom 229 422 5 0 0 0 - - -, f 5;
#X floatatom 263 424 5 0 0 0 - - -, f 5;
#X obj 302 538 pack f f f f f f, f 23;
#X obj 145 513 bng 15 250 50 0 empty empty empty 17 7 0 10 #fcfcfc
#000000 #000000;
#X obj 174 491 +;
#X floatatom 201 491 3 0 0 0 - - -, f 3;
#X floatatom 230 491 5 0 0 0 - - -, f 5;
#X floatatom 264 493 5 0 0 0 - - -, f 5;
#X obj 300 611 pack f f f f f f, f 23;
#X obj 143 586 bng 15 250 50 0 empty empty empty 17 7 0 10 #fcfcfc
#000000 #000000;
#X obj 172 564 +;
#X floatatom 199 564 3 0 0 0 - - -, f 3;
#X floatatom 228 564 5 0 0 0 - - -, f 5;
#X floatatom 262 566 5 0 0 0 - - -, f 5;
#X floatatom 176 144 5 0 0 0 - - -, f 5;
#X text 15 39 Xi \; Yi \; button width \; height of columns
\; ;
#X floatatom 177 213 5 0 0 0 - - -, f 5;
#X floatatom 175 275 5 0 0 0 - - -, f 5;
#X obj 178 115 + 4;
#X obj 236 117 + 0;
#X obj 176 192 + 4;
#X obj 176 254 + 4;
#X obj 173 317 + 4;
#X obj 173 379 + 4;
#X obj 266 116 t 14;
#X obj 207 117 - 16;
#X obj 173 443 + 4;
#X obj 174 512 + 4;
#X obj 172 585 + 4;
#X msg 457 182 obj \$2 \$3 cnv 10 \$4 \$5 empty empty drums 11 5 0
10 -237569 -66577;
#X msg 458 243 obj \$2 \$3 cnv 10 \$4 \$5 empty empty percu 11 5 0
10 -260097 -66577;
#X msg 454 305 obj \$2 \$3 cnv 10 \$4 \$5 empty empty bass 11 5 0 10
-241153 -66577;
#X msg 420 369 obj \$2 \$3 cnv 10 \$4 \$5 empty empty pads 11 5 0 10
-3650 -66577;
#X msg 419 428 obj \$2 \$3 cnv 10 \$4 \$5 empty empty chords 11 5 0
10 -2043 -66577;
#X msg 408 494 obj \$2 \$3 cnv 10 \$4 \$5 empty empty lead 11 5 0 10
-3761 -66577;
#X msg 399 565 obj \$2 \$3 cnv 10 \$4 \$5 empty empty other1 11 5 0
10 -237626 -66577;
#X msg 402 634 obj \$2 \$3 cnv 10 \$4 \$5 empty empty other2 11 5 0
10 -188475 -66577;
#X connect 0 0 67 0;
#X connect 1 0 0 0;
#X connect 1 0 11 0;
#X connect 2 0 62 0;
#X connect 3 0 56 0;
#X connect 4 0 63 0;
#X connect 5 0 57 0;
#X connect 6 0 9 0;
#X connect 7 0 1 0;
#X connect 9 1 3 0;
#X connect 9 2 4 0;
#X connect 9 3 5 0;
#X connect 9 4 2 0;
#X connect 10 0 68 0;
#X connect 11 0 10 0;
#X connect 11 0 17 0;
#X connect 12 0 58 0;
#X connect 13 0 10 2;
#X connect 13 0 19 0;
#X connect 14 0 10 3;
#X connect 14 0 20 0;
#X connect 14 0 18 1;
#X connect 15 0 10 4;
#X connect 15 0 21 0;
#X connect 16 0 69 0;
#X connect 17 0 16 0;
#X connect 17 0 23 0;
#X connect 18 0 59 0;
#X connect 19 0 16 2;
#X connect 19 0 25 0;
#X connect 20 0 16 3;
#X connect 20 0 26 0;
#X connect 20 0 24 1;
#X connect 21 0 16 4;
#X connect 21 0 27 0;
#X connect 22 0 70 0;
#X connect 23 0 22 0;
#X connect 23 0 29 0;
#X connect 24 0 60 0;
#X connect 25 0 22 2;
#X connect 25 0 31 0;
#X connect 26 0 22 3;
#X connect 26 0 32 0;
#X connect 26 0 30 1;
#X connect 27 0 22 4;
#X connect 27 0 33 0;
#X connect 28 0 71 0;
#X connect 29 0 28 0;
#X connect 29 0 35 0;
#X connect 30 0 61 0;
#X connect 31 0 28 2;
#X connect 31 0 37 0;
#X connect 32 0 28 3;
#X connect 32 0 38 0;
#X connect 32 0 36 1;
#X connect 33 0 28 4;
#X connect 33 0 39 0;
#X connect 34 0 72 0;
#X connect 35 0 34 0;
#X connect 35 0 41 0;
#X connect 36 0 64 0;
#X connect 37 0 34 2;
#X connect 37 0 43 0;
#X connect 38 0 34 3;
#X connect 38 0 44 0;
#X connect 38 0 42 1;
#X connect 39 0 34 4;
#X connect 39 0 45 0;
#X connect 40 0 73 0;
#X connect 41 0 40 0;
#X connect 41 0 47 0;
#X connect 42 0 65 0;
#X connect 43 0 40 2;
#X connect 43 0 49 0;
#X connect 44 0 40 3;
#X connect 44 0 50 0;
#X connect 44 0 48 1;
#X connect 45 0 40 4;
#X connect 45 0 51 0;
#X connect 46 0 74 0;
#X connect 47 0 46 0;
#X connect 48 0 66 0;
#X connect 49 0 46 2;
#X connect 50 0 46 3;
#X connect 51 0 46 4;
#X connect 52 0 12 0;
#X connect 54 0 18 0;
#X connect 55 0 24 0;
#X connect 56 0 0 1;
#X connect 56 0 52 0;
#X connect 57 0 0 3;
#X connect 57 0 14 0;
#X connect 57 0 12 1;
#X connect 58 0 10 1;
#X connect 58 0 54 0;
#X connect 59 0 16 1;
#X connect 59 0 55 0;
#X connect 60 0 22 1;
#X connect 60 0 30 0;
#X connect 61 0 28 1;
#X connect 61 0 36 0;
#X connect 62 0 0 4;
#X connect 62 0 15 0;
#X connect 63 0 0 2;
#X connect 63 0 13 0;
#X connect 64 0 34 1;
#X connect 64 0 42 0;
#X connect 65 0 40 1;
#X connect 65 0 48 0;
#X connect 66 0 46 1;
#X connect 67 0 8 0;
#X connect 68 0 8 0;
#X connect 69 0 8 0;
#X connect 70 0 8 0;
#X connect 71 0 8 0;
#X connect 72 0 8 0;
#X connect 73 0 8 0;
#X connect 74 0 8 0;
#X restore 39 567 pd colorcnvs;
#X obj 66 538 pack f f f f f f;
#X obj 39 477 t b b;
#X obj 66 503 bng 15 250 50 0 empty empty empty 17 7 0 10 #fcfcfc #000000
#000000;
#X text 115 303 + side buttons -->;
#X obj 226 304 +;
#X obj 227 340 +;
#X obj 164 -25 t f f f;
#X obj 242 45 t f f f;
#X obj 260 304 +;
#X obj 69 88 t f f f f f;
#X obj 388 98 t f f f f f f;
#X obj 257 341 +;
#X obj 196 404 -;
#X obj 264 404 +;
#X text 608 -104 background canvas a little higher positioned and bigger
height, f 17;
#X obj 568 -100 inlet;
#X obj 578 28 t f f;
#X connect 2 0 22 0;
#X connect 4 0 8 1;
#X connect 5 0 6 0;
#X connect 5 1 4 0;
#X connect 6 0 7 0;
#X connect 7 0 8 0;
#X connect 8 0 2 0;
#X connect 9 0 28 0;
#X connect 10 0 14 1;
#X connect 11 0 12 0;
#X connect 11 1 10 0;
#X connect 12 0 13 0;
#X connect 13 0 14 0;
#X connect 14 0 9 0;
#X connect 16 0 21 0;
#X connect 17 0 25 0;
#X connect 18 0 36 1;
#X connect 18 0 57 1;
#X connect 20 0 16 1;
#X connect 20 1 49 0;
#X connect 21 0 18 0;
#X connect 22 0 31 0;
#X connect 23 0 61 0;
#X connect 24 0 17 1;
#X connect 24 1 53 1;
#X connect 25 0 26 0;
#X connect 26 0 57 2;
#X connect 26 0 69 0;
#X connect 28 0 50 0;
#X connect 29 0 57 4;
#X connect 29 0 65 0;
#X connect 30 0 36 0;
#X connect 30 0 58 0;
#X connect 31 0 23 0;
#X connect 35 0 29 0;
#X connect 36 0 37 0;
#X connect 38 0 30 0;
#X connect 39 0 5 0;
#X connect 40 0 11 0;
#X connect 42 0 63 0;
#X connect 43 0 64 0;
#X connect 44 0 66 0;
#X connect 45 0 42 0;
#X connect 45 1 43 0;
#X connect 45 2 44 0;
#X connect 45 3 46 0;
#X connect 45 4 20 0;
#X connect 45 5 24 0;
#X connect 45 6 39 0;
#X connect 45 7 40 0;
#X connect 46 0 67 0;
#X connect 47 0 45 0;
#X connect 49 0 48 0;
#X connect 50 0 53 0;
#X connect 50 1 35 0;
#X connect 51 0 54 0;
#X connect 53 0 51 0;
#X connect 54 0 49 1;
#X connect 56 0 41 0;
#X connect 57 0 56 1;
#X connect 58 0 56 0;
#X connect 58 1 59 0;
#X connect 59 0 57 0;
#X connect 61 0 62 0;
#X connect 62 0 36 3;
#X connect 63 0 57 3;
#X connect 63 1 61 1;
#X connect 63 2 4 1;
#X connect 64 0 51 1;
#X connect 64 1 65 1;
#X connect 64 2 10 1;
#X connect 65 0 68 0;
#X connect 66 0 16 0;
#X connect 66 1 62 1;
#X connect 66 2 31 1;
#X connect 66 3 22 1;
#X connect 66 4 7 1;
#X connect 67 0 17 0;
#X connect 67 1 68 1;
#X connect 67 2 54 1;
#X connect 67 3 35 1;
#X connect 67 4 28 1;
#X connect 67 5 13 1;
#X connect 68 0 70 0;
#X connect 69 0 36 2;
#X connect 70 0 36 4;
#X connect 72 0 73 0;
#X connect 73 0 69 1;
#X connect 73 1 70 1;
#X restore 166 342 pd button_cnv;
#X obj 261 72 t f f f;
#X text 342 269 button width \; button height \; horizontal space
\; vert space \; X init \; Y init \; ncol \; nrow;
#X text 90 359 out: obj message;
#X obj 245 382 unpack f f;
#X floatatom 245 407 5 0 0 0 - - -, f 5;
#X floatatom 302 409 5 0 0 0 - - -, f 5;
#X text 244 359 XY of button0;
#N canvas 32 24 644 743 buttons_create 0;
#X obj 19 15 inlet;
#X obj 158 16 inlet;
#X obj 55 57 unpack f f f f f f f f, f 43;
#X floatatom 233 150 5 0 0 0 element_number - -, f 5;
#X floatatom 232 232 5 0 0 0 col - -, f 5;
#X obj 233 193 mod;
#X obj 321 209 + 1;
#X floatatom 289 254 5 0 0 0 row - -, f 5;
#X obj 233 211 + 1;
#X obj 289 184 select 1;
#X obj 289 209 f 1;
#X obj 289 230 + 1;
#X msg 232 98 0;
#X msg 206 103 1;
#X obj 206 171 t f f;
#X obj 233 258 t f f;
#X floatatom 237 435 5 0 0 0 - - -, f 5;
#X floatatom 294 434 5 0 0 0 - - -, f 5;
#X obj 254 477 pack f f f;
#X obj 171 571 print;
#X obj 109 573 bng 15 250 50 0 empty empty empty 17 7 0 10 #fcfcfc
#000000 #000000;
#X obj 230 540 t b a;
#X text 115 612 renumber the array etc. and rename the initbang in
the abstraction, f 29;
#X msg 225 15 146 64 5 5 700 200 2 2;
#X floatatom 310 79 2 0 0 1 cols - -, f 2;
#X text 32 28 elem number;
#X floatatom 273 79 2 0 0 1 rows - -, f 2;
#X floatatom 53 85 5 0 0 0 - - -, f 5;
#X obj 421 16 inlet;
#X obj 422 47 unpack f f;
#X floatatom 422 72 5 0 0 0 - - -, f 5;
#X floatatom 479 74 5 0 0 0 - - -, f 5;
#X floatatom 90 85 5 0 0 0 - - -, f 5;
#X floatatom 127 86 5 0 0 0 - - -, f 5;
#X floatatom 163 86 5 0 0 0 - - -, f 5;
#X text 461 20 foord of 1st elem;
#X obj 232 283 - 1;
#X obj 183 281 +;
#X obj 232 307 *;
#X obj 232 330 +;
#X obj 291 285 - 1;
#X obj 334 286 +;
#X obj 291 309 *;
#X obj 291 365 +;
#X obj 268 570 outlet;
#X obj 291 330 * -1;
#X obj 35 146 select 0;
#X obj 19 109 t f f f;
#X obj 251 121 t 0 0;
#X msg 231 516 obj \$1 \$2 empty_button \$3;
#X obj 109 596 s initbang-emptybutton-r;
#X text 462 389 Xi for side column;
#X obj 447 366 expr ( ( $f1 + $f2 ) * $f3 ) + $f4;
#X connect 0 0 47 0;
#X connect 1 0 2 0;
#X connect 2 0 27 0;
#X connect 2 1 32 0;
#X connect 2 2 33 0;
#X connect 2 3 34 0;
#X connect 2 6 26 0;
#X connect 2 7 24 0;
#X connect 3 0 14 0;
#X connect 4 0 9 0;
#X connect 4 0 15 0;
#X connect 5 0 8 0;
#X connect 6 0 10 1;
#X connect 7 0 40 0;
#X connect 8 0 4 0;
#X connect 9 0 10 0;
#X connect 10 0 6 0;
#X connect 10 0 11 0;
#X connect 11 0 7 0;
#X connect 12 0 3 0;
#X connect 13 0 3 0;
#X connect 14 1 5 0;
#X connect 15 0 36 0;
#X connect 16 0 18 0;
#X connect 17 0 18 1;
#X connect 18 0 49 0;
#X connect 20 0 50 0;
#X connect 21 0 20 0;
#X connect 21 1 44 0;
#X connect 23 0 2 0;
#X connect 24 0 5 1;
#X connect 27 0 37 0;
#X connect 28 0 29 0;
#X connect 29 0 30 0;
#X connect 29 1 31 0;
#X connect 30 0 39 1;
#X connect 31 0 43 1;
#X connect 32 0 41 0;
#X connect 33 0 37 1;
#X connect 34 0 41 1;
#X connect 36 0 38 0;
#X connect 37 0 38 1;
#X connect 38 0 39 0;
#X connect 39 0 16 0;
#X connect 40 0 42 0;
#X connect 41 0 42 1;
#X connect 42 0 45 0;
#X connect 43 0 17 0;
#X connect 45 0 43 0;
#X connect 46 0 48 0;
#X connect 46 1 3 0;
#X connect 47 1 46 0;
#X connect 47 2 18 2;
#X connect 48 0 3 0;
#X connect 48 1 10 1;
#X connect 49 0 19 0;
#X connect 49 0 21 0;
#X restore 126 436 pd buttons_create;
#X text 18 206 create 8x8;
#X obj 81 207 bng 16 250 50 0 empty empty S 4 6 0 10 #fcfcfc #000000
#000000;
#X obj 2 228 bng 15 250 50 0 empty empty Create 17 7 0 10 #fcfcfc #000000
#000000;
#X obj 181 306 t a a a;
#N canvas 771 24 568 743 sidebuttons_create 0;
#X obj 231 30 inlet;
#X obj 159 71 unpack f f f f f f f f, f 43;
#X floatatom 414 93 2 0 0 1 cols - -, f 2;
#X floatatom 377 93 2 0 0 1 rows - -, f 2;
#X floatatom 157 99 5 0 0 0 - - -, f 5;
#X floatatom 194 99 5 0 0 0 - - -, f 5;
#X floatatom 231 100 5 0 0 0 - - -, f 5;
#X floatatom 267 100 5 0 0 0 - - -, f 5;
#X text 470 20 button width \; button height \; horizontal space
\; vert space \; X init \; Y init \; ncol \; nrow;
#X obj 85 26 inlet;
#X obj 14 13 bng 15 250 50 0 empty empty empty 17 7 0 10 #fcfcfc #000000
#000000;
#N canvas 1 93 618 505 sidebuttonscount 0;
#X obj 143 13 inlet;
#X text 183 13 starting num;
#X obj 204 119 f 0;
#X obj 232 119 + 1;
#X floatatom 208 66 5 0 0 0 - - -, f 5;
#X obj 133 69 bng 15 250 50 0 empty empty empty 17 7 0 10 #fcfcfc #000000
#000000;
#X msg 351 266 stop;
#X floatatom 179 196 5 0 0 0 - - -, f 5;
#X obj 174 298 +;
#X floatatom 175 323 5 0 0 0 - - -, f 5;
#X obj 180 147 +;
#X floatatom 216 147 5 0 0 0 - - -, f 5;
#X obj 216 221 select 1;
#X floatatom 216 249 5 0 0 0 - - -, f 5;
#X obj 315 241 select 1;
#X obj 315 266 bng 15 250 50 0 empty empty empty 17 7 0 10 #fcfcfc
#000000 #000000;
#X floatatom 331 310 5 0 0 0 - - -, f 5;
#X obj 177 351 +;
#X floatatom 177 376 5 0 0 0 - - -, f 5;
#X text 235 274 <-- APC;
#X obj 209 274 + 2;
#X obj 216 171 t f f f;
#X obj 291 287 t b b;
#X obj 133 93 metro 500;
#X obj 315 216 >=;
#X obj 364 41 inlet;
#X obj 402 40 inlet;
#X obj 390 109 +;
#X obj 390 134 + 1;
#X floatatom 390 86 5 0 0 0 - - -, f 5;
#X floatatom 390 159 5 0 0 0 - - -, f 5;
#X text 430 160 number of side buttons;
#X text 356 12 rows;
#X text 404 14 cols;
#X obj 179 173 t f;
#X floatatom 361 64 5 0 0 0 - - -, f 5;
#X floatatom 402 63 5 0 0 0 - - -, f 5;
#X obj 177 408 outlet;
#X text 220 406 button number;
#X obj 334 403 outlet;
#X text 379 402 row num;
#X obj 443 400 outlet;
#X text 491 399 col num;
#X obj 292 365 f 0;
#X obj 320 365 + 1;
#X obj 291 344 bng 15 250 50 0 empty empty empty 17 7 0 10 #fcfcfc
#000000 #000000;
#X floatatom 291 386 5 0 0 0 - - -, f 5;
#X floatatom 438 367 5 0 0 0 - - -, f 5;
#X obj 446 306 moses;
#X obj 472 283 + 2;
#X floatatom 239 359 5 0 0 0 - - -, f 5;
#X obj 240 337 + 1;
#X obj 254 242 bng 15 250 50 0 empty empty empty 17 7 0 10 #fcfcfc
#000000 #000000;
#X obj 218 200 >;
#X msg 104 128 0;
#X obj 278 441 pack f f f;
#X obj 278 466 print;
#X obj 133 40 t b f f 1 0 0 0 1 1, f 32;
#X connect 0 0 57 0;
#X connect 2 0 3 0;
#X connect 2 0 10 0;
#X connect 2 0 11 0;
#X connect 3 0 2 1;
#X connect 5 0 23 0;
#X connect 6 0 23 0;
#X connect 7 0 8 0;
#X connect 8 0 9 0;
#X connect 9 0 17 0;
#X connect 10 0 34 0;
#X connect 11 0 21 0;
#X connect 12 0 13 0;
#X connect 12 1 52 0;
#X connect 13 0 20 0;
#X connect 14 0 15 0;
#X connect 14 0 6 0;
#X connect 15 0 22 0;
#X connect 16 0 17 1;
#X connect 17 0 18 0;
#X connect 18 0 37 0;
#X connect 18 0 55 0;
#X connect 20 0 8 1;
#X connect 20 0 45 0;
#X connect 21 0 53 0;
#X connect 21 1 24 0;
#X connect 21 2 48 0;
#X connect 22 0 17 0;
#X connect 22 1 16 0;
#X connect 23 0 2 0;
#X connect 24 0 14 0;
#X connect 25 0 35 0;
#X connect 26 0 36 0;
#X connect 27 0 28 0;
#X connect 28 0 30 0;
#X connect 29 0 27 0;
#X connect 30 0 24 1;
#X connect 34 0 7 0;
#X connect 35 0 29 0;
#X connect 35 0 16 0;
#X connect 35 0 51 0;
#X connect 36 0 27 1;
#X connect 36 0 13 0;
#X connect 36 0 49 0;
#X connect 36 0 53 1;
#X connect 43 0 44 0;
#X connect 43 0 46 0;
#X connect 44 0 43 1;
#X connect 45 0 43 0;
#X connect 46 0 39 0;
#X connect 46 0 55 1;
#X connect 47 0 41 0;
#X connect 47 0 55 2;
#X connect 48 0 47 0;
#X connect 49 0 48 1;
#X connect 50 0 46 0;
#X connect 51 0 50 0;
#X connect 52 0 50 0;
#X connect 53 0 12 0;
#X connect 54 0 43 0;
#X connect 55 0 56 0;
#X connect 57 0 5 0;
#X connect 57 1 10 1;
#X connect 57 2 4 0;
#X connect 57 3 2 0;
#X connect 57 4 8 1;
#X connect 57 5 17 1;
#X connect 57 6 43 1;
#X connect 57 7 2 1;
#X connect 57 8 48 0;
#X restore 321 381 pd sidebuttonscount;
#X floatatom 54 192 5 0 0 0 - - -, f 5;
#X floatatom 114 189 5 0 0 0 - - -, f 5;
#X floatatom 167 189 5 0 0 0 - - -, f 5;
#X text 11 210 button number;
#X text 110 206 row num;
#X text 177 210 col num;
#X obj 218 160 +;
#X floatatom 211 241 5 0 0 0 - - -, f 5;
#X obj 172 240 - 1;
#X obj 171 265 *;
#X floatatom 171 316 5 0 0 0 - - -, f 5;
#X obj 170 291 +;
#X text 208 314 X;
#X obj 108 235 - 1;
#X obj 109 262 *;
#X obj 267 162 +;
#X obj 110 287 +;
#X floatatom 112 313 5 0 0 0 - - -, f 5;
#X text 99 313 Y;
#X obj 60 358 pack f f f;
#X obj 59 441 bng 15 250 50 0 empty empty empty 17 7 0 10 #fcfcfc #000000
#000000;
#X obj 63 408 t b a;
#X obj 59 464 s sidebutton-initbang-r;
#X msg 298 29 116 58 4 4 269 33 8 8;
#X obj 143 434 outlet;
#X msg 60 384 obj \$3 \$2 sidebutton \$1;
#X msg 318 352 63;
#N canvas 617 100 618 574 sidebuttonscount2 0;
#X obj 143 13 inlet;
#X floatatom 215 404 5 0 0 0 - - -, f 5;
#X text 356 12 rows;
#X text 404 14 cols;
#X obj 215 436 outlet;
#X text 258 434 button number;
#X obj 372 431 outlet;
#X text 417 430 row num;
#X obj 481 428 outlet;
#X text 529 427 col num;
#X floatatom 329 414 5 0 0 0 - - -, f 5;
#X floatatom 476 395 5 0 0 0 - - -, f 5;
#X obj 48 95 t b 64 9 1;
#X obj 48 120 t b 65 9 2;
#X obj 48 145 t b 66 9 3;
#X obj 48 170 t b 67 9 4;
#X obj 48 195 t b 68 9 5;
#X obj 48 220 t b 69 9 6;
#X obj 48 245 t b 70 9 7;
#X obj 48 270 t b 71 9 8;
#X obj 129 95 t b 82 1 9;
#X obj 129 120 t b 83 2 9;
#X obj 129 145 t b 84 3 9;
#X obj 129 170 t b 85 4 9;
#X obj 129 195 t b 86 5 9;
#X obj 129 221 t b 87 6 9;
#X obj 129 245 t b 88 7 9;
#X obj 129 270 t b 89 8 9;
#X text 362 245 This is extremely ugly (could have been done with calculating
loops \, or at least copy/pasting the [t b 64 9 1] together with 3
sends \, but whatever \, it was faster to do it manually just now.
, f 36;
#X text 183 13 bang;
#X obj 129 295 t b 98 9 9;
#X obj 247 95 t b 1064 9 0;
#X text 336 94 pedal;
#X connect 0 0 12 0;
#X connect 1 0 4 0;
#X connect 10 0 6 0;
#X connect 11 0 8 0;
#X connect 12 0 13 0;
#X connect 12 1 1 0;
#X connect 12 2 10 0;
#X connect 12 3 11 0;
#X connect 13 0 14 0;
#X connect 13 1 1 0;
#X connect 13 2 10 0;
#X connect 13 3 11 0;
#X connect 14 0 15 0;
#X connect 14 1 1 0;
#X connect 14 2 10 0;
#X connect 14 3 11 0;
#X connect 15 0 16 0;
#X connect 15 1 1 0;
#X connect 15 2 10 0;
#X connect 15 3 11 0;
#X connect 16 0 17 0;
#X connect 16 1 1 0;
#X connect 16 2 10 0;
#X connect 16 3 11 0;
#X connect 17 0 18 0;
#X connect 17 1 1 0;
#X connect 17 2 10 0;
#X connect 17 3 11 0;
#X connect 18 0 19 0;
#X connect 18 1 1 0;
#X connect 18 2 10 0;
#X connect 18 3 11 0;
#X connect 19 0 20 0;
#X connect 19 1 1 0;
#X connect 19 2 10 0;
#X connect 19 3 11 0;
#X connect 20 0 21 0;
#X connect 20 1 1 0;
#X connect 20 2 10 0;
#X connect 20 3 11 0;
#X connect 21 0 22 0;
#X connect 21 1 1 0;
#X connect 21 2 10 0;
#X connect 21 3 11 0;
#X connect 22 0 23 0;
#X connect 22 1 1 0;
#X connect 22 2 10 0;
#X connect 22 3 11 0;
#X connect 23 0 24 0;
#X connect 23 1 1 0;
#X connect 23 2 10 0;
#X connect 23 3 11 0;
#X connect 24 0 25 0;
#X connect 24 1 1 0;
#X connect 24 2 10 0;
#X connect 24 3 11 0;
#X connect 25 0 26 0;
#X connect 25 1 1 0;
#X connect 25 2 10 0;
#X connect 25 3 11 0;
#X connect 26 0 27 0;
#X connect 26 1 1 0;
#X connect 26 2 10 0;
#X connect 26 3 11 0;
#X connect 27 0 30 0;
#X connect 27 1 1 0;
#X connect 27 2 10 0;
#X connect 27 3 11 0;
#X connect 30 0 31 0;
#X connect 30 1 1 0;
#X connect 30 2 10 0;
#X connect 30 3 11 0;
#X connect 31 1 1 0;
#X connect 31 2 10 0;
#X connect 31 3 11 0;
#X restore 55 137 pd sidebuttonscount2;
#X text 88 46 bang;
#X connect 0 0 1 0;
#X connect 1 0 4 0;
#X connect 1 1 5 0;
#X connect 1 2 6 0;
#X connect 1 3 7 0;
#X connect 1 4 23 1;
#X connect 1 5 28 1;
#X connect 1 6 3 0;
#X connect 1 7 2 0;
#X connect 4 0 18 0;
#X connect 5 0 27 0;
#X connect 6 0 18 1;
#X connect 7 0 27 1;
#X connect 9 0 39 0;
#X connect 10 0 39 0;
#X connect 12 0 31 0;
#X connect 13 0 25 0;
#X connect 14 0 20 0;
#X connect 18 0 19 0;
#X connect 19 0 21 1;
#X connect 20 0 21 0;
#X connect 21 0 23 0;
#X connect 22 0 31 2;
#X connect 23 0 22 0;
#X connect 25 0 26 0;
#X connect 26 0 28 0;
#X connect 27 0 26 1;
#X connect 28 0 29 0;
#X connect 29 0 31 1;
#X connect 31 0 37 0;
#X connect 32 0 34 0;
#X connect 33 0 32 0;
#X connect 33 1 36 0;
#X connect 35 0 1 0;
#X connect 37 0 33 0;
#X connect 38 0 11 0;
#X connect 39 0 12 0;
#X connect 39 1 13 0;
#X connect 39 2 14 0;
#X restore 29 338 pd sidebuttons_create;
#X obj 321 211 loadbang;
#X text 353 236 background starts higher;
#X msg 320 236 100;
#X obj 140 482 s pd-tracks-matrix;
#X obj 150 255 t b b b b 8 63 b;
#X msg 263 456 clear;
#X obj 82 227 bng 15 250 50 0 empty empty Clear 17 7 0 10 #fcfcfc #000000
#000000;
#X msg 185 280 84 44 4 4 20 33 8 8;
#X connect 0 0 7 0;
#X connect 0 1 15 0;
#X connect 2 0 4 0;
#X connect 4 0 21 0;
#X connect 7 0 28 0;
#X connect 9 0 7 0;
#X connect 10 0 7 0;
#X connect 11 0 7 0;
#X connect 12 0 7 0;
#X connect 13 0 4 0;
#X connect 15 0 17 0;
#X connect 17 0 5 0;
#X connect 19 0 38 0;
#X connect 20 0 37 0;
#X connect 20 1 24 0;
#X connect 20 1 28 2;
#X connect 21 0 15 1;
#X connect 24 0 25 0;
#X connect 24 1 26 0;
#X connect 28 0 37 0;
#X connect 30 0 0 1;
#X connect 31 0 33 0;
#X connect 32 0 33 1;
#X connect 32 1 28 1;
#X connect 32 2 20 1;
#X connect 33 0 37 0;
#X connect 34 0 36 0;
#X connect 36 0 20 2;
#X connect 38 0 0 0;
#X connect 38 1 20 0;
#X connect 38 2 41 0;
#X connect 38 3 41 0;
#X connect 38 4 13 0;
#X connect 38 5 0 2;
#X connect 38 6 39 0;
#X connect 39 0 37 0;
#X connect 40 0 39 0;
#X connect 41 0 32 0;
#X coords 0 -1 1 1 138 61 1 2 192;
#X restore 32 -684 pd button_array;
#N canvas 648 292 803 604 apc_midi_control 0;
#X obj 159 77 r midibutton;
#X floatatom 159 102 5 0 0 0 - - -, f 5;
#X obj 159 160 moses 64;
#X floatatom 159 185 5 0 0 0 - - -, f 5;
#X obj 333 164 r midipedal;
#X floatatom 333 189 5 0 0 0 - - -, f 5;
#N canvas 76 160 782 555 midiin 0;
#X floatatom 69 175 5 0 0 0 - - -, f 5;
#X floatatom 119 177 5 0 0 0 - - -, f 5;
#X floatatom 101 42 5 0 0 0 - - -, f 5;
#X obj 69 121 stripnote;
#X floatatom 84 61 5 0 0 0 - - -, f 5;
#X floatatom 68 81 5 0 0 0 - - -, f 5;
#X obj 69 334 s;
#X obj 69 148 moses 64;
#X floatatom 173 178 5 0 0 0 - - -, f 5;
#X text 4 175 seq matrix;
#X obj 17 100 select 98;
#X obj 173 202 +;
#X floatatom 173 226 5 0 0 1 midibutton_shifted - -, f 5;
#N canvas 826 75 450 346 apc_shift 0;
#X obj 87 38 inlet;
#X text 129 38 bang note 98;
#X obj 229 39 inlet;
#X text 273 39 velocity;
#X obj 156 247 outlet;
#X text 204 245 0 or 8 to add to midi note;
#X text 243 152 if velocity is 0 or 127;
#X floatatom 190 206 5 0 0 0 - - -, f 5;
#X obj 161 89 bng 15 250 50 0 empty empty empty 17 7 0 10 #fcfcfc #000000
#000000;
#X obj 161 70 t b 1;
#X obj 161 129 spigot;
#X obj 161 151 select 0 127;
#X obj 161 107 f \$1;
#X obj 224 180 t 1 8;
#X obj 160 176 t 0 0 0;
#X floatatom 58 222 5 0 0 0 - - -, f 5;
#X obj 58 246 s midishift;
#X connect 0 0 9 0;
#X connect 2 0 12 1;
#X connect 7 0 4 0;
#X connect 8 0 12 0;
#X connect 9 0 8 0;
#X connect 9 1 10 1;
#X connect 10 0 11 0;
#X connect 11 0 14 0;
#X connect 11 1 13 0;
#X connect 11 2 14 0;
#X connect 12 0 10 0;
#X connect 13 0 15 0;
#X connect 13 1 7 0;
#X connect 14 0 15 0;
#X connect 14 1 10 1;
#X connect 14 2 7 0;
#X connect 15 0 16 0;
#X restore 188 148 pd apc_shift;
#X floatatom 560 66 5 0 0 1 channel - -, f 5;
#X floatatom 473 86 5 0 0 0 - - -, f 5;
#X floatatom 516 106 5 0 0 0 - - -, f 5;
#X obj 500 226 select 0 127;
#X obj 500 366 s;
#X obj 110 83 t f f f;
#X obj 68 19 notein 1;
#X text 269 149 if shift is held \, add 10 to the side buttons' number
, f 20;
#X obj 69 280 t f f b f;
#X text 132 18 only buttons from the APC;
#X obj 473 42 ctlin, f 15;
#X obj 516 130 select 64, f 12;
#X msg 527 301 symbol midipedal;
#X obj 500 180 spigot;
#X obj 516 155 t 1 0;
#X obj 583 181 spigot;
#X obj 473 110 t f f;
#X text 425 180 if coming from pedal, f 11;
#X obj 500 205 t f b;
#X msg 500 249 1;
#X msg 534 249 0;
#X floatatom 583 205 5 0 0 0 - - -, f 5;
#X msg 671 292 symbol midictl;
#X obj 589 155 t 0 1 f b, f 14;
#X text 626 180 if any other cc;
#X text 546 355 if pedal \, 1 (pressed) or 0 (released) \; if other
control \, [value cc#(;
#X floatatom 500 274 5 0 0 0 - - -, f 5;
#X obj 373 37 loadbang;
#X msg 373 62 127 64;
#X obj 373 87 unpack f f;
#X msg 86 309 symbol midibutton;
#X msg 298 69 0;
#X msg 204 57 56 127;
#X obj 204 82 unpack;
#X msg 313 51 127;
#X obj 583 250 pack f f f;
#X connect 0 0 22 0;
#X connect 3 0 7 0;
#X connect 3 1 1 0;
#X connect 4 0 19 0;
#X connect 5 0 10 0;
#X connect 7 0 0 0;
#X connect 7 1 8 0;
#X connect 8 0 11 0;
#X connect 10 0 13 0;
#X connect 10 1 3 0;
#X connect 11 0 12 0;
#X connect 12 0 22 0;
#X connect 14 0 49 2;
#X connect 15 0 30 0;
#X connect 16 0 25 0;
#X connect 17 0 33 0;
#X connect 17 1 34 0;
#X connect 19 1 3 1;
#X connect 19 2 13 1;
#X connect 20 0 5 0;
#X connect 20 1 4 0;
#X connect 22 0 6 0;
#X connect 22 1 44 0;
#X connect 24 0 15 0;
#X connect 24 1 16 0;
#X connect 24 2 14 0;
#X connect 25 0 28 0;
#X connect 25 1 37 0;
#X connect 26 0 18 1;
#X connect 27 0 32 0;
#X connect 28 0 27 1;
#X connect 28 1 29 1;
#X connect 29 0 35 0;
#X connect 30 0 29 0;
#X connect 30 1 27 0;
#X connect 32 0 17 0;
#X connect 32 1 26 0;
#X connect 33 0 40 0;
#X connect 34 0 40 0;
#X connect 35 0 49 0;
#X connect 36 0 18 1;
#X connect 37 0 27 1;
#X connect 37 1 29 1;
#X connect 37 2 49 1;
#X connect 37 3 36 0;
#X connect 40 0 18 0;
#X connect 41 0 42 0;
#X connect 42 0 43 0;
#X connect 43 0 15 0;
#X connect 43 1 16 0;
#X connect 44 0 6 1;
#X connect 45 0 15 0;
#X connect 46 0 47 0;
#X connect 47 0 5 0;
#X connect 47 1 4 0;
#X connect 48 0 15 0;
#X connect 49 0 18 0;
#X restore 158 30 pd midiin;
#X obj 333 213 t f f;
#X obj 159 126 t f f;
#N canvas 84 123 450 325 buttons_bottom 0;
#X floatatom 162 123 5 0 0 0 - - -, f 5;
#X obj 117 14 r midibutton;
#X floatatom 117 39 5 0 0 0 - - -, f 5;
#X obj 117 97 moses 64;
#X obj 117 63 t f f;
#X obj 162 147 moses 72;
#X text 56 141 bottom row \, without shift, f 16;
#X obj 207 170 moses 80;
#X text 276 174 bottom row \, with shift, f 16;
#X connect 0 0 5 0;
#X connect 1 0 2 0;
#X connect 2 0 4 0;
#X connect 3 1 0 0;
#X connect 4 0 3 0;
#X connect 5 1 7 0;
#X restore 585 61 pd buttons_bottom;
#N canvas 74 314 450 350 buttons_rightcol 0;
#X obj 117 14 r midibutton;
#X floatatom 117 39 5 0 0 0 - - -, f 5;
#X obj 117 63 t f f;
#X obj 162 126 moses 90;
#X text 7 140 side column without shift;
#X obj 117 97 moses 82;
#X text 263 154 side column with shift;
#X obj 207 176 select 97;
#N canvas 66 181 450 373 midi_out 0;
#X obj 86 56 t 89 f;
#X obj 90 176 noteout 1;
#X obj 118 103 select 0 1;
#X msg 118 125 2;
#X floatatom 118 81 5 0 0 0 - - -, f 5;
#X obj 86 31 r \$0-globalplaypause-s;
#X msg 147 129 1;
#X connect 0 0 1 0;
#X connect 0 1 4 0;
#X connect 2 0 3 0;
#X connect 2 1 6 0;
#X connect 3 0 1 1;
#X connect 4 0 2 0;
#X connect 6 0 1 1;
#X restore 33 266 pd midi_out;
#X obj 207 220 s \$0-globalplaypause-r;
#X obj 181 176 bng 15 250 50 0 empty empty empty 17 7 0 10 #fcfcfc
#000000 #000000;
#X obj 207 151 moses 98;
#N canvas 518 260 450 325 rightcol_noshift 0;
#X obj 98 13 inlet;
#X restore 62 215 pd rightcol_noshift;
#X connect 0 0 1 0;
#X connect 1 0 2 0;
#X connect 2 0 5 0;
#X connect 3 1 11 0;
#X connect 5 1 3 0;
#X connect 7 0 9 0;
#X connect 11 0 7 0;
#X connect 11 0 10 0;
#X restore 584 84 pd buttons_rightcol;
#N canvas 302 74 450 350 midicontrols 0;
#X obj 72 21 r midictl;
#X obj 72 46 unpack f f;
#X floatatom 72 71 5 0 0 0 value - -, f 5;
#X floatatom 129 70 5 0 0 0 cc# - -, f 5;
#X text 227 20 track config controls are done directly in ui_track_2
;
#X connect 0 0 1 0;
#X connect 1 0 2 0;
#X connect 1 1 3 0;
#X restore 584 109 pd midicontrols;
#N canvas 211 296 518 575 select_track 0;
#X floatatom 100 -17 5 0 0 0 - - -, f 5;
#X obj 125 250 t 0 f;
#X obj 126 346 s;
#X text 303 -43 128 = no track selected;
#X obj 352 -134 loadbang;
#X obj 75 43 bng 15 250 50 0 empty empty empty 17 7 0 10 #fcfcfc #000000
#000000;
#X floatatom 125 223 5 0 0 0 - - -, f 5;
#X obj 293 239 bng 15 250 50 0 empty empty empty 17 7 0 10 #fcfcfc
#000000 #000000;
#X obj 275 217 bng 15 250 50 0 empty empty empty 17 7 0 10 #fcfcfc
#000000 #000000;
#X obj 88 114 t 1 f b f b f, f 16;
#X obj 125 171 pack f f;
#X msg 125 196 set \$2;
#X obj 188 143 bng 15 250 50 0 empty empty empty 17 7 0 10 #fcfcfc
#000000 #000000;
#X msg 125 277 0;
#X msg 152 320 symbol \$1-selected-s;
#X obj 125 143 delay 100;
#X symbolatom 152 297 10 0 0 0 - - -, f 10;
#X text 88 320 keep this disconnected;
#X obj 100 -123 unpack f f;
#X text 176 -124 tracknum \, 1 or 0;
#X msg 100 -58 set \$1;
#X obj 157 -44 select 1 0;
#X obj 101 9 spigot;
#X obj 185 -19 t 0 128;
#X obj 295 39 t f;
#X floatatom 295 64 5 0 0 0 selected: - global-selected-s, f 5;
#X floatatom 100 -98 5 0 0 0 - - -, f 5;
#X floatatom 137 -98 2 0 0 0 - - -, f 2;
#X obj 100 -148 r global-selected-list;
#X obj 142 -19 t b 1;
#X text 91 87 obsolete:;
#X connect 0 0 5 0;
#X connect 0 0 22 0;
#X connect 1 0 7 0;
#X connect 1 0 13 0;
#X connect 1 1 14 0;
#X connect 4 0 23 0;
#X connect 6 0 8 0;
#X connect 6 0 1 0;
#X connect 9 2 15 0;
#X connect 9 3 10 1;
#X connect 9 4 12 0;
#X connect 10 0 11 0;
#X connect 11 0 6 0;
#X connect 12 0 6 0;
#X connect 14 0 2 1;
#X connect 14 0 16 0;
#X connect 15 0 10 0;
#X connect 18 0 26 0;
#X connect 18 1 27 0;
#X connect 20 0 0 0;
#X connect 21 0 29 0;
#X connect 21 1 23 0;
#X connect 22 0 24 0;
#X connect 23 0 22 1;
#X connect 23 1 24 0;
#X connect 24 0 25 0;
#X connect 26 0 20 0;
#X connect 27 0 21 0;
#X connect 28 0 18 0;
#X connect 29 0 0 0;
#X connect 29 1 22 1;
#X coords 0 -1 1 1 94 32 1 235 50;
#X restore 360 17 pd select_track;
#X obj 130 213 bng 15 250 50 0 empty empty empty 17 7 0 10 #fcfcfc
#000000 #000000;
#X obj 178 256 s;
#X msg 198 231 symbol \$1-midibutton;
#X obj 159 209 t f b f;
#N canvas 546 248 458 409 createtrackifmissing 0;
#X obj 124 24 inlet;
#X text 163 25 button number;
#X obj 111 335 spigot;
#X obj 88 360 bng 15 250 50 0 empty empty empty 17 7 0 10 #fcfcfc #000000
#000000;
#X obj 60 21 loadbang;
#X obj 60 82 t 1 0;
#X obj 188 301 t 0 1 f 0;
#N canvas 771 275 450 325 createtrack 0;
#X obj 76 26 inlet;
#X floatatom 76 62 5 0 0 0 - - -, f 5;
#X obj 95 136 s;
#X msg 115 110 symbol \$1-bng-r;
#X obj 76 86 t 0 b f;
#X connect 0 0 1 0;
#X connect 1 0 4 0;
#X connect 3 0 2 1;
#X connect 4 1 2 0;
#X connect 4 2 3 0;
#X restore 111 363 pd createtrack;
#X floatatom 124 49 5 0 0 0 - - -, f 5;
#X floatatom 233 242 5 0 0 0 - - -, f 5;
#X obj 189 184 s;
#X msg 233 108 \$1-status;
#X obj 233 131 tools/receiver;
#X msg 211 158 symbol \$1-status-r;
#X obj 124 82 t f 1 f b f f 1 f, f 26;
#X connect 0 0 8 0;
#X connect 2 0 3 0;
#X connect 2 0 7 0;
#X connect 4 0 5 0;
#X connect 5 0 2 1;
#X connect 6 3 2 1;
#X connect 8 0 14 0;
#X connect 9 0 6 0;
#X connect 11 0 12 0;
#X connect 12 0 9 0;
#X connect 13 0 10 1;
#X connect 14 1 2 1;
#X connect 14 2 2 0;
#X connect 14 3 10 0;
#X connect 14 4 13 0;
#X connect 14 5 11 0;
#X restore 159 281 pd createtrackifmissing;
#X obj 435 160 r midishift;
#X floatatom 435 185 5 0 0 0 - - -, f 5;
#N canvas 160 463 450 325 midi_out_select 0;
#X obj 92 53 r global-selected-s;
#X floatatom 92 78 5 0 0 0 - - -, f 5;
#X connect 0 0 1 0;
#X restore 586 162 pd midi_out_select;
#N canvas 341 322 450 300 midiout_init 0;
#X text 25 21 tracks are off at loadbang;
#X obj 31 49 loadbang;
#X obj 31 74 bng 15 250 50 0 empty empty empty 17 7 0 10 #fcfcfc #000000
#000000;
#X msg 31 97 64 \, 90 520;
#X text 113 97 26 buttons between 64 and 90 \, 20ms each;
#X obj 31 122 line 20;
#X floatatom 31 147 5 0 0 0 - - -, f 5;
#X obj 31 171 t f 0;
#X obj 31 196 noteout 1;
#X connect 1 0 2 0;
#X connect 2 0 3 0;
#X connect 3 0 5 0;
#X connect 5 0 6 0;
#X connect 6 0 7 0;
#X connect 7 0 8 0;
#X connect 7 1 8 1;
#X restore 590 206 pd midiout_init;
#X connect 0 0 1 0;
#X connect 1 0 8 0;
#X connect 2 0 3 0;
#X connect 3 0 13 0;
#X connect 3 0 16 0;
#X connect 4 0 5 0;
#X connect 5 0 7 0;
#X connect 8 0 2 0;
#X connect 15 0 14 1;
#X connect 16 0 17 0;
#X connect 16 1 14 0;
#X connect 16 2 15 0;
#X connect 18 0 19 0;
#X restore 33 -471 pd apc_midi_control;
#N canvas 0 0 450 300 sidebuttons_config 0;
#X obj 75 78 s \$0-globalplaypause-r;
#X obj 75 53 select 97 90;
#X obj 71 16 r midibutton;
#X connect 1 0 0 0;
#X restore 33 -448 pd sidebuttons_config;
#N canvas 0 0 450 300 latency_test 0;
#X obj 103 150 bng 15 250 50 0 empty empty empty 17 7 0 10 #fcfcfc
#000000 #000000;
#X obj 139 150 bng 15 250 50 0 empty empty empty 17 7 0 10 #fcfcfc
#000000 #000000;
#X obj 93 93 r beat_num;
#X obj 103 182 realtime;
#X floatatom 103 207 5 0 0 0 - - -, f 5;
#X obj 89 113 select 0;
#X obj 160 111 r 56-recstart;
#X obj 160 136 bng 15 250 50 0 empty empty empty 17 7 0 10 #fcfcfc
#000000 #000000;
#X obj 140 43 r 56-playstart;
#X obj 140 68 bng 15 250 50 0 empty empty empty 17 7 0 10 #fcfcfc #000000
#000000;
#X connect 0 0 3 0;
#X connect 1 0 3 1;
#X connect 2 0 5 0;
#X connect 3 0 4 0;
#X connect 5 0 0 0;
#X connect 6 0 7 0;
#X connect 7 0 1 0;
#X connect 8 0 9 0;
#X connect 9 0 1 0;
#X restore 32 -368 pd latency_test;
#N canvas 600 57 588 507 OSCconnections 0;
#X obj 32 79 loadbang;
#X obj 32 274 mrpeach/udpsend;
#X obj 32 299 tgl 15 0 empty empty empty 17 7 0 10 #fcfcfc #000000
#000000 1 1;
#X msg 32 104 connect localhost 8080;
#X obj 133 213 mrpeach/packOSC;
#X msg 49 132 disconnect;
#X obj 38 23 bng 15 250 50 0 empty empty connect_to_8080 17 7 0 10
#fcfcfc #000000 #000000;
#X obj 38 42 bng 15 250 50 0 empty empty disconnect 17 7 0 10 #fcfcfc
#000000 #000000;
#X obj 155 6 tgl 17 0 empty empty Connected 32 6 0 10 #fcfcfc #000000
#000000 1 1;
#X obj 287 95 list split 1;
#X msg 287 123 send /zig/dsp\$1;
#X obj 286 150 list append;
#X msg 463 51 /metro dfdf 45 ff;
#X obj 285 172 list trim;
#X obj 292 21 import mrpeach;
#X obj 236 365 s fromdsp;
#X obj 287 72 r todsp;
#X obj 463 76 s todsp;
#X text 264 199 converts any message \; [/param arg1 arg2 argn( \;
into \; [send /zig/dsp/metro/param arg1 arg2 argn(;
#X obj 236 315 routeOSC /zig;
#X obj 236 339 routeOSC /ui;
#X obj 144 362 spigot;
#X obj 155 28 tgl 15 0 empty empty printOSC\ in 17 7 0 10 #fcfcfc #000000
#000000 0 1;
#X obj 155 45 tgl 15 0 empty empty printOSC\ out 17 7 0 10 #fcfcfc
#000000 #000000 0 1;
#X obj 18 362 spigot;
#X obj 143 386 print OSCin_fromdsp;
#X obj 17 386 print OSCout_todsp;
#X obj 236 292 unpackOSC;
#X obj 357 296 print;
#X obj 236 271 udpreceive 8081;
#X obj 473 145 loadbang;
#X obj 473 170 t 0 0;
#X connect 0 0 3 0;
#X connect 1 0 2 0;
#X connect 2 0 8 0;
#X connect 3 0 1 0;
#X connect 4 0 1 0;
#X connect 5 0 1 0;
#X connect 6 0 3 0;
#X connect 7 0 5 0;
#X connect 9 0 10 0;
#X connect 9 1 11 1;
#X connect 10 0 11 0;
#X connect 11 0 13 0;
#X connect 12 0 17 0;
#X connect 13 0 4 0;
#X connect 13 0 24 0;
#X connect 16 0 9 0;
#X connect 19 0 20 0;
#X connect 20 0 15 0;
#X connect 21 0 25 0;
#X connect 22 0 21 1;
#X connect 23 0 24 1;
#X connect 24 0 26 0;
#X connect 27 0 19 0;
#X connect 27 0 21 0;
#X connect 29 0 27 0;
#X connect 30 0 31 0;
#X connect 31 0 23 0;
#X connect 31 1 22 0;
#X coords 0 -1 1 1 212 59 1 35 4;
#X restore 32 -614 pd OSCconnections;
#N canvas 208 313 450 325 OSCconnect_dsp 0;
#X obj 65 52 bng 15 250 50 0 empty empty connect_to_8081 17 7 0 10
#fcfcfc #000000 #000000;
#X obj 65 71 bng 15 250 50 0 empty empty disconnect 17 7 0 10 #fcfcfc
#000000 #000000;
#X obj 182 35 tgl 17 0 empty empty Connected 32 6 0 10 #fcfcfc #000000
#000000 1 1;
#X obj 182 57 tgl 15 0 empty empty printOSC\ in 17 7 0 10 #fcfcfc #000000
#000000 0 1;
#X obj 182 74 tgl 15 0 empty empty printOSC\ out 17 7 0 10 #fcfcfc
#000000 #000000 0 1;
#X msg 79 164 /oscconnect/connect;
#X msg 79 194 /oscconnect/disconnect;
#X obj 317 137 r fromdsp;
#X obj 317 162 routeOSC /oscconnect;
#X obj 317 187 routeOSC /status;
#X floatatom 317 212 5 0 0 0 - - -, f 5;
#X obj 78 254 s todsp;
#X msg 137 136 /oscconnect/printIn \$1;
#X msg 143 236 /oscconnect/printOut \$1;
#X obj 7 108 loadbang;
#X obj 288 38 tgl 15 0 empty empty Show\ DSP\ ui 17 7 0 10 #fcfcfc
#000000 #000000 0 1;
#X msg 245 202 /vis \$1;
#X obj 7 133 t 0 0 b b;
#X connect 0 0 5 0;
#X connect 1 0 6 0;
#X connect 3 0 12 0;
#X connect 4 0 13 0;
#X connect 5 0 11 0;
#X connect 6 0 11 0;
#X connect 7 0 8 0;
#X connect 8 0 9 0;
#X connect 9 0 10 0;
#X connect 10 0 2 0;
#X connect 12 0 11 0;
#X connect 13 0 11 0;
#X connect 14 0 17 0;
#X connect 15 0 16 0;
#X connect 16 0 11 0;
#X connect 17 0 4 0;
#X connect 17 1 3 0;
#X connect 17 2 5 0;
#X connect 17 3 6 0;
#X coords 0 -1 1 1 313 61 1 62 31;
#X restore 32 -549 pd OSCconnect_dsp;
#N canvas 475 228 450 443 midisetup 0;
#X obj 37 26 bng 15 250 50 0 empty empty Connect\ MIDI\ devices 17
5 0 10 #fcfcfc #000000 #000000;
#X obj 37 49 t b b b;
#X obj 224 12 loadbang;
#X msg 73 84 aconnect 132:2 'APC MINI' &;
#X msg 73 138 aconnect 'APC MINI' 132:0 &;
#X msg 73 186 aconnect 'MPKmini2' 131:0 &;
#X obj 73 112 shell;
#N canvas 981 308 450 325 clear_apc_leds 0;
#X obj 101 85 t b b;
#X msg 165 110 0;
#X floatatom 101 160 5 0 0 0 - - -, f 5;
#X obj 101 223 noteout 1;
#X obj 101 184 t f 0;
#X obj 101 64 bng 15 250 50 0 empty empty empty 17 7 0 10 #fcfcfc #000000
#000000;
#X obj 100 31 inlet;
#X msg 101 110 127 1270;
#X obj 101 135 line 10;
#X connect 0 0 7 0;
#X connect 0 1 1 0;
#X connect 1 0 8 0;
#X connect 2 0 4 0;
#X connect 4 0 3 0;
#X connect 4 1 3 1;
#X connect 5 0 0 0;
#X connect 6 0 5 0;
#X connect 7 0 8 0;
#X connect 8 0 2 0;
#X restore 55 347 pd clear_apc_leds;
#X obj 73 161 shell;
#X obj 73 219 shell;
#X obj 75 281 shell;
#X msg 75 248 aconnect 'MPKmini2' 132:1 &;
#X connect 0 0 1 0;
#X connect 1 2 3 0;
#X connect 2 0 1 0;
#X connect 3 0 6 0;
#X connect 4 0 8 0;
#X connect 5 0 9 0;
#X connect 6 1 4 0;
#X connect 8 1 5 0;
#X connect 9 1 11 0;
#X connect 10 1 7 0;
#X connect 11 0 10 0;
#X coords 0 -1 1 1 151 32 1 33 12;
#X restore 32 -419 pd midisetup;
#N canvas 363 178 546 392 current_apc_config 0;
#X obj 47 43 cnv 15 505 315 empty empty empty 20 12 0 14 #383838 #404040
0;
#X obj 61 72 cnv 15 48 21 empty empty 56 2 4 0 9 #e0e0e0 #404040 0
;
#X obj 118 72 cnv 15 48 21 empty empty empty 20 12 0 14 #e0e0e0 #404040
0;
#X obj 174 72 cnv 15 48 21 empty empty empty 20 12 0 14 #e0e0e0 #404040
0;
#X obj 230 72 cnv 15 48 21 empty empty empty 20 12 0 14 #e0e0e0 #404040
0;
#X obj 286 72 cnv 15 48 21 empty empty empty 20 12 0 14 #e0e0e0 #404040
0;
#X obj 343 72 cnv 15 48 21 empty empty empty 20 12 0 14 #e0e0e0 #404040
0;
#X obj 399 72 cnv 15 48 21 empty empty empty 20 12 0 14 #e0e0e0 #404040
0;
#X obj 455 72 cnv 15 48 21 empty empty 63 2 4 0 9 #e0e0e0 #404040 0
;
#X obj 61 103 cnv 15 48 21 empty empty empty 20 12 0 14 #e0e0e0 #404040
0;
#X obj 118 103 cnv 15 48 21 empty empty empty 20 12 0 14 #e0e0e0 #404040
0;
#X obj 174 103 cnv 15 48 21 empty empty empty 20 12 0 14 #e0e0e0 #404040
0;
#X obj 230 103 cnv 15 48 21 empty empty empty 20 12 0 14 #e0e0e0 #404040
0;
#X obj 286 103 cnv 15 48 21 empty empty empty 20 12 0 14 #e0e0e0 #404040
0;
#X obj 343 103 cnv 15 48 21 empty empty empty 20 12 0 14 #e0e0e0 #404040
0;
#X obj 399 103 cnv 15 48 21 empty empty empty 20 12 0 14 #e0e0e0 #404040
0;
#X obj 455 103 cnv 15 48 21 empty empty empty 20 12 0 14 #e0e0e0 #404040
0;
#X obj 61 134 cnv 15 48 21 empty empty empty 20 12 0 14 #e0e0e0 #404040
0;
#X obj 118 134 cnv 15 48 21 empty empty empty 20 12 0 14 #e0e0e0 #404040
0;
#X obj 174 134 cnv 15 48 21 empty empty empty 20 12 0 14 #e0e0e0 #404040
0;
#X obj 230 134 cnv 15 48 21 empty empty empty 20 12 0 14 #e0e0e0 #404040
0;
#X obj 286 134 cnv 15 48 21 empty empty empty 20 12 0 14 #e0e0e0 #404040
0;
#X obj 343 134 cnv 15 48 21 empty empty empty 20 12 0 14 #e0e0e0 #404040
0;
#X obj 399 134 cnv 15 48 21 empty empty empty 20 12 0 14 #e0e0e0 #404040
0;
#X obj 455 134 cnv 15 48 21 empty empty empty 20 12 0 14 #e0e0e0 #404040
0;
#X obj 61 165 cnv 15 48 21 empty empty empty 20 12 0 14 #e0e0e0 #404040
0;
#X obj 118 165 cnv 15 48 21 empty empty empty 20 12 0 14 #e0e0e0 #404040
0;
#X obj 174 165 cnv 15 48 21 empty empty empty 20 12 0 14 #e0e0e0 #404040
0;
#X obj 230 165 cnv 15 48 21 empty empty empty 20 12 0 14 #e0e0e0 #404040
0;
#X obj 286 165 cnv 15 48 21 empty empty empty 20 12 0 14 #e0e0e0 #404040
0;
#X obj 343 165 cnv 15 48 21 empty empty empty 20 12 0 14 #e0e0e0 #404040
0;
#X obj 399 165 cnv 15 48 21 empty empty empty 20 12 0 14 #e0e0e0 #404040
0;
#X obj 455 165 cnv 15 48 21 empty empty empty 20 12 0 14 #e0e0e0 #404040
0;
#X obj 61 196 cnv 15 48 21 empty empty empty 20 12 0 14 #e0e0e0 #404040
0;
#X obj 118 196 cnv 15 48 21 empty empty empty 20 12 0 14 #e0e0e0 #404040
0;
#X obj 174 196 cnv 15 48 21 empty empty empty 20 12 0 14 #e0e0e0 #404040
0;
#X obj 230 196 cnv 15 48 21 empty empty empty 20 12 0 14 #e0e0e0 #404040
0;
#X obj 286 196 cnv 15 48 21 empty empty empty 20 12 0 14 #e0e0e0 #404040
0;
#X obj 343 196 cnv 15 48 21 empty empty empty 20 12 0 14 #e0e0e0 #404040
0;
#X obj 399 196 cnv 15 48 21 empty empty empty 20 12 0 14 #e0e0e0 #404040
0;
#X obj 455 196 cnv 15 48 21 empty empty empty 20 12 0 14 #e0e0e0 #404040
0;
#X obj 61 227 cnv 15 48 21 empty empty empty 20 12 0 14 #e0e0e0 #404040
0;
#X obj 118 227 cnv 15 48 21 empty empty empty 20 12 0 14 #e0e0e0 #404040
0;
#X obj 174 227 cnv 15 48 21 empty empty empty 20 12 0 14 #e0e0e0 #404040
0;
#X obj 230 227 cnv 15 48 21 empty empty empty 20 12 0 14 #e0e0e0 #404040
0;
#X obj 286 227 cnv 15 48 21 empty empty empty 20 12 0 14 #e0e0e0 #404040
0;
#X obj 343 227 cnv 15 48 21 empty empty empty 20 12 0 14 #e0e0e0 #404040
0;
#X obj 399 227 cnv 15 48 21 empty empty empty 20 12 0 14 #e0e0e0 #404040
0;
#X obj 455 227 cnv 15 48 21 empty empty empty 20 12 0 14 #e0e0e0 #404040
0;
#X obj 61 258 cnv 15 48 21 empty empty empty 20 12 0 14 #e0e0e0 #404040
0;
#X obj 118 258 cnv 15 48 21 empty empty empty 20 12 0 14 #e0e0e0 #404040
0;
#X obj 174 258 cnv 15 48 21 empty empty empty 20 12 0 14 #e0e0e0 #404040
0;
#X obj 230 258 cnv 15 48 21 empty empty empty 20 12 0 14 #e0e0e0 #404040
0;
#X obj 286 258 cnv 15 48 21 empty empty empty 20 12 0 14 #e0e0e0 #404040
0;
#X obj 343 258 cnv 15 48 21 empty empty empty 20 12 0 14 #e0e0e0 #404040
0;
#X obj 399 258 cnv 15 48 21 empty empty empty 20 12 0 14 #e0e0e0 #404040
0;
#X obj 455 258 cnv 15 48 21 empty empty empty 20 12 0 14 #e0e0e0 #404040
0;
#X obj 61 289 cnv 15 48 21 empty empty 0 2 4 0 9 #e0e0e0 #404040 0
;
#X obj 118 289 cnv 15 48 21 empty empty empty 20 12 0 14 #e0e0e0 #404040
0;
#X obj 174 289 cnv 15 48 21 empty empty empty 20 12 0 14 #e0e0e0 #404040
0;
#X obj 230 289 cnv 15 48 21 empty empty empty 20 12 0 14 #e0e0e0 #404040
0;
#X obj 286 289 cnv 15 48 21 empty empty empty 20 12 0 14 #e0e0e0 #404040
0;
#X obj 343 289 cnv 15 48 21 empty empty empty 20 12 0 14 #e0e0e0 #404040
0;
#X obj 399 289 cnv 15 48 21 empty empty empty 20 12 0 14 #e0e0e0 #404040
0;
#X obj 455 289 cnv 15 48 21 empty empty 7 2 4 0 9 #e0e0e0 #404040 0
;
#X obj 524 72 cnv 15 21 21 empty empty 82 1 4 0 9 #e0e0e0 #404040 0
;
#X obj 524 103 cnv 15 21 21 empty empty empty 20 12 0 14 #e0e0e0 #404040
0;
#X obj 524 134 cnv 15 21 21 empty empty empty 20 12 0 14 #e0e0e0 #404040
0;
#X obj 524 165 cnv 15 21 21 empty empty empty 20 12 0 14 #e0e0e0 #404040
0;
#X obj 524 196 cnv 15 21 21 empty empty empty 20 12 0 14 #e0e0e0 #404040
0;
#X obj 524 227 cnv 15 21 21 empty empty empty 20 12 0 14 #e0e0e0 #404040
0;
#X obj 524 258 cnv 15 21 21 empty empty empty 20 12 0 14 #e0e0e0 #404040
0;
#X obj 524 289 cnv 15 21 21 empty empty 89 2 4 0 9 #e0e0e0 #404040
0;
#X obj 72 328 cnv 15 21 21 empty empty 64 2 4 0 9 #e0e0e0 #404040 0
;
#X obj 130 328 cnv 15 21 21 empty empty empty 20 12 0 14 #e0e0e0 #404040
0;
#X obj 187 328 cnv 15 21 21 empty empty empty 20 12 0 14 #e0e0e0 #404040
0;
#X obj 243 328 cnv 15 21 21 empty empty empty 20 12 0 14 #e0e0e0 #404040
0;
#X obj 299 328 cnv 15 21 21 empty empty empty 20 12 0 14 #e0e0e0 #404040
0;
#X obj 357 328 cnv 15 21 21 empty empty empty 20 12 0 14 #e0e0e0 #404040
0;
#X obj 414 328 cnv 15 21 21 empty empty empty 20 12 0 14 #e0e0e0 #404040
0;
#X obj 470 328 cnv 15 21 21 empty empty 71 2 4 0 9 #e0e0e0 #404040
0;
#X text 516 9 launch scene, f 6;
#X obj 524 327 cnv 15 21 21 empty empty 98 2 4 0 9 #e0e0e0 #404040
0;
#X text 573 74 Toggle Cfg;
#X text 571 9 When track is selected:, f 12;
#X text 573 138 Rec;
#X text 554 328 SHIFT / REC if empty;
#X text 572 170 Stop;
#X text 531 80 90;
#X text 531 296 97;
#X text 477 336 79;
#X text 79 336 72;
#X text 61 366 + 1 bar;
#X text 121 367 - 1 bar;
#X text 173 367 output -1;
#X text 232 367 output +1;
#X obj 61 54 cnv 5 48 8 empty empty empty 20 12 0 14 #fc0000 #404040
0;
#X obj 118 54 cnv 5 48 8 empty empty empty 20 12 0 14 #fc9800 #404040
0;
#X text 571 104 Clear;
#X restore 32 -338 pd current_apc_config;
#X obj 211 -432 faders_knobs;
#X restore 3 80 pd settings;
#X obj 87 501 matrix_thumb_output 1;
#X obj 176 501 matrix_thumb_output 2;
#X obj 264 501 matrix_thumb_output 3;
#X obj 352 501 matrix_thumb_output 4;
#X obj 440 501 matrix_thumb_output 5;
#X obj 528 501 matrix_thumb_output 6;
#X obj 616 501 matrix_thumb_output 7;
#X obj 704 501 matrix_thumb_output 8;
#X obj -1 519 import mrpeach;
