#N canvas 3 51 426 277 10;
#X symbolatom 61 188 30 0 0 0 - - -, f 30;
#X obj 61 144 stringsplit 15;
#X floatatom 219 112 5 0 0 1 length - -, f 5;
#X msg 61 78 wave-recorder(stampalbum);
#X msg 71 100 (unchanged);
#X connect 1 0 0 0;
#X connect 2 0 1 1;
#X connect 3 0 1 0;
#X connect 4 0 1 0;
